<mxfile host="Electron" agent="Mozilla/5.0 (Windows NT 10.0; Win64; x64) AppleWebKit/537.36 (KHTML, like Gecko) draw.io/24.7.8 Chrome/128.0.6613.36 Electron/32.0.1 Safari/537.36" version="24.7.8">
  <diagram name="Page-1" id="Bcc2UwYoAsyh1knTW7F2">
    <mxGraphModel dx="4614" dy="2216" grid="0" gridSize="10" guides="1" tooltips="1" connect="1" arrows="1" fold="1" page="1" pageScale="1" pageWidth="850" pageHeight="1100" background="none" math="0" shadow="1">
      <root>
        <mxCell id="0" />
        <mxCell id="1" parent="0" />
        <mxCell id="KSPsMHYclhgwiSTDB3hw-1" value="" style="shape=image;verticalLabelPosition=bottom;labelBackgroundColor=none;verticalAlign=top;aspect=fixed;imageAspect=0;image=data:image/png,iVBORw0KGgoAAAANSUhEUgAAB/0AAAMiCAIAAAAD7EdPAAAAAXNSR0IArs4c6QAAAARnQU1BAACxjwv8YQUAAAAJcEhZcwAAHYcAAB2HAY/l8WUAAAASdEVYdFNvZnR3YXJlAEdyZWVuc2hvdF5VCAUAAP+HSURBVHhe7P2JexVlnv//zx/yua5A43xdWnRQW5TfYCsjY9szLj24NY2Ktk6j2IwmCBiI7IuAIruAbEpAREFBQUEWQUU2WUxYZYewb1lIIIu/F3kXt0XVOSeV5GTh8HxcdeXKueuuqnurOqfep07Vv/yacrYeKNXkvagz/+++iZq8FyHr2t6lyXuBWqufPkX9o2dTD32aeujTVEXPph76NFXRs6mHPk099GmqomdTD32aqujZmP7F2oWJiYmJiYmJiYmJiYmJiYmJiYmJiYmJKQUm4v5MTExMTExMTExMTExMTExMTExMTExMqTP9SzEAAAAAAAAAAEgVxP0BAAAAAAAAAEgdxP0BAAAAAAAAAEgdxP0BAAAAAAAAAEgdxP1Rfy5cuFBRXv4r6oyaV43sNTcAAAAAAACAaxJxf9STCxcueMFp1DFC/wAAAAAAAMC1jLg/6glX+tcbNbXX6AAAAAAAAACuPcT9UU+8mDTqhdfoAAAAAAAAAK49xP1RT7yANOqF1+gAAAAAAAAArj3E/VFPvIA06oXX6AAAAAAAAACuPcT9UU+8gDTqhdfoAAAAAAAAAK49xP1RT7yANOqF1+gAAAAAAAAArj3E/VFPvIA06oXX6AAAAAAAAACuPcT9UU+8gDTqhdfoAAAAAAAAAK49xP1RT7yANOqF1+gAAAAAAAAArj3E/VFPvIA06oXX6AAAAAAAAACuPcT9UU+8gDTqhdfoAAAAAAAAAK49xP1RT7yANOqF1+gAAAAAAAAArj3E/VFPvIA06oXX6AAAAAAAAACuPcT9UU+8gDTqhdfoAAAAAAAAAK49xP1RT7yANOqF1+gAAAAAAAAArj3E/VFPvIA06oXX6AAAAAAAAACuPXUS9+/Wrdv//d//5eXlea+rSQu+9NJLGRkZ3mukBC8gjXrhNToAAAAAAACAa0+dxP3//ve/P/DAA88991wNQv9aRAtq8f/7v//zkpASvIA06oXX6AAAAAAAAACuPXUS9z9y5Mizzz77wAMP6K/+91IjOHz4cM0WvJadOXNm+PDhPXr02LZtm5fUKHkB6avB5l2Ft3dcnz7yF+91fTl66sK9nTdp0j9eUk15jQ4AQAOZNGlS4/9wAgAAAACpqq7u71+D0P/hw4c7dOjQyIP+n3322Wuvvaa/3usrNUgI/hqJ+4/99PD/98Qa/3THc+szRv2y6+B5L0fyEPe3ce6nATZp0qQ9e/Z4OerFjh07evbsOXDgwBrfNKyRC7dz165dhw4dumnTpvPnz3uZ0KASH/MT0JH53Xff7dat2+rVq72kOFJ+nEeh9y8dZGwviMdaUn/VqmpbtbAtWxvRu+mqVlRUtGHDhvfee++NN96wxlRrjxgxYs2aNZrlZaoDVcb9GfwAAAAAUHfq8Lm+/tD/4cOHvdQ4roqgvySOARH3T8ALSNeUxf3veG79vS9v1PTHlzbe/Le1StHfL78/5WVKEuL+Ns41qN6slJWV1bVrV6Xo73fffedlqnvXSNzftbPof6Wkp6drFqH/xiDxMT+BmAHlXbt2TZo06YsvvvBeV6rxOD958uS8efPGjx+flAh4w1LLqAW83eDNNy087d81ZMOGDcpJ3L+69uzZM2TIELWnv0lVZb3UP3X6iYu4PwAAAAA0oDqM+4sL/Xfo0CFB6P9qCfpL4hhQg4TgG2SjNeAFpGvK4v76673+9deLpRXZXx+7+W9r737xp+37i7zUZCDuHx7nBQUFixcv7tq1a8+ePX/55RcvFbUTbueioqLvv/9eu3P37t1zcnK8VDSccB/VRnLXpmO+hoqO/ykQ9w9YvXp1EhvqWpabm/vGG2+kp6dPnDjxwIEDXmpx8fnz53fv3j19+vSjR496SXWA+/wAAAAAQAOq27i/VBn6d0H/559/vpEH/SVx1Ia4fwJeQLqmwnF/qaj4ddD0/Uqf+Fmel5QMxP1jjvPz58/PmjVL6QsWLPCSUDvxjidz5sxR+ty5c73XaDjx+qhmkrs24v5I7ODBg3379u3ates333zTIL8fIu4PAAAAAA2ozuP+cuTIkeeffz5m6N8f9D9+/LiX2ogljtoQ90/AC0jXVMy4vyxdd/qGJ9ckN0ZP3D/eOF+7dm16evqkSZO816ideO1sQU/auTGI10c1k9y1EfdHAufPn//www/VjPPmzWuom4YR9wcAAACABlQfcX85fvx4OPR/1QX9JXHUJl4IvqioaOXKlf369UuvpH/0MvAwvUOHDmVnZ2dlZSmDNqF/vvzyy3PnznmzL1OjTZ48WZtQnm7duun/vXv3xtyoCjNr1iy7S3LXrl1Hjhy5e/dub14lixnptFxbUU7lUeadO3dqli3bs2dPLavy9O7de+nSpbZUjXkB6ZqKF/ffuLPgtmd/i9EfPl7Sf8q+e17aeMOTl579q3+mLDhSfKFcsyoqfs2auDfmSkrLKv75zq6b/rp22YYzehkz7q/Ff9pR8PzA7bc+vU4rufGptX9O3zJn6XFbuVNWXrF2a76y3fHcesv2WGbO6p/PafGAHfuL3Nru/PuGwR/s33O4uJHH/bdu3dq9e3cXj04whCTBCNy1a5fStSOEbzGxbt26jIyM9957r7Cw8MiRI2+++WY4rGl7gd2f2vYCd1Q5cOCA9p3+/fsHDikffPCBMn/99dfe60rLly9X4sKFC73X9S5eO3///fdK/+ijj7zXlRLU2pw/f37Tpk1Dhw5Va1ueMWPGuB9R2bZWr17t75eY6zFaUEckOwiI/tHLwE+y/ANAxyu1vFtnoGftGDhgwAB1rvJoqWnTpvm71RXeMsQ7ANa/cB+5lvT3iAqsgVRQUOBlquQPetpSAbbamOP8xIkTmtunTx9rEPWXes1lsJa3lTj+NajB16xZ4waD/ur/8ENcXQm1a2t/VM4pU6Z48xpUgri/G3Xea1+P7NmzR8cZVVaNNn78eBvYJ0+eVKVcNy1evDheI9hL1x2nT592b9x2BIv5YHMd1kaNGmXrVzd9/vnn+/fv1xoksL/UMzsYxjzMxqPxo8bUO759DrF2jlnriDkDbSt23yG1pz0qJubgF72M9/ZhEh/uAAAAAABST3F/CYT+dUZ61QX9xeILMYMRojNVnb4GznJPnz49btw4LaUz2PGVunfvrlPl6dOnFxYWWh479VWiTtHff/99y6NFpk6d6vLI1q1bLQynk3mdTo8ePVrnuv3799dSgY3u2LHDv0KVKiMjQ5lX+x5daNGTiRMn2iWBYiuxOwNo2UGDBk2ePPmdd97Rgtqct1hNeQHpmooX9/90+Qmlv/XhAf1v18vf8OSa//y/za+P2f3K8J23PXsp+J753p7Ssktx9/Xb8v/tmfV/fXNr4fmyyqU9+4+W/PGlje3eyDlXeCk9HPe/WFoxYOo+rfnGp9b+pXtOj3G7Xxy8w0L2Hftvs6XM12tOK/Hmv639W++tyqZtaRG9/OrHKx4+vPCHU1rcFVWZleeJnrmtXvypMcf9LVDu4tHxhpBmJR6BGtVjx47VXP+AFKW/9957yrlu3Tq9jBkSWrNmjbaiPIMHD9b41CjVerRfaIuaa2t+/fXXN2/ebPnl5MmTyqziaZbboc6fPx+OSdWzmO2sEqrFXCOYxLUWVUfrUaIOHTqAqGq9e/fWMcfVzrb1xRdfDBgwwI5FyqMjiRL1Mjc317IZ25xm2aHG5dQWdRTyMl0eAOoyFcm2K3bsGjp06IkTJyxbQUGBMtjiWpXy6B/1rAvSKUN2drYKrxGiw5ryKIPyJ+vZrbUR7iPXkjpO9unTxw1vlX/OnDnqCC/flUHPtWvXqhFsHFonihI1KzzO7a1EOV37W4PoaGx59Ab6wQcfjBkzRtu1VtXaPv/8c/umxL3pdO3a9e2339Ys/dX/KqHeU/xfTmhBlXDp0qW2flGKN69B1SDuP6vyu2q1m2suDfXt27cPHDjQmsh10/z5870lK1kjuD3FumPYsGGzZ8/WkcQ/IJW+f/9+y2a+++47a1g70Fk7jxgxQvn9I7xBuJ9n+cdkAnbQVjXt+KDqqFJag/bK77//3stUKXrOQNvu2bNHu4yaaOXKlVaqmAf5xG8fUuXhDgAAAAAg9Rf3l6NHj77wwgsPPPDAM8880759e/2jl8eOHfNmXw0svpCY/yxXZ6cWEtW5q7t29eTJkxYd2LBhg6WoZZTNf9Xt8ePHBw8enJmZ6S6gU0MNGDBAS/lv1KtVjR07NrBRl9OdWsvPP/+ss2KluwZXfi2l82pt6KeffnI5P/roI63wiy++cCkqee1Pp72AdE3FjPufKyx7slfuvz2zfv22fL08fvpin/f3Hj7xW9D8xNmLf+mec9cLG3YeOK+Xyt/ujRyX3/lw0VGt/O2ZB+1lOO7/waKjNzy5Rqs6cLTES/r11zP5pZ3e2qEFtVF3Of/KjWfHfXrY/yOAVZvPaovPD9juErfvL7r7xZ/u/PsGZbYU0Zq1fq2t0cb9T58+PWzYsO6+583GG0JRRuC3334bjknZBapvvfWWtqWX4ZDQL7/80rNnT61Ha7MULa6taFujRo2yXezrr78OFF4FVrFff/313r175+XlWaJ2sf79+6vk2okspf6F21lVmDNnTkZGhquORKn1/v37e/Xqpb7whxqV6F7atrSeGTNmuDUXFBRoc+qIESNGBDannl29erXrnaKiIh0TtMXwMUSlfeedd1wz2rFL21q+fLmlbN68WY3vYtai1e7cudO9VJepDDoqupWoMDpmKjHwE436F+4jS1FTzJs3z105rvGvMaYu8MeFA0FPCa9NwuNc/2RnZ/svcFaD6FCvpnbvGmLtH4iZqm3tTUf5/WNbO5f6JdCkKqGKPXDgwMDPLxpcDeL+qohdQi46gGi8KVHvofrHjidiYfrA74EC3WTdoabW3rRv3z5LtPbXCv2/wnE7pr9TtEjfvn2VUyvx74z1z5ol4uNY3EFbu7kb1RpL6gg1jqrpHucePaf42zbmwwbCgz/K20eVhzsAAAAAgNRr3F90sm1X/cvVdaW/sRNpncfqTDUsKytLJ6v+CMKePXsyMzOHDBniLn01djOTDz74wHsdi8Xf3QVuFs2cPn26OxM2+/bt0wmwf6OW8+OPP/bn1P9a1h82suiJCuyPWYhO1APRpaTwAtI1FYj7XyytWJOb/5celwLlPcbt1ktLD3vrwwPK8/Wa0/Zy6hdH9NKF+KX4Qvmz/bbd+fcN2/YVWUog7n/y7MUHX9viz+DYDwU06R8vKeRsQelfuuf4o/m9J1263ZBKYi+dH3PO/dsz6xth3L+goGDz5s0axkqcPHmyu1443hCKMgKPHj3ar18/7TIHDhywDBK48U44JKRdJj09fdmyZfbSnDt3bsSIEe5LMtvpRo4c6QLZqog2lJ2d7R/YFowO3EunngWOJ3YAUSHff/99fxA2Sq2tL/y1DrBtBWLEcvr06bfeesv/dY7dEyl8+yP7NYZK8u2331qKbVTHHxceNdaPqoW9tBhuvMOdfQETXondDCpBjepHYF8QSxk/frz/wnn7oYkaxy7hN4GAsoTXJuFxHpO1qn9Za//Agjb+tXOF7+5iX4C579VEJdQ6/V8yNRI1iPvbzcG8pMo1qDsC7a+GGjp0qMaV+6GMBLrJukMNtWnTJksx7uurs2fPWkq8PUULanGtpGHD0NYs7iNEYvE+YIg9Zlx/7WX0nOLaVqNx2LBhOr6pufwLhgd/lLcPGwMNfnAAAAAAgEaOuH/12Il0zGCE6MRVp6/+CEI4UmPsarVAvObQoUPffvvtBx988NZbb/Xs2TO98ra5dtKuk94JEya8fuXdS0xgoxZ+8pfBCRTGzpzD1zvrrFubHjRo0M6dO8Mn9jXmBaRryuL+gemGJ9dkjPqlqPiKm/YcPl7y+cqTvSftbfdGTqsXf1Ie5XRx/8AtfWTbvqI7/77hn+/ssnsBSSDuvyb33K1Pr+s0dKfL4FRU/KoCaBNL13nrl7LyCq1h+pdHtIb//L/NdqN/F80vOH/pNwr/v3/8tO9IsE2UQdkaT9w/QKNi0qRJ/hEbcwhFHIEWx9E6XRA5EMiWQEhIW9G2/NfsO/4vyWyP0P5lV17bSxVpx44db7zxhgv0qxh18f1WtYTbuXv37v6rXCVird1FsvPmzfP3kWPbinnx79y5czVLvaP/bXOu9QIsluoC+jYAwtE3ew6ES3c/IFi2bJk/Vm4snKqhFTjaWEkaSfDUBq2xFB0nvdeXWTP60wMBZQmvTcKhT3PixInvv/9+5syZ77zzjnpEwzWwrLV/YEHby2J+oWX7gj/qrRIqs3V9o6KRFm4oY7VWyb3Xl1s1UAvLNnToUH/j2DtpoFMC3WTdEX5GiHbALN+zQ7RarTzmnmJrkMYwdKN0rh20Y37AEGtJ+8Ijek5LsbbVYVaJGsDz588P7OaBwR/x7aPKwx0AAAAAQOo17q+zZbvPz9OV9I9eXl2hfzuRjhmMEIuq+E9ZLX887lz39OnTdiGtEnUq26dPn/Hjxw+uvFdGzFCmX2Cj9rJy9bG5wtsp+oQJEwLn4VqDztWtMCrJ0qVLk3JJnReQrimL+9/x3Pp7X96o6b+7/txvyr4d+4v8z8s9V1j2z7d3WaD/5r+tbfPKpleG73yk28/+uL9F6m99et2a3HOW8vbMg+6JviYQ97db9tsjBMKsYJ8uP2Evc3YX3v/PTUrRpNKqnK+9+8vdvrv2W3D/L91zzhaU2iJOY4v7a3hY9GrQoEEzZszYvXt3YKjEHELRR6AFfN1VunZ9t/+i3UBIyF56a4nFdhbRJjSA7aWtdvny5VYwW5uG9MiRI2NeE12frJ2tQYqKijZs2KAK6gjgblci0Wv9008/9ay8C7nWoF3YfX1ibFsus5+/GLY5HXz83+U41uNjLz8mwV76I7DG0l3HaXjoMNKt8sGn3bt3DzwfWEVSejwqjD9z/fM3jonXkuGcgYCyhPOItblrLikoKJg1a5YF+vVXR/7Ro0e/U3njGv+ygXY2tol40V4VyR+01Uv1iP+ZDY2EjYpAQ5nwqLMqB3okZuNIuFMCKeHuMJYuNiDtZcw9JZCzoVigPMpPmlRT1Tfet33+mkbPaSlqWw3g3r17qyTz5s0LvIOILeJa29avzPG4IZH4cAcAAAAAkAZ7rq9cC8/1tfzvvPPOpWc4hthjGAsLC6dOnZqenq6UQ4cO2YLij2XYmrOyssLX/AY2ai+7d+8+YcIE20qAuw2FhUX80RM/nUVrls6oVQadlvvvilAzXkC6pgL3+QkrLavIfG/PDU9euu3P4eO/3XXHFnRxf1m24cxNf13be9Je/W93/H/g1c3HT1+0uRIz7j/q40P2MsDWv/CHS4/tzTt5QavSstlfH3O/Qig8X/bXN7cG4v5P9sotuPLZwtLY4v7xxrkTcwhFH4F2hxkXQtLmMq58mG0gJGQve15+immYG6X2jYLdWObrr792vyH46KOP7H9tUdvVesJxqPoUbufc3Nw33nhDZXM3vYlea9HxZOnSpX369NFqdUjJzs5219fbtsLRarFZ9lMA21zgKmnHetx90xPvGGLpruOM/teGXKjO3e7DIryDLz/qNmDWrFmnTp2yNTSIcB/Fa8lwTrWM2kGt4b2OlUcC41zmz5+v7hs5cqT/yzZrKP+yMdvZNhF4vKqjIvkD/eESNhLhyjrhUWdVDvRIzMaRcJUDKeHuMJYu+se9DGeTQM6GEr6tUzyqgioS8wOGWHXsmBA9p6XYeBs9erTGs/bx8FKBZrT1R3n7kASHOwAAAACA1FPcPxD0t8SrMfRv8YWYwQixU1Z/BMHuVJv4wXpHjx7ViWv4rgJ272CLZZw9e/add97xx2scbVSn2W6jdiGz/04O8VhYxB89CdPKP/74Y51RDxw4MPCIguryAtI1VWXc//jpi//xz00Pvrbl5NnfIvhiN9P3x/0t1m85V248e9Nf1/pv9y+BuL/lSXCfH821J/QuXXf6hifX2DcKjj0ewEXzrZx/fGlj3slgcF8pSr/a4/7RR6AsXLhQG9JuYt8BBEJUgZCQdhDtJtpZqrxI324RI1pk7Nix7oYzGzZsyMjIWL58uf7p2rWru8VQQwm38/nz5+fNm6dEd/v46LV2tBI1vhbRnvvNN99Yom0rfBm4MqsHldMCara5eNfz6nCknO5O/fGOIZbuOs6vqKhIG9LwUPtv3LhRKdYp7t5BjU24jywlEGWWcE61jDsym3AeCYxzO9r7b3hl7N3Ev2zMdrZsCe7z419zuISNROOP+9sbd8wIuFKU7nI2FDuoaudauXKllxSHHbQT373HjqLRc1qKtW1OTk52drYOHcOGDQscxwKtbeuP+PZhYh7uAAAAAABSH3H/47GC/uaqC/3HjNo4FlXxRxDsgrsRI0a40+AwO1UORBlOnDhhj1F1sQy7l3fgYXdijxD0b9SerRd+2GCAbdcfPYlJpfJ/r1BjXkC6pqqM+1uw/q9vbi30XUd/Or/Unv3rj/uL1nPTX9cuXX8ma+Le8AN7A3H/46cvPvDq5pjP9T18vKRtl83u5wIxCxl4Wm9pWUWnoTtveHLNJ8uPWwZHKUq/2uP+EnEEint264YNG15//fXAFgMhocLK58oGfhMQzwcffKCyrVy5slevXq4keXl5vXv3VoG1N8ULbdenmO1s+76L1lWr1n7ff/+9Vu56x7YVeBqt2IPBsy4/YFmHl+nTp8fsPpXk/fff95ck3gCw9HDk1LFb4VvFtV1tvcHvuRRPuI8spe7i/vZS/FFj9Zr6LrBszHa2fSpme1p+//tRuISNROOP+1uEOt33hBJn2bJlSnc5G5DapGvXrhoPubm5XlIc9hVszKf1WvO6A0L0nOLaVgN48uTJmvv222/774wUbu3obx9+gcMdAAAAAEDqPO6vk7p4QX9zdYX+7bQ2ZjBCdOKq01d/BOHcuXOjRo1KT0/Xqaw/9K+cs2fPtiva7LJBLeXOzJXT4mvalotlWBRDlOLOt/ft29evXz/lVLrbqD1FU6f669ev95+Z7969Ozs7251d2woD58natJbyxztOnDgxaNAgFxasMS8gXVNVxv3tOvrbO67/aUeBpRRfKO82ZvdNf10bjvvbs3xfHrbzwde2hC/kD8T9ZcK8vBueXPOX7jkHjv52B6Ez+aWd3tqhdM21FLve/8leue6hwXvzih94dfONf13rj+Yv/OGUSnXvyxs37vSKKuu25d9d+RTiFIj7RxyBYkHtzMzM8ePHK/+uXbu8GZXCISG7Tl/7y86dOy1FtImffvrpk08+8V5XWrdunfaLd955R6t1u4ZyqrR9+/YdOHCg/6LUhhKvna2a2rXtUuIotd6zZ0/gQdzffPONVq4jj720bWk9X3zxRVFRkSWePHny7bffVrr/C8Xt27er0QKHGi2iBbW4mjTxMUQs3XVcTk6O/+ihdc6aNcsFTPXyww8/VBkmTJjgHxvqHZVZdfdeN5BwH1lKIMos4ZxqGbWDG36ipZTH/xALCYxzu95fo9ddpq3Gnzdvnho/sH5bMHBw1pqnTp2qnGPHjvUHWJVn8ODBWom/5OESNhLWUP7KOuFRF7NHAoPQCVc5kBI+7BhLF/1jKd9//726SSn+3+H9/PPPOvo1krh/QUGB3UWwW7dugUfgalDpeDt9+nT7fkiHGh1wAscH7ZtqVTWOOxZJ9Jzib1ttfeLEieopDW/3u65wa0d5+6jycAcAAAAAkLqN++uM7tlnn00Q9Df+0H+DnycnFo7s+OmMVKevgZjCwYMH+/btq6V04j169OjJkye/9dZbOmfWaa3F/XXuqhXqzFyJb7/9tgVAtYhdHOdiGco2f/78jIwM5dSp9fvvv6/Mr7/++oQJE7TCwEa/++47rU2LZ2Vl6cRbevfurQV1vn327FnLo/xaSrPspbEqaFmtUwVQgVVsLagS+s+xa8ALSNdUlXH/iopfx316+IYnLz3R92+9t74yfOedf9/Q9v829xi3Oxz3Ly2r+Oc7u5Su/J996z2S1wnH/S+Weg8PuPGptX/pnqN1ahPakFKUrrmW7VxhWYc+W7VabVoFsDz6p90bOf5ofnht+vv79mv7Tt6XAvf5MVFGoPn22281qiUQDJVwSMjtLGJ7gfYXu2V84EYxeZWX9is9EL+zZ11Kda8nrQvx2rmgoEAtpllTp05Vm0SptcVJlahZSlQ2ZdZhRMcfy2DbmjVrlg4v1im2dyvx3XffDdwB/Pvvv7dZltMOSno5YMAAt0KJNwAs3bW8Fd5+aSFap1blj/3pH71Uoh0DdeTRSzvy+G/n3SDCfWQpgSizhHOqsoEjs/24QfUaNGiQWvWrr75SYnic2+6jnWLw4MHWYmp/9V1g/fa1mRLV73ojUL/bGtSe6lOlu/bUemwv05uI/0geLmEjYePZX1knPOpi9khgEDrhKgdSwt1hLF3cpxQXVbeesv1O/3/44YfqMn/OBqRCqn3saKyiaqioYCqepfgLuXXrVjuqaLBpcNrA00slBm4wGD1noG3dnu52/5itXeXbR5WHOwAAAACA1GHcX6dzUYL+xoX+tUhjOFWOx+ILMYMRohNXnb4GYgqi9FmzZtl5suhUWeex/ns368x84cKFdubcrVu3yZMnHz16NBzLOH/+/KZNm4YOHZpxOfq/cuVKnTzH3Oju3btHjRplwTvl79Onj1boP7VWfi2lknivKxUWFq5YsWLgwIF21q3FR4wYoY3WMugvXkC6pqqM+8vF0oqpXxy556WNynnr0+u6j9197PQFWzAQ95evfjx1w5NrAk/0NeG4v5SVVyxZe/qJnrk3/+3SDwi0/mf7bVv987mKK+/5ry1qu5qrPCqJynM6v9T/XF+jtc1fdfI//2+zRf8fy8zRqo6cTIXn+jpVjkCjoW7BsvB9bGKGhNxeYENUfzVcly5dGrh434VEA1eAar/LzMwM7y8NIkE72+13VDu74L3KWh88eFAdYdF5HRx69+6tivvbzbal44n6ZdiwYXYMUbYvv/wy5u8e1FBaoRpKSynzgAEDFi1aFMgZbwBYuuu4HTt2aCQkXpVeqiQW3VM2ZdYiubm5tT/y1FK4j1xLeq8vC+e0BgyMtI0bN2rAK6d2jWXLliklPM5V6++++86imerrkSNHqjss1ulfv2j3GT9+vFpVJk6c6FpV/2h4qKmVrqVUDO0O6nqb68QsYWMQs7ImPOpi9khgEDrhKgdSYh52xNLF/xGlqKhI78LWU2pq7aHaT/Py8sI5G9ahQ4dmz56tg7CNB/3V/0pRupejkgqcnZ1tn1ViHkaciDnDre1+Y2RfN1qrhls78dtHlYc7AAAAAIDUVdxf53IW9NffKoP+5moJ/aNmvIB0o2Fx/8ATfVOG1+jAZTFjowCSzmLZfarzLG4AAAAAAJKuTuL+/qB/tSL4hP5TmBeQbhzsPj+3d1y/eVehl5RavEYHLiPuD9SPzZs3v/76643hCSIAAAAAgGtZncT9//nPfz7wwAPPPfec//FuER0+fNi+M3jxxRe9JKQELyDdONhzfZ/tt634QrmXlFq8RgcuI+4P1IPz589Pnz5d+5r2OC8JAAAAAICGUCdx/5deeunvf/97DYL+5vDhw//4xz902uy9RkrwAtKNwMXSih7jdt/8t7XfbjzrJaUcr9GBy4j7A8m1Y8eO2bNnnzhxwntd+aieBQsWdO3atU+fPgcOHPBSAQAAAABoCHX4XF/AzwtIN6jlG8482Sv3/n9u+v+eWNNj3O6LpVc+kzeFeI0OXEbcH0gue3RwRuWjqt9///3Ro0frpfayN954wx7HDQAAAABAAyLuj3riBaQb1NJ1p294cs1tz65/Z9bBVL3Dj/EaHbiMuD+QXAUFBatWrXrrrbe6deumnSs9PT0rKys7O5unEwEAAAAAGgPi/qgnXkAa9cJrdAAAAAAAAADXHuL+qCdeQBr1wmt0AAAAAAAAANce4v6oJ15AGvXCa3QAAAAAAAAA1x7i/qgnXkAa9cJrdAAAAAAAAADXHuL+qCdeQBr1wmt0AAAAAAAAANce4v6oJ15AGvXCa3QAAAAAAAAA1x7i/qgnXkAa9cJrdAAAAAAAAADXHuL+qCdeQBr1wmt0AAAAAAAAANce4v6oJ15AGvXCa3QAAAAAAAAA1x7i/qgnFeXlXkwadUxN7TU6AAAAAAAAgGsPcX/UkwsXLnhhadQxNbXX6AAAAAAAAACuPcT9UR+Oniocu/Dgfw/Ovb3bJqY6ndTIamqv3QEAAAAAAABce4j7o54EwtNMdTp5jQ4AAAAAAADg2kPcH/Vk7MKDgdg0Ux1NXO8PAAAAAAAAXMuI+wMAAAAAAAAAkDqI+wMAAAAAAAAAkDr+5fTp08cq5eXlHa508ODBQ4cO6S8AAAAAAAAAALi6/EtBQcG5c+fOnDlz+vTpU5VOVjoBAAAAAAAAAACuNpfu81NYWGjR/7OXnQEAAAAAAAAAAFehf7lw4UJxcfH58+eLKtl3AAAAAAAAAAAA4Gr0LxcvXrxw4UJJSUnl7f4vfQFg3wHYPwAAAAAAAAAA4CryL6WlpRcrXahUUsn+BwAAAAAAAAAAV5d/KatUWlpqf93XAAAAAAAAAAAA4KrzL+U+9h0AAAAAAAAAAAC4Sv1LRUVFeXm5/to/AAAAAAAAAADg6vUvv1ayuD8AAAAAAAAAALiqXbre37HvAAAAAAAAAAAAwFXKu94fAAAAAAAAAACkAOL+AAAAAAAAAACkDuL+AAAAAAAAAACkDuL+AAAAAAAAAACkDuL+AAAAAAAAAACkDuL+AAAAAAAAAACkDuL+AAAAAAAAAACkDuL+AAAAAAAAAACkDuL+AAAAAAAAAACkDuL+AAAAAAAAAACkDuL+AAAAAAAAAACkDuL+iOSLL7547bL169d7qfVFW/S23RBbBwAAAAAAAICrSOOK+58+fbp3795efNenR48ew4cP/+mnn8rLy72s16oETTRy5Mi6ayLi/o1HaWlpVlZWkyZNJk+e7CUBAAAAAAAAwGVXR9zfGTVqVFFRkZc7hZw4ceKLL74YNmzYnj17vKQ4GqqJiPs3HsT9AQAAAAAAACRwlcX9Ze7cuV7uVLFo0SKrWo8ePXbv3u2lxhGliWbOnFlRUeEtkCTE/QEAAAAAAADgqlDDuP+KFSueeuqpByJQtlWrVnmLVcUf1H7nnXeKi4uVeObMmUmTJlmiDBgw4Ny5c5Y/NbiQenXj/v4m+vDDD9PT0y29T58+p06dsvzJQtwfAAAAAAAAAK4KNYz7P/roo15cP4K//e1v3mJViRnUlqNHj2ZlZVm6MiibpaeG2sf9JT8/f/DgwZYeZT3VRdwfAAAAAAAAAK4KNYz7P/HEE15QP4Jnn33WW6wq8YLa/vRA3D8/P//jjz/u1auXZqWnp/fp0+fLL790CzoHDx4cPXp0165dle3NN99cvXp1zFDy5MmTLcW/Fa1NhQmnS3l5eU5OzvDhw23N3bp1GzNmzC+//OLNrnThwoWVK1cOGjTI8uiv/l+2bFlZWZk/mO7nr3tAvCbyF9Li/hUVFYcPH1bj9OvXz21aRd26davdBaioqGjo0KG2SPfu3Xfu3GmrEv/aRo4cqSokiPurSB999JFa1X5woEaI+YRh9dSKFSu0RRVP2ayzvv76a63cy3FZxM5KPeqXrKystLS0adOmeUmXqUeefvrp6667bsOGDXo5btw4ZVuyZInNNRpRCxYsuO+++zRL9I9eKlGzSktLX3nllSZNmgR+fKOXSuzYsWNJSYmX9Ouv+/fvv+OOO7S5eINQ8vLyNGZuvPFG21bbtm2///57b16lgoKC8ePHt2rVyjIoZ0ZGRuDrKJVfszQSvNeXhdNdfTU2Hn/8cf3/zDPPuOdYqJyffPKJyqB00bY0xvw/eVFhBg8e3Lx5c81t2rSp6usf7QAAAAAAAECKqWHcf8aMGV5QP4KZM2d6i1UlXlB7586d3bt3D6fn5ORYxD9gyJAhLupXUVGxePFiCyI7ejlx4kTvRU3j/kqfMmWKBbv9tHJt0cXW3333XW+Gj9UiiXF///X+b7zxxt69e3fv3m0R9gAVWNu14qmcXuprrynRViWHDh3q2bOnpSuPUmLG/bWSlStXduvWzZtxpffee88fmXVtGKD2cdlidpYKPGbMGO9FSsf9Ze3atc2aNXviiScKCwu9pEobNmy47rrrXCw+HPfXAHjppZeU2Lx5886Vrr/+er3MysoqLS1Vhnnz5unl0KFDLb/RSyXecccd+/fv95IqR4UStQnvdcimTZsshq5yaow9/PDDTZs29efPzc296667lMEK8/rrr9u3EaraokWLvEzVj/vrSOKC+66J8vLyHnroIaVo5S+88IKWuvPOO2+44YYtW7bYsq4wKoNKogUts7/1AAAAAAAAgFRSw7h/WVlZ586dvbh+QspmVxxHEQ5qV1RU7Nu3z0W0MzIyVq9ebZkPHDgQM+hvpk6datuNF/72q0HcXwWbOXOmJYZpi3Zpc+LIfrLi/mfOnFHJ0y9/AzF06NCioqIEFc/MzLQ477Fjx958801LtOv6Kzfy69KlSy0xKyvr6NGjSokZ99c/gRh9wAcffGC94G/DMPtqQXbt2hW9s1JSfn7+I4884g9bmxEjRqSlpc2fP99eBuL+Go19+/ZVSrdu3dzI0ah46qmnmjZtunLlSr1U2956663+bxRsW7/73e+aNGniukA0wJo1a7Z27Vrv9ZVKS0s7deqkRb755hsvqfKC+m3bttn/J0+ebNu2rbarMen2fftGR/Vq0aLFjh07LLG6cf927dq98MILeXl5Xuqvv6ouHTp00Kx+/fq5imujX375pV3R7wqzYMEClcEyaAg1b95c6ZprKQAAAAAAAEAqqWHcX+wyWy+6H4cy+IN0VfIHtcPS09Pnzp1rFy9XVFTMmDHD0rt27bps2TKlFxcXz5kzxxJ79ux56NAhZZsyZYqlaPEPP/wwPz+/vLx848aNmZmZli41iPvv37/freHtt98+duyYtrVnzx5X/uzsbGVzK8zKyrKmuHDhwtatWz/66CMXpnQhdfdtQQKJm0jUGladvXv3Tpw4cdOmTRbntVsSuaj60qVLlehvRmsxJZaVlY0fP94StQYL3Ybj/kW+2wRpowsWLFCNtEJtt2/fvpbuaqRZU6dO1UZPnjxp9/9RRYYPH27ZRo8erWYJdNbMmTO1iQSdlaqmTZuWlpY2YsQI7/Wvv549e1a7Ups2bU6cOGEpgbi/xfQffvhhN2jNihUrmjRpogGj/0tKSjp27Khsymxzt2zZctNNNw0ZMkSJlkdsW6J/LCVAw+mJJ57wrydAI19l04BXh3pJl9m3F65q1Y37hyP18+fPV/rLL79sh4UwK4xGmr8w+l/FC9/1CAAAAAAAAEgNNY/7y4IFC7wAfxzK4GWNJkFQe+DAge7G9HLu3LkBAwbYLBebFneDmvT09I0bN/qz2VXwlk0W+25xU4O4v7siPnBn/OzsbEt/9913S0pK3EvRst9++62/DCaJcf9u3br9+OOPrpX0z+HDh5csWTJ16tTBgwf36tVLzWI5tVHLs23bttdff90Sv/vuO6W4pygrs2uZcNx/7969b7zxhqX4u0CUwW3If1+X/Px8FU9tosZ588033W8F7IcL1e2sVLV9+/bmzZs/8sgjai5L8YfvTSDub/fwUaK9dOxO/e4af1tKmW2uXmquNvf000+7QP+WLVtuuOEG/7YCNKjstwUvvPDCgQMHvNTL7NcA8X4uYCtv3769dW514/4aFd7rSipJRkaGWkbt4yVdyQoT/vGExGsxAAAAAAAAIAXUKu4vmZmZXow/RLO8TJElCGp369Zt5cqVLqLtvwF9POvXr/dny668AN/RXEsXF0qOHvf3B/Rjslj2nj17/NeqS0ZGxoQJE/yXLdc+7q919u3b95NPPnFllmPHjg0bNszLEeLi/kW+y/bHjx9fVlbmovb9+/c/c+aMZQvH/Tdu3OiC+/brAcd/iyHb0IULF2bPnq1yWmKAtVV1OytVWbTaPcJXYz4rK8u9NBYHd3F/exmPi/tb2F29oHWqwZ9++mltSJvT4i44rpZPEEk3x48fb9++va384YcfVu+7b33s1wCBBwY4GpN33323+46hunF//3dIknhbYhkulTIO4v4AAAAAAABISbWN+589e7Zdu3ZepN9HifHuE5KAP6htseB9+/a5m8Z07dp1zZo1ltMfWY5n/fr1/mxz5syxZU3MUHL0uL/LGY+VXzkPHz48atSoQMi7f//+7snDNY77u02E+cs8ePDgH3/88fjx4/v373d383dxf3FX0/fp00elcjfb8Qffaxn399dx4cKFKsmZM2fco5WtItXtrBRmt6+xy9uPHDnSqlUr90RfEzPu36FDBzVg2HvvvVdSUqJs2iUfeuih+++/X71stwayLraHCet/+8pBm9NGK1ccV0VFhQbAM888cyl8npam1dptrCzU3rJly5g3+LK4/2OPPWbfQ1Q37u/qaxJvSyzDdddd16VLF68trrR8+XIvKwAAAAAAAJBCahv3l9WrV3vBfh/39N1qiRnU3rp1a/fu3S2xX79+x48fD+ScMmWK+x1AwKlTp2I+t1b5P/30U0uXcNxfW/zll18ssaCgYMiQIZbu4v7VCtZLUVHRDz/84L7DEBcrr9aqIsb93d17/BVxN/ARC8cb93Tf9PT05cuX2812AvcvcoUUay7/fX5mzJjh7wLV1H0l8N133/kb0D2Ztsz3FAGrSHU7K4WdOHGiTZs2FqBXizVp0sS1mwnEwbMr72I/adIke5nA0KFD7SY88+bNc/fo11a0rU6dOmkk6J9XXnmlNM7t8sM0ILt06aKtv/jiiyWVOnbsmPg+P8pg30PUMu6feFtiGW666SYdQ7wkAAAAAAAA4BqQhLi/jBgxwov3V/I/krRaYga1A2HfadOmlZaWXrhwYfTo0ZZiD5W1m6GXl5cfPXp01qxZdtMSrUHrsWzp6elaj1K0+KpVq3r4fi7gQsn+6PbUqVOVWRuaO3eui2K7uL/W7y7hHzx48J49eyxUqkXWrVuXnZ1thdcWly5dqkUsLL5r1y4XK3eRd7dRbUUVscfexhMx7q8aWR6t8+uvv9Y61T6TJk2yRPHH/VU293Tft99+274wCNxhPxz3998gSF2gaqqttCr/c30zMzP379/vL7N67fz582qrZcuWBe7vLzE7a8WKFd26dbN0uRbi/mpGe/Cs6h7zAvxAHHzDhg3XXXdd4DcBMWnka7XqBa3W5dfmNJi1lfnz5zdr1sw9ACCivLy8li1b3n333ceOHdNLey6xym9j3s+KrQz2ctOmTddff/0Tl29DZKzuUeL+Yukxt2XsScJuiwAAAAAAAMC1IDlx/7KyslGjRrVr1+7JJ58cPXp0vBhcleIFtc+ePTtw4EBLd3f72bJliwsch7no8NKlS13U3s9/4x2X2R/Nd7S4S3Rx/wsXLowZM8YSw1zh490OSCXPzc2t3OZvjwh2EgT0I8b9/ffMcVQL1xT+uL/s3LnT/ajCLF682JtXKRz3F3VEgi6QTz/9VINBhXQBfcffqq4i1eqs1Gah/Oeff75ly5bhuHYgDq7WU06lBIZEQUHBsGHD/Fe72y8JHnjggdtuu00r8VIr7/WkzT3zzDPuRwDxnDt37rvvvrNvucyePXtatGjhHkScl5enTTRt2lSD3933X+XXJm644QbNcrflsd8ZNGnS5PPPP7cK6u+CBQu0rOqikWDZJF7cP+a29I9Wsm3bNv2/Y8cOla158+bffvutvw014Pv37+//vgEAAAAAAABIGcmJ+ydLgqC2P8rft2/fY8eOVVRULFy4MBymNy46rJVMmDDBS70sMzPz448/9l74MseM5mtxd2G7i/vL8ePH3bcRAa7wMeP+6enpH330kYucnjp1qn///t68SoG6+0WM+4croo3OnDnTLRuI+yv/yJEjbZbYdfrevEox4/4WzI0Z+tfmpk+frtVaznBA/9133x07dqz97yqiNpk2bZolOvE6K7Xl5+c/8sgjTZo0uf766/1P9DXhOPihQ4fuvfdeJTZr1uyFF17o0aPHww8/3LRp08BdbtRl2mWUzT3I16i777jjDqVX+aMBu0e/ttK+fXtt5amnntJWRDujl+PXXzdv3tyiRQutrXnz5p07d1bX33nnnXqpRM3yMlWaMWOG0uXBBx/U2vT3xhtv1A6uFC3lZYof9xe3LS2oimspvfTXTgVT8ZRBZdBcadWqlV6q/P5ftAAAAAAAAAAp46qJ+5eVlX3wwQc2S6ZMmWJx88OHD+v/zMxMS+/Ro8fQoUN//PFH//XIFy5c+Prrr/v06ZOent61a9fRo0drqfVxHhV7/vz5mTNn2sXyvXr1Wrx4cX5+vgpjOf1xf9GaV65cOWjQIIt9Z2RkKMOHH35oNzyRzZs3jxw50tYm+mfMmDG7du3yX3osKo9K5QLotY/7i2apInaHnDfffHP16tWnTp2KF/cX1dRmiQrjQvYmZtzfqPDTp09XW9ncmHXU/yqA3b5fRVLBVDz3pYi/Iuo4lSRiZ6U2u2FOzEB8zDh4QUHB4MGDb7vtNs2SW265RQMy/MQIe2iwuzzf2K3wla41e0lxqDATJ0685557KjdyKdreuXNn/6MgjHaB/v37u8K0atVKvawSerMv08BYuHDhfffdZ9keffTRnJwc1Uv/awB4mRLG/SWwrbZt237yySf+RlPxnnvuuWbNmlkGFX78+PHhwgAAAAAAAACpoXHF/evTtRlKTmDTpk3244n09PQffvjBSwUAAAAAAAAAXFWI+19C3N9/n58333zT/V4BAAAAAAAAAHB1Ie5/yTUe9y8tLV22bJm7y5A9jNebBwAAAAAAAAC4qhD3v+Sajfv779pv+vXrd/z4cW82AAAAAAAAAOBqQ9z/EuL+JjMzc9euXd48AAAAAAAAAMBViLj/JcT9u3btOmHChJMnT3ozAAAAAAAAAABXp2s37g8AAAAAAAAAQOoh7g8AAAAAAAAAQOog7g8AAAAAAAAAQOog7g8AAAAAAAAAQOog7g8AAAAAAAAAQOog7g8AAAAAAAAAQOog7g8AAAAAAAAAQOog7g8AAAAAAAAAQOog7g8AAAAAAAAAQOog7g8AAAAAAAAAQOog7g8AAAAAAAAAQOog7g8AAAAAAAAAQOog7g8AAAAAAAAAQOog7g8AAAAAAAAAQOog7g8AAAAAAAAAQOog7g8AAAAAAAAAQOog7g8AAAAAAAAAQOog7g8AAAAAAAAAQOog7g8AAAAAAAAAQOog7g8AAAAAAAAAQOog7g8AAAAAAAAAQOpI2bj/nj17nnvuuWbNmqWlpY0bN85LbThLlixRSZ544onCwkIvqQ6optpKenq69/rao7qrBW699dZdu3apqdXgevnQQw+dPXvWy9HIhLtsy5YtN9xwgxKdxjCAcS2ww5RkZ2frpQ1OHUXXrl1rGerCsWPH7r77bm2oVatWU6dOLS4u9mYAAAAAAACgplIz7p+Tk9O8efPK+NUl9RA23bhxY4cOHXr06OG9DiHuXz969+6tFrj77ruPHTvm4v513ey1Qdy/8aty774qRKnFqlWrmjRpoiGn45Ve2uDUaNSYtAx1wcX9TWZmZmlpqTcPAAAAAAAANZKacX8L/j7++ON79+6tqKjwUitZ/L1JkyYrVqzwkipZhKvGV7ZWGXBvkLi/u3r3lVde8YfSLCBe1+G8BmEtYHF/vVRT6KW/2RPUvX76KCDxyLHyK4/3uhZ2796dkZFxyy23aIXSqlWrd9555/Tp095sxFfl3m2Dyho2oJ6HUwJV1kLcd04W97c9on4OFCUlJdnZ2U2bNrUf63ipAAAAAAAAqJEUjPsXFRW1b98+XgR/0qRJl6JxaWlZWVnuK4H8/PxHHnnE0i3gVV1VxtTqJ6YcKIZtVJo3b759+3ZLlASx76udtYC7sY/Fzbt06eL6OkHd66ePAhKPHCu/8niva6SsrGz8+PFaT1iCEQunyr3bBpU1aUA9D6cEqqyFWNzfHTxtj2jZsmVeXp5lqFOlpaWdOnXSFmt2EAYAAAAAAICTgnF/i8G5K74Dxo0bd/311z/wwANt2rQ5ceKEJW7YsOGmm256+OGHaxxyqjKmVj8x5UAxbKO33nqrqjx8+PAose+r3bx58/ztbL/88PdLgrrXTx8FJB45Stdc5fFe18jEiRO1Evnf//3fPXv2lJWVaSQcPXp0+vTpAwcO9DIhvir3bhtUytOYA9ZV1kL2799/xx13uL3DbvsT71haF6yQjbkZAQAAAAAArgoNEPdfsWLFU0899UAEyrZq1SpvscgsBpcg7n/DDTe8++67zZo1c7f6GTp06COPPDJkyJC0tLRFixZZolRUVKxZs6Zdu3ZNmzbVrNtuu2306NFFRUU21wX74vFHkC2m3KVLl/Pnz7/33nv2+AH9nThxYvhm1nl5ed27d7/xxhuVR5tWAVRUF7V3AsVTjWwRF9qzjT7++OOvvvpqy5YtDxw4YOlW8kDsWxsdNmzYPffco0VEq1IZ/Nf52rXAWnlubm6bNm2UJysr68KFCx988IE2ff3113/99dde1koFBQWDBw9WoymnSqhibN682ZsXsnLlyt///vfPPPNMfn6+l1Qjgdh9ONYZs+4msKyoa5T49NNPW8NK27ZtFyxYUFZWZhnEVmjjbd26dY8++qjlVH137tzpZbqsyi4LULrmqhbe6xD/UNHaXnrppX379nnzKqnT1fWaO2rUKH+xY6py4Kk8aroNGzZoZ1GGO++8U32qpf7yl79okeeee851n3JqSGzatEnlUalUNmXQ6Fq+fHl4JKuh3FO49Vf/B4aKG3vqkWnTpmm7lrNv374aZl6my6oceFG6zPJYekz+ceIya7RYSpga7brrrot5E5u1a9eqLv5vIqX+ayFalVbo9g5r9njH0rpA3B8AAAAAACApGiDu/+ijj3px/Qj+9re/eYtF5g+HeUk+Q4cOveGGG1auXPnQQw9lZGRUVFScOnXq/vvvHzdunIV9XYxVs9yF0n7t27e34Ga1Ymq28ueee+6ZZ56xuc7YsWP9kdClS5eqhN48nwEDBvi/IdD/mZmZ3rwruSCybVTF+Oqrr5o0aTJt2jRLt5K76J5YvM8W97vjjjtcmNKCgE8//bT9MEJuuukmFd5C2KJmVGNa5kOHDrVt29bSHeVcuHChZfArKSnp2LGj5cnOzvZS60a47o5rLtdrFoUM69+/v+syt0I1u2sK84c//GHv3r2WTaJ0WYDSNTde3H/z5s0tWrSwNTjNmzfftGmTl+PXX9XpSgzElGOKMvBUHuXp1auXN6/y0RHPP/+898LXfVbyIUOG+J+wLWqixYsXWx5RM6qEgXYTpSjdNbKNvT/96U8dOnTwclz28ssv+/eLKAMvSpdZHi81Fv84cZkTBKyLi4u17yhPeITroKR0/53HGqQWjQFxfwAAAAAAgKRogLj/E0884QX1I3j22We9xSIrLCx87LHH4sX9LXC5ZcuWESNGtGrV6siRIytWrLjtttu2b99uYV8XY12zZs11112nzHPnzi0tLS0rK8vNzX3wwQeVx3/PHGPhKq3cex1iKzc9e/Y8ffq01jlmzBi99IfLDx482Lp1a8tjgdr8/HyLrcvKlSstm8yYMUPZWrRosWDBgpKSEqVonVpKia4YLpCdl5f3SCX/NxbWDpZTbfX888+rpidPnlTVVNnNmzdbSXr37m15LPbapEmTli1b7tq1KysrS3P1Upvbt2+fGtOtUFV7+eWXNfeFF16wHxm4WgRC4abRxv2nTp3ao0ePrVu3WgurFup65fFftW0rrCx72l133fXTTz+pAbdt22atN2nSJMsmUbosQOmaGzPur2XtCxgbTkrRgLG1Kd1S1BF2w/ShQ4dWLhRXxIFn5VGnDxkyRM3SvHlz/X/TTTetW7cusAtYTnF7UEFBQZcuXZTixqFs3LhRGbQJbcsSXS3UUDt27LBsNvYq15f2j3/8Q6NUQ/Sjjz7Sgtq6SmLZIg686F1mqty73QoTB6w1tpVHQ91635w9e/ahhx7SoWbDhg2W0lC1aAyskHV9EAAAAAAAAEh5DRD3nzFjhhfUj2DmzJneYtGUlJRkZ2c3bdr0+eefLy4u9lJ90tPTLWi7YcMGuzVNVlaWReL8cf/S0tJXXnlFL+fOnWsLmj179rRo0cIfqTdVxtRc3H/s2LHuditHjhzxh8tlxIgRyhO4hLmiosLCzSqSpdtvFFRN/zcBEiiGP5A9f/78Jk2a6K/SLWIYM/btt2jRIi3evn17u7WRi71aE9m2mlc+MTiwQruliYs+G9Vi8ODBWiRmUC9Z9/mpkj9aGpM1l5c7RLMee+wxZVu+fLlLsRXee++9hw4dskQJ9EXELgtQuuZagweoKzUrMFT0/4svvqiOthtkubL5714VU8SBZ+X54x//mJeX534jYheq22BzFbGcgR8fnDhxok2bNm6caJ22lwW+SFO6Bb5VKktxY69Hjx6uhK52LtoeceBF7DIncR+JW2GYfym751LgVj92kx8trpVYSkPVojFYvXq19pHWrVtv3ry5yttSAQAAAAAAIJ4GiPuXlZV17tzZi+snpGzRQz8uMihPPvnkwYMHvRlXSk9Pt58CWNTs6aefbtOmzbx58zTLApfdunXT/ydOnGjdunXLli3zfDe4F1vKBS6dKmNqtvLHHnvMRfcksLaioqL27ds3adLEPXjA2bRp0/XXX+++b7CXDz300NmzZy2DCRTDH/e3kKvqW1xcHK8WAf7F9dJa+I477ti/f79e2rYs5htY4aRJkzRrzJgxl9biYyts2MijFVXFiMfVNya3uOoSSAnE1gOVjdhlAUrXXOXxXvtooIY3KrZCW8SF5l1pY4o+8Kw89usBW7l98aOXgfrGLHnp5d8fWHlsL3Nr8LPvnNyl8Tb2wvujbcXVLuLAi9hlTuI+kgSDyr+U9pSMjAwl+r/6spv8uHtwSUPVojHQAV9NoSGnojb+0gIAAAAAADRaDRD3l7y8vIceesiL7sehDIEYX2IWGbRo0aOPPrpnzx5vho9FytwtgOzW5y0vP/DWHy/bunXrTTfdVLmyGMIR8ypjarZybV1l8JIul8etzS4JD69cLMbqSm5r69Kli/8qaQkUI7DRESNG2O1EAts1WnP//v3tial+bnFrYVcG25b+6v/ACi0kHU/DxvJi1t2E+6isrGzp0qWPPfaYPXLWT5ktj63Qn2JsbYG+qLLLApSuudbIfhap16x4bBG7h4xehr8e8Is+8PzlCcwK1DdeyS3dAt+7du269dZb3Rr8bLDFG3uOrc21fMSBF7HLnMR9JPFWGLZixYomTZq47zOs5d0hyDRULRoD7R0LFixwT61o5KUFAAAAAABotBom7i8LFizwAvxxKIOXtTpOX75hul3Y7qVeZpEyFz3cvn178+bN3T1MLLZokSb732JPYeEIaZUxNQvGuTimsfK4tdnlz+GVS+IYqxMoRmCje/fu/cMf/pCVlVVQUODfrmzatElNocxhbnFrE1cG25b+6v9ARVQAWzamBK1UDwJF9Qs0l0ZFjx49rMxhymxL2Qr9KSbQR4GXTuKRYy1pjeznNhqPLeK+HghfPO4XfeD5y5N4TMYruaXb9xD27Zpbg58NNtcXgbHn2Npcy9vLeFzZInaZk7iPJN4Kw/Lz8x955BF3q59Vq1Y1adLEHjBuGaShatEY2DFZozE3NzfwDRkAAAAAAACia7C4v2RmZnox/hDN8jJVn11C625H42eRsphxRrHYYqdOnUpLSwMxzSpVGVOzYJyLYxorj4u32kt3c3a/wF1ili9frrW5O++bist3AHfFCGxUGbKyslq2bLlt2zb/dlVfu836gw8+mJub6+6tFFg8EHu1KltgN1AR/6zGJlBUv0B97TbrTX2PnBVbXNmUOV6KsbW5vojYZQFK19yYLWmzAhsN6927t7L5H6UbZlWIMvD85QnsI4H6xix5YEO2hsD97o3d58d2Rr0MjD0n0AgRB17ELnNsteF0J94KY7JHKdiNfdQ7ao3A7ZUaqhaNQXblo4/txmsAAAAAAACosYaM+589e7Zdu3ZepN9HiYF7oFeLhcNiBnbtuuZw9NBYbFHLag0lJSUdO3YMh+TisVtyuzBlmAXjbOVeUqyiWpQ2IyPDv56Kioq+ffsq3W6mrxS7QUrgu42FCxc2bdpU2VxoL7xRi2WPGTPGv11rFuUM3A1mwYIF/sUDsVd/dDJQEbuKOeZPLuKp5+f6+tvcCTSX9WngkQwamX/5y1+U7oKttkJ/irG1ub6I2GUBStfcmCFgi5C6IRGPGtY2MX78+AQ5Iw48f3ksau/GQ6C+MUu+Zs0aDb9WrVodOXJEL20vU7axY8f6y6Zh8/zzzyvd3fU+MPYc24pr+YgDL2KXOVXu3fFWGJNd0q6K5+Xl3X///eGvZBqqFtWlYmuH1ToHDx6crHXaUSVKMwIAAAAAACCBhoz7y+rVq71gv48Svdk1YuGwmIHdQKQywGKLWlZr0Mu5c+emVd7SZ+bMmadPn1ZKWVnZvn37xowZM3DgwMolfmOhuqZNm2ZnZ9uduwMsGOdWbsJFtbi8cvbs2fPEiRNK0aaHDBmilObNm+fk5Fi24uLip59+WoldunRRhqKionHjxjVr1kxlUKIL+YU3ahHV++67z38/d8197LHHbG0FBQUVFRUHDx7MzMxUin/xQOzVInQW2A1UREV6+OGHNbdjx45bt261mKDyrFixonPnzkrRSz8X/xX/I0/rQqCofoHmskvO1ezffvut2kSFVMo999xTWczfQpO2Qn+KsbW5vojYZQFK11xr5AC7a5Pm9ujRQ8PSfqWhNX/xxRcvvfSSDR5R49uzZEV9qp5VXeTo0aPjx493IzniwPOXJ7A3BeprObU2rUcvVQw141133eUWN/Pnz1eK/0cVeXl5//znP5XYpk0b94SPwNhzbCuu5SMOvIhd5lS5d8dbYUwqVadOnW699dYZM2ZoAIwYMcKbcVlD1aK6bEOi1Qa+H1XH6UjeokULK+3kyZOVJysrS3UJzArQ2NAKozQjAAAAAAAAEmjguL+MGDGiMtrvCUfBqsvCYTEDuxap1Fzl8ZJ8LLboru8ujX9793BMTYt06NDBm32Zf0MWIwtsWv8HilpRUTFx4kRb3K9Zs2aBi/HdddxO27Ztv/zyS63NFS/mRldUPllU6f7txtxoq1atrrvuOrd4IPZqETqL4YYrEu+BAf48TuOM++fl5bVp08ZK5agj1Cz6x4UmbYX+FGNr8w+VKF0m1rAxBQLf7ucCAYFs7rrsMLfdiANP+ZVonW57k9tWoL6WM+zVV1/13+lIe5n7hsmvRYsWmzdv9jJFjvtLlIEXvcuM8ifeu90Kw/zZHPu2o3Xr1irq9u3bvVSfBqlFdeXk5LhC2pBwrAyW7spp3eef5eX2scEfqBEAAAAAAACqq+Hj/mVlZaNGjWrXrt2TTz45evToioQ3LYnCwkwxA7v79++/44474oW67E4s/tiiyrZ06VKVzaKr+vvAAw9MnDjRLmEOKCgoGDx48G233VYZ1LrEvyGLdgU2HbOoaoE1a9a4jTZr1iwjI2P37t3ebJ8ff/yxbdu2lqdv374qgIVHXcgv5kbzK58sqnT/dlXTmTNn3nnnnUoXrXb+/PmHDx9Wa7jFbeWufSxCZ8G7mBVRtv79+7sGueWWWzp37rx+/Xq7Mj2gEd7nRw4ePPjCCy9YR9x4443du3c/cOBAIDRpK/SnGFtbIPxaZZeJrT+mcOBbA0PDQ2WzDOrBN954Y+fOnYH9yEbyY489pu1aznvuuWf8+PH+kRxl4KmcmmWdrpKoPK5IgfpaTvuGSbROrVllCPe+UhYsWGDNIs2bN9ewCVQzMPYc20qg5ZUn8cCrVpeZxHu3W2GYP5tz4sQJ+0opwV136r8W1aUBM3bsWFuPDQmH6/0BAAAAAAAaVsPH/ZPOwmExA7sA6odF5APhYKSYH3/88Xe/+12TWE+Erhni/gAAAAAAAEmRgnF/u2lMk8iP5AWQdMT9U1tpaenPP//84IMPqpc7dOhQ4x8N+FVUVNizKJYvX+4lAQAAAAAAoEZSMO4vI0aMSKu8fXZubm7ghicA6gFx/xRmtxIybdu2PXTokDejFkpKSrKzs5s2bXrHHXfs37/fSwUAAAAAAECNpGbc/9ChQ/fee68XlyL4CNQ74v4pzOL+bdu2/eSTT4qLi73UmjpW+aCIykP1JX379uXLWgAAAAAAgFpKzbi/5OXlde/e3Z5iSvARqGfE/RGRi/u3atVq2rRp8R50DAAAAAAAgOhSNu4PAAAAAAAAAMA1iLg/AAAAAAAAAACpg7g/AAAAAAAAAACpg7g/AAAAAAAAAACpg7g/AAAAAAAAAACpg7g/AAAAAAAAAACpg7g/AAAAAAAAAACpg7g/AAAAAAAAAACpg7g/AAAAAAAAAACpg7g/AAAAAAAAAACpg7g/AAAAAAAAAACpg7g/AAAAAAAAAACpg7g/AAAAAAAAAACpg7g/AAAAAAAAAACpg7g/AAAAAAAAAACpg7g/AAAAAAAAAACpg7h/JAdyD2a2ynz15tfctHTyUm+eT8RsKaakqOSDbh9m/FtX/dX/XmqjlLM8R50y9u/jGnk5AQAAAAAAAKDGiPtHcg3G/fdt3vdepwmz+3zsvY7P1Vp/9b+X2igR9wcAAAAAAACQ8lI87n9s77GZvWZl/fHNV29+Lf2WjAF/HrhozKLCM4Xe7BrJ7jkzSkA/cTabG54aT0haJVd5VE7vdXz1fL1/vKbTVGWn1FvcP7/wwqgPf/q3//nw/903sXP/q/W7HwAAAAAAAABXo5SN+5eXly+dsiz91gx/XNimKLHsBBIH9J3E2eIFr6/GuH89i9d0mho87l9R8eu23ac691/6u/+c/P/um2gTcX8AAAAAAAAA9Sll4/7Lp69IvyVD09TXph7fd7y8vLyiouLssXOrZq6a//Z8L1ONJDHun7M8x3vd+DTauL9j9xca8OCAc8fPeUlVqeu4/4kz5+/t+PH/u2/izQ9P/3D+1ud6fk3cHwAAAAAAAEA9S824/8lDp/o/0P/Vm1/7+r3F5eXlXmosFRUVR345+nG/Of3+s3/6LZd+HNDnP/oueGdBcUGxlyOk3uL+8eLagWVLikrG/n2cZdu9Yc/Ip0el35qhacxzY1U1y+N3seTi2s/XDW03zH4MoYovnbLM6murUmK8yR8xD2dOEE8/c+TM7D6ze/57L2V7/fZuo58ds23VNjW+N7v6tZAocX8t+/4/3+/esodtt9c9WfHKWVhY+Morr/zrv/7rokWLvKQaGfnhT29NXpdfeEH/d+6/lLg/AAAAAAAAgHqWmnH/VTNXvXrza289OjT/ZL6XFId7Jm1geuepEQWnCrxMV2qccX/lVPrrt3fTLDf1bdvvxP4Tls2cOXpmRPt3/XlssrWFQ/mByR8xD2eOGU+X3G9zw42cfkvG58Pnl5WWWZ5q1cIkjvtXVFRc+s1HrBs9xSznqlWrmjRpkpaWdv/99586dcpLrR3i/gAAAAAAAADqXwrG/cvLyqelT3v15te+GPmllxTfoa2Hprw69edlP5/PP6+XZaVlud/m2lXh33/8g+UJSBzQdxJnC8TuY6pW3F8pmvr/acC+zfsqKioO7zg88L8GKWXF9BWWTS6WXHz/n5Mt25alW1RZu/fRV+O/3rF6h5fpMpVcObUt73VCKowyx4ynnzp8SiVJvyVjzoBP7GuY4oLib97/5vXbu2na/oO33ei1cBLH/bVmrb97yx6rZq5yv2ZYPm15vHIS9wcAAAAAAACQGlIw7u8iyJuXbPaSqmnJxCVa/KPes73XV0pi3D88+fNXN+4/5JEhpw+ftkQJB+63rdqW0aLrwP8adOpw1XHtZMX9F439SrOmd53uLu2XioqKhaMXKv2Dbh+Wl126EVP0WjgJ4v6lJaWTOk9KvyXj+9nfe0mVEpQzWff58SPuDwAAAAAAAKD+pWDc/9zxcwMeHPBqVVfTJ5A45G1hd3+APqbE2WxuePLnr27cP/A9h8W4/bWYO3iuUhaN/cp7nVDiRgiIF0+/cP7C+BfHZ7Toum3VNi/psv0/73/j7syh/zOs8HShXkavhZMg7n/m6Jn+D/Tvc3/fkwdPekmV4pWzjhD3BwAAAAAAAFD/UjDuX3TuvN3CPuL1/sf2HpvZa1bWH9/UIv4pXsjbwu5Jifu72H1M1Y37B9YWiJhbCL7KjTpJifsXni4c+j/DVAvVxUu6zL6ecbWLWAu/BHF/mzW645iSwivKE6+cdYS4PwAAAAAAAID6l4JxfxfgXjJxiZcU36bFmwNPkXVTvJC3hd2vurh/vGzxJCXun38yf+B/DWqouH+4PPHKWUeI+wMAAAAAAACofykY9xe7oc3IDiPtga7xaK7yKOfkLlNO7D9RUVFh6YlD3hZ2b6i4vwo5o8cM/7LRI+a20XjPKw5IStzfypbRomv4ucF2n58R7d8tOnfpicrRa+EkiPsf2naoZ+teA/9rkD1J2Fnz2dqY5awjxP0BAAAAAAAA1L/UjPtv/2HH67d3S78lY+mUZS6aH2bR4Tfuztz/834vqTKw/vV7XycIeVv0vB7i/kd3H33zvt7+m9SrbMunr0i/NcO/bPSI+fcf/6CUEe3fLTxz6Zb6ia2YvkKZp6VPs+fuJmbbihlPt+9gZvaaFXiu77y35in904GfWgclN+5v9xfq9ofuuzfs8ZJ+/XX/lv297smKV06e6wsAAAAAAAAgNaRm3L+stGxmr1mv3vxa+q0Zc/rPOXX4VEWls8fOLZ2ybP7b8y2bPf01/ZaMRWMWXSy5WF5enrczb3KXKUqJF2uWxAF9J3E2mxuIcQdY8FrZvhz1pYpXUlTy1bivLOjvXzZ6xPzkoVOqrxJHtH9394Y9FojPP5n/1fivw9fjKyWjRdfXb+/2/cc/lJaUeqlx2LZixtP3btrb46431KRzBnxiV98XnilcMOILVaTXPVmHth6ybMmN+6uvPx34qRYc89xY1Vo1Xf/F+l6tszL+ratKErOcq1atatKkSVpa2v3333/q1CkvtXaI+wMAAAAAAACof6kZ95figuIJL0189cpb9tvkgsjlZeVz+s8JzE2/JWPww0MyWnT1x5rtpjcxJ3/cOWI2iRL3l0tX91d+CeGmoe2Gzcr6yL9stSLmud/mZrbKtFX5p3BJtNr3/jEhkM0fMbeweyCDm9wKK3y/UfBP3Vv28D94OXotrOliTv5vWY7sOtK7TW//XL38eVmOOqJO4/4W64853fXUzCMnqv6lBQAAAAAAAADURsrG/aW8vDz329zRHcd0b9nj1cpr/wc9NHjplGX+u9xcLLn41biv7PYvr9/ebfSzY3b+uHP/lv2ZrTIbQ9y/rLRs+fQVVrw37s5c8M6C4oJi24pbtlpxfzlz5MwnAz/t8x99NTf9lowBfx64cuYqtYM320fb0hYtp001iPtLRUXFL+t/UdvaI5TVHTN7zTq295g3u1LS4/5yfN/xMc+NVb9ru9Nf/0AVVxfEi/sn6z4/xP0BAAAAAAAANKxUjvsDAAAAAAAAAHCtIe4PAAAAAAAAAEDqIO4PAAAAAAAAAEDqIO4PAAAAAAAAAEDqIO4PAAAAAAAAAEDqIO4PAAAAAAAAAEDqIO4PAAAAAAAAAEDqIO4PAAAAAAAAAEDqIO4PAAAAAAAAAEDqIO4PAAAAAAAAAEDqIO4PAAAAAAAAAEDqIO4PAAAAAAAAAEDqIO4PAAAAAAAAAEDqIO4PAAAAAAAAAEDqIO4PAAAAAAAAAEDqIO6P6lk6eemrN7+W3XOm9xpXv3Xr1rVr165p06ZpaWlLlizxUhuH0tLSadOmtWrVSmW7++67jx075s2oA6q7tqJ2UGusWbOmoqLCm4EGtWfPnueee65Zs2bqnXHjxnmpQCXbbSU7O1svNUL0v0bL2rVrLUNYghGlI4yOM0rXMWfq1KnFxcXejCsVFhY+8cQTynb//fefOnXKLdWpUycdsrxMdYBj1LWgqKhoyJAht912m/paw0yDzZtRByKOKAYeAAAAcJUi7t/w9m3e916nCbP7fOy9btxqGfcvOF3w6aC57/x1xLnj57yk2slZnjOi/bvLp6/wXqOaFi9ebBF/o9N7b0YjUFpampmZ6ZWsvuL+Rm2ilvFmoOHk5OQ0b97c65Xaxf03btzYoUOHHj16eK9r59SpU2+++eZ///d/1+mYRJVWrVrVpEkTjQ07dlnc/4YbbtiyZYtlCEg8olwE3+j4EzOOX1JS0rFjR2WwsKxbKj093ctRNzhGpTwNJx2mvD6ur7i/STCiGHgAAADAVYq4/xWO7T02s9esrD+++erNr6XfkjHgzwMXjVlUeKYOT7rk6rqCPmZpL5Zc3PDlhnf/NvL127tpbveWPSZ0mpj7bW55ebmX47IDuQczW2UOeHBAsuL+Kom2qFJ5r2vEKpVgStXfN7joVZcuXU6cOOGlhuzevTs9Pd2+HrDgWv3YtWvXrbfequ1mZ2erqF5qHVM7qDVUU7VMvW20oqJi48aNzzzzjLabIGQZUUFBweDBgy24qdar5RWaWlCLP/roo1qb3HbbbVq5NuHNrmO9e/fWRh9//PG9e/fGrIJKMnHixLZt21rxbrzxxs6dO6sxw5ktIpysyKz6SD2VxO+iVOCsrCyrxYgRI7zU6rOC2Xr86jok3VBcfe3QZAHKBDtRlSNKtOPrmKN9R8cfHYW81CupPbUeC8uKXf5fP43cIMeo4uLiTz755J577nG19mbUSHKPUaIVjh8/vkWLFknphby8vO7du9svQvT3ueee27lzpzevjtn3WGqZpUuX1ulvR/wijqgGGXgAAAAAaoO4v6e8vHzplGXpt2YEAr6a6jrme7XH/c8cPTOi/buuufxTzvIcL9NlxP0bFZ3Gt27d+o477ti/f7+X5FNaWrpkyZKHH35Y5/lOfcb9ly9fri3W9a0zwtQaapO6/nmBKSoqmjNnjkXTTC3j/ocOHbr33nu9dV3WtGnTadOm1SCspkXGjx/vrcXnoYceysvL8zLVGTVO+/btE9yzJTc396677vLK5BOzDRt53P/IkSOtWrVSdbRaNe/Zs2e9GdXk4uABqR33d4PE4v4tW7aMOT6rHFGOjjk68mhV8Y54Fve3o5OL+48ZM8abXcfq8xilluzfv//111+vCppaxv2TeIxS/p07d6ovtLi3oloP9U2bNvl/EWI0xpYurdXHjIgmTZqkzQ0dOtR7XV8ijqj6HHgAAAAAao+4v2f59BXpt2Romvra1OP7jpeXl+t88uyxc6tmrpr/9nwvU924quP+aqVPB36qlP5/GrBt1bbSkkvx2bLSssPbD2dnZm9dudWyOY0z7u+ngql4KqSK6iWlLp266wQ+XhDH3UDj4YcfXrRoUcuWLfV/fcb9LYRXm1u71IxF8eontJGdna06ygsvvDB37twbKtU47l9cXPz8889rbQ8++OC2bdu0e+bn548YMUIpzZs3z8kJfg9XpZUrVzatNHbs2KKiorKyss2bN7dp00YrjHcLlCRK3BGq7NNPP22V/fnnn60wJSUla9aseemll8KVbeRx/8WLF6t46qyOHTtGCUxHZ/tRqsb9LRDp9ho7asXrl2rt2jZg4h3xhg4d6lpVo069ppf1drCqt2OUq5rG5LvvvjtkyBD9H+8tI4rkHqNOnTp1//33a9nf//73s2fPtq9qajPUT548aT8e0gH5wIEDSjlx4oRWqBQd9+rhy87Eo67uRBxR9TbwAAAAACTFVRb3X7FixVNPPfVABMqm839vsaqcPHSq/wP9X735ta/fWxy+NY2fzlGP/HL0435z+v1n//RbLv04oM9/9F3wzoLigiue/pfdc+Ybd2fu/3n/iQMnp2VM796yh3IOemjw1lVbtQZlKCkqGfv3cUqMN2mu8tjacpbnBFLE1hAIT2u7lnKx5OKyqct63ZOlBVXUnxYF73qham78auPQdsPSb730bceAPw9c89nastIyb/ZlWuqX9b+MfnaMu4FPz3/vpX9c3D//ZP7A/xqklM1LNltKTIkvqA/UQsVQlSd0mmjbUglVTpXWdY2F5v1rCEyueCZiZU3iuL81u31voU6f99Y8tYnWqZX/su4XL9NlyqCxoRGiIqkBxzw/9kDOpThCQLWKt3Llyt///vfPPPNMfn6+l1QLOnXXCXy8II420aVLl8WLF5eVlVnOxPGI0tLSoUOHNm3adOLEiYHxVjPXQtz/wIEDnTp1svvSWCjZRTBrQEfIJk2atG7d+uDB30av1ty3b1+1ZO/evb2kaFxgfezYsf4O3bFjR4sWLWLeAkVN98orr/zrv/7rokWLvKRaSNwRW7duvemmm66//vpNmzZ5SSG2BlUhnsDgLyoqmjt37iOPPNKs8hYfGsyBO5BYVC6ecN/Z/UzsEZ1a2+OPP755c4xDpdafkZFhi9tXQTEv+FU2FUZF0qqUR4XUUrt37/Zmx5Eg7m/3M7nxxhuVQR599NGlS5dqf/dmX+bPZm2ikeYfEv6eWrdunbsrlOob7wYp27Ztu+eee9q2bXvo0CEvqUbs0ORa3naieGMm8YgKSByBtbmuVS00XG8Hq2pVpJYWLFjQq1cv25DVOrDXVEtyj1GiIr377rt25zHrhZhDPaJp06ZpDRq3/ndY912FPTvaL+nveolHXd2JOKLqc+ABAAAAqL2rLO7/6KOPenH9CP72t795i1Vl1cxVr9782luPDs0/WUUs9UDl5erKHJjeeWpEwanfbnhtF6EvGPGFRd7d9Prt3X5edulytrqL+6ffkrFu/rpxL4z3r81t15SVls3pP0c5/Xk0ze7zsT/cHC+bpnDcf81nia5OrVbcP2ZmFeOzYZ/beXW14v4RK+tEifv3bN1r49ebhjwyxL9C9fWhrb8FsE4fPj203TB/Bk3qiE2Lr4j6Vat47tLLmAGIGtCpu07gowRxLGfieITdjl95EtwUu1quhbi/n4UsXQSzBuze5YG7w+/Zs+fBBx9UenXvHmMd2rJlS7vu1ZSWlo4fP97izvPmzfNSL3O/Ebn//vtPnTrlpdZU4o6wuH+zZs1++OEHLynE1qDyxBMY/BY3DJs50zukWFQunkDfHTp0yD14wFHTLVy40Mtxmd3k55FHHsnPz9++fXvz5s3DnaWjX8x7LlW5/8aL+8e7n0lg+C1dulSJ3myfAQMGuB98WDsrm7ZiY8P5wx/+sHfvXsvmZ2NVahDqrbHEIyqgoSKwUVSrIklkbVLlkEsguceogFrG/d077Pz5V/zK88cff7T7iYVvOpf0dz3i/gAAAACS6CqL++t8wwvqR/Dss896iyVUXlY+LX3aqze/9sXIL72k+A5tPTTl1ak/L/v5fP55vSwrLcv9NteC+99//FvsyeL+mjJbZa5bsF7ZiguKZ/SYoZSRHUYGfhwQuHNOWLXi/sqZ0aJr+q0Znw6aW3im8GLJxY96z1bipM6T7CY8oiKl35LR/08Dtv+wo7y8XMXb9t02vVSiZlke+X7290rp3ab3xq822rKFpwvnDPjEX1q13pz+c5TSvWWP1Z/+GA5VB9gXJ3a9vJcUsnLmqtl9Pj607ZBtVM21cPRCleTN+3of3X3U8jhW5QT3+YlYWSdK3F/LZvxbV1X5m8lLlVJ0tsi+aJk7eK5l01amd52ulMldppw8dCn6qVp88/43r9/erW/bfif2//YE3WoVL+lx/7y8vJYtW0YJ4ugkX6f6ieMRSY+ALFq0SGtrqLh/smoRXS3j/nbv8iZNmrifOlVUVCxevFgrvDRi4t/0PB57voKGnAaepZw5c+Yf//iHrU3CdzNPetz/scceixdj0twOHTpoWy1atFixYkX4KvUAC6gljgn27dt32LBhe/bsseiee45luDrWWQniX1rDyy+/rGXdDUPy8/PHjh3btGnTcCjcbvJj1/jb8Avf6kcrUQ829z3wUzm1YJ8+ffSP5YkpZtxfa3jllVeUPnz4cLu0WSlbt27NysrSX8sjBw8ebN26tbL17NlTraEUVwtZuXKlZbMyK5vcddddP/30k8betm3bbNlJkyZZNr+GivsnGFEBNmCScqRNOmvw+j9G1TLun/RjVEAt4/72wBt/q+qoMnnyZA11K54GT6DiSX/X00FVa2uouH+VtWiogQcAAACgZq6yuP+MGTO8oH4E7grNxCyS+2pVd6pJYMnEJVr8o96zvdeXg9G97snav+W3x6Xmn8x/69Gh4YBy0uP+6bdmLJ/+200YLNQ+8L8G2a8ZiguKR3YY2eOuN3ZvuOLuELvW7Or2h+7u64HC04VD/2fY67d32/7DDstgwqXVCie8NFGJmnq36fPlqC/PHDnjzQuJEvcPKyksGd1xTPotGVtXBR8YkDjuH7GyflHi/tpi95Y9/APm52U5Kt74F8dfOH9BL/du2quNjmj/buGZ32IE6pEF7yzQsu4rohoUL4n3+dEahg8fnpaW1rdvXzda4okS9y9N3h0PtPjevXsff/xxf2yxPvXv31+V7dKli8U660ct4/6FlTFNt3hxcfHAgQNVi2bNmo0fP75NmzbVXbN97+KCaJs2bbLnD7dv3/6dd97xz3JUhmTd56ekpCQ7O1sD4Pnnn1ddvNQr+S+oV9k08E6fPu3NC4kS9w+z78ZuuukmfzRcqoz7b9iw4brrrnv44Yf9RdLAHjx4sIrhjyZbCN4f6LeiBm71Y1v885//nKCOMcWM+1v8LvGvJcRuvP7yyy/bNw1GtbBDh4pt6bY2pdx7773++/YkaPNk3ecnuigjym/16tXK3Lp1682bN1f5rVL9a5BjVC3j/kk/RgVopMUbb1HYzu526jNnzthXdy1atJg8efKtt94a3t+T+K6nMaaRpvGmze3YccXnrvoRcUQ1yMADAAAAUDNXWdxf50WdO3f24voJKVvEE3WL875682s5y6v90EsTDoXHDEa7HxYENpT0uP+Cdxb4zz+tgi7UfmjboZ6te43uOKak8Le1SSDb/p/3v3F35oj27xadu/TLBidmacvLy39e9vNbjw7VLE3pt2S8948JR34JXpsvNYz7X462h/soZlM7ESvrZ7OqjPsH7mtk9XJ9tGL6CuVZMjEYIreudK1Xg+IlhcUBpWnTpjp7P3Mm7vc0TpS4f7JY7EaaN28+bdq0Bom4qU3samhTP1dfWmC3xpEv6yNbPC8vr3379ir5Pffcs2nTJgvLVnfNLmirLpg9e3azylveDxw4sLi4OGYoOVmsHbR+efLJJ/33AQ9TYVS2Fi1aWH7JyMiIeclwzeL+/lb1kipZIcNxQGfSpEnaXPgnEeGmswv5/T8psJUH7nninjj61FNP5ebmRt8vYnaW3iPsjup33HHH559/7n7S4eeuzl6xYoWXdJkG1fXXX+/K7OL+ge976nScRFetEeWohXX8UTVtwQavRUCDHKNqGfdP+jEqQH2kFda4p/w79bZt2+wB5n/5y180YKzkNsvLnTxu95E777zzm2++qeVXCDUTcUQ1yMADAAAAUDNXWdxfdK740EMPedH9OJQhZtwnpqJz50e0f/fVyNf7H9t7bGavWVl/fFOL+Cd/KDxeMNrS/XcEkqTH/eMFwc3WVVvTY92y3yYXa7aNzugxI3D+maC0ynnkl6Oz+3zcvfI5xoEr4k2UuH95eXnut7mjO46x9fin6sb9I1bWz2LuVcb9wyXxs3srxZtc69WgeElhwTjz8ssvHz9+3JsRn0U9lL8eTvItdiPXX3/9xIkT/Rca15uioqK+ffs2vXx7h/oJbVjUqcaRr7Nnz+rQp8XHjh1rcfB//OMf9qWOm1WtNc+bN08refHFFzMyMvSPFl+8eLEdEGxWHUVCrR20fnn00Uf37NnjzYivrKxs/fr1L730ki2l6ocfnxsl7l9cXPzJJ5/oTcR1vQk3nRUyQRywW7du3sKx+Isxf/58pWRlZbmDbX5+vj1bOHCrn9zcXLvPuDRv3vyNN97YuXNnlSFC29/DFddWXIupvh06dFBO/+526tSp+++/P+awCYRBXeAysKfE23Q9q8GIEjXsggUL3FdKDV6LgAY5RtUy7p/0Y1SA+kjrrHFP7d+//4477mjZsuWYMWPsa85+/frZT0NsVoL9vTb8cX81i0ZdlTt1XYg4ohpk4AEAAAComasv7i86KbL4fjzK4GWN4ML5C+NfvHRz9vDV2WGbFm9+/fZuFpYNTP5QeLxgtKUHouH1HPe3tcWbAnH/cKmqLK0UnS2aWvnLhsEPDwnc86fKuH9ZadnsPh9bYcJTdeP+ESvrl5S4v5Uq3uRarwbFS6IDBw688MILOm/3Bxzjqc+4v5SVla1cufKuu+6Kea1xPZg2bZoq26VLl+reU6U2LDpZ48iXP3jUtGnT8ePHuxhuXuX9KyT6F6JiQVvz4IMP+qOldhPq8MXsSaSW79mzp7by9NNPW+gtioMHDz700ENaKhyarDLun5+fbxcgh4U7xTorQRzQQpDxuGKoj+zi2cWLF1uKGTp0qBIDt/oRNcVnn31mdTQZGRlFRUXe7FisH2NWXDv+xo0bO3fubFFOadOmjbtzt93uPOaAvLri/qa6I8oesKwWyM3NbZA4bGINcoyqZdw/6ceoANvpajze3NucaNjPnz/f9bv9wCV8f/8kUlPMnTtX29Wo09jzUutRxBHVIAMPAAAAQM1clXF/yczM9GL8IZrlZYps7uC5r8Z64m6A3Y1dOSd3mXJi/wl3QhgOhccMRlvIOKNF1x2rq7hjfoBFh4Nx/8pb3tcg7m+R98DawuxSdHfDeqMq2x3qE5TWnDx4ss/9fcOVrTLub3fGf/32bt+8/43rjgTR9sRVjlhZv6TE/a1PE3eE1KB4yWXPJHzoytuJxFTPcX+TnZ2tLYZDn3XNnp98xx137N//2/M56kEt4/5i15i3aNHi+++/95IqrVixokmTJtWN1m3duvWmm27SCgOR5eLi4qefflrpgVB10tn15tXtiLVr1zZr1iz85Mkq4/523b3a/5NPPnH3vbGRH+6UKuP+tjn99V7HYTf5Uc6YEuyb6pGZM2eqDMr20UcfeamxRAm+2w8mHnzwQeV88cUXrfoWpfU/hdWxMKgrnovnNua4v1RrRNnxZ968ed7rxqShjlG1jPtLco9RAbWM+2ufsm/+/N9+GQt260hY198A2fOu63/URRxRDTXwAAAAANTM1Rr3P3v2bLt27bxIv48Sq4xghm3/Ycfrt3dLvyVj6ZRlCU7q7G7sb9yduf/n3054lP/r975+NULcf/eG3T3uemPAnweePXZFCe1e8NPSp5WXlXtJV9qxekdGi67+W+2XlZbN6T9HBQ6Ep6PE/e2Bvb3uycrbleiquqO7j755X+8+9/c9efCkl+T7uUPEuH+grcTaMLBaP2uNwC3vVfFRz4xWejjabnfU+WLkl97rK0WsrF9S4v7WZRM6TbxYctFLiqUGxUvic33FYpoJYpdOlLh/afKecGgiBg3VFGoQ5Rw8eLC7erQ2LIhZZbMsWrSoWbNm99xzT25urpdUO1Hi/okra5HrQOxM2ezplCNGjPCSfBLUQtt65JFHmjRpErhp+5o1a6677rqWLVseOHDAS7pM230lSc/1FeuIxA0SZnH/8IXDdsP9Tp06xRskFpHs0qWLf/QePnz4zjvvDJfBvhRJEP9atWqVmq7KS8uty+JRRQK3+gmwH16o5N7rWOzZvL179/Zex2fR/NatW7sndloUMiMjw99oah97NoD7qZD1lFKix/3r/7m+Uq0RZTHuBEe86DZv3tyiRQsdupcvX+4l1Y5VpP6PUVHi/sk9RmlWZmamdqXOnTtX+a4XJe6fuC9sZ9EO5S/56dOnH374YaWr8F7SZcqW3He9iN8XNtSIipgNAAAAQCNxtcb9ZfXq1V6w30eJ3uzqKCstm9lr1qs3v5Z+a8ac/nNOHT6l8zc5e+zc0inL5r/tnemdOXqm/wP902/JWDRm0cWSi+Xl5Xk78yZ3mWK3aA/H/ecM+KTw9KUzW61/23fb+v/p0tODw0F5ixG/fnu37z/+obQkRkDKQvDK88OcH7TRwjOFWr9ttAZxf9Vr4eiFyqbybF6y2a40VwmP7Doy7615333kXYKnCk7oNFHZZvSYoS0q2zeTl3Zv2UPFUKKr7KFthz7o9uG2VdvO5//2ncTh7YfHPD9W2cI/obBIt602/2SMc3gVSXN73ZOlFlNR1SBKGfTQYCVqCkfb1WiWP/fbXG3aS70sYmX9khL3V4vZQyMmdZ6k1rCCaVk1lJpLjWbZqls8u9QurVJ2draXWgsWzY9yDm85td0EUTD79YDyhC+1rpmIcX/LJk1CNwXKy8vTYaFFixZbt27Vy8mTJytPVlZWaWlpYJZflNCG5bHtVutGNAlEifsnqKy4+NQ///lPi3orxe5t0rp16/DjTKusxdy5czVLrfTll1+q0dz9l5Q4duxYDWAv32UW7NZc/1Nqa8yKF69Bvv32W42N9evXK5ulaAfRW4A9jfOVV17xR+7Eyta0aVPtO8rppfpYDF0NtW3bNr3Mz8//6KOPfv/73ysxXAa7clyzunTp4qLkfq4vtM9qjFlhVFT1WufOnW3UKbFTp07KE768V22rgapZLl4fqK8y7N279/HHH1ce/9FA1ezXr9++ffvUWVr/woULVfjwaFGZX3rppS+++OLkyZPWj6rv8OHDrcCufTZs2HDdddcpUaPIqql6DRkyRCnNmzfPyfEOg24gBY4PCXZh+0ZBonwhkSyJR1RAEuP+agGrrAZnYLRoJGj/0rFIO6z6S52uztKRKjDLMjtWkfo/RkWJ+yf3GGVHxcr1pU2bNs1LjcPaOeZ4cxL0hWif+sMf/qC5GuQqmFLcDfG0r4W/eEj6u17EuH+DjCiJmA0AAABAI3EVx/1lxIgROoFxYl7NGlFxQfGEly6FucOTi3GXl5XP6T8nMDf9lozBDw/JaNHVZROLv4enGW9kW2zXTynv/WNCIKf/3i8xt/tepwkqcA3i/qLK2iMNwpN/WfsZhH/u0HbDNn29SRt1ldXW9dKfx0292/Q+kBO8HFiWT19hX1q4yV+LM0fPvPXoUP9cTd1b9hjw54H6Jxxtj5nf3xcRK+skJe4v+7fs73VPln9zNgXWXK3i1XPc3+ba5sLCsZWGivvn5OQ0b968slDBcImLQCndRcGsvv5ZXu7LooQ2SiuvQrU1JM6ZmD+qFRYuW4LKmk2bNrkMjjaxdGmM0V5lLZShR48elsHvpZdeinntbX3G/V0PhsW8ilxr69Chg5fjMq1f6ZbB37bO73//+zvuuCNmGSZOnOhluiyQLWZfiMu2v/JhofF+NLB48WJldi0Zr77t27f390XMbOpEdaWXo1K8vVsFVrG9TJXfLoSrKc2aNfP/pMPtXNq6l1TJChNzF76m4v6uDcObtq2INuQ6xYalf5aX+zKrSP0co1wxwmK2ZHKPUXl5efZNnsQcSC4CHhaz1gn6wixcuLDplY/1lrvuuivmbyYaKu7fICNKImYDAAAA0Ehc3XH/srKyUaNGtWvX7sknnxw9enT44tNqKS8vz/02d3THMd1b9ni18tr/QQ8NXjplWeGZ365ru1hy8atxX1k89/Xbu41+dszOH3fu37LfHwoXi7/bpfEup1auTXg5rlRcULzgnQV9/qOv5dcUuOe7/p839DMrWO82fVbOXKWSaCuBILJtt8q4v2jxtZ+vG9pumKqpRbTmkR1Grluw3r9R+WXdL5fy3JKhDPPemqdyWqDfVVY12vPTnpk9Z/b7z0u/hNCqVNlhjw9fPn2FMlueAC2y8auNbtOaArU4dfjU5C5T7CuHnv/ea3af2ScPnVKl9DJmtP3MkTPKo5y2Nk3+vpCIlTXJivuLVvXZsM9dt2b98c0Pun2o5goMg2oVrz7v8+NCBjGFQzClDXSfH21r7NixVqpAuCSvzq73l4MHD7Zu3VobrTJnAluqGfdPUFlHVevevXuzyie16u9LL720e/dub15IlbXQYXbBggX33Xdf5TbTWrVqNXv27HjXDqvp6u0+P+pEjZBOnTrdcsstVjZV9pFHHvnss8/iFa+goGDw4MG33Xab5RcLh3mzK0OWjz76qM1SNmU+ffq0RmDMMljLtG3b1vJLOJuatH///m6LKmrnzp3Xr1+vZTV33rx5Sox366EjR46otTViV1XeXl+VUtVUQetZ0aY/+eSTQGX1curUqVrQ8qjjVEjbnJ8Gkj3R17WeCqmihseAcq5Zs0bvsxYM1dYzMjICI8p6SnMD8cQEu/A1dZ8fHa7tlxnhTdfp1dlJOUa5YHFYzJZM+jFKA9i+TYw5kJRYuakYYtY6QV84O3fu7Nixow34G2+8UZ0Sr/WS/q5nrR2v3ZyGGlERswEAAABoJK7uuH+jFT3+DjQgnbrrBL7RnsNHjPvLjz/++Lvf/c5FSGspYmijtLT0xRdfVAn990WpB8mtbEPVIopqRWmBKlVrRCUx7i8DBw7U2pLyOxi5po5Re/bsadGihWqRlF+5SXL7Irkixv2lQUZUxGwAAAAAGgni/nWCuD+uCqcq71HevHnz7du3e0mNyaoIT0YtLS39+eefH3zwwbS0tA4dOhTGv+t0dHaddWvf003DTp8+PXbs2KaVFi9e7KXWsaRXtkFqEZ3d2EpjIHyXcKAGoo+oioqKjIwM7Wi1f26q9tNPPvnkhsqf9UycONFLrZ1r5BhVVla2Z88eu71+mzZtwlepV1dd9EVyZWdnq2xZl5+YHVNDjSiJmA0AAABAI0Hcv04Q98dVobS09JVXXkmrfGLhgQMxHsbQsFSkli1bqnjDhw8vKiryUn3sBwEmWTcMOXHiRJcuXbTCeHdfKay84NE2Ksm6vUOVklvZhqpFdY0YMULFa926dW5ubuMsIa4uUUZUSUlJdnZ206ZN4z16ITr/XWgyMzNjHlKq6xo5Rm3x3QOtRYsWmzdv9mbUVF30RdLZk7Q19mbOnBmzhA0yokzEbAAAAAAaD+L+dYK4P64WgUcsJuumFklRUVExfvx4r2SxbtZsYaaYdzmvAX/QqmnTpitXrvRmXMliajfeeGP4Lud1KrmVbahaVNehQ4fuvfde6xSJcvsLIIHEI0pHGB1nvHlpaX379q1lxDw9Pb1Zs2bPPffcxo0bax98v6aOUVu2bLnppptatWqld4GCggIvtRaS2xd1pPTKR6mrH9Wb3rxKDTKiImYDAAAA0NgQ968TxP1xFfE/w1Cn915q4+B/qGxd31PYQhtqh3bt2q1bt85LRUPzPwKUuD9qL8GIcnH/Vq1aTZs2rbFd1Mwx6lpgj+a+88471dfhuH9yRRxRDDwAAADgKkXcHwAAAAAAAACA1EHcHwAAAAAAAACA1EHcHwAAAAAAAACA1EHcHwAAAAAAAACA1EHcHwAAAAAAAACA1EHcHwAAAAAAAACA1EHcHwAAAAAAAACA1EHcHwAAAAAAAACA1EHcHwAAAAAAAACA1EHcHwAAAAAAAACA1EHcPxWUlpZOmzatVatWaWlpd99997Fjx7wZdUAr1ya0IW1u6tSpxcXF3gwAAAAAAAAAQCNA3P+qV1pampmZmXZZvcX9jTatAnjzAAAAAAAAAAANjbh/0hzbeyy758zXb+/26s2v5SzP8VLr3q5du2699damTZtmZ2eXlJR4qXVMG9LmtFFtWgXwUgEAAAAAAAAADY24f22VlZblLM8Z0f7d9FsyXr35NZvqM+6/fPnytLS0Tp061fN199qcNqpNL1myxEsCAAAAAAAAADQ04v61tWP1jowWXV+9+bUR7d/dvGRz/wf613Pcf8mSJWlpaePGjfNe1yNtlLg/AAAAAAAAADQq11Dcf8WKFU899dQDESjbqlWrvMWqUlxQPKPHjJ+X/VxeXn7u+LkBDw6oMu6/cuXK3//+988880x+fr6XVAvE/QEAAAAAAAAAzjUU93/00Ue9uH4Ef/vb37zFqiNK3L+kpKRjx45plbKzs73UWiDuDwAAAAAAAABwrqG4/xNPPOEF9SN49tlnvcWqo0Hi/osWLdKqGjDun5RaAAAAAAAAAACS4hqK+8+YMcML6kcwc+ZMb7HqqOf7/FRUVOzdu/fxxx9v2rSp1uml1qPVq1dr061bt968eXNZWZmXCgAAAAAAAABoONdQ3L+srKxz585eXD8hZatZFDti3D8p0tPTK38zkNa8efNp06Y1SNhdG9Wmr7/+eiuJiuTNAAAAAAAAAAA0kGso7i95eXkPPfSQF92PQxmUzVugmhok7n/99ddPnDixtLTUm1GPKioqFixY0KJFCysJcX8AAAAAAAAAaHDXVtxfFixY4AX441AGL2v11WfcX8rKylauXHnXXXc1adJkxYoVXmo92r59e/PmzVu3bp2bm1tRUeGlAgAAAAAAAAAazjUX95fMzEwvxh+iWV6mGqnnuL/Jzs5OS0sbOnSo97oe2abnzZvnvQYAAAAAAAAANLRrMe5/9uzZdu3aeZF+HyVqlpepRur5ub5myZIlUe6xo21pi8o5ePDgZN0UaNy4cVqhCuC9BgAAAAAAAAA0tGsx7i+rV6/2gv0+SvRm11SUuH9JSUnHjh3TKmVnZ3uptRAx7m/ZJHxToLy8PFW/RYsWW7du1cvJkycrT1ZWVmlpaWBWAHF/AAAAAAAAAGhsrtG4v4wYMaIy2u/RS29GNblYf8wpu+dML99lDRX3z8nJad68uW133LhxXmol95WA0gsLC5944gn9f/fddx87dsw/y8vtQ9wfAAAAAAAAABqbazfuX1ZWNmrUqHbt2j355JOjR4+u8WNpqxv3lwa5z48qOHbs2MoYfjCIz/X+AAAAAAAAAJAyrt24f8qIGPeXH3/88Xe/+12TJk1WrVrlJdUOcX8AAAAAAAAAaGyI+1/1Vq1a1aRJk6effrq4uNhLCiktLf35558ffPDBtLS0Dh06FBYWejNqoaKiIiMjQytcvny5lwQAAAAAAAAAaGjE/a96Bw4caNmyZVpa2vDhw4uKirxUH/tBgGnbtu2hQ4e8GbVQUlKSnZ3dtGnTO+64Y//+/V4qAAAAAAAAAKChEfe/6lVUVIwfP96L619+Hq83r5LF/du2bfvJJ58k+E1ARFq5NmHbkr59+9b40QgAAAAAAAAAgKQj7p8KysrKFixYcN9996XFivsnl4v7t2rVatq0aaWlpd4MAAAAAAAAAEAjQNwfAAAAAAAAAIDUQdwfAAAAAAAAAIDUQdwfAAAAAAAAAIDUQdwfAAAAAAAAAIDUQdwfAAAAAAAAAIDUQdwfAAAAAAAAAIDUQdwfAAAAAAAAAIDUQdwfAAAAAAAAAIDUQdwfAAAAAAAAAIDUQdwfAAAAAAAAAIDUQdwfAAAAAAAAAIDUQdwfAAAAAAAAAIDUQdwfqBN5O/MGPTS4e8se33/8g5d0dSotLZ02bVqrVq3S0tLuvvvuY8eOeTMqjRs3TunNmjV77rnndu7c6aUCAAAAAAAAaDjE/a8C+zbve6/ThNl9PvZe14uLJRe/Gv/1sMeHH8g96CXh119zlueMaP/u8ukrvNfxLZ289NWbX9M09u/jSopKvNSrTWlpaWZmZtpl8eL+pnnz5jk5Od4MAAAAAAAAAA2EuH8yZfecaaFem16/vdvgh4csGrOo8Eyhl6NGLIKslXuvr3Qg92Bmq0xlGNlhZHFBsZdaycqTs7wmodhzx88NeHCA1hwv7l9SVDL27+Ospjal35ox6KHBS6csCxQjlViTqke81/GlxvX+u3btuvXWW5s2bZqdnV1SEvvbi4qKir179z7++ONpaWm9e/f2UgEAAAAAAAA0EOL+yRSI+7upe8seG7/eVFFR4eWrpohx/4wWXbet2ualVqrnuL+b+v9pwKGth7x8qSV63D81LF++PC0trVOnTqWlpV5SHGvXrm3WrNkTTzxRWFirb7kAAAAAAAAA1BJx/2QKxNlLikp2b9g9ov27Snz99m7bf9hh6dUVJe7f4643erfpM73r9LLSMm9GfcX9/fVdt2B9r9ZZSryqb26TwLUW91+yZElaWtq4ceO81/EdO3bs7rvvJu4PAAAAAAAANDji/skUM85eXFA8/sXxSp/QaeLFkoteauUN9FfOXDXgzwPTb8nQpH+WTV3mYuUuqh5vcoF1i/sPeHDAghFf9Ljrjb2b9toaJGZ5zhw5M7vP7J7/3kuzurfsMS1j+okDJ715lfevd5uIOfmj/IG4v9m9YbeK0e0P3Xdv2GMpts6lk5dWVFTs/HHn0HbDVF9tet7QzwLfDZSXl2/8auOlDLdmaJE+/9H3s2GfF56+Io5sa1sycYmWXTxhifLo5Rt3Z3417it/8xo1/oJ3Flie12/vNub5sQdyDnjzLquyePYViPLEm/xfybifX7gpwZcEifvC8ddCZRvy6FtrP18XrqxZuXLl73//+2eeeSY/P99LqgXi/gAAAAAAAMBVh7h/MsW7vn7bqm0ZLbq+eV/vo7uPWsqZo2fsdwCBSYmapQwuqh5vCsf9d/y4U5v4dOCn7oZC4fIcyDnQu01v/3o09bona/+W/ZbBguAJJrc2V8JAfV2U3KXbOmf2mvXN+9+k33IpoO+mOf3nlJeVW7biguJpGdP9c20K3DXI1vb+P9+3b1P8k39tcvrw6aHthgXyvH57t02LN3s5KlVZvDqK+1fZF0a1GPLIkEA2TYFmNyUlJR07dkyrlJ2d7aXWAnF/AAAAAAAA4KpD3D+Z4sX980/mD/yvQW5WWWnZzF6z9PLtJ985tPVQeXm5UrZ9t63/ny4Fl+e9NS/wJIClEe7zM+DBAWeOnPmg24f9H+h/8tApmxUoT+GZwhHt302/JWPOgE/sUcMqmP5XitIDDx+uwX1+jC2odW5dtdVSlEHZMv6tq23o8I7DqvJPiza+fns3912IqvzN+98omxpBTaEGUR41jppIie//c7K7vN3WpslVRDlXf/qj1ub/uYPWML3rpW8RJneZYg1SXFCsTShb37b9Tuw/YdkkSvEca9IEl/D7JcgcvS8Wjf1KK5nRY4Yy6KXKduLAyc+GfrZjdYzbRiU97r9o0aJqxf3vv//+U6e84QcAAAAAAACgQRD3T6Z4cX8XIl8xfYVe7t20t8ddbwSiz2J3yPEH7k3EuP+54+dszYvGfmWzAuX5aeFP6bdkBJ4BoP+nvDo1o0XXQBy5xnF/+3GDvxYuUj/hpYnFBcWWaIurPPb1gDJrERVejWAZjJpIDeUP6NvatODSKcvcFyT659OBnyrdBdmtKQIxdGVb8M4CZfv+4x+8pGjFc5IV94/eF7aSNZ+t9V5XJVn3+VFb7d279/HHH2/atKnW6aXGV1JS8uKLL6alpQ0fPjwptxgCAAAAAAAAUDPE/ZMpEGd3XIjcQsArpq/Q//4b8piSwpLRHceEQ/DR4/4XSy5O6DTxrUeH2rXhgfJ81Hu2Xm5ecsVdbsTWHwhP1yDuX1xQ/MOc1VpEiQtHL3S1s8D6O0+NCNyp31+8rau2pt+SEXgEgmglM3rMUDYXqbe1adMqgKWY9V+sV7prJWvkJROX2EvHFvc3ZpTiOZYYM5QfliBz9L74fvb3ahm16ooPvnVfS9S19PT0yt8MpDVv3nzatGllZb99OZHAwYMHH3/8cVvwhhtu2LJlizcDAAAAAAAAQD0i7p9MMSPF4kLk679Yr5dzB8+NFw6OuQaLBWuW9/pK/ri/Xv608KeMf+uqv/rfv7YL5y+Eb4jvnwLliR73D0zpt2R83G+OP3xvgfVwpN7v+49/UJ6YdQyEwuOtzdIndZ5UWlKqlxZYjzf5NxSleI41acy+C4uXuVp9UVZa9vnw+WpVpaffeukuQOsWrI9S1Npwcf/rr79+4sSJpaWXmrRKx48ff/nll21B4v4AAAAAAABAQyHun0z+OLvfmaNn+j/Q313IbyHpmLHjmGtQTiX6Q9V+gbi/3TjeLpz3ry1emN5NgfLUIO7fvWWP9//5/r7N+wK/Y4gSWLfL82PW0arvihdvbZY+o8cM27rVPd7k31CU4jm22ph9FxYvc3X7Qo7tPfZxvzm97smyDL3b9N75405vXt0oKytbuXLlXXfd1aRJkxUrLt2fKjE1e1ZWVlrlfX6Kioq8VAAAAAAAAAD1jrh/Mlmc1+LsfnYz9wF/Hnj22Fm9tED23MFzba5j9/np9ofuuzfs8ZIqWX5/qNovEPeXVTNX2Q3xA+WJV7yYosf9q1xhlMC65XFX6zvuPj/2UwmJt7ZAq9rLcAA9LErxnHih/JgSZK5WXzhqjSO/HFUradnhj7/tf3RBHcnOzk5LSxs6dKj3Or5Tp07df//9Dz300NmzlwY5AAAAAAAAgIZC3D+ZYgZzT+w/MeSRIUqf99Y8uxR9x+odGS26DvyvQacOX/H83u0/7Hj99m7u7vyOXQs/LX1aeVm5l+QTjvvbM3I/Hfhpdma2vzx2L53wcwViUhlUwvCXEE5y4/5Hdx99877eqsi+zfu8pEpHdh3p3aZ3r3uy8nblWUrMtdmvHNJvyfh5mVcYa+TwAwPCohTPsd9qfDHyS+91Qgni/tXqiwD7+UjP1r0ObTvkJfkk67m+ZsmSJWlpaenp6d7r+I4dO3b33Xc/8cQThYV1/m0EAAAAAAAAgASI+yeTP+5fUVFRcKpg9ac/9mp96d4sQx4ZcvrwactWXFA8ssNIJb795DuHth4qLy8vKy3b9PWm3m16p9+SsXx68J4qFsJ+/fZu33/8Q+ByeAnH/bXpeW/N6/9A/xHt33XlkRP7T/Rt20+bmN3n4xMHTmq7Siw8Xbjx603TMqYHvmzQhuy68jHPjdWC4fB0cuP+5WXlH3T7UNn6/2nAtu+2qUFUvN0bdr/16FAlzuk/x33nYWsb2m7YkV1HlEcFU/Emd5kS2IR9E6BE1eLw9sNaoRI1d9uqbdqQP2IepXiOxet73ZOV+22urTOBBHH/iH2hIn3Ue7Y2eubIGcujftFLDYah/zMs8CBiKSkp6dix46X766elZWdne6m1QNwfAAAAAAAAuOoQ908mi/OGp1HPjA5c2n8g50DvNr0D2dJvyZjTf044mlxSVPLePyYEMrs4dTjuL3m78ty94P1x+U2LN79+eze3EjcFFjc/L8sJZ3Zr09aTGPeX04dPD203zG3ITRNemlhcUOxlury28DTwvwYd3X3Uy1Rp/5b9rhH8U+DmRRGLZ84cPWNfRfgn9bs3+/L9hWJOgUaO0heukQOTFtTilsePuD8AAAAAAAAA4v7JFIj7Z/3xzQ+6fbjnpz12pXbAmSNnZveZ3fPfeyln+q0ZI58elfttbsycUlxQvOCdBX3+o69beeK4v7t8XlMgLn9s77GZvWZ5270lo99/9v+435wjvxwNX9GvlF/W/zL62TH+8LRbW9Lj/uKvpso25NG31n6+LnCjHltbxr91VQbLNuDPA5dOWeb/bsBRm3w27HPXbjF7JHrxjL/jbKpZ3F+i9IU90VezrL7KrEWU6M0O4T4/AAAAAAAAwDWOuD+uMtUN06M2iPsDAAAAAAAAVx3i/rjKEPevT6tWrWrSpMnTTz9dXBzj5xR+W7ZsueGGG9q3b19UVOQlAQAAAAAAAGgIxP1xlSHuX58OHDjQsmXLtLS04cOHxwvoV1RU7N279/HHH1e2oUOHeqkAAAAAAAAAGghxf1xliPvXp4qKivHjx6dddvfddx87dsWjBcaNG+fNS0tr0aLFjh07vBkAAAAAAAAAGghxf1xliPvXs7KysgULFtx3331p8eP+zZo1e+655/bs2eOlAgAAAAAAAGg4xP0BAAAAAAAAAEgdxP0BAAAAAAAAAEgdxP0BAAAAAAAAAEgdxP0BAAAAAAAAAEgdxP0BAAAAAAAAAEgdxP0BAAAAAAAAAEgdxP0BAAAAAAAAAEgdxP0BAAAAAAAAAEgdxP0BAAAAAAAAAEgdxP0BAAAAAAAAAEgdxP0BAAAAAAAAAEgdxP2Ba9dXvWdObTe44PhZ7zUAAAAAAACAqx9xfyDJvuo9c9T/r9uk/+p7cveRC0Uln7w0Ti9nPTey+FyRlyPk0MbdH//vmLH3ZirnLyt+9lJ//bXwZP6Hfx025S+Dzh466SXF4TY042/Dz58uKDh+dmq7wXq5oPu08tIyL9OVbJGP/zH2QmGxl3RVqKhY9tano1t33/bVBi8lvhr0RTzR++Jo7oH3HnhTG1o2bK5eqkP1v6atX66zDNey4zsPT3/irfH/0WvzJ997SdVnTareVJ96SWggddcX+1Zvn/hgH036x0uCD3sB6lp1x5g+bHw35ovRrXvo80zM6wnsHdlNXHaQdEnvMluhf1KKNw9IUVXuF1FoH9SeyC7TGNRdX2jNC3t9OOaeHvob8ahbcw10/ntiV97EP/eZ/cKokoLzXlIcnP+GbfxopVrgh/cWea/jS2KXXaGiIm/Lvs/S39ept3WHpuruCK5n3bR22jfevLpkQ2jsvZk6FB9c/4vq4s24kmuu6EGwaxNx/4aUszxnRPt3l09f4b2unX2b973XacLsPh97r9FA9G6nY42d0Lojkf7G+0Dwy/ItFvG3KXAs1luFEvW24b2Oo7Tk4mevve825A55ehfxclymnLkL1s7o8LZ/ozqa65ju5bhM7xNzu0xYMrDRjajDm/eOv7/XvC4TVRcvKY7q9kViEftCb9h621ZOe1N0n3uq+y7b4NS8qyd+paESHhs1pjax1kjQC0WnCpYN/XRWx3fjnW5Zk9a4H2upQfaLuuiLpKi7vnAhwvBBzGm0x6h60LB7AaKo8lDWyFV3jLkPHppivt+5ndome2v25iEZkt5ltkL/FDPbNSi57z6N9i3+qpD0TwJV7hdGs2Y9N3L9h8u911fSPqg9saF2mYYaUY3zU1nd9YWa1+KhMc+jTRI/CTTI+W95adml7zb++Mbe77d6SXGkzPlvEp09dHLKXwZ9+NdhhSfzvaQ4khuycHZ+s8kf8LGpuj3ixrmb6jPub5Nq8cvyLd6MK2l3iBgEu8YR90++Y3uPfdxvTp//6Pvqza+l35Ix4M8Dvxz15bnj57zZPtk9ZyrP0slLvde1o/VobVqn97rW8k/mv/XoUK2zx11v7N2010utvpzlOVpJeEpWxRsbi2zagVsv7UQ33oHbHaoWZc2I+ZZgX7NHOe77N6RJ/4QPeefyTs3429tKD0wxP69YRRrhQVONpg89CT5jOdXqiypF7Av3fmNviu7NMvAua4Vxk97P9AF9x+KNFeXlXo6GZhWJ185Wr3hXItgIdC3vRLne39YcXtaxzwFVdkS4hac/+db34xeeP1vo5aiRxPuF2/X00Vwf0L3USlbsmu1QifsiIlvJ5If7nz0Y+zcrKlt1NxGxL8ypvUe/GTTn/Yf6a5HRrbtPe2zwd2O/jNfLUa73r+djlI2owI4sVY7YulCtlq+NCwXFa6ct1W47unUPbXHCA72/7Pnh8R2H4113A6eeB4YNifDJue0m4/6j56GfdntJ0VR3jEW/SLb2LWNrUPEC38TrtFDHFqVfFRcYJr0Wdddl7q0tfACM6KroMn283Lpw/Ud/H2WBEn1W0afN3Stzwh/Mkvvuo8av/Vt8XXC95qZJf+67ZMDs/KNnvByNQOK+sDfueKPLdhmtwXtdKeJ+YWsOLOtE3GVitrBG3f41O2pzOlDliLLChy8et/LU+KNFUvYLW4m6wHt9JSthtTZRrcNX9IOAaM1VXu9vBU7KJ4GGOv/Vhwp9tPi676zEH/xs1GlDtlNYxcPNboWJOcXbmxJT16iDtLdal+ljaiM6Rl3+lUa8mLWT3C4z508XzPjbcG196ZBPanny61jBatZTNVN4Mn9R1gxt9LPX3tcu4KVeyd9cmmx/V6I3G5WI+ydTRUXFqpmrXr+9WyDArWns38eVhPbbRh73/3lZTvotGcMff1ur/WLkl15q9V2bcX8XD7UjkQ5YMd8sdSyb/viQBJE4+5o9HEMMsw3Zb5rcIe/HyYu92ZUfFz5Pn6zEmc+MOLr1oFao9+MEB26rSOM8aOpzqt7GqvzdXLX6okoR+8J97rHTDPvc895/vnkkZ79lMFaY8LRk4MdlFxvFr9KsIvE+XxYcOzPlL4PcB5QAG9j2gzsvKbIqPyLbeVqVH4bitbA+xO9YsrFmY0AS7xdu19Okj3r+rVixa7ZDJe6LiC4UFn/8j7HxVnKx+MKnnd+zX5h6SRFE7Au1w8aPVton8sBU9bLx1fMxykZU+LyxyhFbF6K2fO3oWDfpv/tZT/mneq7sVaqeB8b6Gcutd/xHnpKC87NfGGXp4aGbWN2Nsdq3zJ5VuRYsnue78tHeo62yCT7bNB5Jr0XddZlWqNVq5dUdRU7j7zJ9qtHHRStMYArXOrnvPkl5i68Ltqv6m8KmiX/uc+TnfV6mhpa4L3QepLnxRpcdNmt250n7SBBvzRF3mXgtrGlulwnFZ2t4i48qR5QVXpN/fxQrT42PIUnZL3Yu3ZxgJXYksTvJRBT98FWtg0BE1qTJ+iTQIOe/9kGiylvd2qjThmp2/qsp3t6UgEbvN4Pm2JuLf9Jn1yO5V2y3oeiD9Pj7e+mdTu93XlIsye0yY13g1pkUVrAa9FRtnD14cvLD/RPsRFaqBEEwCHH/ZMrbldfrnqz0WzLmDPjk7LFzFZU7auHpwjWfrc3uOfPqivur8DN7zcpslbn283Vv3td7RPt3i85VcVu36KyoqRr317udjjXuM5P9bkvHI5sbYO+RiT9g2dfsgRhi2HdjvnAb0rug/YzAf1w+tv3QhD/11of1E7vy9FKfYJQhwecYeweKV/KGVVh5t/0qfzdXrb6IIkpf6M3VPjVa29rPHsMfvu0tyrX/+bOF3747Xx9covyUsn4kPm2wufHeg6MM7Hiq/IhsQ7fKlQdaWJkPbvjlo+cvdc3YezNrfNf4xPuFtqKCKcOl7/MeGXDmwAlvxuVi12z4Je6LiKxs8VZicxM0e0wR+8J+K6PhvXTIJwXHztruc/5MYc7na9QgiZdNoJ6PUYER5VQ5YutCxJavjWPbDqrXtJXpT7ylg5KFBrQ5/a8TmMTHXkg9DwztDjrBntHhbf87o0449b5vx73w0E2s7sZY7VvGyvbx/45xH2nEflCvRM3yf/hpWHb0jlnZpNei7rpMK9RqtfLqjiKnsXdZ5VWZKsbU/xnkDndlF8uO7zj0Ve/s3StzLZeT3HcfGyS1fIuvC7aruhFVUV6uz1H6eKO6B+LFDShxX9jceKPL5tZsVNtHgnhrjrjLhFs4/+iZ1RO/sptxf54+uWaNXOWIssJPe2yI3jXUp15qqDzVlbgvIrJjRbyV2Nx4zR5T1MNXNQ8CEVmT1ub9zq+hzn83Vt6nPvBrrYCI579OElqmomLNlCXa4sQH+6jKly6bq6g4vuOwfeaZ8be3i041/CdVDSQdLf1vfDElvctk34/bx/zxjRrvzjHZoaNaO2Dt2S6cYKhUGQSDEPdPphXTV7x682ujO44pKYy7d507fm7AgwOULd4UCNyfOXLmy1FfDnpocPqtGZrb8997ze4zW4k2t6SoZOzfx/kXD0zh3xloWa1B69Hc7i17TMuYfuJAjC9vzx47O+DPA7V44enCSZ0ndftD990b9njzfMrLyzd+tXFou2FWvF73ZH027POYNzXyixf3r6io+GX9L6OfHWO/mVDxZvaadWzvMW+2z5Ffjr7/z/eVwbLp/wM5V7ypHMg9mNkqU41ZVlq2auaqfv/Z33LOe2tecUHsx9iuXLny97///TPPPJOfX6s3CftE4g6yiT8D2SezxEfkiF+zBzYUPi7b+6v7bcH6GcvDX8LbgVULxptcUe3r65hXBx/6afe4/+jpPpTYdhdlzSi7UJrz+Zppjw0e3br72Hszlwz6OHwly4WC4pWjFtidQJRnTqdx8b6u/+G9RVpP4qcbVasvlGdhrw/fa5u1c+lmLykkSl+4NrTPPfE+fFsH+T+D2icDJQa/oK6oOLj+F50Y2+XSapwf31988fwFb+5lStn6xToVz84WlFmLxHsMzqm9R7/uO2vCA70tp94g87bss5zWaAkmK7P9eDDe5eGBgW1jwL+S8Jux9U68yd+AVkKNqNLii+umL7XQpP6u/3D5pc98l4VbWNSDn3Z+T+mBU1b9/9OslTY4Nekfrdk1suvTeJOrqcu5etLXKpL/khwrdmD45R89s2TAbOsIddwXPaadORj8qiDBFKhdYvZJSB8B9UHQS/Kxkl/xoSrCwHOVsgac8peBeqkDyw8TvvI3r11SF+Up4uEqB+oYvS880XafKGKOKLHhHfg8qrP3HYs36qxjdOseNqJ09POPz0sqKk7+cuSbQXPUbspjxdMBUIdBL4OPcroHc6kuNuyDla1qRBlVxHYo9ZHbg1SG7V//5A4X7jpc9VqVlxwm3n3E9u5flm/Z9PF3Gh6adi3bop3xy54fKv/MZ0ecyztlOW0A6BioxdVT9l4QHlHGX1k74u35bqurgljXqL5qeZ2v2vhUsywfPi/cyFG6zDXdqb3HtDdpo8qpRfav2eG2G/1QZvzvelrbB08NzV2wNlzZKmm7WrkFjNyXxzoX0pvCqtELtHL/W5u/spqlrX874vPAz7Mi7t1iu4abAvtCWMxdxq/KvrCy2WHWRSJ02qx35w0zVmhW4G20yv3CVqg21MBTc9lOob8ayf7Kxiu5tUD44CDKqfwxK1vdWvgPAvqr/wMfkOquy9yBN2YdL6nqSFvdylbZZRH37ngld21lL/V51cLZCT4BVvfdR9VP/KnMypBgCpQ50ttKUlkjB+qlw4s+SKjjCo5dcSeNSB/gq/Oup0F76YFklw9TWmTttKWWM3pfbP7ke71cFufycO+96XI7V7lf2O7szxOY3IiyEmrv03mWqjyn09jKXuuhf/T2YXkkZguL3ZU7fCVQ4oNA9BFlNV0+fK5O1vxXIscsT+KBF70vIrJgpd5hA0ctY3VUx3mvIww8ry8q33wvNeDl9+6Pnh95bNtBL1O0g4AJVzlcx9p8Eoi7+1RK+vlvFPYdrY5m+uTmJYW4ZrFhZjtLuKaODbZE7z5Xvq1owOvUVSew3tzLpRp/fy//d1dy/myhhf7de401SMTPlhFHlJX80Mbds18c7fZuDTAvk0+UX2lUq8uUp8qQhQTWGUN1DsjGDh3+HfAKVXWZE+VsxfE3uJd0pUBzVVHIaxVx/2SyuP87T40oPB33FlrVivvHy9zn/r5Hd1/ahaob9z+Qc6B3m96BPL3uydq/JfjWYjf5WTT2K/2/auYqZQvf6qestGx2n4/9q7Kpyt8cxIz7V1RULJ2yTBv1r0pToArxbqakFKXbbyzE4v5vP/H2e50mBHJO7zpdJbdsTklJSceOHdMqZWdne6l1z94UEx2RK+mtQscv9+5VM/buqPUs7j9bb3L6EBy+v5AdWJUn3uSKqjVYkDpcKvvS1b292fu6Pit8mfmBW49Nc/85wV/xmI8f0DuHPv56OXzsi4ckXnBkHzS1xcR3p0lKX4i9J9lnI8cSrzg/qahY/+FyfZhQun/6tPN7gc9etmxg0oJb5v7g5TBx7rjietY+JSSYrMw2VOJ9nrMfl7g3YBsD/pWE34ztPTve5N+QlVBnO/P+b5I/j6Y1U5aogpYtZguLnbL6v7GI98NeJdppbfT9wuXUOZJOLfyX5FixXZuIPkeGb6Iy0ffz+Yh9EV28NhE74XEViTjwrIQx++KbwXPcmaTF/Wc+O+L8mSruLxmucqC00fviksi7TxTxWi986qLzYVXfPkP7p8BdvML7hU1qqCuuUYpTC01XVDbCiDKqiMqW+8XaTzuP9+fUYcHdgdR+ohEOOoRVufuI7d3Lh8/TQdvmfvLyeL0T2f+a3EHPjSj7fs4/+UeU7F6ZE2491evbdz93jWwtnP3MO3O7TAjk/KLHdH9fROwyazqVPLBp/2ln9EOZ6F3vgyeHBvJoCg+zKumdVyvft3q7Wt7uw2vfzqo81qruqKvBr1Ms/+Zsmvo/g3Totjzi+iLx3i22a7gp0Wl8pfAu4xelL+zKOJ3xLug+zfYCfRLQIVcV116glatIllOi7BdWWe0R4cH83bgv3dtKvJLHOziIfcyLWdlq1CLOG7dSLn0auTKOXBdd5g68MesY7xjlP9Imvcsi7t3xSm5t5TbqQn45n6+xlDC3qniT1cvLHWpkm/yfyqwMCSZ/mSMeo5LLGjlQL0sMXPYR8QO8LRvIpin4rhf/ncXaJHpfBDo6wA7mKpW9rHK/sN3ZnycwuQ1ZCbXylSPnW5jeTRppZw97X3XHbGFxJ1m/nRFEOAhEH1FWU70paP3as9yVyOHyVDnwovdFRPHaxNjnSVeRKAPPShizL1R3F/qPchAw4SqHS1vdTwINeP4bhd4+FkZ7um901tFx330qKtZOWxoeeP6mtm/1/F9cOfaOo7cYayXbNaJ8tqzWiNJ+FNglAz/1NhaBqfJXGtElCFlUeYzyN6B1QSCDpvAB2XGHDu+1X4QuM1He4v2swav8oILEiPsn06Gth3rdk/Xqza+Nf3H8yUPeO3oC2VXd5+fc8XPv/3PyugXrC04VVFRUlJeXH8g5MPC/BmmpuYODVy5YMD1BzL3wTOGI9u/abYj0v1LyT+brf6Uo3VKMtjWz1yx3jb/F0MO3+tm7aW+Pu95QeVQqlU0pdlOjhaMXWoZ4Ysb91WL9H+ivBsz9Ntfi8iVFJT8v+3nukHn+uP++zftUmNdv7/bN+9/YlfuuFr3b9D6yy/sMamXWVjRNTZ+mBlQJV3/6oxbs2brXoW2/ndmaBov7V94kPXxADLAQTOKv2aPYkL3CTszef6jf5If76/NNgncg+8jiPsKG2Xtq4JOHBRr8H2j8byqfZ0y+dKV8RcXe77epRnpvcBcs6OOjTtV+y1MZm1gzZYneUGO+idpnYn300QcgL6l2Isb9k9UX9sbpPrmKuzzBf6fRgxt+UR3VgFu/uPQDRh0Fjm0/NPOZEcrmD0bI8uHzvhv75en9x+2DuHp2UeVjcALV2bd6u5pULa+P7PlHTitFLamtfDvi88AgtI8O/q70s9vBu7nW724wWKfHHDyJPjFUsmUTvLu7ExvVwh5VpCr/OHmxXvorG25h4z7Z2ywt+3XfWXqpVlXbqoWVovE59X8ufUmmVvU3siTeL+yjia1cY3vMPT3cCLdiuwWtu10VlKKC6X+lKN1SnMR9EZ1FWq3i6in/NxO2CXcsijjwrFKaXEWU8+d5qzXG/Pumu2OMxozt3VXyt6SXFFLlMSr67hNFvBEVHrHanBpEQ0i7m39EKVGzLI+oWea/PuXSle/5lw4myrZ7ZY41lP8gYPusTlZ1bm+HHTXOug+WKZv/vSP6iLKK6HCnt4NlQz/VLA0GGxvuHMkO77Oquiuoyhxl97Ge0hYXdJ929vApjTrtGqrUtkXrVX2V0FUk4ojSSrQXWx4bwO79QpO7i5d1ja1wQbepOo1xa5vwp94qsGWTiF1mTadJq921bLNy5h89M6fTWKWoAb1Ml1V5KBP7IlnHaquFVnjm4IkV73wW80c5ials2pw2qnVOe2xwwbGzOj9//6H+es+yVvWOupd/F6/aqY6qqTbq9gv/bSUi9oVflCpL4mxR+sJGlEqoA6y6UitUNVVZVdlW7g4LKnaU/cJfWY3bi+cvqB2+H79QL/2flOKVPN7BQZRT+WNWNnot8rbs00u1vPrODgKuFjp5PvGLF7Oruy5LfECOcqRNepfZUlbfBHt3vJJbW7mNlpdeCm4qRUdarUS1sPR4rDpu8ZgifioTGySqjirlJYVEPEYllzWy/41GrCT+WqgwET/AR3zX095nDyRTBZX5UgNWVOiYtnriV+FjY+K+sNvBu7naij92qfSYzW4VT7xfaFltV1v3Xl/JDTyrhfXaqb1H7YteV9mYLWwswO1mRTwImCpHlCu8DgvaeQOXavnLU62BF2W/qJJ2Xu3Crgx2dnbpu41KtgnbnSMOvJh94d67XdS4ugcBY0eSmD1oqhxLEWvhaO9I7vlvRNpr1BExg+w1k7hl1BRT/jJIBwcdIqwv1MI6GiwfPtc1tX1w9R86HFu5O0xZN2nSuE3w5lizEZW3Za8OUMd3HLazS+25lu03l5/u604JaylZcf+IB2S/BMe9KF0mEd/i/azB491jABER90+yzUs2281n0m/NGP+/7+UszwlfWu5UGfePSZvQUuNfHH/hyjsVVBn3/2nhT+m3ZASudtf/U16dmtGi647VO7ykyyF4F+i3XxWEb/VjD+zV4gnqGFPMuL9F6hP/WqK8rPyDbh9q2YWjF7pL+0UFUL2Ubj9QEBf3n93nY1c8q4gSVXJL8UvWfX6i03uJzoh0mAvHFgP0Fqs32nH/0fPQT7u9pJqpqPjl25/ff8j7ilVvY4v7fWRvbGFVfnqz43vgY6V9LPB/GWBvvVpV4KIkfYZT4teVlyXqpX30DB7xKypWjrp0g4KYbz96+1TrfTfmC+917ehNRY1c5Y/mktUX9sbpnYhWVOjDhD5kKOXDvw5zF8natlTHwGdrnUaqE8Nv9gH2rZL/BNg+LGor+hCTeMhJlNMGlU3nVPrfbu6kN3udyeuldfoVP1y4LMEnBmPLJviIbJ/etGnVQp/bLFEnhNMeu6K0V7Swj3160Cz7ZGYDL/zZ2gIZasDADpJ4v3Ar13a1g89+YZT7isiK7Ra00avPl/6dQv/rE5j2oMCZbZV9EZEV3ipuT0nStuwE2DZhYd/oA8/1xdppS38bUZfvkervZe1WdpnV6NY9Pn3lPS3or3iYvyW9pJDEfVHL3SfMRlS8yY1Y63cNHg0hW9AcWLtT+4gLrMfzY+VDCF0QWZm1iGqxac53lmKs5f0f36OPKKuIOmL9h8tdr9l+50Kc1raLqnqkWMTdx9ZmA9j1rL1N2HZdRSKOKAuXByqrbHpLVbr6Xb2vBFu5UvzvPuGhFb3LrOl0oLviUvHlV3x14djWExzKxFZY5dWFUWhVdlKkTnmv8k5KajQrvLWqtZ69cYcrqx5UPyrdnQBH7Au/KFWWBNki9oW2bqPaqqOX+kRhO7WtXK1hC0bcL2JWNvy2Eq/k1o9uRPkpp/LHrGzEWtihTOsPfFupWliEwsXs6q7LwnuNE/FIm/Qus6VUpMR7d7ySW1u5jYrGnvudhEr+3dgv7dqImFT+wOJRhD+VGRskqo4q5SVdqZZvKzVmjewObtpK7oK1SlEHXXr7uKwGH+D9Au96YqcSej9y18UnkLgvrAqfdn7vYvEFjdUF3S/91El7hO0gWipmLMmWSrxfaFmtKuZuJW7gffDkUP/7Y6C0gRb2syFqb8rRDwKmyhHlCm9r1rC0N+tAeao78Gq2XwRY4d2nEfsRuTuv1CbccSDiwPP3xbnLNxUUnbDo3dy+JreUah0EjHVTzB40VY6lGuw+yT3/jcgGQ/hWATWWuGVsboIfCtv1Z2oHOw8NsFHkVm7dpMyJ3xxrOaISjH9bs44/2uO8pFpQAbTbJuE+P7GED8h+CY57VXaZqdb5r/PtiM+1XXeVDGqAuH/ynTt+7pOBn7ob0fRqnbVy5qqLsT6Q1Szub9H2wN1vpMq4/0e9ZyvD5iXBA0Q4Cm/fEPh/UmB5Arf6ObLrSO82vZUzOzP7xP4T/kB8YuEtSsGpgqHthil93AvjD209ZD8gCMg/mT/wvwb1uicrL/RoFPs6ZFLnSaUlpXppcf/+D/Q/c/SKu09am8eM+9cnOxBrGntvpg5hVd49WexDsPuoWhs6tm7/+icdmq0Mo1v3WD3pa//B11T96S18MlmZoqO5juleSvz3dYsUu3cju7BFbzY217G2ilkMHfo/jPB0o6RLSl/YG2dgmv7EW/6zQdVLH3z1cdx9E2DsA4daVW3rJcViH3r82XRuozMc9/k+sfDiAVYFdZD+1xgYe++ly4ftU5HettVEMT8WJPjEYOINGMeGROBm8eE28RfPz3K6MtjAC/emVq5NhD+CaCnljzkgxa3ctrvxo5VagwXWAyPZrlIJf2Kz9Qfap8q+iMi/8l+Wb9Hx59JIrvx6xsaGFS/6wLNKKVGzLMXY1eKBVlItlr71iTaqWZomPtjnp1kr40UrAi0ZU+K+qOXuE6YNWcljTm7E2qVq4YcZWCcmGNgmUCmLE4VPtMItH31EWUV0GuMf84HiWZ54betE3H2sDHbCY+3v9gvb311FoowoO9lza/A7krP/vf/87QovW3l4DFjt3NCK3mW2YOB9KlAFx9IT9/imOd/pHVPZNsxYoZNqL7VGVDbblrXwvC4T9eaodtMsa1U7i7OrX/3fzXsqKuxiZHdmG6UvAqJUWRJki9gXGlFag9ajYn/dd5bO0j/+3zEWBLGVW5hPLyPuF1bZwHatJb0NVYpX8sCIspcJJmu9iLWwQ5n7Wt1P9dLaXPSt7rrMmkIrcXV0Ih5pk95ltlSVe3e8kltbBdqkorx817It2nE0S5P2lLn/nBDzfs1WmJhNmoANY9cmTrx0p5ZvKzVmjWyt4SZ90tPbh/+soQYf4P3CjamPJUoJxLLjSdwXVgXbKQqOndVYHdemp71HaK/RvhOz9WypxA2rLWq7bkAGuIEXGMmBNvEXz1Icy2lliH4QMDYwEowof+HtpEafV/V/oDzVHXg12y8C/Cu3ZtTZovt6RmPD1SviwHN9oXRLMfYc2kArRT8IGNtWzB401qThtnKuovNfDRIVyYZK7SVumaJT+Xa/nU87j9c4dJd5Odatge5z/KNIL+N1U+DNsbojKvHe7afdU5+7Yu7CdafKwRlT4r1Y6Zob87hXZZeZap3/OsVniyqvMPBuJ6iqeTMQGXH/ulJSVLJuwXoLZGua8NLE8ONko8T9zx0/99mwz/v9Z//0K298X924/4XzF8a/ON6/hsDkimHX1Ge06Lpt1TZLEbulT/hWP7nf5rrb6aiQX4760j1zOIGYcX85tPVQ/z95zzPodU/Wx/3mHPnlqP/rhKO7j755X+8BDw5Qs3hJl1mg3zWLvQznbGxxfx2/vugxvfBEFU9CFvuaXWc4USK2VbJPcov7ffR5xmR9plFJApeQSJRPbxa7V8EsYBHzg0i893VLdwEaexuIN8Urhs4KVH7/1wz1ICl9YW+c/mneq5MC35BbNwWyuSnwWUcfKS49AK3D2y6uGs5mEZ+InwDsM1O8T1SiD0ZavwazfQD6ZvAcNYude9gIj/nmneATg4k3YJyYn2OsDP7S2obCnwwsp2ZZRMxOLxMUNbCGxPuFW7ktZRc26pNKeWmZFdsWtMClXsabAuWpsi8isvPDSyuvjLxo91/QfVr4isvoAy9mX4ilh68FE3vUobt75rz/mxQz3BloyZgS90W1dp8oYo4HsaZzI9b2Mv+2/FNgYNsTtif9uW8gm6uUrTx81h1o+WqNKKtIYIwF2BV2VV7vH3H38feU9axrf6ugq0igXo6l24jScNWgjdmDtqe4Rg50jRPoyuhdFrPpAlVw4m3dr+xi2bfvfm5b1+eBWc+N1N7hfxpqRNaqblt2cu7epKz1rP03V94P1/4PsG5ytYvSF17SZVGqLAmyRewLlV9r0Hr0vwWtxl/+pYK/O6LvFzEra63qNiTxSh4YUfYywWTtH7EW9qVszObyZ9PLuusyawqtxNXRiXikTXqXxSt5oC/ildzaxDoiqPJRh0sGfmy/UdPfeBGK2Itfptau8lOZURVUkXC6U623lSSyRvZv6722WTsWbwy8L1TrA3yV73puDIQHW0yJ+8K+O7fR9cvyLZMfGbB64lfqkX0/brexkWDPStyw2qK26wZkQMSBZxuy4lmKYzntbnvRDwKmyhHlL7yd1NipXGBt1R14UfaLKunTjj7z2MpVnvcf6r9myhIdLuw7aa3c1SviwIvXF5auY1GMS4wjHASMdVPMHjTWpAnG0lV0/msnNe6sv5aqbBm9uUytvGmkpol/7vPNoDmXvoC5fPCJ163GdgG38njdZOnuzbGWI8rWFq/L7Dr3iF9nJkW8WvtVeUAOULrmxjvuJe4yqe75r6MPxsuHz3NvpoGWRxTE/etWRUXFz8tyLDIeDnNXGfffv2W/PTAgPFU37q/MdoubeJMrht3kZ8CfB569/Ks3KTp3fkT7d8O3+pHiguLl01cMefQt+2Yi/daMr99bnPjOP1bUmBW/WHJxw5cbtC2t59LabsmY2WuWq+mhbYd6tu6VAnF/o7dPu7VLxCvHk/g1u12OfSnuefkZLOHrSaN8erMPi+7kzW53EHhLi/e+bukunmVvJPGmeMWwH2nGuHSxjtW+L6y+9r6lkWB3mdR7of+zlDWRtUB40ixlsJxaKt77qD9blE8Ajn1m8i8eYCNEf3VColMpDarvxnxhl+TYhmK+Kyf+xCBW6wQfBGPWwj6E+Uvrb2E/Owl0H/TtQ17M8sRcQ+L9IvhZsPLGI3Z9hxXbFnTZ4k2B8lTZFxG5MljkVCdROghYU1iz23btf395/JO/GLbC8Iiy9P8/e3fiFsWZro//H8kVkjPne2YzOI4zY+IZzdGsJuPExGwnq5lMZjLHSX5KKyCiqOCGUUNEieACKhgkrrhFBFRcEkURFZAoKogKyKKAQoBufzc8xWtRVd1UQwPauT9XXVz0W29XvVtVVz9VXeUpauxyYXcha7FsfGNLWvHcF/ZrYZPleABZkeHbhbtJP7B/3H/aEA9Sk6qULNxdC6t0r0aUVMSy2RW56Ml8vsHA5uaj7ykpqmp/QwUN9VIkXUaUXPlo2YOypahGNnSNYuhKWbi7Sf92y6Zz10fu1m6G7134doQdhawx4S9zSn+4f+tFO6RV1brkk1HOOOKllETaX3pW/jeQblK1s9MXWlInm1X2kM1mX6D8WAKWg//lggMViUAGZJNiS7MYFqKfPFdW3q5WBO5KbhhRelIey8rarIUE1i2XIOVRxe67LpOmsKyjLAGzLCdVQZ93mbuSG/rCXcmlTZBZe22l6dad9OC1yJb01kLD7T5kY/HwdptHZUJawJyuSGndTd12X49JI0vXtLW0ndlyFJ9ZmAyPG5U2dzfpW8nOp56HwWbJc19I20oTZS3asm3yquqLN/CVB//LiqR2Wu5O7kaXntRaDUgDmwNP38KSosi1NRKRtL8TEFJrDyPKUPjCnSfQL5c7H7ahlubtwOt2u7BDmk4Kj8NUHKzWXqna+FGMNAUWrtYrtXA3qWK46wttRc/PvHGuVEsy8bATENJEhvbXkyb1MJZs1sJgYL7/dvysH98aMFS0lF7otmUAtSvcnYvelwu9l40I+W72RnVthDSdXMVlIL/+lNNmeOmumyRdfTj2ckTJ0tx1mXzwGS6O7FPdDk47O2QDaSJ3+z3w3GWq6dxN7pYsgRf0VJdbMJE3GPfvDztjdk3S3YJG8Rz3V/eyX/zWEv19b3p8nx+bIW+5yQ9yWk6GW/3oNdY17l2xd+rQYEwXjl/QUq14iPsrqN3RtGNhw8NQmGObv5fE21W3o8ZEzRwVUVFSISmK3OcnMSgR7YaXD0XcH+QKDvWx5Jlk9slpdnxGYkd8qeOOeBIGNR8d2jx6kx3x4didzo57REqIU5vXwd3nupwkUOfYZXUePkgs4b1Ygjrx0G963xfywamOGOQxlUjRnzVBi6HdPB8SCbmIAO1ckH5cHQLK2/U9K32hfmPhmfntBnLdKLoMw0nujym//0C6zDIcD4lujxjcDRjF8jhGjiT0pTW0sCJtpW7oKQMP3wBlriIXHKE6hgc5SH5324X5WFAOzdGtUmz1RnfFs9RtX9gkJ/ywalRq1dhILE3u8o/qyyzpF1mdhy5QLPsC3LWqgVxUrnYCeuaWNPPcF/ZrYZO7LjOMWHlpbhMD7DqwA8ECtztWt9/8tzMeZ6iUfNvHzsHwPeHc9h+QTb8W+yNKckpfuyPjodtdq7uONmw++kpJz6rBbGguOyNKliDnq2SuYvimZ+gaxdBWNrsMLJvO3dvdrd2tjgsMsTlgFcnvL/Hqu420ibt1SUnkPkvSwhYbXed9ftRXaDt9YWCzyh6yuWtMA3QEsiGz9loHy8SS1Rgw9LU7lpWVVtWvyLrknU1nuRYpj2VlbdZC/pdz6trsTvITLnXL4L7rMmkKyzp6qKCez7vMXckNb3dXcmk6ZNZeu6EehGPY2+j3aZZsHpUJd+mKVNbcs33NuN7Op4Kr3xIJaQ3DjtHM5qceSCfiSFJ77ZHnvpCrHNC82LtijCEzNhb5pSM2KPy1bFV3o0tPCumu1u4GHl7qS+uuZ1VbyfJlhNjZCYhuR5Sh8BKRxJe462cu68vj7cDz3Bc2yTc7rBeFQb2+63gOnFxXVFl0FbNUv8jq3HWB4q4v5Akulq2q524nIKRDPTRRt2PJZi0MpJX6//uvHByqqwp6w85WprTc/enMlqPIj/3q2a3HJFGaTkaIpCgSnVCz3HWTLEF9ONrsC3cjyrB1m2FFKH+//UrD8+C0v0PWM+w6PLDsMpAlGJrOMxnt5ktUySuM+/cHiftvCN1guAO+3HDfXSRd7mWPDIY78uftzUOiOe5/IOkA0lXg2+zIpqPIsHnuZg834lcnG9xN5lv96GHJqCayoTBakolaBcqjJbmXEZ+BnGgoedna3JowMQEp+1ft19eipbll1WerkZ6TkiMpPYj79/9zfUGOzGx+5uEjFh+0+Ljt/Wl27K+xI5bDQRwx4Lhhpek5Y3JVoOFQ0kyOh3C8iOXgm4A5mmD5ud7W+Sgq9ckhRxI9uHJBvlz18m77gA9FNG+3D8kRve8L88eeHKPov03J55ydtchVt4ar+W5fr13z6lzV0SDff9BchufvWcLXgPYbobp/grEcTxz8cgeaQsaJLB+dePTrPSi25SFyt0cMEuj08OlueRwjB2H6yloeWODIZt1b0UhXD9OWgYeaGh4fd+XY+eX/E2a+LsPzdmE+FpShguXkbz6KdJRK0uXUiM1x221f3Odynd6UE/dMuOFZEUI2RhQe36AkyCJjTBVPvmbbH3iWfXH3VuM3f4ux83aJ+xvGrTC3pJnnvrBfC6Whsm7TJ7HLTDcvFu4OVQ27ONkKzGdADWScGy80c7mOxX+HtahxIkszdP2Ns1ewfGTTt7z9EdXtNgi623R2+RGSgc3NB+tSlTJsqtJ6qiIeRhR2XBezz0gKvjshG77RdekmlwvbNdJVIxi6RjF0pc0uA8umM1RB6XZXZknOxJs/kQEdsWv6+tiRofhr6BTZRbg7ltCXUE5a4+X1M/cfTQw3L15P+MscfSP0YOt21+AGHrLZ6Qv5nTiWgOVoSTpYJpasFm5zu7CsLP5Hin5F0npd+tTlyl2fLde1mXcOYCiPYr8WsivD8g0P5Ef69qD234yqnx72XZdJU1jW0c6eti+6zF3JDVu3aj39NaE3Ckox2pEoOyUP5BDXfEVwt0fINo/KRLcf8fb3UQoOZd0dCdgnjawfUSgqduyomv4iFZsH8DY/9UDGAMatndOfdo7K0IkFO49j45UWxvJR4LPbvsf4wfAwF9vOdiFdjMMY7XVX7jYZ2UhVZc0tDC6nExs7PvIwSrFnRooaxt3uBES3I8r8WYYOxQA7u/17fXm8HXg2vzlCt4dbKPy5HT/g01C2XBljP6zOQNlQJBRMJXY78Nz1Bb4KoZG7fbu7nYCQDjX0oF63RwI2a2Hmq++/OJzY+v8luOsLAwkWe7UvcsfOVmYgP4LBpicvJYKBhRiOZ25fr8F3PbSq+lSy7CbzsWUvR5Rh6zaTAvegrw1QADshC8+D0/4OWc+86/DM0GVg/9uKIg3u1VAhM8b9fWnH4h0ZCfurrlSpu9w01jbmpOSEDAsNCnSc2n1KEhUJxIePnFFwsMB8Y5zmxuZlE2KRYUPohqaGJpfLVXOtJi0yTW6AY477Fx8rdgyZMnVoMBZr+GGBuFl6c/Zzc1CS1FmbbpZVyw8IUMK8704nOpLqO76cV1+tnvXsbEz4p+NN9yHDwnHRWAVWJCmHvzmydeHW6xeuy+qwwLJzZXNfnqfPA0fTjmauybpVeRtVQM4DSQdQSPOzeYsOFyVPT7mUd1nqhcwocOxHy1FZ/RkC+TkClrB/1X55ZELdjbr1IRuQiOKpp/h6G/dvbm6eMGFCQIfk5GQtte9h/4W9mP0dGT7A8IHUs8/4y0eKsLO+dvoS9p74Byu9VV5dduJHOYLHgaPhQ0g+/Jb/Txh20B4+nySsiU/Nb/8vDn/NJ7Hlcx2HCOV5JXI8gePRzAXfIrP+V5Py6YuS4NC2qrhccqKoqPKu6es9fG+RLyEqwNRjUl8UQB1QetabvgD54NQfMahAm/7blByVogHPbDkqd//H94G6qzdx7Hvwyx2SB+RjFUf5VcXX8BKHZWe3Hosf0x4ZxHvRBZINsHAk4tvgsfi90mJoanTNwaXbDYcF6HT5mpH26XL9hQCKHE+sezsanYtBIolZi7bgmMbDN/xujxjkawby4AuzZZ9aHsfIMYF+pV1a2OVC86o2weEgDgo7ct2/3iHlg6UYZmheNEhxxml83ULL567PlmyK5+1CinF/vR2uHDuPLzA7prb/UhilkkQ06epXorCKjLmb0KHy+CN0cXFG3s7QREPFu+0LRS5fQk5M2DANX71kY0x8fcGqse3X+EsiKoJiyFdHVWybA0+NASy5fZt1uVA8uX3Zls9Wqg7CW/DG2tIq2a4By8TXVIxDrMXyyhfLljTodh9lsxaKhKcxWV5CZd5mhbTq/d14x82dkHPta/NwRC6NgIrj23v2F1tPbzrcnqfjSy++0KJ4R+J2o/AoWNWP19B0SMF71TjB0rCTQQq6HntsLAffgTGMY0eGIqd+K7A/orrdBsX5707JLhF7ZrX3xuouZJ1RC7S5+UjDSqWkZ9WmKq2nKiIjCntCNFd7FXQjSl9Z+e6EVeCjREqCT5CcZen44ordUWXRVclm7JpOxq6012Vg2XSGKijd7sqQH9+FMHrrK+qkvzAS8BJD2vJjSH4khwXir2Gr8XwsoS+hfGRLZXFUgGpi1VdPXpQjgf3z09ROw+bWreeuwQ08ZbPRF0jUDyEDQ1PY3C6ksoZONK9I9enh5bvQWS13fzq6cq8E/TGZdw5gKI/iVS0kvoOB8cOaDGx0SMGx0+7wDUhEx2Fn0vGmPuwyKa27Ona7p/Wqsja7zF3JjVt352lC7KlkQ7t0uFCC/phkpwTYfeFQE8d1zfXaGTU0II5F0z5trzXeK82udPvpY/+oDLCEbj7ibe+jhOovTL2JMUkjY1H6wSNPI9dfpGLzAN7up9497TbiSNR/+qDrceCKlpc8ip2jsq+fn7nhvcVqvyon8L75+KtVY+fo16vY2S6wOpQQnzglh85JCfVUFxg2GdlI1UoNLYzyo7mkTTAdT8xUg8HmTkB0O6JkM9F/lmEsYbuQo/f7Pe7lwOt2u1DsHG5t+kesuhhf9r342oj9myqezYGHFOkLbJWyg0LZCtKPo6Yoqor5ersTENKh91vMpNsjgQH//itVwIS+w0q1VPfkMjXDqaYe8LyV6aMW7a87Ps4wnrFqjK6OLO0dJBcR6o9n0GI4IkWiPrIhdez22NLbEeV56zZDebBD7v1ZE9nQOmrkKWTheXDa3yHrmXcdip0uAyTa//4rpME975CpW4z7+5LElM1TUKAjLTLNHNmvq6hbOC7akBkL0Wbfu5eddADvNWSIemlu6JPTzHF/vPz6nysNmQ3ZTu/Lnzo02JAHk4qP5+7MxUvLHw24XK6U8I2Yu2W+Fi2S2/WYp9RZm/SVNWdDpTLXZOkv2Ae5f5F5ivskTv9IZCy5/eSHqVkiRkeUnbt/GO2vcX8cc+DIQ3+0bZ/6XDdP+CBUYVAFO1l8UTTktPzwwMehfPxYHnzI57p+ITLhY89w+K4uYjVMeDsWomWyctQXTzey+SGq9KYvQD44DUcM8uVZv0wcc+BzUTWFftJ/JFcWXTU3Hb5htl+i0rX1UGx8rBpyYrLsWRwN45jYkFOVWfWsfhWqGfWJ6vjePFkO/o7LJ7s8SUy/NMvjGDkm0GeTFjZPmz6JNVybrC79008owP75aXLMp+d5u5BiIEXfs3KcJzn1vebuvoqWbeK5LxT1bRmT+ZIr2eFgFmqnvurIF2DDAm0OPOkL85T0xgL5qibc9YW5kd3lxGQeop77AmzWQpGzYpgsr5KTspnbXDYEfa9hK8OXZ1mUYVLHyuga1N0wFw2Cr7XYgvTFk2/j+mx4ie7DGg1tYnNESUUsj9q70F3IbJj0C7Sz+cgeQCol24jaVKX1VEVsjih3ZTM8fM/cNcLclXa6DCybzlAFPc+7MmkK/VyZ0ImG22cLiftIHv3FyyCbtmUZQEqontaAj3s5x2yYDA/ZttkXsmpDHjWptrKZDbrtC2k3c7cKWRF2gyoQZme7kMoaGlBWpO8yMPcpGvO7ORvxj3nnAFIec2m9qgU2JWxQhvViwqaHDVDeAr7tMpABbznp26rbPW1fdJn9rdt8gIQdxcEvt3/9vPbQC5Cl6fOoydDIAjXy/Olj/6hMdPsRb3MfJfSfL+6a3Q5pFn29QIXG9Bep2DmAt/+pByWHzln2iHkr67Yv1DBWN/3AUZmExTGp9co4lETzZG5kDFd86zFkU0vD2lEGpBgKLBtptwMPQ/TUxoMSERM2dwKK5xElbdKlUp0XGWDSt55XA6/bvlA8H25hyeb3ygk8Q6KdgYfM0heGCY2JYqgDFXd9gcnQyB5yYjIPUc9HAjCw33/1Oytzn5rJFw13J0K6pbZH86Rfu2wp5gmjUb9ed8czGz+KUR8o4G5pxmNLL0eUoa9lLWrrtiQHcvqdZw/4JO5vf4estkfzpP98sdll4NX3X5AG781nGQHj/r7UWNd4cMOhmPdiQoaFSjB6xtMz1wWvv5J/xRDjVupu1KXOSp3+53DJj0kf93c6nUfTjs15PhLpQYMd0eMXndqTV3u9NmpMlDnuD00NTelL0mc9M1stzZyt8nJlSvhGWWNQoAML3zQn7cbFCpTQ2eZMDEpEeu7OXC13V2ezzuEt0a8taqxtP1suT/Rd9MYXci4Bf5d9GFtwsEA9ikDoS4VaxLz/1cXci+YGkSf6qtaT+h7ffgLpWo5OWH7e3jzMlZ8+hI+csW3RdkN83y/v8yN6fJodRzbYI2/9PB5Hk7J7xT/42C7cnavOhxv81NB06Kv0VWMjJT8myw+Pptt38PmKuZYXv8vhET5IYkdqMRos8ODS7ZZVRiJmqTUmvDR71/T15XmX9Me+Zjd98XQj1MvOj+b0enPJgxz3GI4Y1JGE/oAAdcf3n03/iJXPSPzd8N5iHETiq5eWowOO21I/WSaBMDQgOg4ZsBbzUSMWiE/cbz7+ShaIYbAtqP1BZ9psPZfrau5FtWqZVJmlZ5GiHxXqwhb9qLZ5xKCghMX78nAkp+J6+lpYHsdI0+mzGY4sPY+l+oq6jKjUlS9EICdWipZEm7sbdR62C9WDhp5VATvD4WDN5Qp8Ee1cb8iaV+fun5fW3hfmjwyPfXGfx/v8oKnR4HijerwBqC/AhqFiZ+ChKc5uPYbdiKoClnw8MRPpWo4OeMvJlIPIpnY+0h3tv8ztWlNDr+knQ4+LbvdRdmqh4EvCpl7f50egVQvSj6sxrO1sd55Qz7YC5Dm6cq98wUDBUMjSH4rxlQNLM42TyrRPl2NRyLYrbB2Gq3SluU3sjCipiJ1vdyALRH/hLZjwD14aFtjt5iN7AKmUbCNqsEnrqYrI1i2/ZuhYmvWIatd1i0ALo2AorTa3g2XXgGVX2ukyy6YzVEEPjeBhVwbyRF90k9QXbWiuhYIvTthqLO/zIzcisCwD4Gttwsuz9e2g33Cw6nVvR+vvQi5sbt1qr2I5qbaymU147gs55DB3q5DPIHM7e94uZOAZGtAwVgX2DNiByGb79fMz0YxoEBnhFjtk97ythWEsoQDm4yjfdhnIgLecDG3leU/bF12GzHiLeZmWW3dZ7oWOpgtB6239/xKwHHm77JQA5cfhwd5ZKWpjVFUwtJ6CdM+fPvaPytrZ+Ii3s49S1FOj3DW7HdJK5h0LjpNjn5625tUuF75gLd0ewNv/1AN8smQu/FbtpjCYT208ZNhNCc99IUMCS1CXO4BcrY+pZ/soof/sk0nVQvYeSDF0ouxqVDZpYfV2w4ZjYGcncJ/HESVtYqiU/JAO6YYe92rgdbtdCM+HW7JHxaQvoYp1GoZK9wPP5UI7YweC/lVVwBcfwyGo/Z2AodcMk6HHwdBxmMw7ATubj5lPvv+iEX7oeG4HJstxbtS7p/vK2LOc9GtHjQp352KkobMwC02HBjQfqAB6Bx9z2D907OHbj2fwPciQTbY7W8eWNvrC5tZtySe/0kABen+fH0Ar2dkhq+3RPOk/X+x3GXT7Ea8nDd6bzzICxv2JBhL2X9iLebUj6+VpdpAAgf5Wa70kn2E4WDT/VBPk8KhPd9bOjhsXuCtA3+l9XxARkdLttxQiIupWW0vbjqlrsDvdZnX/eiLyA776/luWe2HF6Omxbh7MZianiLBqFEBLerA9UMeWPvmVxs8K4/4+wbg/0UCSq5zivbrRm8v13eyNPT7NDjfOlX79/Exbp/Tt6Lz5o7uP/36I+8PFjhsf9/hu+z3U674gIiKFcX8iol66W9f4w5qM5f8Thkl/kTsR+Zlefv9ta2mrKLwqN8Tf4uYxMGYSh/UufDGgHqhjSwmM9PZXGj8n8uy6pDcW9OZHEsS4P9FAkhP1+ChK63hmo5baHbmffo9Ps8uHn/272Xhw91bjwS934IAj4S9zbl60/uzvn7i//ObA8KPjftDLviAiIoVxfyKiHpN4HPaimJaNCM1dn92vV8MQUf/qzfdfOeKSaYPVo/48kFvd9vI+9f3mgTq2bO146lv/36XgIYURvmfGBnSf+al15BXG/YkGmOEBMvhk0mY82PT3eovr+ihFg/6J+xMR0cOOcX8ioh6TuP9Kj08KISICHHF5vgm73+Cx5cNIek2m5f8TduWYrZtQkTuM+xMNvOqLN7ZNXoU9GvZrD1fcX56M1P4YFvcY9yciIjv43YyIiIiIfIXHlg8j6TV54HB5XomWSj3FuD8RERERERERERERkf9g3J+IiIiIiIiIiIiIyH8w7k9ERERERERERERE5D8Y9yciIiIiIiIiIiIi8h+M+xMRERERERERERER+Q/G/YmIiIiIiIiIiIiI/Afj/kRERERERERERERE/oNxfyIiIiIiIiIiIiIi/8G4PxERERERERERERGR/2Dcn4iIiIiIiIiIiIjIfzDuT32utbU1MTFx+PDhAQEBTz31VGVlpTaD6N69M2fO/OpXv8LYiIiIwMuMjAz8D1u3bpUMZnfu3FmwYMHvf/97ZHvzzTcbGxu1Gffu4X+kIB1z58+f39DQoM0wUStKTk7GyxUrVuD/X/ziF8ePH5cMfQGDH5sAVoTNYe3atU1NTdoMIiIiIiIiIiIi3/mZxv2///77f/zjH2PHjl23bp2WRH2jtbU1LCysI77arjdx/5qampkzZ/7lL3/x1ZmDjIwMjIH4+HjtNQ2ECxcuDB48GGNjxYoVeKnC8fhHMhg0Nja+9957kgfcxf0Fcurn6uXk5Dz22GPIIyuSuP+vfvWrM2fOSIa+oOL+ApsGNhBtHhERERERERERkY/8TOP+b7/99gudPv/88/Lycm1GL1RerkyenjJ1aPCkQZPPZZ/TUnvE5XJdzL0Y8/5XQYMdWNqsZ2anL0lvauj5pcF1N+pSZ6WGDAvF0vB31Werblys0Ob1MYnqPv7448nJyc3NzVqqTlNT07Zt2/76178iT0DHBdfvv/9+ZmZmW1ublqOTXBjuw18MBAUFYY0SbvaJxMTEjnBuwL///e/exHOlYAZ9HZIeKCoULh2hLv93F/eXeP0TTzyBQeKukZGOuciDnMivpXZlWJGcb+ifRsaGgM0BAx6bBjYQLZWIiIiIiIiIiMhHfqZxfy3kr7Nt2zZtnpfaWtvOZZ9b+s6XQYHtMXqZehP3d7lcmWuy9EuTCauoq6jTMnmj9Exp+MgZhqWFDQ8rOFig5ehL2dnZAQEBn376qWWI9vr162PHjkUGM3PY9wGP+8uV5oGBgb///e//8Ic/lJaWajO89/OM+8uNfaSXf/nLX54+fVoyGCQkJCBzdHS09to95EFOd/0rK1I39pG4/7BhwzAmJUOfwuaAjQJrdHd6g4iIiIiIiIiIqMcY978vJCSktrZWy2Fb8bFix5Apkzri8vkZ+ZEvROL/3sT9zx8tnjo0GNP+Vfub7zQ7nc6yc2ULx0VjsWmRac42p5bPnoaahujxi/De1Z+vqS6vQUp9dX3y9JSgQAeW2bMTCV6RcKpl7NXlcs2YMQNzn3zyyQMHDsivAVpbWwsLCydPnpyVlSXZlAc87i/FczgcM2fOxGI93J7eW3JGwV/j/rdu3ZJzPxIBlx+IeKgs+ktl9szD2IPS0tI//OEPakXyMwIfjq5u2a8IERERERERERGRVxj372L8+PGHDx/WMtnT1NC0IXTD2ayzTqfzdtXtqDFRvYn7tzS3rPw0HkvYv2q/y+XSUu/du3HhRsToiJmjIipKvLs/T05KDpYW+9Fy/W2CsJZVn61G+pFNR7WkTq2trdHR0Y8//nh8fLy+AD3mIfZ68+bNESNGYO6ePXu0JCsSHnXHECBG+bHG999//9e//rVkeO6559LT09Vdg9TV5e4EBQVJToE34u1YiMwdPnx4Wlqa5W8XpJz79u2TCLKHnziEhISo4o0bN87ypkZ6HuL+huI98cQTkZGR5sh1U1PT2rVr5dHKgH++/vrrO3fuaLM7oOKyikuXLk2YMEFuu4QlHzlyxHIkoFT//ve//9//+3+eu69bUjusSyLg0kH9EPc3rAh/8T/j/kRERERERERE5AcY97fwxRdfaPm81Pu4f0VJxcxREZEvRMq1+aKttS1zTZY8OSB3Z66WakNrc2vCxISgQMep3ae0pA4XT1yMfLG9nIlBiYYfEKiHrPrqzuMeYq8q7p+WlqYlWZHwqDuGALG7zJGRkRK89iru39r1ocRKaGioIaYvwethw4aVlZWhXqNHj7a81c/p06efeOIJbSmdPMS4hbu4P8qAkmhL0TGcunB3MyUk6u9pg3chMTg4GCuSDOI///M/f/jhBy2Tjnou7rPPPltTc3+49jX74XLPcf8BZ78iREREREREREREXmHc31rPYoW9j/sX5hQGBToSJia0Nmth5Tu37qwNSsQyZcqI9yJKWF9dP/flefpfCTidzoMbDskpBEzLJsQ2N3Z51q7P4/579uxxF3tVUfVf/OIX33zzjeXV8Xp2rsheu3ZtaGhoYWGh3DWovr7+iy++cFcdiXR76OstW7Ygw5NPPnno0KG2tjaU8ODBg3iJRMzSMnWQssk1/i6Xy+FwII/hVj+Y9e9//xvpKBIKJiko6owZM/BX8lhyF/c/efLkf/7nf44YMSI/P19+MVBbW5uWlqY/cYVVSGHGjBlTUFBgqMXs2bPVtfzSGoAV7d27FzmvX7/+xhtvICU4OFjy6A1U3D82NhYrtR/3j4iI0F4/YCTun5ycrL0mIiIiIiIiIiLyEcb9rb3//vtaVm/0Pu6fn5GPtydPT5GXpWdL542dj5S4T+L2xO7Rz7KjrqIu8oVIFAkFw8s7t+4kTUkKCnREjI44uOHQzFERapbS6rv7/ODtly9ffuONN7C0Q4cOaald1dfXf/DBBwEdhgwZsmjRIv0V6AZ24v5mjY2Nr7/+OpafnZ2tJXXyHPdH2V555RXz1e5Hjx79xS9+MWHCBDm1IJYuXYpFqUD/vn378NJwqx8J3+O9WIKWZI+7uL/EtT/55BP9Wgzk3MAf//hH9IWW1AGVQrr8QEFSpDWeeOIJ/QN1pSJYO8qgJXVCik/u82NfW1tbfn7+iBEjMFSKi4u1VPdKSkp+//vfo0aZmZkemmigHDt2DJuG/rQNERERERERERGRTzDub+3dd9/Vsnqj93H/zNWZEtx3Op3fb/k+ZFho0GDHjsU7WppbsExv4/5lBVfDhodJcP9a8TV5OPBXHyyruVYjRTXH/X1FXTz+xBNPJCYmeghrYta+fftGjx4t+eG999778ccftdk6PY77v6m7fbye57h/YWHhb37zm9dff90Q8pY7BemLIWcI9D8puHHjxvDhww23+nG5XLNnz8Yakb59+3b9aQPP3MX9i4uLhwwZggVOnjz58uXLludpEhISkGHGjBmGuVgmqvbYY4/l5ORIirRGbGysvBTS5pZx//6kOhH+9Kc/7d/f5ekX7iAPckoTwYDXwgAjH5vGL3/5Syke2l+bQURERERERERE1DuM+1vzcO8XD3of98/dmYu3r5m0NiV8Y1CgI2x42NmscxLilFlexf2rr1bPenZ25AuRGfEZ7acQAh3bore1NLeoWf0Q9//lL38ZHx/f7dXWqOOPP/4YGhr6i1/8Au/CX/NV5Hbi/m1tbZmZma+//rosR8/buH92dra80ZK+GHJN/fvvv9/UpD08GfWVW/oYbvVTX1//r3/9S5bw+OOPv/feeyhVt43jLu4PqCzSZYF/+tOfzD+YiIiIwCzLOkr1VbNYtsYDGPcfMmRIenq6nbg/fP/99+qU0oMW90cVUBF1WoJxfyIiIiIiIiIi8hXG/S0M4HN95aJ+mRa/taTqSpU24969jPgMJHp1f39VHkxhw8NO7clT0dLSs6XTngoz39/fh9ra2g4dOvTkk08+9thjBw4c0FK7U1dX989//jMgIODpp582hLC7jfu3unnOrfA27o/88kZL+mLITX4My9m6dSsSDbf6AXRBXl7exIkT1ZmJ0aNHe36Ugoe4PzQ0NMTHx48aNUqWBl999ZVaaXBwMFIe9ri/QKW2bNmC8jzxxBPnz5/XUt2TBywjc3Z2todfnAwUVAFlGzFiREFBgc3TGERERERERERERHYw7t/F+PHjDx8+rGXyXu/j/uVF5dNHhAcFOlLCNzbfuR+Rb2luWflpPNLPZnmx5J/u/hT3SRzKs3BctHq0r8hJyUE61tLXAcfk5OSAgIDo6GjttQ2lpaV/+MMf9LegEd3G/eW6+8cff3z58uXy4FxQl4p7G/e3GfKWm/xgOZYMt/rRa2try83NHTNmDLJ98sknHm774znur9TW1i5duhTVh2PHjkkiaoflm59ti2XKryKOHz8uKQ9+3F/ILxgMP6SwJE8e9mrs9SfZNOxUhIiIiIiIiIiIyCuM+98XFhZWU1Oj5egRm3H//Iz8kGGh88bOLy8s15I6NTU0xbwX4xgyBXm0pA4lJ0tCn5wW+UJkdbmxhGXnyiJGR4SPmFGYU6gl6exZvhfl+SYi1dnm1JLu3Wusa1z6zpdBgY5Tu09pSZ1affdcXyFXzQd5cw8Tifv/8pe/1D9gFuSG+x4i6XIve8Md+W/duvXqq68i3Rz3l2vh3cWFMRieffbZbi8tl5MNWI47ngO7qCNqOmLEiJs3b2pJJmVlZcOGDdM/P8AddNnnn3+OlaIpJEVi31j+1atXJUUcOnQIvTx69Gi1Xm/j/kjp5+f6CjmT4e5sjZ6MPTs5u4XtAvsHtOTEiRPVKaVekoqYhyUREREREREREVEvMe7fbuzYsTt27NDm9YKduH/zneblH69AHkwrP42Xu+3rnUjPDQp0RIyOOP3d6bbWNqfTef5oceSL7Yvdv8ricabJ01NkaQvHRddXGyOSN0tvzn5uTtBgR/rSnY117aHb6vKa1Z+vQf7Yj5Y3NWj3o1cuXLgwePDggIAAO1FmOzzE/QsLCydOnHjgwIHbt7VnDLS2tiLxjTfewFteeeUVQ4BVAvGY9fnnn1tGyffs2YO5TzzxxMGDB9FQzc3NSBk5ciQSwRxglQuukT8zM1PdGEfBEr744gtkePLJJ7EcCXwjW3Fx8ezZs9evXy/ZoqOjkcfy5EFiYiJmTZgwQa7lR5n/9a9/7dy5s7q6WvoRFZRVqDyAFc2aNWvfvn2yxoqKCrnxkf75AQJlQEnOnz8v721ra8vPzx8xYoT+pxLq5whjxowpKChAHlRh165dclv5+Ph4yQbexv3ljALegk7p5QkzrwxI3F/aAUsDdKuW2uH69evYh6A9MXTxcvXq1WiWGTNmoJ0NswwY9yciIiIiIiIioj7yM437v//++x0B/3afffbZtWvXtBne099D3zyZH8PrbHOmRabJXLwRb9dmdGprbUudtUktQU2JjiRzmB6ykw4EBTqQIWx4WFlBl2u6xel9+VOHBusXhSnyxSjzrw2gP+P++liqwZAhQ/Lzu/ziQcTHx2s5OmEJWI7MvX79unqIq/KLX/xi+PDh+MccYLXMry9qfX39O++8o83oSqLJt27dGjt2rP5uOXpSQdWSlZWVTz31lPZ+nSeeeEL/y4ZG3TNsFUMeIYFjs9DQUP1pDLSkenisXlhYmD4b4/4e6IeKYTDLWgArUn0nd6PSz9Jy60hFzMOSiIiIiIiIiIiol36mcf9jx459/PHHY8eOTU5O1pJ6ytu4P9Rcq5n78jzMtYz7g9PpzNubt2DcwqBAB6aol+Z+v+V78y8DRFNDU+xHy7E0d3F/uHGxImFigkT/p/85fPPczZbrhdZ+vM+P3OAes/70pz91REcDsN4XXngBq25oaNAydYW3pKenP/fcc5If9HF/uHr16t///ncsB7N+/etfh4SElJWVeQiwXr9+HXmQs2Nh7QxFbWpq+vbbb9Uaf/GLX7zyyitbtmy5c+cO5h4/fhwpGEi3bt2S/HoqCizDDO0pT/QNDAyUpf3+97+PjIw0P67gxx9//Oijj7Bk5MFflBDl1ObpyBN90WJSX/wdP358ZmYmWknL0clQzXHjxpmzeRv3R8rP5z4/gIEn5zkMIwRtiy7g9f5ERERERERERPTg+JnG/QdWW2vbmklrJw2anDAxobXZeHuZHtixeAeWFv3aosZaY3B2wHmI+xP1wEDF/S9duiQ/m+j9yULBuD8REREREREREfURxv37W2Nt4/5V+6cODcZ0NsvT43/taL7TfHz7ibDhYUGBjuykA1rqg0TuBmO+Nz1Rz8hTGWbMmNHt71EksK4ecdxjbW1tly5d+vvf/46ljR492vK3F95C4R0OBxaYnZ2tJREREREREREREfkI4/79R/9E36DB7WH6Xt5IRz3RNyjQkRaZ1tZqvLvLg6CsrGzYsGEBAQFffPGF3BuHqDdOnjz5n//5n48//nhKSor++QR6SM/MzHziiSfcPXrBPrnTEQYwuHvshLeam5uTk5NRhT/84Q+lpaVaKhERERERERERkY8w7t9/JO4//c/hKeEbKy8bb+neA8nTU0KGha76bNWV/Cs+uRd/X0DB4uLiJGwK8rxTbR6R91pbW0NDQ7XxFBBgePaAeqaC+Nvf/tbLH5qcOXPmN7/5zfDhwzGM3T12wj7Ds51nz579wG65RERERERERET08GLcn/qcPIx31KhRAYz7ky80NTWtXbtWHgftLu7/+9//fsGCBQ/aT0xU3H/48OGJiYnufq9ARERERERERETUG4z7ExERERERERERERH5D8b9iYiIiIiIiIiIiIj8B+P+RERERERERERERET+g3F/IiIiIiIiIiIiIiL/wbg/EREREREREREREZH/YNyfiIiIiIiIiIiIiMh/MO5PREREREREREREROQ/GPcnIiIiIiIiIiIiIvIfjPsTEREREREREREREfkPxv2JiIiIiIiIiIiIiPwH4/708Dlx4sT48eMff/zxgICAjIwMLbUPVFZWPvXUU1jL8OHD165d29TUpM0gIiIiIiIiIiIielD9TOP+33///T/+8Y+xY8euW7dOS6KHxL59+yTiL/on7i/CwsJaW1u1eUREREREREREREQPpJ9p3P/tt99+odPnn39eXl6uzeiFysuVydNTpg4NnjRo8rnsc1pqj7hcrou5F2Pe/yposANLm/XM7PQl6U0NPb/YHAu8kn9l5b/iscCw4WFlBVe1GT3idDrz9uYtGLcwKNCBKeqluYdSclqaW7TZfam5uXnChAkBAQHotZs3b2qpfQwrTU5OfvzxxwcPHnzhwgUtlYiIiIiIiIiIiOiB9DON+2shf51t27Zp87zU1tp2Lvvc0ne+DApsj9HL1Ju4v8vlylyTpV+aTFhFXUWdlsm25jvNP2w7Pm/sfLWcXsb9Ud/UWZvU0tSU6EjqzZkJm27evDlixIg//OEPpaWlWlK/aG1t/fTTTwP6+OcFRERERERERERERL3HuP99ISEhtbW1Wg7bio8VO4ZMmdQRl8/PyI98IRL/9ybuf/5o8dShwZj2r9rffKfZ6XSWnStbOC4ai02LTHO2ObV89hzZdBRvDAp0rP58zYn03LDhYb2M+x9JPYKlYSFYWltrG6bCnMKI0RFIzE46oGXqM3LjnTfffLOxsVFL6i8rVqxg3J+IiIiIiIiIiIgefIz7dzF+/PjDhw9rmexpamjaELrhbNZZp9N5u+p21Jio3sT9W5pbVn4ajyXsX7Xf5XJpqffu3bhwI2J0xMxRERUlFVqSPdXlNYlBiVfyr2BpZQVXexn3r6+uXzgu2jFkyqk9eVpSBzlXEf3aosZaYzi+qKho5MiRzz33nG9upsS4PxEREREREREREZFHjPtb+OKLL7R8Xup93L+ipGLmqIjIFyKry2u0pI5b62SuyZInB+TuzNVSvdf7uL/8uCHmvRj9LX2a7zR/O3dzUKAj+I8hJScvaamdIiIiAjrgHy2pFxj3JyIiIiIiIiIiIvKMcX9rK1as0LJ6o/dx/8KcwqBAR8LEhNbmVkm5c+vO2qBELFOmjPiex517H/c/kHQAZdgyf4v2+t69mms1S9/5UhUvPyNfm9HJt3H/69evDxs2bADj/snJydprIiIiIiIiIiIiogcS4/7W3n//fS2rN3of98/PyMfbk6enyMvSs6XySN64T+L2xO7Rz+qB3sf9M+IzUIbM1Zn43+VynTtQED5iRlCgIyV8IyY1S8+H9/mpr6//4osvAgICZs+erb8JUv84duzY448/PmLEiPz8/La2Ni2ViIiIiIiIiIiI6AHDuL+1d999V8vqjd7H/TNXZ0pw3+l0fr/l+5BhoUGDHTsW72hpbsEyBzzuj7VLcB/l2Rv3HcqGEh5KPoTSSsnNcX+fyMjI6PjNQMDjjz/++eef19XVaTP6UVtbW2Ji4i9/+UspSVBQkDaDiIiIiIiIiIiI6EHCuL+1gbrPT+7OXLx9zaS1KeEbgwIdYcPDzmadk2vbZdbAxv13xuxCGbbM3xL3SRz+iXwxqvRsqX5WX8f94f/+7/+qqqq0Gf0IvZCenj5kyBApBuP+RERERERERERE9GBi3N/CAD7XVy7ql2nxW0uqrtwPcMs9dgb2/v5yUb9Mqz9fU3+zXtJdLteG0A1INN/f34fKysr+/ve/BwQEzJgxo//v83P+/PknnnhixIgRBQUF/b92IiIiIiIiIiIiIpsY9+9i/Pjxhw8f1jJ5r/dx//Ki8ukjwuWO+c13mrXUe/damltWfhqP9LNZPVwy9D7uL48dDhrs+O7rfW2t9+9xX19dv3BcdG+WbNOFCxcGDx48duzYW7duaUn9JTk5OSAgYOvWrdprIiIiIiIiIiIiogcS4/73hYWF1dTUaDl6xGbcPz8jP2RY6Lyx88sLjY+6bWpoinkvxjFkiuHC+ZKTJaFPTot8IbK63FjCsnNlEaMjwkfMKMwp1JLcsBP3b2ttS4tMc/xuyrrg9SiMltoJa0cZzEs4kZ4bFOhAyc1v8eFzfaGysvKpDvhHS7LS2tqK3nzssccmTpxYX6/9KKGXVqxYERAQkJHR899bEBEREREREREREfUDxv3bjR07dseOHdq8XrAT92++07z84xXIg2nlp/EtzS3ajE4SQ48YHXH6u9NtrW1Op/P80eLIF9sXu3/VfvMdZuRZu5gWjouur/YU47YT95c8ssCclBwttRPWvnvZbllXyckSlA0lRIHxFseQKaf25Gn5dCIiItpvhx8QgH+0pF6wGfc/c+bMr371K1lvYmKiltqhtbV1xowZjz322OrVq/GysLBwyJAhGAPXr183zDJg3J+IiIiIiIiIiIgeCj/TuP/7778vEX/47LPPrl27ps3wnor1W07mx/A625xpkWkyF2/E27UZndpa21JnbVJLUFOiI8l8NT1kJx0ICnQgg2VAXx/HN0/mx/DWVdQtHBctcy2fIYwyyEN99RMKsP2LHfo7/ygDEve/fv366NGjZb2GB/DKEpD+5ptvNjY2SjQfMjIyDLO0N3Ri3J+IiIiIiIiIiIgeCj/TuP+xY8c+/vjjsWPHJicna0k95W3cH2qu1cx9eR7mWsb9wel05u3NWzBuYfvN9AMdUS/N/X7L9+ZfBoimhqbYj5ZjaT6J+8OpPXmOIVMw17LwgJIcSsmZ83wk8gQNdix+a8nZrLMosza7qwG5zw+kp6c/9thjAaa4P6/3JyIiIiIiIiIiIv/2M437D6y21rY1k9ZOGjQ5YWJCa3OrltoLOxbvwNKiX1vUWGu8Sr0Hqq5URYyehQUe2XRUS3pg2I/7X7p0aciQIQEBAb0/tSMY9yciIiIiIiIiIqKHAuP+/a2xtnH/qv1ThwZjOpvl6fG/djTfaT6+/UTY8LCgQEd20gEttaecTmfVlarVn6+Z1HEH/7qKOm3GA6OmpubZZ5994oknzp8/ryWZtLW1Xbp06e9//3tAQMDo0aOvX7+uzegFl8vlcDiwwOzsbC2JiIiIiIiIiIiI6IHEuH//0T/RN2hwe5je/JBer6gn+gYFOtIi0yxvr2+f/o5AEaMjys6VaTMeJK2trf/+978DAgLeeOONsjKLEuqf6DtkyJD8/HxtRi80NzcnJyc//vjjf/jDH0pLS7VUIiIiIiIiIiIiogcS4/79R+L+0/8cnhK+sfJyN7epsSN5ekrIsNBVn626kn+ll6cQoKzg6vQR4VEvzc1ck2X5AOEHxOnTp5944gmJ7IPhxjtnzpz5zW9+M3z48Li4uIaGBi21p9STfsXs2bN7385EREREREREREREfYpxf3r4/PjjjxMmTHj88ccD+viG+yruP3z48MTExNZWHzyMgYiIiIiIiIiIiKhPMe5PREREREREREREROQ/GPcnIiIiIiIiIiIiIvIfjPsTEREREREREREREfkPxv2JiIiIiIiIiIiIiPwH4/5ERERERERERERERP6DcX8iIiIiIiIiIiIiIv/BuD8RERERERERERERkf9g3J+IiIiIiIiIiIiIyH8w7k9ERERERERERERE5D8Y9yciIiIiIiIiIiIi8h+M+xMRERERERERERER+Q/G/YmIiIiIiIiIiIiI/Afj/j93maszJw2anDw9RXtN1C/OZZ/DwFv+8YrmO81a0s/MxQNnv/rvYEz53x7By+OJ+/H/imeml58qkQxe+elO87f/WoElbHj3i7u1DQ1Vt9aOn4+X6SGJztY2LRMREREREREREf08MO7ve1fyr3z96crUWZu01w+2Xsb9G2obNs/bsuR/l96uuq0l9c657HNL3/kyO+mA9pp8raW5ZW/cd4ve+KKs4KqWNBAY97/y/fnYp6d99d/BFw+cxUuJ+3/9wsyKgjLJ4JXW5pZtk1dhCd/+a8VPd5pV3H9vBE/pERERERERERH97Ph53L/ycmVK+MYZT8+cNGhyUKAj6qW5e2L3NNY1arP7xsN1Bb1laVuaW07uOvnluzFThwZjbsiw0JWfxhccLHA6nVqOTmUFV8OGh0WNifJV3B8lwRpRKu11j0ilPEwD3jtSTTWhnRe98UXe3jxzC/scegr9hV5zF/eXsmF7ObX7lJbUQfraV5H6Hsf9LYvR1NAU90kcFpg6a1PbQ3J5e0VB2dcvzFRxf7n8313cv+Zyxd6IlOX/E6bymyGDivury/8Z9yciIiIiIiIi+hny27i/0+nMXJMVNNghcVX91Ncx34c97l9XUbf0nS9Vc+mnc9nntEydGPfvGammeeqHsLXNuD+mlZ/GtzS3aKkPcNzf5XLtXrYbS4v7JK6poUkSH3wS91c39pG4/5pX5zVU1kkGaGtpQ/o3f4tZNiIEc2XyHPeXG/uouP/3q/dps4mIiIiIiIiI6GfDb+P+2UkHggIdmNZOXlt1pcrpdLpcrluVt3NScnYs3qFl6hsPddwfrbR57makRL4YVZRT1NrcisS21rZr568lhyUXHiqUbMqDGffX6zbMPSCkmuo8SmNdI4YlhqtjyBQ0uyT2EZtx/7kvz5v2VFjJyfv3mn9g4/6n9+VPHRq84JUFtddqJeWhcOtq9eq/RqoL/OW2P2vHz2+ouiUZQN0L6Ju/xfyYmb/m1Xke4v6HY3dirlzgr277czxxv8wlIiIiIiIiIqKfD/+M+1eX10S+EDlp0OTvvt7n+cYpLpfrxsWKTXPS5jwfGRTY/uOAWc/MTl+SbrhqOHl6yrSnwkrPlt4sq050JIUMC0XOeWPnF+YUYgnI0HynefnHK5DobtKHKS0jnrIEQzQW65WUluaWrLVZ4SNn4I0o6qk9ebJeBdXM25sXPX5R0OD2sx1RL839Ydtx85XjeNfF3IvLPoxVN/CZ/udw/IMVSYb66vq5L89DSn5GvqRY8nxBvaEWKAaqvPLTeFkXSohy6u9pI5Fo/RIMkyqesFlZ4TnMLc0u5y3Q6VsXbkWbYJlY+MUTF7VMnZABYwMjBEVCA8b+bXnZOYtbstgpnsTWVdwf0MVoIiRmxGdoSR30S8NcrH3bou2NtRb3qsJIXvXZKhmc+Iv/9cWTUedhUoWRsm1ZsHXhuOh1weudbVo3mQPugGIfSslBHVFTqSwGqj6Doi8eWk8Gs2FpUHejLnVWqgwVZMbmho1Om9fBUIzywnIsClPpmVLJoOe5y1A1VLC9svO3aEmdMCsxKBGzclJytKRORUVFI0eOfO6558rLy7WkHpFb8Ku4v1z+b4j7Nzfc3TNjw4WsMy6nU92y313cX54QoG7sI5f/M+5PRERERERERPQz5J9x/5yUnEmDJi8cF11fXa8luSExRGQ2TEveXtpQ06Bl6oyEpi/dKcFKNU0dGnw2qz1aKuFj/SzDpI9vehX3Dwp0nNhxYsXf2+9dria1XtHW2pYWmYac+jyYDDeNcZcNkwqsq7j/D9uOS4olr+L+lplRjG2LtsvZC6/i/jYrq9iJ+08fEZ733ekFryzQLxB9XV54P7Bbe602evwifQZM6IjT+7qcILFZPBlR+rg/SKI+Bt3U0JToSFILUVPki1H6sqEZMeZRGEM2pCBdGtnbuD96DSVBI1y/cF3SDQF3cHdLKCRiluQBFKD99zdWN90ybAVl58oiRkcY8hhi+vpioH3iPokz94Kw02VFOUWOIVPM+4rqq9Wznp0d+UJkdXmNltQpIiIioAP+0ZL6RbdxfyIiIiIiIiIiIuGHcX91oe7OmF1aknvlheVrJq09m3X2bv1dvGxrbSs4WCDB/SObjkoekEgoprDhYSfSc5GtqaFpQ+gGpMS8F4P/tXwdJMytD1UbeBX3R07HkClBgx2b521prGtsaW75JiIViQkTE+QmPIAiBQU6Il+MOn+02Ol0onhFh4vwEomYJXngSOoRpESMjsjbmyfvbaxtTIv6Vl9atF5aZBpSQoaFHtv8vT5UbUmCsHK9vJZkciglJ3XWpvKiclkpmmv3st0oycxRERUlFZJHUUFn7bWJzcoqduL+eK/jd1NQ5f2rM5Fy59YdOdGiQvBYS9KU9vj76s/XSCAYtdi/av/UocGzn5tzs/SmZAObxZNq6uP+6FyJoauB53K5sAqk4O1YCBaFBWLELn5rCRJXfbZa3Xz/Sv4VVBCFQX4ZjfXV9ehZrBTdfePCDckmPDcIqC64fPpy6JPT9izfK+n6gDteojwp4RuRE+VBqfSVReLWhVvlfAOgKVA2NG9OSo4UD0vITsxGNv1WIC2AMqPk8vBtVQukSwqoYiAF4wpzM9dkqXUpNrvszu27WLj59kroBbwXFTQvmXF/IiIiIiIiIiJ6wPlh3F8iuZO6u1ONBxnxGXj7NxGp2uvOSKjhuuP66vqF46LN8VOfx/2DBjuykw6o+KPEPee+PE+uUG5qaIp5Lyb0yWn6W7HDhR8uBP8xRJ0eaKxtjH5t0dShweePFksGYS4tFrjyX+03nMEUMXrWrq921d24f+22gRTGc9zfrLmxedmE2KBAR2GO8YEBKuisve7KZmX17MT9scaQYaH6AXM26xyKF/dJ3E93f8JLiYDro8+AHklfko73qki9/eJJNSXuj+XcLL25+vM1SMGIUlfKy+2qzEtD5tnPzUE6SoWX6mY1u5ft1gepVeBbBe6F/bi/LFld8y59rcattInhtAegtEhX70KVUXE05pHUI5JBmLeCU7tPIRvKjJJLCuD/NZPWOoZMKT6mjVtVjGPfHkO6u9952OwyQPsgRR/il3sumU8GCF/d58dbjPsTEREREREREZFNfhj3l7DmJNNNVOwzh8Itg9HqhwWGFZnfbuBt3D99Sbo+nisVVKH28qLy6SPCl02IbW68vzQwZCs9WzrtqbCl73x553b7LxsUy9I6nc6zWWcXjovGLExBgY6v/7nyxkXjtfkgQVi1FptUtN3cR5ZNrdisrJ7MchfmViUx3NfIEOM+kHQAeQx33gfpStV69osn1TRM88bO19+9pzCnEC2/8tN4dV2/wGCQ35pI8Lq+49ZM+hvyKPkZ+chmOB3iuUFA3wVyGxy5x71lm2yeu1k/OEFO6qhIfV1FXeQLkbOenV19tctt+s1bgfyQxXy6ToaoGhJSjOl/Dg8ZFjpzVETlpUpJN7DZZYB2Q+tFvTT3VqV2Y31JMf+UZ2Ax7k9ERERERERERDb5YdxfbtxhGUC0VHm5MiV844ynZ+It+kkfGdRHQvUkXX/tMEiYUv92A2/j/ub16kl0GNksJxVrlpVuCN1giNJ6KC1y3rhYkTprU0jno2LNTSpBWH1E28zpdBYcLFg2IVaWo59QKi1TJ89VtllZPc9hbml2vNdcEj0JSbubVOvZL55UUz/F/1+C4Wm9cqsZy66RXpNWqiipmDkqwrLuhki98NwgoO8C+QWDRMANS9syf4vKZiBLkCaVd5nPhRi2gp/u/hT3SZeHWBgmtSJZYOxHy3d9tQutjXdZRudtdhnICTws6tTuU5IiDwiRsx0PDsb9iYiIiIiIiIjIJj+M+6sAovlSX7PT+/Knmp6GKpM+MqiPhOpJuiEajmyGtxsYIp5CAtCGaKy79erJ0txNKhws2cyl6ra0cOfWnbUdv2yY/9cFhnv+SBDWMugs2lrbUmdtksKYJwkN63muss3K6nkOc0uz473mkuhJqdxNqvXsF08WKCutLq+J/Wg5XhpC2HLFumXXSK9JK8mPDCzrLr1jGGmeGwQMXXAiPRfbSFFOkWFpEli37Cl97SzLANJWKl11hLtJrUgtUO7vj1mWt/qRMribDK0qtxhaF7ze2eaUklg+0XdgMe5PREREREREREQ2+WHcH+RK5G5v0yHXMiPn6s/X3Cy9qS6El6CqPjJoiIQKiQ/q7zwuzG83MEQ8hdwdxRCNtVyvgbu4qoFciq5uWC9QZbnduYfSiuqr1bOenW2urKzdMugs5DbrU3WPnAUV5JXQsJ7nKtusrJ5P4v7Sp547AuwXT6qpVlpzrWbuy/OQor8Xv4wT80ML0Gtyn5/cne0PCpYKWj4kWe7zkxiU6Gxzaknex/3lORbrgtfL04NV7aRN1KOPFRnJwX8MKTl5CS/ltIR6HIXyw7bjeLu+rQxt4o6+kTGiYj9ajoFtfrSvzS4TUke5GZGMWPP9iwYc4/5ERERERERERGSTf8b9zx8tnjo02DIaqCcRyWlPhZWevf+0XuT/7uvvJtmI+8vzS/W3BRdymbYh2KpXfKzYMWSK/lb7ba1taZFpKLAhGmu5XgN5YK/l7d315G4whtusq5876CtrSeL+hrYCaUPDYvWkNQy3eUHFv/pgGdLNQV65inxnzC7tdVc2K6vnk7i/dJn5VvsG9otnjnHLvWX0l5lLl6HkV/KvSIq4ceFGxOgItRZ5cC7eu3/Vfv1oR1FXfbYa6Yb71cjzAFRc3sw86vYs34vV/bD1B33cX9oEi6q51uW6eNn6Fo6LlkC/tIlhdaVnSrFArEUf95f7GnUbcDecXJFFYY0YzJJB2OwyBUNO2gqVNZ/f0uNzfYmIiIiIiIiI6AHnn3H/tta2lPCNkwZNDhrsSItMq7lW4+pwq/J25pqsHYt3SDZ54mhQoGNP7J6W5han03n9x+urP1+DFLxXHwqXSGha1LdyB3Ysv+hwUeSL7U8PNgflJeA4dWjwkU1HDVdqC4nnIs/RtKNYaWNdI5YvK+1B3B/12r1sN7KhPPkZ+RIMRQlvXLixdeHWw98ckWyo4MpP45FtQ+gGrBHZ9q/ODBkWimIgUVW2vKh8XfD6opyiu/X3z0lcO38t9m/tN6Ix/4RCorqyWMMF3UIuOQ8fOQMthqKiQZAyb+x8JGIyR9sl+Iv8BQcLsGottZPNyur5JO6PFpOHRiRMTEBrSMHwXjQUmguNJtnsF096Vr/ShpqG6PHtLaku+Xe2ObFwWRpaD8vBaCk5WSLPW8bAVieW5DY1GHLqRxV1N+rWh2xAIjJjnEs2oc4TxH60XP8zF8U86uRMQ9wncfqAu/q5zOK3lpQXlqNsKOHp704jJ9abnXRA3ovlb567WVZXXV6DPLk7c8NHzHD8bgqy6eP+KMzs5+YgMXXWpptl1VggEjHA8r47nehIUqPLEPcHOX2FMVN65v5JKZtdpshl/nNfnofR4vmnQhEREQEd8I+W1C8Y9yciIiIiIiIiIpv8M+4PTQ1NK//VHuY2TyrG7WxzpkWmGeYGBTrm/3WBY8gUlQ0kEmqeNkxLVsFHBSlf/3OlIac+TGm53q8/XYkC9yDuD6isPNLAPOnfKxdi6+dGj190+rvTWKmqrARV9XnUFDE6ouxcmWTTy046gEbT59TXoq6iTuLU+ilkWGjUS3Pxjznabplf3xc2K6v4JO4P6hJ1w2RYss3iSc8aVnoiPRctqb/kv/ZarZwMMEwYKvrAdFvn70UM2dx12dmsc4aRgEkVxjzqVOwek34kY+FYhaSrCcVAYSTOLuS0gT4PXqIM6Bf90sDd8zaQE/0oeWSI6t+I4mWuycJ6F7yyAC0miWCzy4Q6MYbJ8xN9+zPur2L9ltPeiPvbBRERERERERERkeK3cX9wOp0FBwuWTYgNGRY6qePa/3lj52euyWqsa79mX7Q0t+xd0X4PE2SYOjR42YexP37/Y+mZ0jBdKBwkEiqXxqucWLhckmzW1NCUviR91jOzJT8mQ3wT/2+N3iYFixg961BKDkqCtRgikuYIrDt4+/HtJ6LHL0I18RYsOea9mBPpufqVwsUTF9vzBDqQYevCrSinRFFVZVGjS6cupUxPmfN8+y8hsChUdtEbX2QnHdAHmvXwlry9eWrVmAy1qLlWs/rzNRLPnf7n8NRZqdXlNagUXlpG2+tu1CEPcsrSMOn7AmxWVvgq7g9Y1LZF21W3znh65rrg9WguwzCwUzzpWcNKVWH0d/nXj6X20Pa4hVg4VqHN7mToBQxpFFXFyg1cLtfF3IsYw/ogu4e4P8jl8Eg3jGR9Z2HVMe9/ZbldVF2par8R/+D2HyUkTV2Hd0m/GJYGlZcrU8I3agsMdGAcbpqTduNihfpdgoxY8wYlJ9viuj4b2WaXidyduciDpvN8m6b+vM8P4/5ERERERERERNQD/hz39yH78XciekjJIxbWBa9392QOIiIiIiIiIiKihwLj/rYw7k/k3+TpAqFPTrt8+rKWRERERERERERE9HBi3N8Wxv2J/JWz42nJc1+eh21868Kt6oZCREREREREREREDynG/W1h3J/I/8gzBrBpy2R4WjIREREREREREdFDinF/Wxj3J/I/EvcPCnREvTRXnq2tzSAiIiIiIiIiInqYMe5PREREREREREREROQ/GPcnIiIiIiIiIiIiIvIfjPsTEREREREREREREfkPxv2JiIiIiIiIiIiIiPwH4/5ERERERERERERERP6DcX8iIiIiIiIiIiIiIv/BuD8RERERERERERERkf9g3J+IiIiIiIiIiIiIyH8w7k9ERERERERERERE5D8Y9yciIiIiIiIiIiIi8h+M+xMRERERERERERER+Q/G/YmIiIiIiIiIiIiI/MfPPe5/LvvcpEGT9RNStHlWrv94fd7Y+SHDQo9sOqol+S+fVLas4GrY8LCoMVG3q25rSURERERERERERETUZxj39y7un7k6U7It/3hF851mLbUvtTS37I37btEbX5QVXNWS+otPKutt3B/tv/SdL7OTDmiviYiIiIiIiIiIiMgbfh73r7xcmRK+ccbTMycNmhwU6Ih6ae6e2D2NdY3abJ3mO83LP16BbA/a9f63q25HjYkKGx7mLu4vpy6Sp6dorzvZrJEHA3K9PyqCMmeuztRe95em5tZNe4tf/nTrb8YmPjIqHtPEyC5lwEtJN0yvfr6j4U6L5Nl96LJhrn769V8S84qqJCcRERERERERERFRH/HbuL/T6cxckxU02DFJdy2/TOYQOfQ+St5HBjDu7xMPRdz/ZEHlf7/7jSFMz7g/ERERERERERERPYz8Nu6fnXQgKNCBae3ktVVXqpxOp8vlulV5OyclZ8fiHVomHcb9+8iDH/fPP1/1xCvrHh2d8ObknUfyrqkgvoHE/Xcfuqy99kbWD2X/8fxq/RkCIiIiIiIiIiIioj7in3H/6vKayBciJw2a/N3X+5xOp5bqkecouQSvMVdN7gLTLpfrYu7FZR/GTh0ajGyznpm9b2UGFq7N7iCReiwB6elLd4aPnIGX+Ju1NqulWYsLSx4Pkyqn5LQZ90dr5O3Nix6/KGhw+0mRqJfm/rDteFtrmza7g/3KQtm5soSJCVJZ/aROVMjSlk2IvVt/9+Suk3Oeb++XkGGhW6O3qWaRcxv6txsmc+3g0KFDv/3tbz/44IP6+notyXstrc6PZ+x7dHTCV+tPuVxaoqUex/2bmlvfC9nz2HOrdmSXaElEREREREREREREfcY/4/45KTmTBk1eOC66vtpuRNgncX+Xy9X+OwPTzYXiPolramjSMnVG6lf8PW7pO1/qs2HavWw3FqLyeJhUOeqVvpoAAP/0SURBVCWnnbh/W2tbWmRaUKCxeKmzNulD//bj/qf35Zsj/jIZ4v4x78WsD9lgWHVK+EZZbw/i/s3NzRMmTAjokJycrKV6L6+o6td/SXzbsaupuVVLcqPHcf+Mo6WPPbeKF/sTERERERERERFR//DDuL+zzZkYlDhp0OSdMbu0JBs8x/31PNyIpuRkSeiT08KGh51Iz21rbXM6neWF5YvfWoL8KqAPKqYfFOjYunArVt3S3LIndg9ezn15nuFchQ/v84NSYRWRL0adP1qMsqGERYeL8BKJmCV5DDxUFuVcOC4a70XVmhqaULubpTdjP1qO/KiUqqz+LMLqz9dUl9dg1Sd3nZw6NHjmqIiKkgrJpnhYo56v4v5rt557ZFT88pTT2mv3ehb3b2pufdux69HRCd/u+1FLIiIiIiIiIiIiIupLfhj3V/Hu/Ix8LcmG3sf9nW3OdcHrzTH0qitVEaNnRb+2qLG2UVIkUo+cmWuyVHz8VuWtqJfmmuP7NuP+HiapUVNDU8x7MaFPTis52eVuMxd+uBD8x5CEiQmtVhe8e4jCFx8rdgyZsmxCbHPj/bsYlZ4tnfZU2NJ3vrxz+66kqLj/NxGp6i5GHlrbZtwffHKfn0nzsx8ZFb9my7mor79/8n83Pjo6AS+HjF//xdrcxrtdLs/XP9cX2X732vp/RGScOFfh+e5AO7JLHntu1cufbr3d8JOWRERERERERERERNSX/DDur24a020EX6/3cf/66vq5L8+LfCGyrqJOS+ogS9YH7iVSb4iYm7MJX8X9y4vKp48IN6wUZPmY8I+WpONt3L/k5KXgP4aY4/7mZpElm1vbftzfJ/TRfMP0+qR0fbDeMuejoxMWrcltbbV+hkTDnZZXP9/Bi/2JiIiIiIiIiIioP/lh3P/O7bty3/x+vt5fAuuYZTmZ4/5YHVYqKdDLuD9Kpb3uZKhRYU5hkOnO/mrqQdxfHp6sv8/PjYsVX32wDPk3z91suM+PefkPVNz/ybdTkncWVde1P4OhpdW5LfPiE6+sQ/rardaDAXnO/Hjz/ZA9j45O+I/nV2f9UKbN6IoX+xMREREREREREVH/88O4/093f4r7JG7SoMkZ8Rlakg29j/tLgBuzLKcBj/tLNndTD+L+kJ2YrV+ITAteWVB7rVbL8ZDE/c137Y9PO4N0zNVeW7nd8NPLn25Ftpj1p7QkHZnLi/2JiIiIiIiIiIion/lh3B+2zN8yadDkmPdimhrar+C2o/dxfwnQuwug60kIvp/j/hJ/N6y0Wx6i8DdLb85+bs7it5Z8/enKqUODkS185Iz0JemGNn/A4/6Rcd9bXte/+9BlpL8zdXeT1WMPhMt171+z97uL+3+778dHRyfwYn8iIiIiIiIiIiLqZ/4Z9z9/tHjq0GDDg3M9633cv7W5NWFigmPIlKKcIi3JDa/i/vLYgOA/hpScvKQldWUz7t9Y2xj92qLwkTOuX7guGezwEIVHImZ1ezMlb+P+30SkIn1nzC7ttXs+ea7vroOXHh2d8OG0vS26e/RjyMxd+cMjo+KnLcnRkqyUXq8f/k77o4DNV/TX3Goa888tvNifiIiIiIiIiIiI+p9/xv3bWttSwjdOGjQ5aLAjLTKt5lqNq8OtytuZa7J2LN6h5dPpfdwfTqTnBgU6woaHHU071ljbiBSn03mzrDojYb9+pV7F/eV0AvLHfrT8ZulN82kMm3F/vHH3st14GfliVH5GvqwaDXXjwo2tC7ce/uZIx5uMPFRWflSxIXRD7bVaVNZcMOFt3P/IpqNIDx85o+BgAYqnpZo0NzdPmDAhoENycrKW6r3K6jtPf5D66OiEiNijNbfaf6nQeLdlZWr+fzy/+td/ScwrqpJsBg13WnZkl/z3u988Ynr8r0jdU8yL/YmIiIiIiIiIiGhA+GfcH5oamlb+K36S6e7zmPQhcok+W076uLxc22456SPaba1tqbM2GTLIpF+pV3F/OJt1Tm6ko59UxNxm3B/QJvLkA/Okj+zbrGzJyUsorSFDUKAj6qW5h1JyWppbJJu3cf+6irqF46L1y8RkUTsfxf1hR1bJfzy/+pFR8foJKfFpZ9S5jIY7La9+vsOQB9Prk9Irqu9omTqpi/1T9xRrSURERERERERERET9xW/j/uB0OgsOFiybEBsyLHRSx7X/88bOz1yT1VjXfiW+8G3cH7SVfhgrkXr8XfTGF9lJB/Qr9Tbu73K5LuZeVMuUqQdxf2hpbjm+/UT0+EVoDcxCy8S8F3MiPVdfEpuVxVvWBiUiccbTMyNfjJJGVlPqrE1ytb63cX+ou1GXOit1+p/D1dLMtQOf3OdHFJXUvDN1t0T//2vMmneDdyNFm9fBEPf/zdhE5Pk+/3qb0+JXDmu2nHt0dMKYf26RHxAQERERERERERER9Sd/jvtT33G2OdMi0yYNmvxNRKq6tB/aWtuOpB5xDJkyc1RERUmFlkpERERERERERERE/YVxf+qJ21W3o8ZEhT457fLpy1pSp9KzpdOeCps+Iry8qFxLIiIiIiIiIiIiIqL+wrg/9UR9df3cl+dNGjR59edrqq5UOZ1OJLa1tpWcvLT4rSVIN9zFiIiIiIiIiIiIiIj6B+P+1BMulytzTVZQYPtDAsxT5ItR5YW82J+IiIiIiIiIiIhoADDuTz3kcrmu5F9Z9dmqGU/PlHC/eohxUwOfZ0tEREREREREREQ0MBj3JyIiIiIiIiIiIiLyH4z7ExERERERERERERH5D8b9iYiIiIiIiIiIiIj8B+P+RERERERERERERET+g3F/IiIiIiIiIiIiIiL/wbg/EREREREREREREZH/YNyfiIiIiIiIiIiIiMh/MO5PREREREREREREROQ/GPcnIiIiIiIiIiIiIvIfjPsTEREREREREREREfkPxv2JiIiIiIiIiIiIiPwH4/5ERERERERERERERP7j5x73P5d9btKgyfoJKdo8K9d/vD5v7PyQYaFHNh3Vkh5C548Wh4+YgQn/aEndkYZa/vGK5jvNWpI9ZQVXw4aHRY2Jul11W0siIiIiIiIiIiIioj7DuL93cf/M1ZmSrQcR8J5paW7ZG/fdoje+KCu4qiX1WvL0FKkF/tGSuuMu7t9Q27B53pYl/7vUXVifcX8iIiIiIiIiIiKi/uTncf/Ky5Up4RtnPD1z0qDJQYGOqJfm7ond01jXqM3Wab7TvPzjFcj2oF3vf7vqdtSYqLDhYZZxf4mqL33nyzu372pJOlIpc8zdh9f7dxvWH6i4f15R1a//kvjIqHjztPvQZS1ThyvXbgd/cWjI+PWY9ejohCf/d+NX60/VN/6kzdYpKql5N3j3f41Zg5y/GZs4ecGB8soGbR4RERERERERERHRg8Fv4/5OpzNzTVbQYMck3bX8Mlle5G4z7t//PMf96yrqIl+IdBdVr6+un/vyvOjXFjXWWpzq8Iq/xv0b7rS8+vkOQwZMz/wt7Vrl/UZzue7FpuQFPJNgyPbEK+tyCyq0TEREREREREREREQPAL+N+2cnHQgKdGBaO3lt1ZUqp9PpcrluVd7OScnZsXiHlknnIY37y1x3UXWZaw7W98BDGvd/9fMdDXdatCQrmDtpfnbyzqLbDe0X+Le0OvcfKx32Vsojo+LXbr0/Eo7kXfvlS2uxwI27zjc1tyKlsvrOxMjMR0cndLsKIiIiIiIiIiIiov7kn3H/6vKayBciJw2a/N3X+5xOp5bqkee4vwSvMVdNmasztXlduVyui7kXl30YO3VoMLLNemb2vpUZhli5xNCxBKSnL90ZPnIGXuJv1tqslmYtgix5PExSzsbaxujXFs0cFVFRYnHVuSHub16mZWXFjYsVqz5bFTIsFNlQFymkWpR6zoHlpD9LIU23bELs3fq7J3ednPN8e79gsVujtxmaRTl06NBvf/vbDz74oL6+Xkvyns24v6XFibmPjIqPWX9Ke33v3qT52UiJTzujve4gvxX4fy+uOZp3XUsiIiIiIiIiIiIiGmj+GffPScmZNGjywnHR9dV2A8fNvoj7u1yu9t8ZmG4uFPdJXFNDk5apM/6+4u9xS9/5Up8N0+5lu7EQlcfDJOWUYuvj7HrlReXTR4Sr+xqZl2lZWXe1wNTjuH/MezHrQzYEBXZZZkr4xrbWNsmmNDc3T5gwIaBDcnKyluq9Hsf90fyzlx/TX+8v8f1fvZx4sqBSUhQ5Q7A85bT2moiIiIiIiIiIiGig+WHc39nmTAxKnDRo8s6YXVqSDZ7j/nrJ01OQzTLuX3KyJPTJaWHDw06k57a1tjmdzvLC8sVvLUF+FdAHFX8PCnRsXbgVq25pbtkTuwcv5748z3CuQq7ZdxfZ/+nuT3GfxKm5cvn/yk/j5XcDEnM3P8/Ac2XPHy2eOjQ4ZFhoTkqOnK5A/uzEbORXcX9FVtHtfX6kvqs/X1NdXoNmObnrJFZh+TOFgY373274KT7tzH+NWfP6pHS58w80Nbe+M3X3I6PiN+0xPgZ596HLSJ80P1t7TURERERERERERDTQ/DDur4La+Rn5WpINnkPheu7i/s4257rg9UGBjhPpuVpSh6orVRGjZ+kfritxf+TMXJOlTgbcqrwV9dJcc3zfc9wfUB4sqjCnEP+XnLwU/MeQ8JEzrl9ov/OMxNy3zN/SkfE+D5VtbW5NmJiABR5JPaIldZAy9ybu/01EqrqLkefW9uF9fh7pfADvf41Z8+zH38am5NU3atF8PQnfy/TYs6vCY4403u1ytiBm/SnMGvZWyv5jpS2t7XeOqqy+k/Dt2d+9th7pEyOtb/pERERERERERERE1P/8MO4vgXJ3MWV3eh/3r6+un/vyvMgXIusq6rSkDrJkfeBeYujLJsQ2N96PoZuzCTtxf1VslGrK0KlBgx1HNh3Fy+JjxY4hU8xF9VBZFB5VmPXs7Oqr1VpSBykz3oX3akkdbMb9zc2iL3ZfMMT91TT8nY0XSruUBPRxf0yPjk54K2hnRfUdbfa9ezW3msb+3zZ9Hv3EuD8RERERERERERE9OPww7n/n9l25b34/X+8vN9PHLMvJHPc3xNB7HPfPiM/A0rBMWUJaZFrMezEJExNam1tlRV7F/SVMbzgnAZZlBsnfbdzfnKGv4/4G1XVN63YUDvpr0iOj4t8L2dPU3KrN6ArpR/KuPffxt8j25uSd+nsE1Tf+NHv5sSHj2y/wf3R0wpP/u3F+/PEv1rbf3z8y7nstExEREREREREREdFA88O4v9zyftKgyRnxGVqSDR5C4Qbu4v4S4MYsy0kfuLeMoUsB9NlEt3F/lARLw9+KkorZz80pPla8M2aX3DpfVmSuUbdxf3N837LMIPkf/Li/+Hbfj+0h+7dTbtzU7rlkqbL6ztMfpD723KrsH8q0JDci475/xOq+/0REREREREREREQDxQ/j/rBl/pZJgybHvBcjj6W1w0Mo3MBd3F8C9B4i4IplDF0K0IO4/5FNR6U8uTtzo16ae6vyltzlH+kyy1wjD5WVXy2YHy/8w7bj5jLDwxX3P1lQ+auXE7uN+7c5Xf+IyHhkVPzuQ5e1JCtyeuCJV9YVXOxyTyQiIiIiIiIiIiKiAeSfcf/zR4unDg02PDjXs97H/eWJuI4hU4pyirQkN7yK+8tjA4L/GFJy8pKW1JUsbcfiHeuC1ycGJTrbnI21jdGvLVr5afye5XtRnuJjxqvRPVRW3mtYXemZ0vCRM8xlBjlPYH4egNKDuL9PnutrhoGwNOnkI6PiX/506+0Gi6f7KhLQH/zquvOXarUkk6bm1knzs7G0f87KaO140i8RERERERERERHRg8A/4/5trW0p4RsnDZocNNiRFplWc63G1eFW5e3MNVk7Fu/Q8un0Pu4PJ9JzgwIdYcPDjqYda6xtv6Lc6XTeLKvOSNivX6lXcX85nYD8sR8tv1l603waQ5a2YNzC8JEz5HG+sGX+ltAnp8V9EmdeIHioLJa/ee5mWV11eQ1aMndnbviIGY7fTUHVzHF/OU+A/BtCNxh+IiC8jfs3NzdPmDAhoENycrKW2jttTtelq7emLDoY8EzCfzy/ekdWiTbDpOFOy5G8a2P+ueWRUfHIbw7oo/mrau58u+/Hpz9IRZ4R76eWXfflyQkiIiIiIiIiIiKiXvLPuD80NTSt/Ff8JNN99jElT0/RMnVGny0nfYw7s+Me+paTPqLd1tqWOmuTIYNM+pV6FfeHs1nnpg4N1i8Nk4qYS2AdKfr3Fh8rdgyZYki0WdkbF25EjI7Qz8VLlAE1Ncf9ITvpQFCgQ59fv1IpXv/H/XcfuvzIqHjD9F9j1mzcdV5/6iSvqOrXf0k0ZHt0dMI/IjL0vwlouNPy6uc7DNme+/jbC1fqtBxEREREREREREREDwa/jfuD0+ksOFiwbEJsyLDQSR3X/s8bOz9zTVZj3f17u/s27g/aSj+MlUg9/i5644vspAP6lXob93e5XBdzL6plymSO++sXqC7D1xfPZmWh6kpV7EfL0WJYY9LUdXU36rAQd3F/VDlvb170+EXIL0vrTdwffHKfH33cP+CZhP9+95uv1p+quWV83oMh7h84bt0/IjJOnKsw/KxCxf0fHZ3wu9fWI0/2D2VtTlu3kCIiIiIiIiIiIiLqT/4c9yciIiIiIiIiIiIi+rlh3J+IiIiIiIiIiIiIyH8w7k9ERERERERERERE5D8Y9yciIiIiIiIiIiIi8h+M+xMRERERERERERER+Q/G/YmIiIiIiIiIiIiI/Afj/kRERERERERERERE/oNxfyIiIiIiIiIiIiIi/8G4PxERERERERERERGR/2Dcn4iIiIiIiIiIiIjIfzDuT0RERERERERERETkPxj3JyIiIiIiIiIiIiLyH4z7ExERERERERERERH5D8b9iYiIiIiIiIiIiIj8B+P+RERERERERERERET+g3F/IiIiIiIiIiIiIiL/wbg/EREREREREREREZH/YNyfiIiIiIiIiIiIiMh/MO5P1q7kX/n605WpszZpr4mIiIiIiIiIiIjoYeDncf/Ky5Up4RtnPD1z0qDJQYGOqJfm7ond01jXqM0m9zJXZ6LRkqenaK9NzmWfM2eovVa74JUFaOrMNVkul0tLfeChpCfOVfzvlF0BzyT8+i+JeUVV2gwiIiIiIiIiIiKih43fxv2dTmfmmqygwY5JgyYbJg+xbFJ6EPdva21LmpKExNRZm/C/lvpga7zbkryz6L/f/eaRUfEyMe5PREREREREREREDzW/jftnJx0ICnRgWjt5bdWVKqfT6XK5blXezknJ2bF4h5aJ3PM27o/mbT/REuiI+ySuqaFJEh98a7eee2RU/KOjE94P2ZO6p/jXf0lk3J+IiIiIiIiIiIgeav4Z968ur4l8IXLSoMnffb3P6XRqqW60NLccSsmJemmunCfAP1lrs5rvNGuzOyPgZ7POHf7myLSnwjCdyTzT1NC0Lng98i95e2nttVrJmTw9BXNLz5beLKtOdCSFDAvFG+eNnV+YU2i+6c2NixWrPlslefAX/5edK9PmdSgruBo2PAzLbGtty0nJmfN8e42Qc+vCrebAOqqZtzcvevyioMFaLX7Ydlx/0T1qtPzjFVFjom5X3S45eSnm/a/acw52xH60HCXR58Fa3E2Yq1rGEPdH+0wdGrzglQWqNfRQ4PQl6bOemY23IFvs35brK+tsc6IxMWvL/C1aUifMSgxKxCy0gJbU6dChQ7/97W8/+OCD+vp6Lcl7V67d/mj6dyfOVaB/8oqqGPcnIiIiIiIiIiKih51/xv1zUnImDZq8cFx0fXU3EeG6irql73yJzIYJiZgleSTuv3Xh1tAnp8ncFR+v+CYiVf7HpKLVydNT8DJ96c7wkTPUXExThwafzTonecDlcqGESNTnkWxIV2cIJO6/+M3FX3+60pAzaUqSPqaP/9Mi04ICjTc10t9vR2L6ciLBsOrZz825WXpT5dHPMkzu4v5yW3/UuvRMqczVw9zo8Yv0y8GEMpzel6/luHevKKfIMWSKucuqr1bPenZ25AuR1eU1WlKH5ubmCRMmBHRITk7WUnuHcX8iIiIiIiIiIiLyA34Y91dXiO+M2aUludHW2pYSvhE5F7+1pLyw3Ol0IqXocFHki1FI3Lpwq4TgJe7vGDIFi625VrNwXLTjd1OmDg0+uevkmcwzQYEOFQ2XuD+msOFhJ9JzsbSmhqYNoRuQEvNejLpI/0r+FWTAEvav2i+J9dX1aVHfYlERoyNuXLgh2STuLwtcG5TYUNOAEh7b/D3eOH1EeHlRuWQDrAvvRbHPHy3W1wKJmCV59DF9zEIZULtrxdfmvjwPKQeSDkg2xf59flCFuE/iDHF8BYWRm/6v/nyNxO6RHxVHfnW+Ae7cvrv0nS/RyEU5RZIijmw6iveimww/mGDcn4iIiIiIiIiIiMiSH8b9VYA7P8MiDK13+fTl0Cen6aPPouRkCdLVNeYSAQ8bHlZWcFUtfOWn8S3NLRKaN8T9DZe911fXLxwXLW/HS3VPm93Ldutj2So+vmf5XklRcX/zZftIPJet/YCgqaEp5r0YFBjFlhRx4YcLwX8MSZiY0NrcipfqjYZb8biL79uN+4cl71+1PyjQkbkmyxCaF9LIS9/5srGuUUvq+MVD+pJ0vP3IpqNa0r17qDhS9CF+tDDa2XwyQPjkPj96jPsTERERERERERGRH/DDuP/tqttRY9ov2FeRcXcOJB1Ats1zNxuvJW9sXjYh1jFkSvGxYryUCHhiUKKzzSnRcxWJtoz7I3/7Ujqp3x9Ieeqr6+e+PC985IzrF65LBiU/Ix/ZVKReFh75QqS645CQtajalReVTx8RjgKj2JIipB3khv54qeL+htMhWvi+p3H/8BEzgv8Y8sUbixtqG7QZXUkjZ8RnaK87mdeLBkGzRL0091blLX2K/qcSfYpxfyIiIiIiIiIiIvIDfhj3lzvGTLJxvf+W+VuQzRCmF/rYuj4CLtFzdfG+nbg/SLpc215RUjFzVIQKx+sZliYvzTn1ZYPCnMIg05391WSO+6s3CnP8XdiM+68LXp86axP+0f8oQU//IATzpF++nCBBXU7tPiUp8pwG8xN9+wjj/kREREREREREROQH/DDu/9Pdn+I+iZtkdY25gYSk+y3uL+ch5PJ8H8b9Jf7uburruD8yyP393d3qR0rrbjIs/9TuU1jOuuD16qcV5if69h3G/YmIiIiIiIiIiMgP+GHcH+RC/m7vDyOhbWTWXneS+/wE/zGk5OQlvOxl3F/eou4adLvj9jszR0VUlFRIBkXu8yM3FMJLm3F/QxnckWLo3yh6H/fH/zXXaua+PM/y0b6yHEObuCPPQpj17Ozqq9XyYADzXZj6DuP+RERERERERERE5Af8M+5//mjx1KHBHh42K4qPFTuGTJn78ryaa12uKJe3LxwXXV/d/sDYXsb95SnB6rb1rc2tCRMTkG3/qv36srU0t6z6bDXS1W1tbMb9G2sbo19bZPnAAD1v4/5yX351EsLM8MbT+/LRaIZnGoM0sjwGWUvyaGfMLiwWjbBn+V51ssQSn+tLREREREREREREZOafcf+21raU8I2TBk0OGuxIi0yruVbj6nCr8nbmmqwdi3dItqaGppj3YpBt8VtLygvLnU4n3nj6u9MRoyOCAh3ZSQckm7dx/7SobxtrG/ESSys6XBT5YvtDhvUnA+RuNlOHBu9ftV9+kVB3o259yAYkLhwXrZ7iazPuj3rtXrYbKVhRfka+lASrvnHhxtaFWw9/c0SyeRv3l3g9Cnlk01F5zrCB4Y0oBtoWVVjwyoLaa7WSCI11jfK4hYSJCdfOX5NnAKAwRTlF64LXlxeVSzZFLvOf+/I8VNzDLzaam5snTJgQ0CE5OVlL7R3G/YmIiIiIiIiIiMgP+GfcH5oamlb+K36S6YbymPQx7rJzZRGjIwwZggLbzxZIhBq8jfubpw3TkiWDwJKxfKzFkA0lQXm0TLbj/oDKyiMNzJM63+Bt3B/5v/7nSrUcmVRNwfxG1Eue8YvC6OP1pWdKw0fOUAtRk2pGvZbmlpWfah3n4Ym+vor7S6z/kVHxllPMeu0Jw0REREREREREREQPC7+N+4PT6Sw4WLBsQmzIsNBJHdf+zxs7P3NNVmNd+8X4St2NutRZqdP/HC55Yt7/Cu/Ce7XZ3sf9HUOm4C+mqUODl30Ya1iaQEre3rzo8YuwRuQMHzlj26Lthvi+/bg/tDS3HN9+Qi0QVY55L+ZEeq4K00vJzW90F/eHpoam9CXps56ZjQwyeY77Q11F3cJx0UhPnbVJnTgBVAEVVIua8fTMdcHrL526ZG4ZyN2Zizzd3rnIJ/f5YdyfiIiIiIiIiIiI/Iw/x/37n0Tk9bf0oR7ISclBM64LXu/u0QJERERERERERERE5A7j/r7EuH/v3Sy9Ofu5OaFPTrt8+rKWRERERERERERERES2Me7vS4z794bT6Sw5WTL35Xlow60Lt7pcLm0GEREREREREREREdnGuL8vMe7fM7erbkeNiULTybTyX/H6xwITERERERERERERkX2M+/sS4/49I3H/oEBH1EtzD6XktDS3aDOIiIiIiIiIiIiIyEuM+xMRERERERERERER+Q/G/YmIiIiIiIiIiIiI/Afj/kRERERERERERERE/oNxfyIiIiIiIiIiIiIi/8G4PxERERERERERERGR/2Dcn4iIiIiIiIiIiIjIfzDuT0RERERERERERETkPxj3JyIiIiIiIiIiIiLyH4z7ExERERERERERERH5D8b9iYiIiIiIiIiIiIj8B+P+RERERERERERERET+g3F/IiIiIiIiIiIiIiL/wbg/PXDOHy0OHzEDE/7Rkh5ymaszJw2anDw9RXs90Jxtzp0xu4IGO5Z9GHu76raWasXlcl3Jv7Lqs1Uhw0JRBZnOZZ/TZnfyvy4jIiIiIiIiIiJ6eDHuT9au5F/5+tOVqbM2aa/7UfL0FIkvPziB8l7qn7h/Q23D5nlblvzvUs+hfECGqDFR7oL4eqf35U8dGiw51WR+i/91GRERERERERER0cPLz+P+lZcrU8I3znh65qRBk4MCHVEvzd0Tu6exrlGbTe55DlU332le/vGKsOFhZQVXtaRO57LP4Y2YizxakpcewIvH9YFyw2TZCAb9E/dHMVAYlLPbuL/N6/0baxujX1uEDSct6lvPW40fXO9f3/jTV+tP/e619Y+Mip8YmamlduVy3Tt86tpf/rU14JkEZBsyfv3s5cfwRm22DnKeOFfxv1N2Ieev/5KYV1SlzeiqvLJh8oID/zVmDZaGv+8G7y4qqdHmERERERERERER9ZTfxv2dTmfmmqygwQ59iFYmXpJsxwDG/R9Afhb3t0kWuPSdL+/cvqsl+R2X615RSc3EyMz/eH71I6PiZbKM+yPnV+tPPTq6PeKvn8b8Y8u1yvsnRRrvtiTvLPrvd79RGdzF/XMLKp54ZZ3KpjLvzbms5SAiIiIiIiIiIuoRv437ZycdCAp0YFo7eW3VlSqn0+lyuW5V3s5JydmxeIeWidxj3N+dHgTxH9K4f/GxYseQKX7clXCz7u7/TNj0yKj4QX9NWr+j8KPp3+F/y7h/1g9l//H8akxLk0423m1pc7pOFVY+/UEq8k9ZdLC11SnZ1m49h5RHRye8H7IndU/xr/+SaBn3r6q5M2pCGnIi25Vr7f1VWX0H68UbsUz9iQQiIiIiIiIiIiJv+Wfcv7q8JvKFyEmDJn/39T6nU4vHudPS3HIoJSfqpblyngD/ZK3N0gc6JWh7Nuvc4W+OTHsqDNOZzDNNDU3rgtcj/5K3l9Zeq5WcydNTMLf0bOnNsupER5I8CnXe2PmFOYUul0vyKDcuVqjHpeIv/i87V6bN6yBhXCyzrbUtJyVnzvPtNULOrQu3Yu1apk6oZt7evOjxi4IGa7X4YdtxvFGb3Rmpl6BwyclLMe9/1Z5zsCP2o+UoiT4P1uJuUiFgyWkn7m+/FvJG/YQUbV5XqGzBwYJlH8bKreextLhP4r58N0b/NAKsEbPQd9rrDlIYVTal7kZd6qzU6X8Ol6Wh79CD2jyTboP46OuLuRf1xZMlG97SbZcB3iKNXHWlKmFiAhaInHjLj9//qEaUlMfdZOgjaRY1eT5J0O0pHPtdZmiTWc/M3rcyw7BYGVRSJIwNjBA0ndT34omLWiad1tbW6Ojoxx9/PD4+3rx92Rez/tTC1Sfkdj0TIzMt4/5Nza1vO3Zh1tKkk/pVFZbU/O7V9YNfXXf+krYTuHLt9kfTvztxrgLZ8oqq3MX949POYGnj/r39dsP92wRhLe+F7EH62q2eHrpARERERERERETkmX/G/XNSciYNmrxwXHR9db2W5EZdRd3Sd75UUUs1IRGzJI/EVbcu3Br65DSZu+LjFd9EpMr/mLbM3yI5JaiavnRn+MgZai6mqUODz2bdD+S5XC6UUAKghmxIVxFMCVIvfnPx15+uNORMmpKkDxDj/7TItKBA402NUmdtUtkkqCoheMOqZz8352bpTZVHP8swqRCwWpo+piwMwWL7tbAZRHZXWUz6wLr0hZ24f9m5sojREfrlYEIPlp4p1XJ05Tnub7N4droM8BbkwWBDsfXZMBRLTpZIHt/G/fESifo8hknfeja7DEO6/fc3pptuxX0Spz/3I4Nq+ojwvO9OL3hlgT4nuqO8sFzL1+nChQuDBw8OCAjAX/yvpfaOu7j/+Uu1g19d96e3kuXafNHS6vxq/Sm5QdCmPRYPNnAX929qbn1n6u5HRyd8u+9HLalDzsnyYW+lYGkfTf9O/YCAiIiIiIiIiIjIW34Y93e2ORODEicNmrwzZpeW5EZba1tK+EbkXPzWkvLCcqfTiZSiw0WRL7bHPbcu3CoheImrOoZMwWJrrtUsHBft+N2UqUODT+46eSbzTFCgQ0VCVVA1bHjYifRcLK2poWlD6AakxLwXo0KcV/KvIAOWsH/Vfkmsr65Pi/oWi4oYHXHjwg3JJkFqWeDaoMSGmgaU8Njm7/HG6SPCy4vuh0GxLrwXxT5/tFhfCyRiluSRoKosDbNQBtTuWvG1uS/PQ8qBpAOSTfEc3ZalGWLKwjLuL+v1XAtFFdUyiHwk9Yg01OnvTkuIvLG2Ea1nKK30Rbdx/8a6xqXvfIkFqkfXqr5AuuXDbD23jCpe3t681uZWpFgWz06XgdQCE4p9Zv8Z5Ky7URf70XKkfBORqmXqJLXzfAm/4i6zV3F/xXOXlZwsCX1yGlYnGwVqgc0NGx3y7162W53okoWgBbB9hQwL3b86Eyl3bt1Z8fc45FRn15T+jPvvO3Ll0dEJ70zd3dTRp1B7u+mjsL3ILNPixPu9priL+1dW3xn+zkb9rwTanK6vU/PVMwZembi94Y7F44KJiIiIiIiIiIjs8MO4vwpB5mfka0luXD59OfTJaepqd0XClJEvRFaX1+ClxHnDOmLcauErP41vaW4xxJElSmu4VLy+un7huGh5O14625zrgtcjmz7iCW2tbUlTkpC+Z/leSZGFI8V82T4SVYC1qaEp5r0Y/QXg4sIPF4L/GJIwMUGiz+qNC15ZoG5MBO6i2D6P+3uuhZ6HuXdu3136zpdThwafP9rl8mpzaaUvkK697mDoLzi1+1RQoMP8+4k1k9Y6hkwpPmZxEbeHlmmsbYx+bVG3xbPZZSC1MIyos1nnUGZ9LYTUrpdxfz1DV3rgoctkwBvOZ0DVlaqI0bPQXGg0SVELCRkWqt94pb5xn8T9dLdLKNxX9/nRcxf335Fdok8/WVApT+59fVL6/Pjjlm8Bd3H/a5WNf3or+cm3U27cbK977e2mj2fse3R0wu9eXf91av7gV9epWURERERERERERD3gh3F/dcGyZUxZ70DSAWTbPHezIWjY3Ni8bEKsCvtK0DYxKNHZ5pTQJGYV5RRhliGObBlrVr8/kPLUV9fPfXle+MgZ1y9clwxKfkY+sqmwryw88oVIdcchIWtRtSsvKp8+IhwFRrElRUg7qMCuCqoaTodIbNccxfYQ3QZZGoqHQmpJnWSBqk1s1kJPFdU8t/Rs6bSnwpa+8+Wd23e1pA7m0sryDX1h6C+Q+zWZTxHJAg1vFx5axmbxbHYZSC0y4jPkpTDXQki6/u0e2Mls6EoPPHSZDHjzAJC3oAwoiT4FC/lh23FJEe7q2xfcxf1j1p+S9Dana/2Owv8asybgmYSI2KNNza27D132Nu4v6RLcP/tjtTwceOz/bSu9Xo8UpDPuT0REREREREREveGHcX+5JHySjev9t8zfgmyWsV2Jt0oQUx+0NQQrDRFJeZd5gZJ+ZNNR/F9RUjFzVIRlvNWwNHlpzqkvGxTmFAZZ3U1eJvV2FVQ1RGYltiu10/MQ3QZDO+jJAr2thZ67ooIsfEPoBsOpGnNpZfmGvjC08E93f4r7pP0eMu4mc1eCh5axWTybXQZ2aqG4a2pLdjIbutIDD10mJzmkauYJZUBJJKeHhfQbd3H/TXuKkf7htL2fzc16dHTCr/+SuOvgJelkmeVV3P9y+e3fv77hT28lL07M/a8xa7DA8JgjcgchmcW4PxERERERERER9YYfxv1VMNdwlbSZXOttGduVeKvEH/VBWwlNqmClIQJrGaUFSZfzEBIGtYy3GpbmLjKrLxtIcNbdpN7uLqgqb5fa6RlC1QaGdtCTBXpbCz13RQX7pZXlG/rC0MJqRe4mc1eCh5axWTzJ5m7St5WdWijumtqSncxSTvOKzDx0maxIqmaeMAsZJKeHhfQbd3F/uahfpuc+/vbClfu/XVicmItEr+7vLxf1y9Iwd/O+C+o80cmCyl+9nMj7+xMRERERERERUW/4Ydwf5EJ+/aN0LUk01vy8ULnPT/AfQ0pOXsJLfdBWQpMqWCkxTRUYtYzSylvUXYNud9zLZeaoiIqSCsmgyH1+5IZCeOkuMitrUbFRQxnccRdUldiuCkkrhlC1gaFSelIL9UabtdBzV1SQK+XNt3rfGbPLUFpZvqEv5D48+rbyUAx3PLSMZfFcLlf6knT9W2x2GVjWwt3b3TW1JTuZZWzYKaeHLpMBb6dUHhbSb9zF/c8U3/ztX5MeHZ3w2dysxrstWuq9e03NrW87diF918H2fYWBu7j/nabW1yelY0VPf5CqHu0r4tPOIB1r6fqLESIiIiIiIiIiIi/4Z9z//NHiqUODgwIdmWuyPDzws/hYsWPIlLkvz6u51v78XkXevnBcdH11PV7q47wSmgzzJu4vTwmOemnurcpbeNna3JowMQHZ9q/ary9bS3PLqs9WIz0nJUdS3EVmZS0qNirPkrV8YICeu6CqxHZVSFqRhx+okxAGKPmG0A3IoJ5CLNTTiVUj2KyFnof4r9wlKWL0rKor9wOp+Rn5IcNCkV9fCzn3szNml/b63r3aa7XR4xchUfUXHNl0FCnmZzx44CHuL8Wb9ezs6qvVWtK9e6f35WM46d9is8tAWslm3F9+SmJYuzvu+kVPxoZ5RWYeukwGvHokhgceFmKpP5/re7vhp5c/3frYc6t2ZHd5FPORvGu/fGntn95KvnLNohndxf1hQUL704Anzc9ubb2/fdXcahrzzy2Pjk74dt+PWhIREREREREREZH3/DPu39balhK+cdKgyUGDHWmRaTXXalwdblXezlyTtWPxDsnW1NAU814Msi1+a0l5YbnT6cQbT393OmJ0RFCgIzvpgGTzNu6fFvVtY237vbmxtKLDRZEvtj9kWB+6PbX7FJY/dWjw/lX75RcJdTfq1odsQOLCcdHq8ac2I+ao1+5lu5GCFeVn5EtJsOobF25sXbj18DdHJJu7oKrEdlVIWpGTIijkkU1H5TnDBlKLkGGhR9OOSYbGuka0LRLRgFi7ZLNZCz0P8d+W5paVn8Zj1obQDVgdcu5fnSlBf0MtJKCP9ZYXlaOJ0L9oW8mm+gtult6c/dwclDl11qabZdUYA0hE9+V9dzrRkSQnfgw8xP3dFQ8tqX+LzS4DaSWbcX85nSBrtyy5nrt+0ZOxYV6RGTK46zI4kZ6LFsbqMFRk00A7o7UzEvarjRE8L8TswoULgwcPDggIwF/8r6X2jru4P6TuKX50dMLvXl2/PfNiS6uzzenK+qFs2Fvtt+tZmnTS8ryDh7h/ydVbQ1/fEPBMwuwVx2pute8Erly7/X7IHixt3L+3327gTX6IiIiIiIiIiKjn/DPuD00NTSv/1R6BNU/6iG3ZubKI0RGGDEGB7WcL2lrbJI+3cX/ztGFasj5yiiVj+ViLIRtKgvJombyJmKOy7p5Pq0LG7oKqEtvVt4lA/q//uVItRyZVU8kgl/YbpqlDg0/vu/9EZfu1cNd6mPTrlV9j6OdGvhi1J3YP/tHXoq6iTgX6ZQoa7Ng8b8uc5yP1SwN1Pb5h0pcZ/+ClIYNMajAIc/Gixy86/d1pZNMXz06XgbSJzbg/ZCcdMIwrffE81AKTYS0gY8NyRcJml2HAp87aZMggk75NkB/vQqJhiLrjq7i/xPotJ/3zdVtanZMXHjBkwPS38O/0YXqJ9RvyqClm/Skt3717O7JK/uP51YYMw95KOVN8U8tBRERERERERETUI34b9wen01lwsGDZhFi5HjxosGPe2PmZa7Ia67RAnqi7UZc6K3X6n8MlT8z7X+Fdct238DbuLxd3Y5o6NHjZh7GGpQmk5O3Nix6/CGtEzvCRM7Yt2m6IjMvC7UTMoaW55fj2E2qBqHLMezEn0nNV7NVdUFViu/rwq9LU0JS+JH3WM7ORQSZ9MBfMK1312aobF7s8t8B+LSTFcjKs9+KJi+0r7fi1AfoOPWhZi6orVbEfLUfZkHPpO19ezL14q/IWSmJYGlRerkwJ36iNgUDHnOcjN81JQ0VcnVdx24/7g754WxduRTNKIxiK122XgbSJ/bi/YVwZijdQcX/QNsYPY+WkCP4ueuOL7KQD+o0R+fEuzDUMUXd8dZ8fm3F/aHO6tu6/MPL91EdHJ2B68n83rt9R2NT11zD24/5QVFLzztTdEv3/zdjEkMWH9KsjIiIiIiIiIiLqGX+O+/c/yygt9QO5q48hsE5ERERERERERET0M8S4vy8x7j9Q9L/JICIiIiIiIiIiIvo5Y9zflxj3HyiM+xMREREREREREREJxv19iXH/gcK4PxEREREREREREZFg3N+XGPcfKIz7ExEREREREREREQnG/YmIiIiIiIiIiIiI/Afj/kRERERERERERERE/oNxfyIiIiIiIiIiIiIi/8G4PxERERERERERERGR/2Dcn4iIiIiIiIiIiIjIfzDuT0RERERERERERETkPxj3JyIiIiIiIiIiIiLyH4z7ExERERERERERERH5D8b9iYiIiIiIiIiIiIj8B+P+RERERERERERERET+g3F/IiKvrVixIkDnV7/61ZkzZ7R5faOxsfHNN9/U1tfhqaeeqqys1GYTERERERERERF1Ytz/odFQ27B53pYl/7v0dtVtLYlsO5d9buk7X2YnHdBeE/UO4/5ERERERERERPTAYtxfkzw9ZdKgyeYpakzUAxJnLyu4GjY8zE556qvrF46LRuFDn5x2+fRlLfXnTfo3c3Wm9rrXrl+4Hj5yBpYZ+UJkdXmNluq9c9nnZKQZJh8Wtfc4oswk7p+RkaG97l+VlZVPdWDcn4iIiIiIiIiIzBj31/hT3P9s1rmgQMcXbyxG+XfG7NJSf958HvfHohxDpkg0PHdnrpbqvYci7s8RZca4PxERERERERERPbAY99f4PC7sczbj/i6XKyV8I3Ie335i5qiIpe98eef2XW3ez5hv+7f5TvPyj1dEvTT3+LbjjiFTEoMSnW1ObV6voZAP1FDkiLLEuD8RERERERERET2wHrK4/4EDB95+++0XbEC2nJwc7W02dBsXdrY51wWvR54t87doSZ0wKzEoEbNyUu6v0eVyXcy9uOzD2KlDgzFr1jOz963MaL7TrM3ugJWGDQ8rK7hadaUqYWICcgYFOqLHL/rx+x/xdskjUWB3k7xdcopblbeiXpq7/OMVjbWNWGbwH0NKTl7S5nWSa8yxZKwF68Iasd6QYaFbo7cZSoiXWWuz5jwfqV+pTCi85LFsOjlLgWLIAuUlcpYXli8cFx002LF57ubWn1oPbzyM9U57KuxMZpd7ozc1NKUvSUejYclolti/LS87V6bN66BF3jvOgqCCMe9/hWViiv1o+Y2LFZIHs5BBFdg8qSoIQ5ehYCnhGysvW8RVpTqY21DTEP3aolnPzq6+Wq3N09HXAi28YNzC49tPtDS3aLPdkB43D0Wn05m3N6+9swY7kCF85Ixti7abTwIZsmHtyIbBoM3uoAYAmjF96U65YRH+oq/NxbMzotRIxtuxEFkghs2pPXlqJIP9gVd3o27XV7vmjZ0vtZj+5/DUWalI1Gbfu3f59OXQJ6fNHBVRUaJ1t4LioZAYZvXV9VpSh9bW1ujo6Mcffzw+Pl5fqp5h3J+IiIiIiIiIiB5YD1ncf9y4cVpc34Z3331Xe5sNlsFrg6KcIseQKdGvLTJEUauvVs96dnb4yBnXL1yXFJfLlZ10QEKW+inuk7imhibJA1hpUKDjm4jUsOFh+myhT04rOVkieSQK7G6SYKvkFHJLlj3L9+L/nJQc5DHfmEXCrynhG/ev2o/MammY0iLT1KXrKCoKrJ+rn1TQ3LLpLOP+Kz+NX/rOl/L26SPCsXaJsGPSt2rttdro8YskXU3IeXpfvmQAiftjmVi7WohMs5+bc7P0JvJ4FfdHl2WuyTK0BiZVBT1UFjlP7T6Fd22euxnZzLf6QS0WvLJAvyiZ0PhaDjekxw3t2dbaljprk345MumrAOiyREeSIQ+myBejygvLtUydA2DF3+NUd6hp97Ldhpi4nRGFYiDPiR0nsEz90tA1eLuWyfbAc9dx2MpUlL+luQXDCYn6k20CxUO6FFjvwoULgwcPDggIwF/8r6X2FOP+RERERERERET0wHrI4v5vvvmmFtS34cMPP9TeZoNl8NqgsbYx+rVFjiFTio8Va0kdcnfm4r3rgterwGXJyZLQJ6eFDQ87kZ7b1trmdDrLC8sXv7UE2fRxVVkpJuQ8s/8MstXdqIv9aDlSvolIlTyKhM493+cHS04J36iuyJa3mG/MIuFXx++mBAU6MPda8TWs+tSevKlDg/UXUEuQd+7L88rOlSFDa3PrkU1HkSdidMSNCzckD1g2nWXcH2uMfCESy988dzNWjZcp01NullVHvTQXc5EHOdFcSVPaI9erP18jz8ttamiSMwQqoA8S90c2TJEvRl3Jv4K6oyIoLVIOJB2QbEq3/Yt1oWzhI2cUHCxAGZCCVZzNOrtlwVZD3F9Wra7xl7C4+VY/e5bvxRo3hG6Qq87RgKjptuhthsFjZhn3l8vbVV8gBaPxh23HMZwkA6AF0FDSIEWHiwwDb9Vnq9W1/DIAMKHkWxe2VxCz9sTuwUusQn+ZvM0RJc2LTSNosGPzvC2NdY1YIMYwEhMmJmDkSDabAw8jHKXFttNQ04ACIA9qLT2r/7WNbHcrP41X9QLZSNVw0mPcn4iIiIiIiIiIfiYesrj/hg0btKC+DSkpXS6F9kyF4A2T4XJvCebqg49yk5+gQIe6rhkp64LXI+VEepdrwKuuVEWMnqW/sF1WGj5yRumZUkkBiSObLzOXkKvnuL8Er1VYViLU5huzqLDvyn/Fq98fSGasujCnEC9bm1sTJiYgT37G/avsXS7XhtANSNRf3m4/7q+ySWhbfiEh61WBWglwowqNdfd/VIH1pi9Jx1uObDoqKfIupCx4ZUHttVpJBFkyiqS97mRZSD0p4ZK3l6recUdKqAL9chscdRpAkTX+sO249to2qYKhqNJlayatlXMSlqT39T8WETdLb85+bg7SUXJJkaWhrzPXZKFtJVEqojpC2BxRUtmgwY7spANqgdKk+hMJdgaeOxiHeGPcJ3E/3f1JUqRshgLLj3IMJwME7/NDREREREREREQ/Ew9Z3L+trW3ixIlaXN8jZENm7W02SODSPKnItZBQpj52Lzf50d9MHP/MfXle5AuRdRX3b0cOhgA3yEoz4ruEDmUVhvWCpHuO+5/afSoo0KE/LSFBZMONWST8ao5xS3kwF/9bxv3lJAcSexb3V8FxKdXmuZtdLpehWQ4kHcAsQ5uAlBnrkpfyLqToiweGbIplIfXa79TfcXOhFX+PKy8sl2vqLcm5H3UGAlVICd+IFMOtfo6kHkFfoF4H1h1UMW47pHEMRb1x4UbE6AgsMDks+WbpTcuwdWFOITKYQ97ILGdrVJmllZZNiG1uvD/GzOMTbI4oad70Jen6gsntevQj1s7Ac0feq98usC65yZJqK0lBgVFsSek7jPsTEREREREREdED6yGL+8P169fHjh2rRffdQAZk095gT7dxYdHScVdx/a1+jmw6ijfqbyZeXlQ+fUQ4Ei0nfVzVcqWGiLki6R7i/vI7A5StKKdIS9JdPq+/MYs5hGpJAtzq3jLIfCj50NShwfonGYCdWhgKL7FjeQsy6MPNcnMYdxPWhTzqXUgxBIulaiqbYqd/ywvLI1/UbiuPOm6ak3bjYoUhwt7U0BTzXoyhBSQ4brjVT1tr2/YvdiAdSwsa3H5bmxPpuZ4bXOgbR6/gYAFaSYo35/nIXV/t0j/nFmQomusOhmVaDgBDR4D9EWWnecHmwAOMk22LtqOa0oBqMrxXHuGLHpEzK/XV9QvHRZuf6NsXGPcnIiIiIiIiIqIH1sMX94f09HQtwO8GMmhZbbMZuAT9FdByUbw+VAoS41aRSsOkz2y5Unm7OTYq6R7i/nLbk6iX5t6qvKUl3bt35/bdpe98abgxi83wK5Yzb+x8VXKZUHf9zWHATi0MhUdm9RZkQDbVLLI0dxPmIo96F1J8GPeHluaWk7tOosXkmcyobEr4Rn0rSdTb0HTymw/1awa9ysuVm+akhY+cgaVhihgd8eP3P2rz3NA3jkFTQ1N20oEF4xaq0wnffb1P3flHfiphrjsYlmkz7m9/RNlsXpsDr/RMqWoxw2R4r5yGUbcw0j+CuK8x7k9ERERERERERA+shzLuD2FhYVqM3wSztEzesBm4BAmGyjXFFSUVM0dFGO6sctt0exN3LFdqiJgrhtC5mZyQkPCoedLfmMVO+NXlcu1etnvq0OB1wevnPB+J/EGDHTHvf3Ux96LhEnjLWpSeLZ32VE/i/vpZHsi7kNO3cX8Fyz+adgylQpMe2/y9ltr5Gwh3k+FWPwpa7MbFCrlv0hdvLNY/usDMTgtgCXtX7EXvYLpwXHtErdRd/xxdgbUbnspgOQAMHQH2R5TN5rUz8ORHBsi2+K0l+hsuuXuvPH0ahZE3Gn6K0XcY9yciIiIiIiIiogfWwxr3v3Xr1vjx47VIvw4SMUvL5A37cWFXxz3E5VY/RzYdDTLdTFx+BGC4O4oly5W6i/vL7YMsLyoHFS11N+lvzGIn/CpPeTXcAt7SlvlbsDR9FLj2Wq3cK1+twn7cH62KprN8LquevAsLQV20pA5SNXPcX24fZLgrfbcy4jPwLrxXXsrV5UhxNxlu9WNQV1EX+UIkOhFdqSWZqH5U9+J3R0XzDyQdkBQ5C4WWvJJ/RVKEPBtAHxC3HACGjvBqRPkw7i+Px0A2w5Mb8vbmWb5XPWDj8unLaF7zaQ9loJ7rm5+fP2TIkN/+9rfZ2dlaUq8x7k9ERERERERERB48rHF/OHbsmBbs10GiNttL9uP+IHcVT4tMSwxKjHwhsrq8RpvR6UR6blDHM12Pph2TR5g6nc6bZdUZCft3LN4hecCruD+WE/1aezB9Q+gG8+3LPdxqRm56LicqJMVO+FWCyOEjZ5w7UHC76ra7WCrIbeWjxkSVF5W7XK7ywnKsDin6VdiP+zfWNS5950vMTZiYcO38NbmJDfIU5RStC16vIubyLmSzGfeXQqI6BQcL1I1x9IoOF+Fdl/IuS4FRkZulN2M/Wo53qRC89Ls+3q1cv3AdC0eLod3wEgv5JiIVb6y7USdXrKMB8XLq0GD9Q6HhaNrRzDVZtypvY43IcyDpgPkJCnD4myNbF25FonQElll2rmzuy/P03aoi9ZEvRqE6qCaylZwske7AcFXnJOzE/b0aUT6M+zc3Ni+bEItsGOdNDU1olpprNSi83HnJ/F6pNTa3FR+vMJ+E07tw4cLgwYMDAgLwF/9rqT1lP+4fFBSEnDB69OibN29qqR0KCwuHDBmCHdf169dbW1tnzJjx2GOPrV692jBLMusx7k9ERERERERERB48xHF/WLp0aUe0X4OX2gzvSeDSPFneV0eu+545KmLaU2Gb5242Xzvc1tqWOmuTYVEy6UPSltFSd3F/yE46YLjviorS5u7MxUvL681RvJTwjZgrzyQAO+FXVGF9SPvl5IYpZFjoqs9W3bjYHt0WdRV1KtAvU9Bgx+Z5W+Y8H6lWYT/uD+5u767PI+9Cos24v7mQhmzyRvMU90kculvy7IzZhRTLHw2o8shJAvXSME0dGnx6X5fL2KUp9BO62PAEBTBnkwnDTH8aQ/3SwjCt/Fe8qgVYDgBDR3g1oixHspmdgQfmcY4p6qW55icriKKcIseQKciDLjafElMGKu4fHx/fEfYP+NWvfnXmzBkttYMsBLAcCeXj/zfffLOxsVE/S8utw7g/ERERERERERF58HDH/dva2r766qvx48e/9dZby5YtM8ff7ZPApXmyjPuD3FXc8HRTPafTWXCwYNmHsVOHBiMn/i5644vspAP6e7t7G/fHMvP25kWPXyTXPmOSKK2zzZkYlIiX7u4vL887VVea2wy/FuUUTXsqDCWPfCEyYvQsfSg2fOSM0jOlWr5796quVMV+tBylQp6l73x5Mfdi+22CxkSpVUilbMb9Adm2Ldo+65nZsroZT89cF7z+0qlLcu08yLswC3WRFCFVM8f9oe5GXeqs1Ol/DpdlGrLJE31j3osJGRaKWagL2vn49hPqdkOWz7PVk0qp+8zIE33nPB8p7Yb1poRvRKJkVpoamtKXpEtNsVLLJygAsmHwYAip4YShhQGmGkTpssBAx4JxC/W1EN3G/b0dUb6N+6NSR9OOqadKoCNO7cmrvV6rH1F60jXIbHkSThmo+/zU19e/8cYbyGyO+/N6fyIiIiIiIiIi6gsPd9yf+k55YXn4yBmYLuVd1pI6VJfXyD3u1bXeRANL7jsU+uS0y6e7jNU+ZT/uD3PnzkXmZ599tqbGeE+wnmHcn4iIiIiIiIiIPGDcn6zJ1evrgtcbrih3dT5OVj3tlmgAYUDuXrZbG6vuH6rsczbj/o2Njd9+++2vfvUrZI6Pj9dSe41xfyIiIiIiIiIi8oBxf7J2IOnApI77CB3ffkLdWaW+un7vir1ThwY7hkzJz+hyn3qi/tdY17hj8Y6gQEfE6IgbF25oqf3CTtxfPdEXwsLCWlvdPhzbW4z7ExERERERERGRB4z7k7Xaa7ULXlkwqfNW+PopKNCx/Ysd+sfJEvUz+T2KTCHDQvv/LJR67q4w37sfgoKCfvGLX3z00Ud5eXm9f6JAY2Pjm2++qa2vA+P+RERERERERERkiXF/cqupoSlzTdb8vy6QZ8likufrXsm/0vsgJlFvSNw/ZFjoqs9W3bhYoaX2Iztxf99i3J+IiIiIiIiIiGxi3J+IiIiIiIiIiIiIyH8w7k9ERERERERERERE5D8Y9yciIiIiIiIiIiIi8h+M+xMRERERERERERER+Q/G/YmIiIiIiIiIiIiI/Afj/kRERERERERERERE/oNxfyIiIiIiIiIiIiIi/8G4PxERERERERERERGR/2Dcn4iIiIiIiIiIiIjIfzDuT0RERERERERERETkPxj3JyIiIiIiIiIiIiLyH4z7ExERERERERERERH5D8b9HyB7I1K++u/ghJdnV5fc+OlO87f/WoGXGz+Kabp9R8thUp5Xsukfscv/Jww5Lx44q6Xeu9dYXb/+fxeteXXerfJqLckNtaIN735xt7ahoerW2vHz8TI9JNHZ2qZlsq2ioOzrF2bi7Wo6nrhfm/fwyPvmEEp+9Os92mv30OZSzfxvj+AlKov/VzwzvfxUiWToMXTEwaXbV42NlOVjwvDQ5tnzQPeFy5W1cPOyESFFe09qKe7Z2S6kIzALGbSkXpCmw4aAXtCSrKjC6Dc9SwPSFwO1E/APNy9cj39pVurfv2puuKslueHbnYBampo8j66qH68lvbkw7plwWfvDxf6etgcfjg8p+wNP7VWyFm3BSzVyCnedkAxe4cCzpJrF5x/x/WagRpRvqa1eTb76uPeJgR9RLtf1M1e2Ba3CJinLx+R5Ezb7WR00ktmDcND4U0PT8cTMxNfno6+xQEw92NJlAKip24P5/uQfO+SfFf/oMg68h45/fItnLMLCwB3PMO7/AMEeFn0pByiqaz0c8VzMPiMRf5kMh/j4BoJEfBvRXrvR2tyybfIqtSK1mWGcaTm84dXXhjs1DVnRmzdO+PLBOSAT2DdhD4X9FPZWWpIbV74/H/v0NFRTGl++wqEF0A6SoWduX69Z91a0akOZvO0Rr/qi/13Lvxz3bPjWz+MxArUkN+xsF3Jc4mFj8Yo0naxRS7KiCmPY9MwGqi8GZCcgHtit2yYcZOwOX4+t+/KRQi3JDd/uBGQk6yfPo0tWh8lXg79bGC3H4vdueG9xL/dyYH9P6+2H48PL/sDDISAOBNEOsjNRI6fb3ZElDjxLffQR358GakQJvBffT3LXZ2uve0pt9Wp6oDb/AR9RP+4/rf86IJO3HYcyDMiBik2+PWjsCz7cRw2UATxohOaGu5snfo3l6KcedJwEStTU7cF8fxrYHfLPyvUzV7Z8vjJj7ibtdU/5R5dx4PUbXw08GNgdsq/4Ry18a6COZxj3t9bU0JS+JD185IxJgyZPHRq87MPYi7kXXS6XNrtvyBcAdYAiBy7uulZtHntmbLD8piGndu2MDP2K1JDq/WYmi/XwtUG+Y3g4IJMMhiqo40LsUtta+uYEYOeJuIvZZ7QUN9TXJPk4lE/H3n+Fk4085YOlVcXXUBgttRe67Yv+hwGM/Z2dtrKzXUjL2xntdnQ7MoXaWLw6GOrPvhjAnYDNNnyQ4eAYh8jfzd7oeRvso52AzdHV/5ddo0PRre4qiH3yztAkFHt70GrD0YzadR9esUtrUtt7Wq8+HLslbzdP5gW6nM7ifXnr3o5GITElvj7/1MZD5qO0lrs/nUjKXPPqXCxk2YjQ1E+WXc292ONdt82BJx2BNcrOxDAOe+whHXiFO0+gg5LeWlh/o1ZL0pE9IQ6yr5682P56gD7i795qPBK3W13Kumps5MGl2817SGxExRmnv/n4K4nkopG3Ba3CN8mHcUT1xeed9ILl5i+zDJ9cciEF2vx4YmaP27AbA3rQeLe2YcO7X2DtmQu+xRjTUnunLzqul3x70NgXPO+j7JOdsHE5LhcGMHoZgxlDWkv0tYH95ohPk/aOe23elWPn8eGrpfaCbG5qJDwgBvYj/udD9gPuxiQOBnBIgA9ZDDYtqZOcRl39SlRd2U1JGbAuc7lwMIlDShxYYjk4Zjj0VfpPDU3aXC9x4PUPDwMPH9Df/C1Gta1Rx4EE5uJrlAS4BmyH7NOBN+AByf7h1fffgTqeYdzfQu212gWvLJg0aLJ+mjo0OCclp09D/9K16rcb0rV7Zmyw3EE3VtcnvbFg9V8jb121/uGMnNrFp9q1/MtakhuyIvkdjdrMvl+9T5vdU7JY611bh24PyCRDl8HtcmGbwWKx/XT7U7XekBNxaEC0iZZkRUqofqMtX+HWvDqvobJOMvSAdIFv7yTQbV8MiKK9J/Ed5mh3P423s11Iy/d4P2jQ7cgUamPx6mCoP/tiAHcCNtvwQYY9TOrfv8Lm7PnHiX2xE4Ceja5+IF8JUGVUXEvqCt+U8H0Jm/bptMNaEnTGLDa8u/hOzf0T1Tb3tF59OHZL3m6eDDsQHMNlzN1kyINpZ2ii/tMH9UWlDHlwrNx+jXOPimdz4ElHYF3y42sZh18/P/PGuVLJ0DMP6cBTxb5/VqkThta+yFTMwl81zAbkI95y4CX8ZU7l+XItRwdZi2HCiDqZfEDL4aUBHFF98Xkn7WPYWoXMwkq117pvYn14pUiHATxolGX2+Hfflvqi43rPhweNfaHbD0ebZG9mWI6EKeNfmnXj7BUtqQ9g9A7UQSPIMn14OxHZNNAp6Bot6QEwsB/xPx+yH9B/HHTRGU8wHJSq88T6I9iB6bLOw2YsUD9hz9azzwsOvP7heeD9mJkf+/Q0/VklRWtq3Z5/YHbIvh54A/ux0p+8+v47IMczjPsbtTS3rPps9aRBkxe/teRa8TWXy9XU0LR3xd6gwY7wkTPKC7t8PfMt7GHRl+rLjFz07W7HIftlldmSnNrNWrjZ8+A4HLtTrai182cEvT/cl6HpYTmyg/NwQCYZ9HWUk/B9erWLkBNxOMK+eeG6lmTl1tXq1X+NVPto+QW3hxrZIZdu6ff7vddtXwyIxo6bvnX703g724WHQEAPdDsyBdaFNWK9WLuWZEM/98VA7QRstuEDLq/jrs2ef5zYFzsB6Nno6geoF2rneQeFIx4czWD/WVl0VVJunL2Cl+ZLq2zuab36cOyWbIPdNqzUAjUt3HmiraUN06WcgoS/zEGium9JW0srjlCxtO2O1fJVCnszHJAhpdsvVx7YGXg4BMSBoKqI/DTbc7/Y8fAOPAwtwzV6QvZF6LibF++PsQH5iD/45Q4c/cvnncvprDxfnvLBUjQ1xrNkEJePFGGIVv14Ta54Rf7MBd92fGdov+ep5PHWQI2ovvi8Q/GwTMuPe5l1f8/Q+XWrr68UgQE8aJSFWDZIj/VFx/WeDw8a+4KdD0c7ZCesX47EIrF/w5cgSek7A3XQqBbiw48eNCCasZfbV18YwI/4nw+MRjVELd2pqZeLNvbPT3N2nK/FYZ5c7WG+Yrf/u0wOaTD9sCaj5e5POB64UVCKvZ++wN7iwOsHngcexhVGFzIYLlJBh8oVKtlfbNWn9/8OuS8G3sAGJPuT/e+/A3I8w7i/UVFOkWPIlLkvz6u5dj+y7HK5ti7cOmnQ5C3zu3w9E4cOHfrtb3/7wQcf1Nd76rluyTcW1bWedxxyfOn5QN/mqV3DivAPXpo3s/obtYeX70p6c6H86mflCxEZUan1FW5P/blbjqzO3aT/aJEjNlVHbELYcjBZXu2CHVPxvjx8hKN42OQSX59/bvsP+AiXudhP7Q5fj+UbvmADZkngxvBBaOdEnOEoXwrs7hATK8Iebfn/TPN8HWj33xxcruqLN/bPS1vz6lyUECXv9hdY7vpCQT+iN9GnyIYGTP1kWcmhcxJ00MMqsCJ52jB2YWmfrsCHgTavR9C8qAKaWnttxc52IXmQiM+JUxsPyQ03vn5+5tGVe/WHbu46SNpHDnFADTxsQeouH6hvxrxNTbfuX0+H8iCP9BR6BJ9PyIOc3/wtRu3uzbzqi7hnwneGJtZdNV4UADa7zLc7ASG3+MC2Zj79JstxN+lHtbSe9AXGFQ50UFm0HhZblntB8oDNLhOedwI9gEZD06EBPcSMDBusuwILJKrndXvoNZD2MddRyFqkVWVyO6I6fq2pHv+OVX+/ah+O5LS5HWTzwRKQnrMsHftYvMTfE0mZavORPB4mfTlR+C2frUQi/uJ/tJ78wtHykNHOnlbW7nknoCAP9vZfPzfjx8x8Lakry8FjIAdkOE49/90pLamDHBDrI7B1ZTdReP0wk9Bet6vwwM7AM4wQwzg0QD8WpB+XTQNvwR7yeGKm5UeGYbEGXgw8G7syWRq6A62Hz1/ZbyMn9gaqbNL1HiZVTixEruzWf2tSH/3m3wEM1Ee8HoYoyuZuJCsNlXUYD+7Wa4fPRxTmutuVyRuR7m7S11eNAfyPj9G0T5djadjEdoWta7x5W/IYyJBQewM9maWWLw/BcneliOfjGTVyBvCgsdtdmfDQIBqfHzR2/VjBNvvd7I01lyu0uTo2j2fs88lBo6RgeJzedBgHipguZJ3BprFr+nosPOXDpYYB47kWsjoPEzJoWcFGX8iWqAYJXuKTFJmx07bYsXT3ES+/REnoeCqgltSp/FTJimemG+IOaAefHzTiczN+zKyt/1+C/f2PJdSrcOcJFA+9gJyoMiqO6ls0SwfP2xfoDxqxQBz2WN57bUCOLQ0NYth1qBTkqblUgT1n7MjQbUGrsMBLOQVobTTOyQ0H9C0j34/kRnNSCxzj6YcKNi6sDt9l9N+bhMTjDGE7z9uFt8XzvEMGaRDpzfK8ErkJCSYsHNuUPg+W4G7CXOSRzCCfEZjkFm1ycSGGgflLnM8/Q8HDdoEu2Pp5PBb1w5oMfSvdvHg94S9zLDdnO3xVC2zvSMG+JWcZjnnCsDdDZ+FAZdMnsRha0tFaVtNWhi7GVqa/iGFgB56drVvqixaouVypvuzjLaU/FMuivBp48uMtw8UosqM2X7mCkvt8h+zhW3wfDTxf1ULaGcvBYMOQw15C+sIy8GI/bolFSbcim34yDPtu91GAEtr//uuT4xk95PF80Mi4v9GW+VsmDZq8Z/le7XWHqitVi99agvSl73x553aXfWVzc/OECRMCOiQnJ2upfU/t12QcuCM7U8+ndu2Q1WFRhmn1XyPd7QLc7XRkyLqb9NsY/sFLqaNsOdjMLK92wQ4aWxQ2HsPS9L/slpON5hNrEqMx74zk07HbE3H2yTlzlMpyvynN5W4yN4shAyZ8V9H/gEjPXV8IORWpXxQmw84O8PGADwlDNnc9YpN8zuEzxvxh7xXZLeKjHcdP+uJh0u9qpekwkjGeJUVI+8ghDkg2fETtDt9gGFSyH5ds+AeDEzkPxeyQLyFqsjxqFN30RUEpPln1i8KEpRnOddnsMuGrnYAiZ5sxmQMi9rduab2VL0YUZ+St6/oUa33r2ewysLMT8JaEfrDfwN5DS+qFkkPnUBdD8cxVE9I+yKCvoyLNol+O9YhyuXLXZ8sRj34yXP0qm8/miXFyjY9+UtFSyeNhMpRThii6AwXoKEMI9qWWPxH1+Z5Wrn5FkdxdH20ePGayEMO3I3xDzlzYfuW15/uwee47O3w78NDs5p7FZFk83ww8e7syWVryB0u2fN5+lKyf1O1NUQzDLMOkL6csEBP+kRT5fmV53/9+/oi3hK+XyG/ekRrUllatGjunN9f79+euzN3hopqwAcpyQLrs2/+LO7vte8OXLv2nrZ4MCYxS81yZJcvHEQs+WcyfnsLO8cyAHzR62JV128j69jFvtjL18KDRzU0AzD1i83jGKz45aJQDlfarDZ7VjtwwAuVaS5n0m2S3tejBPsqQAZO+L2QnrO3HOlvb+kjGxke8iuOYDwIlpoZDRO11J98eNKIA2zou28Rkfh6M54NGTPrWk2FpmFD9M1uOajm6ktZ2d5SF9pSLuw2TfgcFyPZgHlvKTgBHKeoDFIU8vna/Gq76TyJ3hwFIVAdmchtu8+eXXABuKG2324VXxbOzQ1bbBTrI8GGhoqWSRz/LMBl2U2oMYL+NfQv+opDtZ+5NfPsZCp63CzmcMHzKoLTYG0jdC3t0Oyxf1QJdgI6Q42GpAhYrl7HLpGqEHdHO0PbT5IZp7Wvz1B0OB3Dg2dy6UV/kwWeEYe+NTxB5apRXAw+9YLj5JNYll61Yfub257f4Php44JNaqJ3AwS93GHYCGAP6wIu7YyRz3FLO9hmyyYQVtX8Kd7AfBMNQRGFkT+L5+6+vgmBKt99/Gffv4qe7P8V9EucYMqX4WLGkuFyus1nnwoaHTeq4y3/kC5F1Xc8UDVjcv+P6L8MHmJnsTA3Bix7A9oMdeuHOE+0HpmiUjl/9JL2xAGPL3VdWOT5zFxQAzwdkIBlQx7u3GrELbt9xu3ksmzzTTz0MCnuoy0eK8BKJmCV5LD8/QB4kZfGgm84HtXk+EWef7EyxLvNnG0hzuZv0ux7s13ZMXdN+dVJ9e5+isvgSjl5GNvOhg/DQF3IQgGoeXrFLBgkWWFVcjrrrbzqMRO1xJZ23s0DmH9ZkYJdneZc6m+QLCfZ62PdpST2ivnehIvJoOwyDs1uPoXj6hbsbctI+6tuFZJMFavV1uTCiZD+uxoP+Y16NvfqKurRPlyMFrSof5wYe+kIe+KOqgJTGzjs8IF1SwGaXKb7aCSgejhiUbrduaT3UInZkaNwz4Tgma7n7U9OtO5snxumXbLPLwM5OoAewu8BOw11v2ifXSqDMONBvvzTJ5VK9ZhkkUqNLX0dLHkaUBD3RgGgBrA7Nom4tor/8Wb/5ZH+xFR2BDfNI3G68xE7eUDx0BLoDy1R7JGsuF/YPWCZaD5PlsZHG13tan8T9czdkI49+hN+6VqP/2uzhCtyGyluJr89HGVASLcl7vhp46Er5MoZtAZ8aGAZocJTwWPxey+L5ZODZ3JXp97TpwWtxdKH22ytfjDDszWwNPJcLAxhLk9MGmPAPVtrlVptK/37EG6BfivflYZ/g+b6FaJCqH6/JNU1utyB7BmRX5mGQCBkD+BRARyS9uVD23tdOX8JnlrstSPZXGKXmo1+ZhZXiw87zlSJ2jmcG/KDRw65MNgfMcjfp28e3B41oMXz7wNuxECwKKVgRFp79xRZ9j9jcCXjLJweNqBdqh7ZND0nEjh3fyTEC0ftFe3JREZRQtZ5XtbCzj7LTF1g1CiDLkZCE4VS9YvMjXm4UYAguYERhXFmW1rcHjVipr+L+2L0fXr6rtrRKBh76Qu6q5+6zXnYv5gNIITEXHOTg+yyaDil36xrPbf+hvel0HthjSxlvGLpfPz+z9IfivI5buGCZm/65/Pb1Wv3nOMqM/RVeYmxghOhrgUT1CznVU4Zukt+F6MeDne3Cq+LZ2SHLdoFsmFDy62cuo9hVxdckFoFjNsmmyNDCrkx77Qb2ALIE1BF/3W1r4KvPUOF5u7iUU4DGRAa1zeL7EQ6TJD+mHt/03Ce1QKuieOjcnGU78enf/nk9MhSHbeV5JV2avfOLAPoL4w0drd9HqZspDdTAA5tbt3wgYsL+5EJWPnKqL/v7IlO1TJ3sDDw5jsL+R04byJ58Q9f7vyv9+S2+7waeT2ph2Al4CLxgGNiJW2L8yNk+LaLicmGHI0tTO0awuY/S2P7+i0b2SRBM6fb7L+P+XTQ3Ni+bEBs2PKysoP2UUUtzy47FO4IGO0KGhWauyVo4LlrN0vPVfX7sw2jDAMUw1Q9KS9gAsBl4vjixx+Qn6viMbGnqctcIIXtJ7P601yaeD8hAMmALP7PlGMaxu2sr0BrYj6i9p1J2/EdUXL/zkpON+m9rsslh4YbvdUIOCuUBI1pSL2AhvrnPjxXsiFE188eP8NAXsg9FQ6G5tCQr0hTG7zku16Gv0rFk8yGLffiG3L7Djd2pve4R+baP5XQ5M9T5ZHxVcXdDTtpHHQdINqQYhpwcPajxoz5+DIEb+WxLfH1+Q6XFwPbQF9IUErHSkjo+bPAtEUNURUBsdpni852Ah18IKt1u3ar14p4J14dQL2a3f+tWexWbXWZ/J+AtWfJq909Qt6VzKGLwWO7EzFT7qDq6425ESb+jMQ1fTc3XDltuPhK8Nu+I7O+g5AAdS+624r7d06LpUPFu7/MjE2qN1tg1ff31M1fu7zo696haq7pcFw+ejR/TftoPFcF0f5YV+SLRy6Nb3wy8zu94ONjFl1styaPeDzywuSuz3NO6K4DNgYfjbxyFy65AvkoZP7Z0+v8jXlVZpp2hiZZf81QjyJT4+oJrpy9p83pqQHZlHgaJUA3S5QPF5ZKtzBzKAdlfoX3QSlpSJ5m1NyIZX7oMOzQ9+8czA3vQ2O2uTHhoEA96fNAoXZby4dK7ddablbC5E+iB3h80ol6onexM1LYmYXGpnWpMr2ph/8PRwNAXUiQspzgjD7tud6cG7X/Ey6kaQ8Hko8FwMkDIkn140HjFR/f5MZNr4MzniYX0prsDUdlw0JUedmWy25QPFC2pw4NwbCnjTUYOukyqo3ZNsglLY8p+yRyfko9I/bW9MuAN9ZLfhej3Bna2C2+L1+0OWY0QwxYhmzMWqL3u5C7dTI7ZkBmjpf1Q0A1fHZUpHrYLCbCowt84V4qvXUjBl6Mjcbtt1suST2oh3Se/pFQdjWMD9Jp0tBRP9jzmzUcdp6HrJWVABp79rVveha/2+h+ryddV9WGh2Bp4nY+VRl1a7v6Ev1iUYU+u+HyH7OFbfN8NPJ/Uwt1OwHPgRZHa6eOWGDMYG5v+ufynxvu32kOtv35+5sbOR+mC/YNGYf/7rwzpXgbBFLSP54NGxv27uF11O2pMlAT3627UxX0SN2nQ5Hlj55eeLW2+07z84xWWcf/+JPsvTMv/J2zPjA36u427I8d2sjvWknxECmPe5QnZS+r31waeD8hAMqx8ISLumfZ7U9Zcsrh5KOBoD8d8ho0WZNevX755v+D59CP2+DgmRgZk05L6nhTbcIDeLc8fM576ovMCSRwEFO3JdXcIK1e/mk/z6j/ge0bOtWLCP1qS99wNRbnKSRXP3ZCT9pHjAHCXDZ9V+MRSa1EfP+qNQi4SdNeDHvoCxyiYZd5ZS+fef4u9LtPru52AO+7aUFGtd277D1pSB3mjamSbXWZ/J9ADcr4Hf7XX3pML6/THuN1yN7rM3I0obFBJbyzAMbfh14WyZP34lM3H0HrmbEKa1JxuScIZmAy9bNDPe1ppMcOEA69jCd/hwFSfB62Ksh2L37tsRPuvUk5tPOhyOo3bY1fyA098QMvtYnuj9wMP5Lqeox7vOa7X+4EHNndlsnWbh6hh6xb2B56sZbtjNSbs99wd/kL/f8RLlVE8NW14b7H5xwGqF9SELyEFO4/3cgfe/7syD4NESIOsGjuntrRKS+pgGCp6sr9C+6CVtKROMit+zCx8Uie/v+ROjcXlTmD/eOahOGj00CAeSAvrK6vnoePudD4Mc/PEOLl2WJvRld3jGe/1/qBRyiCnZ2RbU1EhGZCqMb2qhVcfjnqyNNUXUiR8iCS81P77IXc3sbH/EY/9hpyuu1/g7n6b0v8HjVJsFNKw5/fMc5tLb7o7ApRLbtEIeyOS2wPiVjV9kI8tpQwqjib7AXUiRzZhaUzt94um3kSlUDV0tDqDJRd86H+yJt9oDPs0O9uFt8XrdoesRohhvYZsimGz8uD2/9/en39ncZzr3vg/stfJOeeH877v2jk4Xln7ZNjbJLETO7bjJI6TOLG9s+0kTryPv/G2kQEBAgECbMCYScwS8ywDxszzICYzz2IeBWIWIAYhpMff69HVKkrVw1MaQEJcn1VLS11dXVX3fVdVV93dT/X5qxN/m34ROOPjzKbfQz0xlccAu+/LLZh/Yha6bshX0F6cvP40XQqUjhzorKShTQuxq8eXx43RH5BK8Zc6xmHaIg3Pv3fzKqeJOjcLg2fDu1l2bdLr/TGb2jRmKf6G87F5ZAPyQ214TZci7jaR7HgxUARb1ZF+f3p7bL9/I5xgnuvfps9nGoT8/vW4fePO4DeGdP1h15UFK3Ofzf3w2x9N6DDxdq1v3ZxqJX5/9MOF2ZPivntmw+eZ9vP8xoHhb93g+eZTVCbEDVUcJTkKR5I8IQNMUPTeiA0j0j9umBPz4zveV+wq2cHOH1N8TPSR2Mx0M978+CDO32nSdHi/SR68rp68sKzXDC4J7BA3HCfbAlo1u+9hpTH3gzFoZs7DSd5r40JTbgMA6rWN0gjCQzlhvHloH9fkqB8k5mFcMsabt6jibj+Mt2fSNnG2qLp7Dy0cp+KCfYmPyWyaaxDwJ06HhjjtOXiazH8QaAR8YyXO0eMDJ5cNqoanfkBci2KhRglOgFahW6ZEEYhxug8rYCcjEAGChOPDXKz9EjuLi/ghZH0e/UhL0GsuHS6dn1WI0tGVTm0O+izfM1o9cC575YTf9CvbH3y+KfwKkgEyTn49/RnwuBeNG0TTG54ZVTK2IkPTG57/UObZu4l/wzN+SQTzQ/I4Wrbh4d6ESmLG73juHlC7KROWhWicCE18mPToh7K4RmKIawMJRI5XhKcWdZuyonbL5rgfifrPZx6LSWOCQgzNO2lEM8CQyBwwyK/sV8Qdn4LTDZzPNIImThpROupA2Z07HRskldlQKTzHqIy2MFXaNasY6kWwXzI1+N/iAR0Zpu9n9DU8+kkjpUbNE249GMzTH6h/axAGwwRhDbRmwvBif6oEy1ssNp0vwbTmuaXT3jgOmFbELkxl8vF/ZKezk6Wpe0RkHLL0iy22NtDw7Bf+1fMckONaiJOzwe7mCUCulZ8UsSwEe4OsME2/h3rCt9a+6jgeYwVaINSYvvvXVsx5oa0RNF0Kms82tOkLtjnQiuKqSus8aJMt0fD8e7ctr4HDC28WQVQtFC1SaofdRRtYAXv1EckjG5AfasNruhRxgwDjHccLzJfRb8m+gARmnx9MZma/m49k9vOJhjrBGrT+bboTzB/5/evBl/q5lX/H73ZaNX51dd1wU36hPO+FvPD+/i0Cmun8rPSOvZ4PzTIuVDLCdxjZgp0QHvJI5Chpk3FCZobUO7X7+yO3yFUcx/S44OTPJRlvJBwmkgegR/wgDjh3rDDc7tMRkyFuOM5oC7Si83tPYbU8qu77tBDZfgmROcSFuHI94Qt0EW8EeMM2EG6KjF/SfSq7SVyTo3TmLhKXjPHmsTDbj30hYfzo53sYR6FNnC1MbnHBvSSTyRyaPgg0iDgdGuK05+BpMho6LiRUw4va+SjmE3wfsBFk1EYYT/2AuBbFQo0SnIBTSMCU1B6KQ6GMAUEzDg1EEAGChOMdcPncf6S/qVX03ojJtd9txiQyPHobHv1Ia8PJKCpp1Ih/cMiAu+2DR+x1rymFXzhC75v0u09xf8EcLkHSBtDkhuffigxNb3gmh7hgLonrF07vJp4Nj/Bn+6NCP98O07IND7c83PggbPhnwg4cwJ1fwTeYRz6UxTUSQ0MzBJHjFeEpFIoePef90WgDkU/gWKu4gLNBulpa/6QxQSHkYUwa0Q4PLt4+452hw2s/KgsVYYSvuhP8dt5/EGgcTZw0onTUgbKzqmZgYYOkMhsqhc8Y5WMLu0pMH7nVD6vqZGKCUw3e48wvdbhDRfLTqUc8aTTajrv1sFMbAe0Qp3OqKHl4uVdxd/uUNZP/kH5gj6zQnjePW2bu4OxccaFBA1cETRuQnfZmRj+eZRemMum0iux0djLCHS3MvWb1wLnQjP3I2bNf+FeP/8cFc0lcC3FyNtjdPAGIhi4GkRd1nQxJUeGErX6afg/1hEIxTP/T4KsnLwYn6t4jDr963ACaLAVNZhva9AXbHHxLOtIEtI7dJh99w7OVHA5GInOVXVvA4QVVQsWCqFooWqTUDmY3GGfnokgezYD8cBtek6WIGwQYbzte/P2W2yavdhIgOPdcNoC44NgamTdo/dt0J5g/8vu7zMyd9eG3P8p9NvfIlnp7Z5cUl2Q9/fGIv4ysjJlYP2Ku1H5Bzv4RSgJM3OhHu1jtYM2Dhmu+CMR4jg7hIY9EjpI2GSdk9pCKmqP/4B4QXsXFjbyRcEnGje14j8HNL7wstOG959E8iAPOHcuBc3codn5Wof271OTbTEZbGGDc0l0n+MmdrzqON2MQ8/fJoRGgFNzpzYKkEcQ1RVYbFuRhdJOrc+SZu0hcy+RKyUxKUBZKtC8k4Z8r2iTYgqec3DISZzKHJg4CDSVOh4Y47Tk0yGSeg0AjCL940iDYqeOaRCSe+gFxLYqFJpjAgCKQg6M9VgBahW6DqFqYbTjega+xjPtF78vHznNZhRD3aSPyiEfaetS1KKNGvgfkuAAA7yBh8fkCLC75evwKc4tsOk1seIDNI6Nb2dD0hgc8h7Lo3h1zuWfDI3E5R9KSDe+bbzaNWRqnRhtOV5o+xD3ioSyhkZAGWYpEjleEp1Ao/ufXGiOHHdTHR+ek9U8aExQCHvakserOvb1zN8GIEHnfvM1BrPcg0DiaOGm0ZXfudGyQRpkNkiLjGOVpi3pVqvtC4JzQL55ZnH/focNlQ/5CrunGZtqN6hFPGil1grb5BA5qObBgq5noJuuc1vRU0Z3rt8wvq85sCzwATntodpoyIDuy26MfsJsuG5hZChm4z4/ZEYWwlbJ5cGO38FNMn37R0OplHG3iWoiTs8HpVpGYXweu+WzevYq79NaF+5pN02dlPvDXPGjw9vNUgJY/74OxiLcd4o2giVLQfDQZDW16mW0O/m9WzQ+om3IfXPRgR/tH3/D8e7ctryHucp+GZ4jMOZJHMyA/7IbXRCniBgHH8cJ7HJJl9FviRlz4qz5INveDMRj5cRYtcP2wBRgNmIDQpj5mAg1d/zZxPtMg5Pd32bl4Z4d2WY5/v/p+9aSPJ3347Y+WjFgaRFk8+u/6AmecTYYdAEN84x7tYtjF8gkt3nnD8fDyXU7/sck4lnFwSfi2jDOkmn2Tnc7D20PGKayBuzRgBrxp9BLoBDe/4EQMXOk1/UEcrICim/hdXyrNfZc8ldo8dhmEirvN+N9XCD9pAqObOy6nCP5KqK5K/3Ayv332om5TfAZ3TugzLqfjCA/lgA/S7WbP+029JpdKwRx8Yc3cRdjwnM4FiRbWfszdPKaOu/3wVdM4XSXYgr+IbJwSwiZzaOIgYOPzXd+MvTtOew6eJmvoIADKDpzGXXnsiz1PFB8IouKx56NBVEPgTR0VTv4FsY2nfkBci2KhPhZHEcjB6T6sQHgg4u3AWSg6mG1zMfvBIfoOZpAoApP42P1Mmm+kRc3R1DN+DNOGLkJU2Ljq+NvPsPjs3c6c9dzuE2gbaJPJYzt5lA0PcFRxv0YVT9MbHvAcyiJHWsCcnQr4NDxDXM6RPOJbvA1KRLk+8xD67MKOG9CahzK+Zwq1BMchGmQpEjleEZ5C++Eh35WGsM42KQ2dz7TUpNFzKEtQCHg0k0a+CQhzB8cNn888ykkj5DKyc8QzQz0bpFFmg6TIOEZ52sKpErTB99ydXzyzM/pP6jCJwlQKd2G0T9zdcG1y+2zGSWOzfNeXg8mSut/vkhvnr41/ta/RlUODh5c6d+T2ui+Kt+a5JYSCaEZ2Z/RjF6YyOeKhcTqf94ddMEKGvau83aDx88Lw70J8+kVDq5dxwIxrIU7OBr5snvSV9bqPpWE5ww/sn997ChXGwJK+icfQxHuoTUK/YClQizP4hz/FbMAlyAoT0fXDFtgDRSRNlILm4w2Chja9zDYHV3BQqfMTCq4RwqU/4obn37tteQ0cXszNwpC54VlE5hzJo1nFP+yG10Qp4gYBLs2MLXgvRrKMfktOBjKuFj3HKNC49W8TnWAGyJU8aZTf3+VW+a3Bbwzp0C5rSuep5WVpCyGmqM8XiOn7cr+r9W+ZoLKy8u233/5WLdOmTQtiHz7OOJsRdDA02cY1Kb4RgFaL+VD6CVgqhakDJuh0vYWHPJJxLOOAy2ydOQcJD6nRq7i6r6JP+E0/NHQmRk9D38MdfffsdMez4ZJs4m8/hfYwumHACk7EgE6Ort70ezzvf6ineSAZiXPHcsCogWEXo8PGUYtRsVRNDYbv+bWbUyNnc2NzSLAFNL8we+LhFbvSk57atgGFQJ/I0F4VmB+jIfLS4VKO7FA12hUWaVjMMJmBtkN6BOMoTwDVwJgYnn16wvv65D8MQLnpuqVS5WcuQy2InPuPMab9mCa3YcQiiFZ1596mMekvdrKe5i7CysPiJzeWUAOo1apPv4BO7IEb2fL2gxUvvwSFxAcWbMW1aKVxj8QTbMHHzigFq7vys5f5gBo5wzqwkdGMp8nCNGUQsFldu1UoQqQTimTs3UZ7zs3bwdNkDR0EAA2B4NnqOB/1acyR8KaOmmPkTC+9Uil2XpijKfoBCS2KMyE0yL1zN7GJolA0ra8LV6wb8hXTAHYfZyRnBcIDEayAZob0Re+NsN9YNCDB/A5u16NjHZEwR1zzw4XNMtJyfoay0HLQfoLYGFBDNBjMgJG+3ktedS0KzQPzXegNzQn6hEKQ+aFlO4NkdRsEo8un24ZHz3rEDY8PMJADBvDSXcc5dKPczWOXQlFMY9MsDc9zKONIG57GMGenAhkbnk1czpE0V8PzvMUTFIr7Ju/ddk9xgOpuXiiHsUY9l4MaXiyJ+L5Uax7KuEpHzdFN2PYcGmQpEjleEZ6CQoLjVGrrxFWorfOT7YbOZ1pq0ug5lCUoBDT7pBHzIpw9t/tEUFztdAu9Eulh7tokaTwHAQNbAjJB8GmcyAEN3rPNO0AuIzuksO90rIZRZoOkyDhGedrCqRJA60UbRjLnF8+et3hChwvSf/F/R+GvecidQLNMGo1aEOwW4kCpkSbu1sNnS5hIXDp8DofohvvmbR77YnonB1tXNrRm3PCCmSEmJOikqCEOobqyA6eRP0R+cHNsxXNLZ7XojH6sBpUJXWHgwqF5+xUiHF6xm/6psI+bj4hgtbWD5mHowwAYnKjDp1/4V89zQI5rIU7OBo6fmJuh1dHEDnzsUW+9lgp+XgPNwMRBZIgm3kNJxn7B3o2awFLQCZSMCvPDKqhkuEtSDwiQGqoLYuNpihQ0H28QNLTpZbY5OObgENXGjYNSYEaNroFITCEcz/gjbnj+vduW18DhxdwsDBkbnk1kznE8mlX8w254TZHCDALbJq+m2qFhOl6QJ4wYJPP2W1IVSIabbPoeGlMlzzEKlWnc+hdNt9HzGZuMk0b5/SM4vfd0Tvvu3OXfhK4/7HpgXcSj+8fF78+7fuSTOh9qX7Ct91kMhIm//QTjst1/OJmODJFVDWdrRmoQMaTGrOIgXdy2j+HBFN0SSzKe9bzhcaGbvBVmRprF7497JEYuVt4E1G3S6/3R1c2NDXjagsU5CRCwZHVekYvbKy2yqlje8L6OYNcqAagXgvgsRcKYu44TMNQ6qg43ualvDlrWO/0wNpgH1F9/2gHiP1gMWLcfJ7Cp8K5A/PsFn2w5aRAaZzKHJg4CBh+/P0ju3UZ7Ru1x+JgMNGgQACbbuL7mQP+pj9MnErSHdUPmO4IgOA2AU8DI0IiRFoVicuwkYLB7JbtPvZG2zkCRyuHvFu3cEIwt+AtHtEbHR8mpJG4ZCVuuN8tImzzvieu2aDzOd/IjWxSqBzua3o0pGudzkSFSe4+44QH704V2sLtP8zY84DOUQXxUzLkQsDLhkSG54dnE5RzHI7jFoyaoj11zhtnv5ptnySTSFglvj7bOoYzYMwET7MHH01JM5uRjgmkD+AeHdv5mDKz3VK+B85mWmjRmXMIRSu0M4IZmnzSyuHBwNAx8BgHDo5w0UlKW4tzp2NJsZTZIiuQxytMWTpUIWywyR32CKO9bvIEOF5z19C/AoE2fNKL7JPs3CaVGGqMuB/tLiSZgYCz8ZZ6tKxgFpnGSmWDPBuMaPFRqbvEASmidc0tKakpxRj/8g0OjTP4KgdU2AfVEg7SFJXTXYrZW8EpvDH2wYHDCImO/aFj1PAbkuBbi5GxAeu7bYwfTtc0OP9CA7X02Dr6ELdebPisDGftFXO9emD0xsly7g0S2TIemSEHzsRQa2tjdMceN81epZydE/srh0Tc81MGnd9vyGpA/SrFvFiS54TlE5hwHatv0ARkkr+IfdsNrihTQIQcBJ2AocxwvYdcBQthvWbrzOIzoJMOFSLlzxnq7BfqMUU1Z/zZ6PmOTcf0rv3805WXls3rO6vy97A+//RH+TsyadNH6tIVD69/nhzTl0W6qpmbv3E3jX+2LHIY/k41B/NDSnTfOX0MF7P6DDs9uEA6RVUW2h5fvQm7mBV67/0QOqfif46mzxkDnPLBgq8lq1HM5GFbQ0+ztyQz8KDl6pufbWM3yIA73s6bv8wMg6aYxSzn64OY3+2/5p78+jPEIl5gbG/C1Rd3nYce9lHZYIBS8krdu8PzIdoVInEICpsQluLB01wk+cnc4tGwnRx+7VgnAFhAq7k6fzL2Ku/vmbYbFx7yQixI5ZG+duMrZoA3grgD9U3ujn+/BTdyoKzMPQAUOr9iNmmTQSSoFG63sVwR9mlb3ZYeC9O8Z69u3Qf3i6skLy3rNMIKg06GIK8fKHuTZEJM5NGUQMFzy2OcHJPdudGTevI3a4/AxGWnQIIDRg68oJvS1ejT9c16p1Nntx9Cu+Clmdl7E2K2FU8DI0LiRFlY4vn4/CuJEGX+nvjUI+sTaJkhRNy0Oj7SIiVZOrSAmTwba4nLdLxzDH2KBdfgeBNZUduk2zTLSouYJv3M0DY8BHQ19Nm4QQ50x8zM3vul/Gnx09V47JVQNhZvcnBCpvRZoeN98c/NC+ar+X3Do5vDozGibveGBjEMZxIcSwheyMhEjQ3zDc4jLOY5HcIt3mgrUgqEAfTPc8GxbmA4bvpcZWudQZkDbW9FnFpsBgz0l8LQUk5kcnGDaAIcyO39gHMqOOw8l+s9nWmTSmDyUGSi1M4DboKc346QRuR1cvB33VlofAyPuufaW6zaZ5zMWj2zSSElZCu8Ipu+wpTnKbIAUmcYoH1s4VTJgHEDpuBbpgygU6HGLN9y9cXvGO2mfpv+7ls0yaUzYz8RAqR11OVwsOTvr3eGc4KHnYjYIMaE3W1fOSOsEmJ7JAAZVKArqMqqDGiPHZFitFc4tKakpxRn98A8ObWXaQzEEgSYjhSXmEZG9A7tDcr9oaPUyDshxLcTJ2QYmRiMxeSIEXbtuhx/nJULC3wFAIpg4iHJojlkZyNgvIDuWUfzoNAJmbvu+3BI73NX9WAHBbuexNEEKmo+l0NDmHhE2h20FSAFx4u4X4NE3PJ/ebctrQP4oxblZkNiGFyIy5wQezSr+4Ta8JkhhBgE2EgTYK9LxAhF8/Jaw8oJOE5AGA86E3/TjrMaEBk0am7j+bYoTzAC5kte/8vs/rjjjrA/N8oC6bcARB33DfsifTLM8iHuiuHb6UsEr6bdLEl7wsTHP+cO/7BPNhQYBm3VDvkL7TH6V0oa7PTRo3BAN5UkYadXwWiGPdcNTi3rYaNL4CNCk8WHDx1EN0pgmjY1AA3Kbp3Wa7Mz2oyOf7Zbv8REaoob32NE6B+SGNrxGS2H8/s7Dv8aBZs9f4C3Pm2V726urqncXbYA4Ppt2NhePZj4jv//jCiYTmFKMbdD+oanUsl4z0I6b+ID6cYfbwzW0a/G5bhMfxD0hpGpqrp68yO31scZwNjFI4NiavVgn+7+IJBqMBoFaMHU4ULshINpb+uVcPzjhaNioKxpI2x5p1fBaLY9pw1OLegRo0viw0aTxUVC3mXXD3HyaNDYEDchPCK3NZNVV1RcOnp3+p8Ho4AlfDHJQw3v8aGUDcuMaXqOlYItFWc3i9+cr1JFTu7L9p0c/32PMz3PDH3x6eDyC+Yz8/o8rfC6Epl/03ojr3jtkoYOhmz2xj3axtDi741jGz2tEgpUb1m8P+0FcG4BrXWgYYdwvepcdOB2c8IDvIo1/talb14kEnvBBAPBnlQi4v0bubZoA3/rc1LRdm0UCbXikVcNrzTyODU8t6mGjSeMjQJPGR8Cd67fWDfkKAwU0nPDB0kg0afREA/ITResxGbeyYUjYvCUSNbzHjtYzIDel4TVOiub1+2P+wNnd/KzCqycvcrsejNulu47zSQbK8n2S0Rw8gvmM/P6PMc4nJpqlD7RV+EzP6Cp5l0nRFLCEG/Pz3Ljt9YVocbA2i9sQUIiHhxqeaF7Uoh4emjQ+MjRpfKhstT7bgOEi+VsRoiloQBYtwrG1+7iD+YH4ffOFaHYefcNrXr8/RmnMOoaHPv/LMOE3/R7ly/6PBvn9H2+uHCv78qMCfpJIfv8EuIRD3w5/z1AIIYQQQgiiSaNoG9DvT390+tOXQgghxGNIM/v9QSp1fu8p3BzHvdSL7n7zbfw2+RaC/P5CCCGEEEIIIYQQQgghRNtBfn8hhBBCCCGEEEIIIYQQou0gv78QQgghhBBCCCGEEEII0XaQ318IIYQQQgghhBBCCCGEaDvI7y+EEEIIIYQQQgghhBBCtB3k9xdCCCGEEEIIIYQQQggh2g7y+wshhBBCCCGEEEIIIYQQbQf5/YUQQgghhBBCCCGEEEKItoP8/kIIIYQQQgghhBBCCCFE20F+fyGEEEIIIYQQQgghhBCi7SC/vxBCCCGEEEIIIYQQQgjRdpDfXwghhBBCCCGEEEIIIYRoO8jvL7zYv2b/h9/+aMRfRlbermQM/sEhIk2wz7Yxzhw42/WHXfu82OfGpRtB1ENgVeEqqHFat+nB8ZPHsbX7hv1rJ4Q9X2zE4daJK/H/yOe6le48zgStn3u3K7/4z5GUggGHiAxOiwZStu/UwuxJlRV3guMnmEtHzk36ff9Rz+WwdzSOCwfOjH6hx4TXPqm4dD2IEuLxBMPCin6zT205FByLBlJzv3pD/sLhz2TP/lt+UwaEpbnTcafD/To4Fi3HQ7IF5jCLc6bkt8/GX81nIuF8FfoPjoVoVsziAgulICoTyZNGrVaE4dTmQ2Nf7ImAf4KohqOZQOvhIdmiuSaN/lCQcS/3unK8zAxZM94ZevfG7SCFaAjy+7cYFdcq5vSb+/kfBz9UV3Jz0bb9/hltIb//o+HUlkP5P+qCMZ3zWq6jRr/Q48KBM0zQ+tFMuhkp23dq7Es9EfBPEPX4gDaMqcn2KWuC4ybD7pDcom5frVg9YM6Mt4fETcha1u9/fu+puR+MWdF3dnD8qGh2W4iHjY/JSnedeHzHh0aQsXc3FOSDoYCjSoIvKaMtWnC1f7+yavPYpVPfGvSIJwnNbovm4iHZgjcO5JwwH2spW7QSeIOG/oNj0fp4rGcCZnGRMFY7JE8atVp5THkYdx/eOBASRrCME/gWnAmAFundT9pMoLkmjf6sHjgXZXHRaoYsjVSNps36/ad1m267pE142K5bfzK6kinC/jX7g+M6Ho0P2iHs97dJPtuMsKCspz8uKS4Jomqhx7zTv3Q+vuNEENUQMqq0Rfz+LBQxQ98aerfiLiNJXNt43DFrS95O8Bf/2+tM+5YTGRIWpY8e1r8p96cEeRstaaqm5vj6/bP/lj/ix12Rz5gXclf0mXXzQnlwutVw4/zVya8PQCWPrNwdRNVhFjMMw5/JnvT7/jtnrL9fWRWkaAUkzLpo1sJf5l0/eyWIqg+uDdvX531/9iDOkIKo+mRMQNh0LQ13Lnil96JuUy4dPvdNKhUkajg0XNy6wkzpRv0059yek0FsLaxP3IUZaZYZMFWHfHbNXB9E1XJszV7oB/EHF20Lolo3RpBwaPZFQqPxNBkGBwwRGCgwXARRUVw5Xjbu5V4mN7ZD3mVIeKTFwPhlh4Irx8qCFK2A5M5LjcU1QvYgR5+er25ltIWPsUzvNgFD2bQ/fY7eVHXnXpCo4dBwUAuUE0TVxwxli3OmQN4gtq4+CRcmk2wLT9gOYYLguD4sAroNjv3w7DgAt8uDi7fP/MswzgRgjnkfjMXcADOEIIUF1JXxff+MtmheqJ/I+ZW/EpoRWrOh9mowqdT5vacwNGGAQnHovFPfHNTETvTk8IgbBoub8seBt67cDKKskXBGA19ZNRfad65k/H8kynEysjd50rzCthQcxFBhEx67mUDjbis+7/tnHOJ8+pdpEiY0y0wAJJdOwZFg1l+HOb8g54X+3com2RaeMJO4PkKNNbQIH1sE1N5TsL6z7ynbp6y5V9/vRJpr0ugPW50Rnzk3ZaR6wpHfv8WQ378RrJ20lnac03dOqs79dLfi7tC3hjK+ca7wVu73Dz/naNt+f7OxD2ei41/tV3Ex8Epj3HfmZE7A5ciEiVucps+kE+RtnKRY6q/sV0Q3pR3G/aJ32YHTQaJWQHVV9cLsSajn1omrwo5mzgPCYc77o1vPjkAJ8557t+7O/vuIOAtW3b0HQfirxiDKG/aghAlixgSETTccYBG0n0Y/X6HhoJnguD72emB1/zm23VmfuAsz0ixz0BPFB9hx5n0w1mgAk+DFOVNY5ybm/8hgG2CdndB6RPA1WSqFIQJ2md+hMKFZUmTjE0fmzvZxcSNt5HPHliK5824pXI4Kx2ls+9Q1ONu4LcIy2sLHWOHVvgm4+zjP+fyh4aAWKCeIqo8Zysa+1PPy0fNBbF19Ei5MJtkWnhxZtQcVg/aC4/pwwFk9cG5w7Idnx8GcasY7Q6kZJ0BjQaIGktEWzQtNEDm/8lRC84LiUGicNZuFuPkbwiMW9jHlUTYMTuRQXP6PupzceDCI/eYbjHWjfpqD+IaOHmYIbXQPTYDjZGRv8qHZhW0pOIihwk54jGYCD+O2QjIOcT796yHNBEBy6VQaEjhNFPDCxnWrZpkJ4HY8/tV+cZncunJz0u8+nfrmZ3euVQRRHvjYAmCtvW7I/Mh7SoKhM+JZug9sdeahCHNe0n1q2DMgfGjjfv9VhauC49aH/P6NAAbt8oOuA3/3Wf9fD7hZ907Byd0nuz2TM/iNIY12hbdmv3/297vkPttz0seTqq1X1dqq3//62SuFv8wz60Zu+5NwQ+X9oCk3p4dKE2fSDs0gbCr19fgVyGTsiz0PLtqG+z1iLh0+N/PP6fX/1DcH3b764D2dlgUzV5g+TnVUhZlSVN25t3PGOr606LyL3YIkzHs48TXt3IFnGzePzDgH9Zyksumaxoamcu30pZWfFA1/Jhvxaz6b17gpV3IbNusBzHELf9Wn/Mzl4ETr8PuzDrP/lm87EK+XXsF8HZFNz/+R0SwLlYeNv8nYbLBuObgw9vcWtB3+4v+a+9ULOk90eh9UAYU80EkqdeVY2ex302Z1XmBsQZINx84VpzGepQYaSkZb+BgrPOhV3ryDcX7S7/vjWiz4Lx974JT3h4ZzrGlD0497udfo53tsGLnIDFzJg3BGkm3hCesWN6zxbLJWw3h1nFRqdf85SDbhN/1ObjzIB2YY5C8dLl2aO+34+gNM1VAy2qJ5oQlgRJgyiKrDf/RoRlBcgjWbDgYu3IJRBO7CqwfMqbh4HXZM1dSUn728afSS3bM3BOlEPI+yYXCEmfjbTwteybPfY4CxEIP4ho4ezBD1b9wwngxHm8je5EOzC9tScBB7UNvHcCbwMG4rJOMQ59O/2FTs20SzzARAculU2qif5hS80nth9qT0+rcOXti4bpVsC0/cVlcfnm1o3/SxBcAEAGttLJ+/Hr/iTvmtdFQqhZvL1omr0gu9xuJZug8HF21DVkZ8bvuD/HlWNJQn1+9fU10zudMUpJn7ifvYE6cmdpiIU8XTi4OodEdIHdt+bPh/5Hf8biec6vlcr+VjVjhubhTa9Yddzxw4e+nUpXHvj0PKDu2yBrw28MiWI+bldPp24wIvZ0p/vz8yLzt2YXbvot7P56FEXIXqLfh8gb05DKo64i8jedXxHSeG/vuwDk9lIeS/MwLXBoksEFnwj4LO38tGbhAkp313/NNovz9qgvqgVswt/88jzux3FwbMBPqBONAY9AZZUIF5A7402eIsZF86ahnizSvwC4cuGvrW0AWDF+LyPSv2MBJkNJm/Lajz4W/n37l5Z8eiHdAzEjh1M1RVVq2fXtznpb6oPwL+WT1hdTiZUz3k1u3fcvCP4/eHySBa9ve7nNz94DF4uG0g/20LtkMPxmTIGfmbhge7IyvY6OKJizB61nc+hn1hl4PFB3Oe6Y70ayevM4mBj8kM69ev/+d//uc//elPN282aVbE25uZEGS8oWachdy8UL6izyz+eA03ttl/yz+x4SBUH5yuo+rOvW2TVo1/tS+SOcHOHBOFAwu3Tv7DgPCz8chbcsaZtF29Uc/lLMyeiCVccC5ERmGxAjy8fNfUNwfROTv2pZ7rBs+3VUcfJeY9Z3ccC6JquXP9Fl3/xmnOmm8pXA7NbClYjok7Dkc/32PTmKXhl2ozSkE7ouZQIIqgnpESs4rIHxJWVtyZ9df05gNxPzilKupNKeocGe5bAKnU2e3HYHc+FYAgECf8Y1LEHFy4DYWiVkjGpoILw00FQKVQLHUCVc96d7jZG4ENGPFxgeaDDr/8qACTrchPknJabJo9tWdnEp5LUSFxwXQowNxm/30EptolS7YbW6wdNM9WS/TKoe7daufNWafhQTPQj3kzheKwJpHBdBCTcvO4ZSgCK0bmACLrg8azftgCGgImK3pvpP2bFU9b+MM6sG6mp2BKij61Y+panEJ/YSTBcvHLDgVsUfiL/52f1MSNb6gYLkFxwXEtGXs3sZPBUhN/+8n++V/bKxwQV64NX9OL/NFJ6c7jI5/r5v6cP9EWgIVCtIRBoNEmw0CBQsM/3zbATOYFf6d/ERbtRKKRQ88Y98r215Mlo7Bpav0FK/sVQVLeL5AeV0WOeLCavfeaY1zP3r3ni404jHuPj5mYRsU2ZkK4MVAhdhon2LZgbli6416wqOtkSAGR0QjPbD8apKhTu6mtgfu54XLnJz7J3YedMSEYSZmy6L0RS3pMQ1fFTZDx0fXJdL/wH2l94JsNuBdE/lSFNbdHe5/eTVvgWt6XqcBJv+9/oviAUS/fH0Q8TMaYOMyYbAIOERmcrsXfFsRHCh84pITrA6gEW3XAZ7qFaqC28z4Ya+94gNqizkEKQ/2mggx5id0vgP+AzAvR7NFWkRjZoivduvzgTSOOyWgwuHHbPSUSW1hkhXo6U18Uh0KRZ/HwhUiAYQr9q+Ji+ex381FPdDeOpWwA6Dg4hQQY65AYCTBjvFgSrI8MtrAoF93HngkQ06rRrYqHL8BYh0P8xQw83Ata5rYSsuyyXjOunoxYJidD1XHkMbfLuzduz3hnKKZbRqtMDDKajBlykEkPjx8VxNmCajECIjh9IQztEtmbSLItGiqs51BGYa+evGiExSWnvz5sqyWy5raugig/2Fo8ZwKeQ9nNsmsbRizCIMx+ARPD0DB3cLo+aGlob6YZQPDze09RXs+7T4NuKzy0A2J4ilCTTho72JqHyRDTvDOB5H7h37vZKZAYww4GUvuHBax2PcEf7UwAg+TUNz+L+5E3ZbT17Nl9UBMIRQVGzgTA8rxZiPd5fZ4ZmuD0EeBvC+LZfdhEjfjUvJOV8OeJft+/pLgk6+mPB/xm4K1rtc+46rhy9krPn/bKad/9fJ1rI5VKrZm0tsNTaZe6HUa9O8r2raPQDu2yZubO6lq7PYsJ2d/vcnxH8Ivyh+H3Z4ydD8PnfxhccTWYclXW+v2RDNnS0WxCr5/1vnz6wfQ3TliExvn9r527NuC1gXY+CKjD7uX1lhzMZHrOjJUFK/n0woSivKKa6vS0e+HQRRDh0KbDg98YgpSoKmwHC0Kr5rEBc/MxWUP9/kPfGjql81SnbqiG/SZ++YVy/vLACYjEqSARVhf3qyGUkxUDDMQ0xtCHtxzp8ZNce2ujcNtgjBMg/qaizUxAvz9EGP3emOBsu6yVhatyn83lIYq4cDyY2nqajFRWVr799tvfqmXatGlB7CMh+QZwfP1+3H15vzEBd5d1Q+bbtxYsb/gD1chgMsclK/rOds6aYN+SDc7tygGT5nG/6G1ngoDJZdw3KpOFjauenZ6OIWebY8In6mamyJpj7RfWzMpPiuzLfaTgfGvanz6f+8EYJ6Xz2gXhtNXeTcWBqsDf4LgWRtab7KZS26es4VTbDhDK8Q9CS04aBFy4d+6mIEUdkY3KTID85z0ssd5Esw46ZUyzofbsTBzBAWWPC/YclLnN+uuwxTlT0RfsZFhsGFuwAYQbG+qGRR1OmQ1DoMmF2RNNJiZM+E2/i4dKkQBSQBbnrB2MpCYl5oKwo+1ZDtcHiwTMF00mDJijm99iN3QOmhH2ESxpFnSeyDqjpaGe0Bt6AbT6IMNUatfM9Vww2AEx6QcGdcM4bRGePYfbhk/vBkhW+5sM96kkrrV7WVy5NhANHRDXhneG2ZC/EPH22iyjLQALTR4EGm0y1haDhvPz7YwZIrA3MaWjE0YiW/v5nI+wgPI6yRCm/8dg52dVcT3IdHPP3h3XZwlWdyYlYBszwREcZFSdXRBzQ8Nw7gUoMe2zqIW9266DAZ0CiR/8jN2j+1DYhGC6D1Oi6KOr078hS+dQS0R9PO4X/iOtD0iMSziYBFEW3JrJCOLZu+NsAe0dW7OXaXiLQSSW2YyJw4zJJoRr628L4CmFDwnaoxJMDwKe061I+6YnjYPnm+EOxEmBYPcLT2EDQf7vqH1fbnGa/dx/jAmkq3uzIWFeZPCZ+qKeSLOq/xemepgZzu9QaNJz5GcDQMp1Q75y6gbt2e7mjDMBwtYy5/1R4W2m7J/jgJa5rdS93OCkieukCdDrjQtPFB8Y9dMc9j7cSsa91AvVpv7xDxP7mMzYYv3Qr+jFM8GxBdViJ7D7QiRmnIwUM6MtGiSsZ7/AVUjDO5edDPnbry5F1tzoyhTqCVuLc0NkpDMT8JQirvkV/jLPdfLG3PiMaJ53H1o/zpTObYXas4M5RahJJ40d7IJgMsQ020zAo1/4926qBYlPbzk87uVe9gyW1X4g+COfCSToBGD8HPPzXCOIf/dBZPJMANDv/1XH8fa1kTBDE5w+AvxtATylEM3OE+33p8s46+mPD28+HETVsn3hdlw7udMU+prB8R3Hs7/fpesPu25bsL36fnVNTU3pwdJBr3+OZIuHL3a8sQhIuXflXiQrLyvPf2cEYmbmzmIag/HqGve9Q9i3S8IXojLjP5ywb/W+OzfTQxJqeGDdAb6hv3F24Lei35/Vy/t5n1N7TqHa5w6f6/tyP8SsnbSWycChTYc7frdT5+9lF08vposc166ZuAbJGuH3R2UmfTwJZws/GH+lNP3lPeS5smAlinCeNzCTrO983KFd1uA3hqBuUODOJbuQ0rikoRPIDg0sGbG0z0t9r1+8XlJc0vO5XuePnnf8/p4mIxltwQS41giCDHcs2mHXDaCg6TkzkAYFoTikQUzJhhIoHJHz+s8z5W6ctRFi5j6bu2vprvuV9xGD1ljU5wskg4xMY2qFVoTWmPdCHhUIwm0DmS8atujSqUsoEYc3r9ycmj0VacxjLfr9od4uP+h6ZMsRGBdn0fiHv51/7fw1tg1m6G8y0jr9/tfPXcXKFjeVVZ9+Qe8hbthfj1+Bex6C/SI5pxpIjJVhqqYGayoseJAGN0v794b8NRym15iI4LaEgH9w6ORmEzkfJXzFntXD/4hBJfE/YhDPGIcEYQHfBTNSIOZO+S2s6tNLqTp4gw878gCnRGa+ZeaCpobIc9+8zRAWpZgXJTylYObMcEGnCbev3jS5YTZjrwkJf8dnHDRhqAr8DY5r5xBY5iHSft0VawPUFkUfXJje1AiFoqzpfxqMZM4Kc81n8zaMWHTt9CVOOCDFku5TkczZURHtgVOoLz+q/cxXKoX0lw6XYgbJNmbDSZJdSRvaghNNuo+Nm5uTp8hmk5wnMFNbZ0JmsG0xP6vweukVqKVkyfZ0g7deNmEDiGxsrHlwqm7nqNr9IkocJYe3XE9uw5z7IgFKL1m6I799Nv7ylFMfY26KgBjTu50NgkhGvfnAyrNuaLfQ5OWj5wteycPIQK2a6mGFg0NUBlXiOsH0C3tUiTMWa8u2QXx6N0A7RxGwBUYkJIOWYBQcItLeAydjIyEYKFCNeg/S6pb39iDgaQu74fkMAg01GYdxNM7guJaM6xAEFsGUjk44gNj9wr/hXSw5i6XU0dV7Kzkrq7tf4Np6I3AqhcEHkVDO3rmb+EIZjAvN7JnjPnRMNhz37TWNEKXYD0IQj2uRAw8NPo0hoy2YgFJwsIV957w/CjFmQE5Y2cL6aAPmlGf3ITRcZLaEQweKvnmhfNZfh5kfhYTr43+/AD56ywgFN0M9H3ibG58ZcHjo2bvDtrhXcZe3MyO72TFm1HM5aGlIw2uTMZoM35hIRlsATyl8oAki6+O0WM+JCtg5Y/2KvrNhFw56UBdMj2TOm5i7izakI3/R+/ByTODTKdFnkSEKRdFMAzyFpSC43yF+0u/7M/G53ScwXBhXIwde5H8w09fjPae+qCfSoNDi4Qsxh0mX1T4brbF013E2PArCboJDBCMIulLReyMQ8+AlEu+ZAFsRAkrH0IcRD6c2jlqclv13n7LCADm0yG0FZY1/tZ+Z5yMGGsAwvuazuXHNPg52B2iPI8+yXjNQN8wV+eQGNTE9xdNkvraoT0aRSULv9rGFv7DAs1+w5gi49ujqPbaw9o0+subUlV2oJxTEGdjDMwHgKQXyQftHTPp5fyq9MRdmcTA36uz8OA/5QKW4HEPQzbJriIHqUPS6wfMdo7DZO5U0NOi2YqDGIk8Z7JEhEttkEBk6acpMwH8VT5KbulEadIvOYv/4jxcawR/9TICfxzCC8/V/84iXRRi1eza8sC3CMwFwbM1etjqkt2+FCfiInGwL4CmFaHaeuO/6Or7pJSOWItLe6oeb/HRol7VvdeBU5Y5AiNm2YDtjyKVTl3Kf7Wn/XICF5rTvfnrvg9+CIR9cG/aJZ/Q1x4nAkHAhWTF2BZKZ5w0onb7dT3/16bVz6TsK4Tvvxtd8v/L+uPfHocIbZ9VzDiZ49kHC2ZO7T2Z/v8vgN4bc4sZhteDet+DzBbjEPJYAzARhzH+ONa/ks9qoz8Hi9PIV9aSfHdl2+UHXvav2zuk7BxVGtXk5/f7+JiP+fn/os6pu/mpUSnc5oLBh5zgfQhjHPR84dfxup0Ob6j1wcmxh14o5o7nyFNuGKTeS8gvlKLHbMzmlJem5L/3+FAH6obrMF4PtDP1NZmiufX4aSsIsZNPoJTiF2SpuJ0EUSKVw20a8mSLjtvrlRwWIqfeD91SKd0d7iUVntLOVBz+luCF/YXBcn4SZdMnSHbi9OdXD/191HG9Weg7JUy6WlfDQnhMLFJr+lV8I3L9xFzc3cuaGxPU+q1v3xpm5l3tKwVkCLrSf5MfNMllP56ubDlSFqYZZw2O1Zl56gn1hZUQ6c4hrpy8VvNLbceiH4XeW6i0d68S334tPIHneQxG2T12D//lZC2iMTjrawvG3koxzqYwTMmMLLJxM/mFbsAFENjbWHDaCpbhIxhQZE+XgdC1YCmJBiHj7t7SA18a1YbsamJVibmqmp0596Ad3n5ClUuuHLUCy8JOtjHrzAZezVVNqHGIpxYZkz8vZ8FCcs0JAm+Hi2exfFGcs1tbuFxQ/+ZUcaixsizNbj6A32c3JtIFwsAulmM5al5v82GOapy1MoT6DAGioyVix2X8fce/Wg59gGpCb0TPEgVBO/2KnM2lQQy5CUIeV1i+cGtrwHHi/sH0WwQYC1ttwCcQ1GMKz7Jio8ILO6XdvMWSxEUIDjilJcp4koy2YAIKc230iiEKjXbMXw69pKrQ1ykKJTGCg8pEY9yb/7kN4bWS2hH2H1bCfJjr1aej9wkdvGWHljbsTEwlU1az2zYCD//17t7GF/SY78p/yx4G2lpDhvP8ah5QIEHDDiEX0NCVgazKIqk9GW/hL4QNNQBEig2mxjZhuGfgRfjZOxtApE3Y8oTgUCv3zsBED8tQ3B904H7zcg8aPmQYiOUkIdBvaaSSM59SX7WTS6/1hd2aOQw4XNDQFYTfB4eTXBzyoW93ANfG3n6Q/M1B3swgLG54JMHPo055bIhNkZbeclrqtMMPp/zE42Oq6CVCrNDSMAgEvHDyLbsjKoyZGXk+TedrCIaPIJKF3+9jCX9gmDmXObSUdE1Vz6spuUZ5QEAT8g0NYJHIm0MShDOtNZMibNWOQHiM/Ir8ev8L0izjYSk0lHSiCz23FxrSucK8xOENcGGOyps8EcOjZLwzJTd1WGps08ucpXkjBW2QmAFAHIzhns1AjujYOWQQfnDSx+4RnAtCn+XEDbmqLuk4u3XUiFd7XzsJH5GRbNO9MQDSIJ93vT9eq7QjmJj/2Z2PxT9+X++W9kGfv0wLo9sXlyIQxLHTF2BU8JCwi7BO3vbpBVH3iRGBIuJA4TmTjpLZ3wAf0/5pkdBZDA9ADYwiThaUgCWfXTlqLU45OgFMuYMznfxjsOOWpB5zl/xSc4ox5bywstX1h2rnPy/mcw99kJKMtmCCcoV03QGHtDXlI5a3K4W/nm1+WnN53ussPug5+Y8jtG8ETV5Lg96+qrKKwbJZOuZHgKlxrhOVhp3/pfHxH+n5MdSFPPsawM/Q3WYsTNwuh79g4Um2wasLaydy8cXfBPQaZ2H5/3PjpNMno9+eMqhF+f740Xe9hQy2UKPJmGScs4avomDcszZ2WfgEnNHFMngdzvmVu5HE151Ynpg6eUnCWgGWhvb8n4MzAmWWyJuHENszfCWNf7Gk/0sD8BhPfcD7JejCwGnYyrvYxUzEr2GSS5z22ivjCBZorJ3b0S0YaOjlPkHFC5mkLNoDIOrDmbBtQOJqcWVE8oO7JmeMJ5bWR2QKaxlRj18z1pgs79eFPlZ3OCOKqTekS9OYDLg/aQ61HBsvg2X/LZ9+nVrmKY8MzU3YbLvbMpDbOWKytsQXI2LsBX5UKO77Zku1SWC6KCAe7UIqJSNuIHPHMu2PA0xaeDc/QUJMhW2Qe2fJ5OzBjPtdUtvMdUEso0Q5Q+KJuU7BECRI1vOE5hNs/dIuY8Ao2krgGQ3iWHbPi4nU0wpHPdqPUvM1FXpicJ8loCyZw1GLXB4cJA69RPtTo330Ir43MltA0rAYXvRyvnPo09H5B6ZL1lhFWnpmwILRM83gGtwNTrn/vjjSWmdLYHQ1r+6Or90IhiEdAa5/7jzHp37HFYGsyiKoPK5NgC38pfKAJWPnIYJTQiOmWgXZBMqM6ziFnvDP07o3bjCHMzfTuhg7IBa/0vnb6EmOIXT2mSdAt8Z/6sp3w/sUqmU5HQ1OQsPiEvz8w9fGfCTBzRy3hXtZSt5XbV29yQ5s574+CBZP9X8lQq6wq6onGsLJfEWKu1y6uEQ+NQW/+JvO0hUNGkQkVG9m7fWzhKSz+b+hQlnxbAZE1D7coT1gNZGiH8EygiUNZuM6c9qMlm5fQE6AS4kqx60A9xN1WbJgStXJal40zxIXxMVmCaVhz1sG/XxhYelxTt5WGYQqDFe59uO/jFC+k4C0yEwB2HSDCiB93Gf5MNofNU7W/2KBcDe0+jjYiZwLg6skLX3WcYLY2Qj6HI79qU4uPyMm2aGL3EU3hid7nB9Cdam/1s3H2JlxoXqwGpSWl3Z5Jf3A1MthO5MhC6b0N+8Rtr24QVZ84327khRdPXpyeM6P7j3qYijEYLy1d3ohxMnScucx8+Nv5lbfq1ZbJIj37IOHszNxZOBUXTLkguQhAEYzg3Kkmr+4lelsQf5ORjLaIS+DYaO4nc3EY2erslKzq1OypzuOBBL8/Dncu3pn1nY/xF/875QK05K3ztw383Wcd63+8wQiLTJCVObTVBewM/U3W4uCmglsLbjDBcR2YDWBOkDCxsO8rfKcAd3ruoVF1597OGetG/Lir43rgK2OINPv8HF6xC4eR8xKCOytyNtMdAyc0OBUXIm+WccIaUDGIzBzGv9rXeYMveVbnqCWu5oyn58VfirhZgj3RMST47wxUhR2m/fvnzpqZEwsnmQlO24A4BxZsnfrWINg9LhkzTK6YTfK8hz6s9Nla7+r8rELMxjiRpboiDZ2cJ4hTtcHTFjR0ZB2ofNQWM0h6LROSOVVlZGR64DRRvkJIl6hTH/px4kI4f8QgPkFvPiAT0x7Q5dHxzUMgapX9heu3SBPYycxhRluQ5N4N6HlhgnCwS4krNwzFNJ5WjqvO0tTTFg0SFjTUZMgWmaOHop8GUXWw2kbtD7qeBS9nnRny22dvm7TKbPZIGtTw+IG+cS/1SkjGDD3FTDYcR06KeWzN3sJf9dk8dmn6reQth9izIi/0aQwZbRGZgDkbtbMOiEE8Exio/JG1v/Hy7z6E10ZmSzh0mKtwu2e3derToPsFYGWS9ZYRLHqx9GUmyLDglbyvx69A9bjah1ZNuf69O85YjDfu1wfUfoB6Rd/Z3DEcf8P+ceJoMkxGW/hL4QNNEFkfWwkNmm5hBoiRFkZx9k9HMGMU9bAk9CFE5IN4FM3D5h2Q+aPA0Zne9/ef+toqck5RQArCboJDIz5hPO4OfHHYfyYQ2YqYm13tFrytYCjg+90ImOGv7FfETR2D096wbqwq/YzI0DziNTX0N5mnLRx8RAaRdiE+tvAUFv83cShjQXY9I2tOnURqNRnq3NQHIXIm0KChDP+vGzzffOHfBLvOzDBS/2GoBKcUg/9txYYaQ62c1mXDvkwrR+JjsgTTUPmcCfj3C0Nk6QZWw1xl//iPF1LwFpkJgC21PwZFHaiflZ8UzfrrMM692cIpVxO7D2B8xEwAt4/rt7ZPWYNMkACloA71fmlRh4/IybZoUPcRzcuT7vcHOxfv7NAui1v9cJcb4xsldL/ark872IkjC+XlYXc248OuZIPtirUJX7h7+R7H22uC8dLSaY4YJ0PH/xtXWyaLc8onnKUUccGUC5KLABTBCH7+6Pmc9t3NZxhYc2bI/+2C7IBTSJDOsY6wSh3iElA6o1J6zD39/rbsJNnvf6v81uA3hvANfafcuxV3R707CjHhYIRFJsjKHDp1sDPk/3HBXNIawE0FNwncYILjOvjE3nPGkH418vf97bsOAu5J9ba4werxDlaP6W0KnWD/vtghcj4KzAQrLkTeLOOEtblXcRe37cl/GMB76vBnsjePW2aqxztx5P6wzitscTVnPFe8/lLEzRJYH+QZHNfC9W3yjZ+qYP6YqfCFMue3zyyUNQkHu21Uxn/Y2U4WJ0UcyfMeahJpOLvFJAx24cqNBUVemJwnyFjJuASOLUz1ePiAutf3+NMEvggWkSy02ieMjEwPTIsKqlH7e14+fnPqw9rGhXD+TJ+gNx+QiWkPfHEY83K+AgZlQqXsLwnPh6h80608bWFI7t1UUVywS8nYSAz8Na55U4yvHS3rNcMeGD1t0VBhGe9vMmSLzB2/f3LdEIwteDmrl6qpwbIEDS98F/AUFhxZudt5iGiCnaxBYiYbzhYB3RMrxivHyjCW4n/2LCOsjU9jyFjJyATM2RTKOiAG8Uxg4N2Hzcy/+xBKHZktYb8wV3HjkdX956A32fVh5kgZGcL5M32y3jJi6wS3ANwIrp26hLswV/vQqsnfv3fHGYvxcT59cPf67QWdJiAN934JYi0cTYbxtEVcaKgyaYLI+thKoJLtgpxgdIWxFNM556wJZoyiFCiChwbkY8f7C+vTljinxYUJFgT+U19bRc4pW0CjPSM+CZpu3XMI/5kAM3esFuRmVZvViwumoDjV8XKnzoDxpjJxoPcdXLwdPZEvwOJGgLseP77iD+tmqrpr5nrkQz8joFpQQ3+TedrCwVPkSLsQ5hAXKKCnsPifBcUF25SRNWdBdj0jax7oJH4sisPWecJMwF+Ksn2nkIOTgCGjFHFQCXYpNrbsybcVG16FOtBMkdCOxsphfExmV48JDPZMoEGreBJZusFRGlaOM/88lD9R4oUUnMlwGBnC9XGybTTULf5CdkxRMNnekL+QqmDbYPX4f1ywqxGnDcYn3EfQ7HdMT7/7iNl+ZDIfkZNt4S+FaHbk9//mSunVvBfyuIPKheMXevwk12x+QugwTXAKGyILpfc27M6OcyUbbFesjXPh3Yq7Q98aipSFH4y/fPqyeYXccSLTaR7O0PH/8k35vi/3M9scka+/3IpkcU55ZhJ5ltXwMURCJoQixGmMapnYYWJNdY2/yUhGW8QlcGxEYe3PRRDu82P22DlYfLBDu6xR7466Z80jzQb6xhbhQounF2d/v8vJ3SedcvnsCom3zt/GrwQDKgGRyCd86NjdztDfZC0O75S4wQTHdXBiEfn+i+Pgpm8Rd7jF6e/89EVumOjPenf42e3H7EkeOLhwW3777K86TqDfDQH/JPwUDvDeZqY7NvY8w5M4YSPBnGbTmPTLnghnth1hJHNw3HYE03T7VFzNmQN9vsBTirhZQuTlSIOU4V9Z2rAa+MvDyoo74S+bMR+fCQR/yYEaHliwFVNARvJye5LHGOMDzQilM5V0oAsVaUp3Hi94JQ+l8IEHdMtTkRcm5wkyTsg8bcEGgEgeGvgOPtR1bM1eHDKZeR/8AVFfyAA0XDhbwm5rV+Ny7ca1m0YvcerDfBL04JBRbz4gE7s92LBtcFRJaCeYQ6Ma/KkEDqNtUac6o4Qwkb2buUWONg4ZG4kNlI/KcGMfNE60TOfnTZ628Gx4hoaajGp38mcmCcGoK3z5oWU7Iaz5SQfxFJbPS5ByflahvS8TL0eteAgYY0bUZJINxyeIOHvlWBmaInJGM+OviNAU8Teybfg0hoy2iEzgNEj2bsQgngkMbGNMSUP4dB/C9JHZEg4dD2Sv/UwLBrFLh8/Z9WE+yXqw8dFbRjBsYvBEPuf3noRcvP9ytX+x5CxOmfwdZSYQaQsqP3JGZMN7UFwyV5MhMtrCXwofEnJzlMDDhBGVcNNnDKpf131QGlB19uV8V3GOtTd3mrrtzlEWI/yFZcrktsSmgvztSU4Y1jbSgs7U11YRDWcqQENTkLD4hDvym37KS3xmAkzpqIWl2C0HFUMypxmHiVNdnMVtqX2ounNv79xNKAIW3zdvcxDrB+tm2oMDBYRa/E3maQsHT5Ej7UJ8bOEpLP5nysiCHCJrHr48ukXdSr/zjpRIH0T54fQFEDkT8JQCXRUdFtWb/qfBF61to8J1Zoa4TeM+zpgEmDjc7In/bcUGNUF9UKtwrzHQjnFWBj4mY0GICZvGngkwmU+/MCQ39bDSMK2lWXkhBQ83gGSSbeHPntqfTKHy6Cb8Vgd3pEQ8T7F6jjITiNRGglZtOHXE5ZFTUx+RfWzhI4VoduT3x3iYmtN3Drf62Th7U4d2WdxKxcAfAZgvoCYQWSi9t2F3Nj3s4Z30DY5v1+C4g5lPlx90Pb3vwaN+CLVs9DJcbhy7dJqHM3T8v/zkrPFQk9N7T+e0745kcU55ZhJ5FlqF6pxHKZEkZEK4a78R3MHWs7/JSEZbODo3ODaisKjk1XMP3jsGhzYd7vjdTmZ3fj5ecoozP9owtggXymdUaK7Tuk6zy+XvDJyNg66dv9b7+TzkgHxw6O/39zeZoRV+1xe3K5zCjKfey/ip1JrP5qVvZnVfO+SMObzNnANvlsnO6DCR81HCG7mphg8JwkZTt+LaXvtdOMBlLW63zjckb5y/Ovn1AZgKGI9eZM35foTx+QJPKeJmCfZky8D5On/pGUSFoCrsKYWz7wrg3NcWKg7+ihm6sqW4cf7a+Ff7otqoPGPMwntD/Q9OxsFsuX9uGOoEUysk4PyV+U/548A9czbhQug2SGqRPJcCfFu28Jd53FY1jKct2ACcxoYaUqipbw66fTXd07HOxFoi3KK4Hz1f1Q+iauFbgY7nzsBeZleDqyajE1MfzFlh2YjdhGNItsUDUqnds4tHPZcz6ff97dfGATeLsNuDDZQJlVKrpp0432dD/PwOhYinDx1Qe/WMZX1iy+kXLqHeTbdvWOdh4tpAJHz0AoluXihH/uYnDgZPW3g2PIOvyergUjByJOcps4BBiThEJA+JbUHGQBxnswLgKSy7oVtKKrV57DJkaHcrZlj4qz7pxwOZSO7d7D44e2DhVrQrjp8YRpD/vi+3QDQYMVxtn8aQ0RY0ojMuMWdzE2H1wj3o3O4TaGC4rewu2oBD1NCz+xC+FZhwv+BQZt/LeB/8unCFXR+WC11lvF+QjCOtAXOG2e/mo1OvH7Yg/NNAqA6V3//V15hd0C/GJsHqGTeQf++OtMXZHccgstnOOA76/cO9g4Q16ZDRFv5SGNLv277Y0/l4D3EamI2jBM+JCm9PzhiCWzPMh3gzRkWM29bve0zvbvYBGR0E3QSloKwgKgrPqa+tImf0o6EpCLstDp0h+uDCbaiMUb7/TCCyFbEUe3BoJbcVwi04cG1wbJHQu/l8yLQHB2geeVL/niZLtkWcrmxDJxBpF+JjC39hmziUhXs9q2d7gaHGlZ8UoT52izJgAjPvv8bFDchOXwCQOjwT8JSCQyKudd6bPrx8l6NtZog6O5+TjSTj3Qeq87mt2MS1LpvkCTzwMRkLCpvGmQkAz35hSO7d4bGCrzEhn6W503AhBX94MwE0vEXdpuS3z3a+FUHYAdcN+QrNjBpmk0Db2zR6CeoDCyJZE7uP50wApdPvH/6qBwhrMkyyLfylEM2O/P5pju840elfOhflFU3sMNHsF2+zbcF2vk+9qWgzvzpbU1Nz+cyVFeNWfjXoK6YBkYXa/uggqhZ62OmudV6uJ7Yr1sZxB/NLvKjekvwlVZVVqNj5I+cLPxiPGFxuHLsoHXUIZ+j4f/kUBDH574yAHqrvV29fuD3nme5Z3/kYGcY55ZlJ5FnuToOz494fd+7QOWSISCQrKS6Z3GlKackD30pCJoSea9sPbuPo2dNkJKMtHJ0bHBuZ314Mev3z0oOlKBHy7l62O/fZXFRmzaS1TAYzjXlvLIuDflDhlYWrOn8vO+vpjxFpbBEuFNaZ138ezE2VmnJXjF2Bw74v9zt3+BwOUY3Nc7bAaohEDsgHkdSeOXTsbgvibzJSWVn59ttvf6uWadOmBbGPBM4mI+eaXNtjDrHq0y94h7tz/Vbx8AWY7eFmc7EkrQTA5Qpijq3bh3tY3LyWdymsuLCARDIzV0smYSbN3QZQvRV9Z5efvczXQO6U3zq8YtfC7ImRt+QEYcHu2RswGcJNlCIgw7IDpzHjNNMFgMnTwuxJyGTCb/qd3FiCQyTDrGX6nwYjcn6HQiM+az71zUFYtqXrlkqhwvOz0m4XWxxPKeJmCZyXhGeZnO058xUbqsJOgJrTK2RPzbkcQtF7525CrRCDGqKemPtidsU0gIs66OpSbffBhGzfvM1jX0z/MteZm/KXAWhCWFRcP3c13SFrai4dOYeJY9hk9DWgafGDEEFsHdTJxN9+WvBK+h1/RuIS5E9BwmoBkTM5GzZUpFnSfWpkK/K0BRuAaWywOOaLM/88FJG23wGqhsIRabcopMS0EpHQkrM84NqD/Sjc17gesKsBTm0+hAXMVx3TG1CY+vARFGIwQb90uJTqxeWYqWNKjSbNZIZkWxj4FBApEeyGBFg3pz0YoEyo1GiV7QRimvdGb5ZdW5wzFZHQjHl2aIy1YcQiaKPqzr1NY5aidbECthJ8ejda44aRi3AhbIFFJjsphEUXxrXIgalAXBuIhAsADJJYjMEQWIEEJ+rwtIVnwzN4mszA9KYr2bAxs9dAgagn1mlOI3EsSND2YET7aaKnsDAx1pMw98ZRi1EiRwmMn4jBtaYZAzQP/jJg0u/7w2q0L4egPXM2MY0huXcHTfT5HlPfGoRkSIxI3uBm/mVYwSu97XINPo0hoy1oRGdcYs7mfhFUr64HQSc3L5RvHruUG6nPeX+0WQl7dh9CgyKHovdG2D+tMND6phoAl2CMnfyHAdCSqQ/wvF+QjCOtgXcrBLshGai62X/Lh5lgLMQw50mv90cNH1Tbu3czw+W9Z2I0w1VIg5EZV0G07VOCZ4RoqGiuaLSVNwOdIxnac9F76eE3/GyPhDXpkNEW/lIQJEBxSB9ZK6eB2TgN0nOigirhKrRzaAxVhTiIMZtAmjEK8fQDwvQYEDBub52wEs0YozEiH/Sy5h6QIT5/14iy0HFYbTbRdYPnmww9p762ipzRj4amIMYE2yavpggQ/8CCragw5IVciAH+M4HIVsRS7M7YUrcVVB7Xntt9Iqhe7dSXase1tUnqkdC7bTWG4YXUv6fJqCVchSkrByhjC4yW5nUcB9vQCUTahfjYwl9Y/34RWfNwr+c9Dq0Rd0y0OtQWF0KZuNZuUQZWFQGXQIQgtg6nL5DwTMBTCr7GhGQYK+5V3MVVWDjUPpNIT/McbfNtd7t3I8PSXcfRu+1kIOPdh6rLfFuxQAxbV7jXGJIn8MDHZCzImAYmi5sJePYLQ3Lvjhgrah8hYKrG5m0Ef0gzAfRQNkv8NVtgGdgsYR3U3ww1mNBCA/VeOWrWmQAuX543C8XBBJAxHZVKIT2VHB7TSIQmQyTbwl8K0ey0cb9/OER6jemu7fGT3C4/6Dqn7xz7pWlSfb96Vs/ZTlYMxnMKWKin3x+smbSW3nkTjFsW2K5YG8cdXFNdU5RXZGeCgGw/+eWnWU9/bKqH0lEHnHIydPy/oOxoWe6zuSYrBBzuW70fJdpSsBp2MjvYpZifCzjBFhawJhn9/nEJWB/zRWJPkxmSbeHo3BC20Zn9ZxztISBn2IgOdMJfANhpBrw2cPey3SjFVC+yUH7VgJeYcksPloY1nPNM954/7WWkoPbMoWN3RxBPk5HW6ffHfcW8OWsHzC3MWgXgTrM4J/3arBOQ7MsO6f2Rg3SpFOZkvGfbARMgTK3sTYF4R3SSmWDPqOI2gLbvppyDOgkYHswDaqEqwsH5/MCN81envjnISYMw452htj/FzIydMOl3n3ISafCRIm6WwHlJeJaJuTgml3HeB0BhncklX2SwZyoQPG67XrvNYPqI2YmTYOyLPdNvPtZXMjJcN2R+uBlEToCgTy567WDKNZZFbmbBxgUMUxq1xFkWIbLc2mZfr4a2FJ62iGsAUMuxdftMawdxLWref40Lmw/Tu7n/GOOkdNYDiLGbhHGyINhWi9s11TEZSbaFga//8KzzThPrFqlwQGviWnYitBO+bmbKYhj3i95lB+q9SBs2FpS5rPcM/GMrwbN3Q+FYIThpGOzOwjbgJGBw+hShHxZ9HwqPfD3HxxaeDc/gaTLCRhK5jAd8SY1vvXEdHq4GLejEQ7d8UGo/BPIRFonRAJwEaR2+3h+VdKS4aH1G0g6Rtkju3VQmAn/ajxhohq5YBFMuhWVkOITLzWgLlutcSIuHe7cTIA6UfPf6gx/s+3cfgvEzfA9yhjJTDcJbDOJt7aFcn/uFIdkWBnpzECJfhIfSeNauIZ98O5Gevdu0AScs6THNbFBO0zgJGBwlJ6RECHfbZFsATykIEvOpGEJ4VwengdmEG6TXdCuqnWMqyIfBthT0A9rJMG4fXrEb9bGbSoMG5PCgFCbubovwIEO/qa+tImf0Y5ehIAndFg3bvvt4zgQi+yNLgRLs7tMitxVWLxxgR1sKQ0LvZlbhVk0Qj7PB67R+JvO3BTOPDLauqD0ngQm29jLaogHCNnAoc/Jkne32E3m3nfvBGDQ8u6kY7Al/uMJOXyCRMwFPKcK3CQQMKViqOL0AGS7MTr9k7QQnGUm++1DhCPa1kbcVKjkyhMvFYcIEHviYDH/xv50DA8RxZgKe/cKQ3LtZDceymNCaxmAa/EOaCXAizQScjtqwes61fNDiRDao+4SDPROIswUC1A65zFqP/cJJY0JEP8o00npKIZod+f0DiqcX46yzv41NTU3NgXUHhv9HPt21+Dvwd5+tmbT2Vu3DQMJC/f3+yHPX0l0DXhvY4anA42z7VR1XrIEZ2oJUVVYtHbmUjlpUDJU8suXI6b2nkcw4dv39/uDSqUv574xArZDbpI6Ty8vK6TVunN8f4PIvB87v+Vwvnu3+ox6TO005sfMENBCk8PD7Xzl7pedPe8Ul4OY5tlp8TGZItkVY5yTSRlDXrJ6zuv1bDk4ht6H/PgzVsCUlx7YdSxfXLqvz97Ln9Z93t+IuSzG2iCy0proGqmMN7XJLD5aiIFYeel7w+QKIiayMFLSgOXTsHhbEx2SGVrjPT5pU6uz2Y7P/ls8VGuYKy3rNuHryQnC2jpMbD45+Pv2+zPhX+xW80tu+f2NCgPkuk106cm78q31xLyz8VZ/ad8cezEVwrXkD2ty8I4M9kwaoDKo05oVcnEK5yH9lv6L0wwaPe60zseA3P6e+NYjC4i8EP75+f/AM3wIpt05chXknSkSY/IcBu2cXO+9ucBKf3z6b2sBfpMdV6TdWQmSUgjpx5luA8xJHJwATAqz247x4gHZ3JgeYjvOnhfbUHOJDCaYN4C9UBEXduV5vEMBKYNa7w2nTglfy1g9bwJeGHCWnqW1U8z4Yi+bEDJ0HPzY3L5Sv6DOLmmEwbdVYFopNv45Ri3HS2eVS2MgQVimAyIeX78IK3DRROzdPW7ABmABhYZGDC7eZ+aINWgU0Br0hJVuU/aUEBzsxQ3g94DQJM112ejpEWDd4vslq3Eu9FnWbUrrrRLjNgwRbPCB+n5+7N27PeGdopMIBX/mx9exYASMJqhq+FgsMtEYuPDAKQTO13TNtcVsJiPTs3VA7lG/KjTQc2wDOhoPTp8it2o8Y46zzLMQmoy08G56Nl8lq4TO/uCeF/EEPi0DpqEN4OyDGh6vHattPE0FGYQEMsWnMUlqW9jr99WHcTZBbWArYd+OoxRyTkR45syUEpy2cdoVgtzoqE5nY737yxSsEY1wKy8hwiGwDybZguc6FVF3caj/yTmHw7D4B9W/0DKZF4R8cmmoQ3mIQb2sPoFyf+wVJtoUBC+DZ8fv8sLMj2Nozq32nqfj07vIzl1HQpNf7GxHCYwX+R3Nd2nN67ZQm3eSMpE6roxGRIDJEdNtEWxAfKQzNss8PyThRAdfPXZ2fVcjKIyXa/PXSK7SRI8WZ7UdrReiM+q/5bB70xvo0wmS8MDz4RBJkaN0L8P/++V/X057H1NdWEQcEUwF2GQpiui0bJHP7skNBej+fULeFEszNHZqJnAlE9keWEu4+qM8jvq2gtgcXb4eNICZOwWqwXVgKQ0LvPrhoG3JwGqGBw/KDon1WK6kU5EWjhbymOUXagi02Mti6ovacBCY42ku2RcOE9esXNKKTJ+vstB9ctXbQPJoMi7idM9Yjf1weblFpUqmvx69AynDmAGLafcHAcp2ZgI8U0M/euZsw2iABm9OhpTtvnL+GIsJjFxJjLTnzL8NMM6j3/pkFUibcfUwDsAWMvK1QyZEhXD1g9/FwMh+T4S/+N5cnzwS8+oVFQu9mNRzLYkLLHyoh2A0e6m32mQBmHegycfv8sHq41tan+TGBU22fhuczEwA3y65h8mluKMYcjpLZL5AgMoT7Ecg4gfeRQjQ7bdbvL4QQGeGrHwjndtd74IfFHu5AuBVx4wg+u8Z98dCynfbUBJMAvgbyZdTWyY8vkWuzRwnu/Zh/FL03ItKRJ4QQBAPv/A6FWNBGvgImhBCicRgnXaQPXYjHkTPbj458thvmDA+2SRRCiCcA+f2FEE8ufC1iUbcpzjPwb+o+m8lvedEPPuvd4WE3NF8mnfP+6Kq7becZdYv7/enLQx2crzsKIcQDUqmtE1cNr/2FePhlaiGEEI1Gfn/RlsAk4cLBs/yk2dx/jGmpBY4QQrQI8vsLIZ5cuPXz6Bd6HFiw1UwBb125uWnM0hE/7mreIT1RfGB43ZcG+Z0fUFlxZ+/cTfxpXuTP3B5fWtzvD26cvzr59QHQudlDSQghbLhtNwYKDBdBlBBCiOZAfn/RZuC6hmHqm4M0ZxBCPGnI7y+EeHKhc9nMBe0w/JnO64bM5zuklfGfoEFYmD2xjW1H0xr8/oAfExv9Qo/TXx8OooQQohazS5v5CosQQojmQn5/0WZAG+YO+wfiP9gghBBtGPn9hRBPNPdqv3Nrvn6DwC9WOR/L4idopv3p81G1H49CGPNC7rwPxkZ+XfNxp5X4/cGpLYeWdJ+qXf6FEA4YFhZmT3I+zSKEEKJZkN9fCCGEaBvI7y+EEEIIIYQQQgghhBBCtB3k9xdCCCGEEEIIIYQQQggh2g7y+wshhBBCCCGEEEIIIYQQbQf5/YUQQgghhBBCCCGEEEKItoP8/kIIIYQQQgghhBBCCCFE20F+fyGEEEIIIYQQQgghhBCi7SC/vxBCCCGEEEIIIYQQQgjRdpDfXwghhBBCCCGEEEIIIYRoO8jvL4QQQgghhBBCCCGEEEK0HeT3F0IIIYQQQgghhBBCCCHaDvL7CyGEEEIIIYQQQgghhBBtB/n9hRBCCCGEEEIIIYQQQoi2g/z+Xpw5cLbrD7t++O2PTFhVuCo4Z+GZ7EnjwoEzo1/oMexfO60eOBeHx9buw/8IBxdtY4InmVObD419sScC/gmiGg5V+sV/jrx3uzKIEi3EQ7JFzf3qDfkLhz+TPftv+RWXrgexwkK9QDxsluZORxvbOnFlcJwJNMXFOVPy22fjb2SzZIYmTHjtE/XuJ5NLR85N+n3/Uc/l7PliYxDVcDQGth4eni2aZdLoDwVBYMvE6If/Rz7XrXTncSYQQgghhBCtHPn9vZDfvylcOV427uVeWCrQXWJWEfiHCR4X7ldWbR67dOpbgy4cOBNENRnj98E/QVSI83tPzf1gzIq+s4PjEC272kfpM94Zun3KmuD4kfAwbNEsPCRbVFy6PuG1T9hUEjpOi9iildCyvUD4kHEoa+U01O9vnnnjb+RIJb//48jDuPvQnYqQMILdvlqxesCcGW8PiWskLTsGtkjvftJmAqBZJo3+nNpyKP9HXVAcJx5sqHEDmhBCCCGEaIW0Wb//qsJVtv/dhD4v9rlx6UaQqFFM6zYd+WR06Mclq7xdOeIvI3Eq+/tdTu4+GcTWsn/NfsTjwuC4rWBclnSXGFcIVxEGxwMy4sddsZY7vHxXqqYmSNHSUJC4BQ/lmvHO0Ls3bgdRFlj7YQUYduv4vLrFhVbCGs9zhRnW8KTX+28ctfjO9VtBikbBbON8Ycbcs/46rLLiThBbCy90moEnybbwpHEmS6YBq/1UCovzRd2mjHkhF5cMfyZ76puDtk9Zc6/ibpDAwvN9/2RbNC/UT6QJGqCE5uORFXr15IVlvWaMeyn9LHP4M50n/vaTpneiJ4SMQ1nzwiaR/6MuJzceDKJqYTUa8cpqQ/sXmmLy+/4GjkUNHW1sml3YloJKNuEJmQn4vO+fsZF4joFhDTfLTCC5d1NwJBj105xze+pNfVntxg0LybbwhJkU/jLv+tkrQVR9ULeGFtGg+xHuKSv7FRW8kodLeE/ZMGJRnJWbZdLoD1sdcoNEOKRcTVS4EEIIIYR4lMjv32Cay++PMKfvnFQqFZx4Avz+3NiHq4jRz/co23+aCYizFjVhRd/Z1VXVQaIWJXmFWXGxfPyr/eLW5Leu3Jz0u0+nvvnZnWsVQZQ3GZdwjVvtmzDquZzDK3Z9YzXFBsFs43xhZtEYdkjxQi4mG0qyLTx5GCbztAWa9Loh87HCR2InJBg6I8m2aF7ox4k0gacSmpdHUGiqpmbrxFXDn8mmpezQFKs9OTSjN8qH7VPX0Dqr+88x41tlxZ1Zfx3G+IYOPg+vf3GcjBuLfGh2YVsKKjkcNBPI2Eg8x8A4DTdxJpDcu3m/YEF2EwWsduOGhWRbeHLv1t3Zfx8Rl0nV3Xtz3h897uVeV46XBVEe+N6PUqldM9eP+HFXasYOTbmXNeNIy1ZnHhxSLrRwtHMmEEIIIYQQrZw27vfP6J1vBM3l9+/7cr9eP+t9+fTl4ETb9fvfvXF7xjtDsVSg34Hb/oSXWFyLMg24c/3WuiFfDX+mc9hf3FJkWO3Xno1bk/Ns4xZyGZdwnitMR8NIfHbHsZl/TpsGy85G7xXLbON8YVw0jvppTsErvRdmT7IdN059GkSzrPYfhsk8bYEmjYYNtX89fsWd8tq3LFOpiovXt05cteazebVJGkOyLZoXCAgxI03gqYTm5REUun3KGoxICF91nHD15MX0C8i1Vts1qxiDVZBIxNOM3igfUNzo53tMfWvQlD8OvHXlJiPP7Tk55ue5HPcaOvg8vP7FcTJuLPKh2YVtKZz7gmYChoyNxHMMdDSMxM0yE0ju3SgFFUOCSb/7tPBXfcrPPJj6stqNGxaSbeEJ6xaXCc8mqD0ST1tcPnp+7Es90bxXffoFbiV8HIIpwf75X0Mhydcm0Iwj7fWzVwp/mWeUw21/GqoNIYQQQgjRgjzRfn/jgt+/Zn8QVUuy/725/P7LRi/Pad99yYilwYmocqvvVyNyzHtju/1bDk51eCprwGsDdy3dVWP94B3pu/6w68ndJxcOWdjxu516P593Zv+Z8gvlw/40vEO7rIJ/FNy1tg3BhbgcmSArnO3zUt+vv9yKUoLT9SkpKWnfvv3Pfvaz0tLSIKpRmPUe15lx6zRnLQruV1bN+2AsIrcULg+iaknV1Bxevmvqm4OGP5ON9dLE336CNVL4TcCbZdc2jFg06ff9+X7umBdyV/SZdfNC9DtK3LuDO65g6fvlRwXn957iGozrt4TAOt+5VjH1zc/iXgqj1GYRGM7TFhwYpcUFez3J3JZ0n3r/btW2SauwjMQh/m6fsiajn72y4s6c90cjHqqGwoNYaO9COdRlFDL7b/knNhykQgDFwam4YBacxlVRPHyB8wP/yPrY5Y56Lmdh9sTys66DICE4uSXTIJOlSaXObj8GVUAhKKvglbwtBcur7twLztbCGkI0KHPnjPXjX+2Lw9HP99g0Zqmt3uV5sxAPkxmVxkEtmYAqOettf1sEeEjhA5topK+ESqinOqSvuLt+2AJuZYCii94bWXag3i9+0qRSV46VrexXBL2ha7N6uCpy7yOk/LJDARoJM2Szdwr1EZaCULEoaM1n85AnSscIc2b70SDRN99cL70y/tV+yGTzuGUZtxyh9TE0IR+OUeiYdrn0yxxbs3f37A1oHghHV+9FZ1zUbQrST/+PwTfOX2VKmA9ny/afRkdAd6C8GNZOFB8INx5bJ/iL/x0lsz8iT4wMu2YG7RMpIXVYyT4jbbp6tW3g6smLGDahZ6ru9NeHWT2qF6XEBddk9QcBFD3r3eHH1+/PqPMwaVf4Cz02j10KAY3LeEP+wll/HYbhCJkfWbWHkSCjyQA7I5o3axhni7DIYRkdzDjp9G5DRls0SFiffsFejGwRjxzMbQVqsYeyuJobXQXH3oQvRHGRMwEfKQBiDi7cBj3QXkiMS3BhuPsASLFu8HwOU07bo0ISAuvcoNsKtWdnAoUzpYFjRVzA5ciEKVnD5p0JJPcL/95tUmL8RJU2jV7CHACrjVoFx7U8ypkAZMTYlf+jLqe2RDzzYM2dFp5cPWCEogLjZgL8mc7sv4+4dyviHmcTFtmR0d8WAX7dhy3WNLOMI5UQQgghhGhtyO/fYn7/XUt3jXt/XP9fD7hZ92peuFxK4YQO7bK+HDjfbBBEv/8Xfecgngkmd5pS8I9Ck37j7E1MWX2/uiivyCQzYVbP2ZGu/9zc3G/Vgn+CqIdJ5FqUkasHzg2OazdIWflJEdafXMmY4GwCwLWKkwah8Jd57mo85nfWZo0UXm45gXXmostehNtcPFQ65ue5ZmXbvEs45vZlh4J5/zXOToPw9fgVxrsRqWHAd89tP8Xx9fsdZwQCdL5uyHwqOU69JhhJzSrx9JbDKML+gX+4PmUHTo/7RW87H4SxL/Us23eKCcJ6c0JYugQaZDJUu/Z1b3ePlznvj660vluQYAu025q6jka//1cdx9uNNhJqyYTwetvfFmn8pPAhQXtUgt1Eb5y/OvXNQXaJCOh0R1buZgLC1uIkQ5j+H4NvXw3GyTQxUiDYhXoKS0Fg68Mrdk1+fYCdEm3vYslZJsMogRj7Zeo4Ki6W8xdOTkCk2RuBvrz0M4afpn2RCF/831FsFQxm0GMDMI5XE6C9Y2v2Mk2amHEMMYjHWaaihqf96fO5H4xxUjo/x/EcaVE9pEHNHcNBrrM7jiEB1WufckI9k2EQ2HfKkRQhrpMmsyF/IS48tfkQNL+s1wwogT5ZKJ9N1PhYfUwGaAtk6wxTji3CIjsyhqFdwr2b+NjCX1jPfsGr5rw/KqyZDSMXOS0qXHPqCpkEx95EXshIeybgKQXgtU7AhXvnBlMjQ+SNz4hGhSQE1pnWRz6RLda5rVB7diYPzFQHYuwETrALYg2bcSaQsV/4926T8vDyXV9+VGAPpKy20Ql4xDMBEKcTwK2Z7C6csXqANcw4E6DfHze44Gd/8YRFdmrrb4s0zTcTEEIIIYQQrRz5/VvM749Sdi7emfWdj/GXp8Llrp9ePKvn7NKS0vuV93F4t+Lu4uGLO7TL6vGT3AvHLzAN0iMG+SwcsvDcoXM57bvj/27P5BzfcYJKMBluW7AdKfN+3ufQpsM1NTXV96tLNpTgEJE4xTQ2Le73v3P9Fn97bn/p7uDCbcOf6TzhN/1ObT6UghRV1Sc3luAQkTgVJKp1hs7vUIiYtLswlUJKLNWweENu9XwHtR9JG1H7juqKvrNvll1DzP3KqrM7jq0bPP/BGqkWOljj1vPcBNacpc/FvDrH5b29siVmqRa54CRc9oevNZgFIaRY9ekX0BvUsqVwOQ5RB9SEyeJWtlzWmlPXz13FIbPiyhzrwK/Hr4CWEMKbADDbsLeCUHDoDbpdnDNl/Kv9rpcGn85z6kNzGxEQg9LxP2IQzxhDsi08aZDJ0CRG/TQHMWhUUC9a1MVDpdP/NBgi2F6wsC2Qct+8zVAdLjc/dzi2Zi9bHfJ3RIvDaNLxr9kk2wJ4SuEDm67Rng2VYLwMKGhh9iTEzM8qpPVNi3I2fLhYcvarjuPTb77fTLsecOHx9fvpBbYHAfbZUc/l7Jq5nk4KFLRt8mq7UOApLAWBLfLbZyPPrRPSLzjfvX57zvujkJLDRc396gWdJ6YvzF/Iq+JAQct6zUBKFITiUChiOEYhMr2JU2257NT5P+qCbNHjpvxxIEqHUCVLtkN8VMYIQpsiGEHuVdxd0n0qYmZZ38o+v/cUEiAHKJaRpvuM+0Xvy8fOMxlbETNc0GkChkfTPsf8PBcVZjKAsnBtxpHWrt7R1XuQ8uaF8qL3RiBmed6sIFEdGYcy6BmjBIqAgSgFyr10uHR1/zl23TxBQagVRN40esnE335ScfH6yY0HC17Ju3z0PJsoe4qnyZghYhCSbWHj9IU4knu3jy08hQWNGMqgBHQKDIwbRy3GIW4QvDWAuJpTV8gkOPYmfCFvDYi0BwH/oQyV3zBi0bXTl5AMh6g5TWbfHAH6CJ25X35UcOVYGXJAerY9Iyx5GDMBQMETRu84VRtsk/HuAxEaPRPAtZ79giT3bg6zzLxk6Q4Md/jLU6y2uZDmNiIgxgxlD2kmAPjMlYLDUvaTCRZhurBn9SgUgkkJBYZnArjl8QaHNmOmRsnYmgyiQmQcaZtxJiCEEEIIIVo5T9x3fW2veov7/e9W3B361lAEbsWTXC6pvFU5/O38Du2yDhYHP+RnQZ/88tPysvIbl270ebEPDvnFYDtDlpX9/S7Hd6S/zWU4+vXRTv/Sedz74/howaa59vnxpN5aNJUqP3N5flYhYrD6Mm9cVtZ+pRDLFSxaGEPObD0y8rluWKpxaR3HkVV7kCHWV1iZMwbpuYGA/TZcHBlXmBABa7z0ng/ffFO68ziqhBXd5aNpjxtX7M4jB9AsSziuMFE0pMD6jZEVF69P/G292tbTsIWpw/apa3C4afQS/O+8/AvlYDWI+MU5U8yraoTZxnkrbFcF1rqwnfmBv1OfkqU7IEL4peOvOo4P/wC/uVb7niYz7kjjZSPXTl8qeKW37VIxttg6cdWDFpVKre4/p56WrLftRvy466Kuk0t3nTC2i8TWZBAVItkW/lL4YJpNXDCOEtrdddmkUuuHpbcfsX15kWwpXI5kxolMpwyk2F20gTGEmjeF+gtrBBn1XI69F8qxNWn/O4cLk6beZilRUFjneQagn8U892KnZgM2mdM5SEMbQWhT52XSW1duYmA07Z/CIpnjskH34RMX0+mYOWLsV8VNBUxn9B9pI6tH1RkRDBmHMtYERaCgIKoJoCC+vAyjcCcldENWnq2FPcXTZMDHFg5Os4yDdons3Z628BS2iUNZ+LYSV3PqyrQof+pdGDMTaOJQhnxg1noPuuqG6GW9Zph+EUfGuw9EQN0aNBMAFDxu9AYJjYQYkzXLTMC/X5Dk3m0PMmzS5lEZq20ubJGZACtPwbmjPcriflkswnQ0z+oZW2SYCdTOS3HrqU2cPef/NxoX2jmHsTUZRIVItkXzzgSEEEIIIUQrR37/lvT747B4enHW0x+XFJfgfy+/f6jOLGjh0EX4n37/nPbdz9euMO0MS0tKuz2TM/zt/Mpb9bwPvAQB/wRRLQTXok6Y9Pv+D1bmdb+RD++FyoVZwnqYcCVmu2Cu1H5kOLyCjSTjCtNeTmPdNeLHXbCQo1uTH0OzF3uk6Us4QLkctTDnBq32URDfVTQrXpuy/adHP98jvCZktmHRiO2qwLJ53gdjzWt0Tn34wl3Yr0rxnfwz2sITT5OhwpN+9ynaiXE8kbCSaQu7jZGDi7Yh3jHi1ZMXvuo4wfzWHhIdXr4rzvtvazKICpFsC38pfDDNJi4YJXArA3dv7pC7Jw42AJOMPrvCX+ZdP1uvzzqa9xfWCLJ//teMIVQ4M2R7QxrTXOOgsKut/awI+iZ6qHEMUagFnSfW3K9mBUyns8vFYaRNcRV/f8D6UFjjW7Thw07jtGLmYbWwFCOd/0jLCx3jOiIYHFNGkEqt+Wwe0sC+JUu2s86NBgWxqtQwBx/0RJxia+HDJE+TAR9bOLCgsCocqLHI3u1pC09hGzqUZbytxNWcuorUSTK80AnOTKCJQxlVZyfDTQ23tlH1v0ATR/hyB1t2tBafmQCIbF02cao2eJoszjRMaerg3y8IrkJ6ZB4c18dkznJ3zVxvRjxW21zYIjMBO3P+Gg/V4+MZzhIbWj0KBZEhOGNI5EwAUqzq/wUKxSmEsS/23Dljfdzo52gyElYmzhbNOxMQQgghhBCtHO3z08J+/yulV/NeyJvcaUpNdU243JqamgPrDgx/O7/z97Jxyg6mznZBjhPfzvBg8cEOoZ39TTCXtCBYonDNY8K8D8c5e56eKD4wPLTHsQnOehj/rxs833wg1AR7JcYMw2uzSDKuMPliMhZjXD6t/KRo1l+Hhd+4tGn6Eg5ErjCZc4NW+1iR0v0RKSPFDzsdmG1YNIJ8kJu5yv6Bv10fPm/AYVxw8s9oC088TUbXm6mME+xqRNoCMN64X23uXL+1fcoaiIMEaI2oQ+Trfo4mI0m2hb8UPoQbmMFRAh0lccFp2PzC9riXesUlox7CblCnUH9hKQgikQNjwty9cZv7XIfdPQ6rB85FskgT2A0eCfA/hXI0SQGNIHE2ZTydifRMRbYNJzcehlPadQP+I21k9ZxCDbbUcVRW3FmYnXajI4z4cde5H4xBrZJfgI2EWjVV5ecZxtc94mVrYU08TWYOk23hwILCqnCIswvwsYW/sE0cyliQncyzRfnDC+0Qngk0aCjDkHtgwdapbw0yftVwMmYYqf8wSIOUTik2jZgJgLjWZYhTtcHTZHGmYUqc4uMi/35BkBKROBUc18dkzqvQMtE+F9f+fJDV5oUtNRPg89F05qkUbkDzswoXdJ7Itxyo9oZWL9IWgPGRMwF+gNp8CGfef43j7yEcHE1GkmyL5p0JCCGEEEKIVo78/i3s90+lUouHL+Yb+k651ferZ/WcjZjIYOpsF5Tg9+f/caH1+P3NmpA7RGOJZa98uGSKC/Z6uCzq45AM9kosbm0WScYVJtda+HvleFnhr/qc2nIo/QXI2r0XWFB4ndb0JRyIlII5+6z2K2pfoObre3wRLFJGih92OjBbs9x14JrZXHWndm9c7mdi18foIS44+We0hSeeJqMUpjJOsKsRaQvA+CXdpzrvThpSNTU7pq/ja4aRzmVHk5H42IJ1DoeGKjPcwAyOEliruICzvAocWbnb8c2ZYJJRijgNm3h/YSkIImnrSIy7J/yrBQc+5Ig0gd3g2fAolKNJR0BeFc6Q8WwqCV5LJzcexvViowEqMy7Yl0dWzynUYEudRCp1fu+pRd2mcPsLhCl/HIguGZz1g1o1Vb189DzuCPQz4pA1ZE08TWYOk23hQE2GVeEQZxfgYwt/Yfm/k4kJOIUE6VJjas6C7GRxNXdU5499YdxMwF8KXBXnqPWRIhKkQUr7cge2c/z1nwmAuNZlyFhJT5PFmcaeCeDQv18QSo1TwXF9WI0HV9XuHMifKLHavNAkiwtOfTLawhNTB776sOeLjQcXbaMqqHaW6189ZujYAjA+YSaA+GNr9qJEOzcbV5NRJNuCEiFBZGi6MoUQQgghRKtCfv8Iv/+eFXsQafzvDnEOfYe4ZOFCzx89n9O++5IRS203PTi5+2T297t0/G6nlQUr+QEAEL7cLijB73/mwNmuP+yKa5FD+rLWh7OS5NdlEWN2pgZcroSXUg41dbtdm+/RMT68EmOG4b1rIsm4wsRaEfljxYUVI7+syL19Ec9T4XVa05dwICwXYM52bR0NG7hfLSvMq8zK34b7/Mx4Z+jdG7eDqFqYbeQCFVDDtqti18z13E7BqU9c9SJprtW+p8lYnC1FHJG2ADRi5LbOBrNhSGSysCbDJNvCXwofwg3M4CiBssfVylBZu+kzUs7PKkzvKF3nFuHlEI2H9HFjcLhV/2Ob++d/bRfqLywFwbXJbY9vv5o9qeOIMzQ3x0DTQgPDoS2Uo0ka2ggSaVNeYvophaVjkQkMfI+VGwrhMK4VOb3PqUMCkdWLu9wxZUYwdJfuOsGvTX7VcXz4DdkEqKK4BsAaUi2eJgM+tnCIGxAc4uwCfGzhLyybSlxKm8iasyDkhjwZE13zVIrfzk3uU5E4TTFyJuAvBe9uqOGBBVtN++HlthSMiexBYcKXO3jeVhwiW5dNtKotPE3maNhgzwRw6N8vCNPH9W5Wwy6XT6dgVlbbXBhXvUgy2sITdF50YRQNoQpeyUNu3OUf4vOUsYtn9SiUYwsQp1WHDfkLkSzyZwFhTYZJtgWVltCQhBBCCCFEW+KJ9vvfr7w/7v1xSLZ94fYg6ptvzuw/k/tsrnGXh4lz6DvEJQs77muqayZ3mtL/1wM2FW2yy107aS0OnR35b9+4M+xPw+3L7YIS/P63rt0a8JuBZut/H1ryu761OJsVAL6KxXfEGBMJX1rHtc4LmIeX70KkvRJjhljrOt83i4TZhpe7Bq701g35anHOFDpZmP+8D8ZicRvpGPJZwnGbXeO5CxO5wmTOGVf75WcuT359AOLXfDaPnlasSHHoft6wbt/t8G6/fCsQy9TguD5hVwV/4I98luZOs+tDh0g4/0gy2sJQWXFnUbcp+e2z8TfssfU0GdbeWIHjMPzZA4dIW/BXDhkvR+moAy6PfKk8rMkwybbwl8JQcbF89rv5w5/JXj9sgbPXSriBGRwl0G/CH3kwQSR06I9+vkfZ/tNBFEilNo9dhtyMC4MGckxvft9jCvUXloLgWqdrOJzafGjEj7tirKj3ncYQFBaN8/q5q0FULbzcfNzC9ss4mqShjSDstsbrRPhpTeOho7BI5nyfHPHzO6S/iYqxlDFxrcgZHDxHWhBZPUcEQ8ahLBI+cYRKnSc9IKF3c4iI6y92DT1NBhJsYSeziRwQwsTZBfjYwl9Y/34RWXP8jxjkhjwZc6V2j6l639uwPloe7lMYRlZ+UhQ3IAOnKYLwTMBfCg6JzuvVN85fG/9qX1sK04OcL2NHQm0370wARLYuG46Q4U+bGDxNFtYwCM8E/PsFSe7drIZdLpJBP8hnz5xNiEetGP+QZgLIbffs4lHP5TjfiiDsI6g87p58uYFNwlQPtWJKz+pF2sJzJgDo94/8WUBYk2GSbeHffYQQQgghRBvgifb7g7mfzEWyoW8NLS8rr6mpKSkuodPfuMvDxDn0HeKSRf7I4NCmw53+pfOEjybY5fJnBzntu5dsKEmlUvcr7yOm3yufINK+3C4owe/PDYVwmPfzPsiHb/1X368uO1o2r/+8DTMjNibOzc39Vi34J4h6mITXorev3uRWpw9e9Kv9bThiJvym35FVe7igqq6qvnzsPBaru2dvYCq+j4ZkWDXdq7iLq7BwXflJET0RzkoMmSMSq8HNY5dyHYsMS3cdXzd4vp0MGNdA0Xsj7PeRDVzpTf7DgLEv9TSrxNUD5476ac6c90fbC2+DzxKOy2+stJEn6hDEWkSuMJlz7Go/lYJ6983bPPbFtLcUC/4b54O1/bk9J1Hh4c90XvXpF1QIFqvFwxdAe5DrYslZJjNwGYxTx9fvd1zDgMvpeg6p2kcI41/thwWwLThUWvirPih3Rd/Z5Wcv81cad8pvHV6xa2H2RMfFkNEWhmNr9iJPpMRfflfAxt9kBxduQw6I2Tt3EzebRg1Rz68LV6wb8hXTAJMhLkxrI5VC9eZnpX2vc/8xhgbC3+V5s1DczQvlwY9RUqmKi9epZBQd+W3JCE2GSLYF8JTCQPc0QrhW4QZmcBoknR2IgckuHS5lxXDq5MaDi7pNMS4Y7jKB6m0ctRj2RcUuHTkH1dF8xisEXa3uPwcxMP310ivI7eCibWjG+e2zkdLuBZ7CUhBkaJpiJChoWa8ZSAYbYTBJ+8LQ6moNt3XiKpNhZd2vFsyPjXDh4RW7x/2iNyqzfcoaJqNiKZSjSRraCMJui85IEZDbyY0lGAARabsI+a4uRomvx6+gO/Vm2bXFOVMROeWPA833G+NakTv8+o20gBc6zkpHBEPGoQzdHJ0dXR6jU1q9tfpETSAFGk/4koTeDQEhpo8r3NNkgMIu7z0z/bgllTK2cJLZOH0hjji7pPGwhb+wOGzQUObUHP8jBtciT8bQo42UG0YsgoGq7tzbNGYpb7UI4T7FyvCseRxl4zbFyJmAtxTcan/S7z69dPgcDmFrc9ezpQDsQXbvRoYYgjDaNPTuQ9U1aCYAIruSjVE1JjZOlYinyeppOH4m4N8vSHLvZjUelFvLqc2HRj7X7auOExCPWjHyIc0E0Gcn/jb9ER2ExXVbYBnYLCf+9tOCV9Lv+DMSgqAafHRqqu1ZPdMGkDP0hoqFZwIAbRUt9trpS+k0tSCr9G8in0vPwcIzFhCpSYeMI21DZwJCCCGEEOLx5Un3+5ceLM1p3x0pTej8vez5n33V5Qddjf8dMLfIYJzsnski/f5VlVVj3hvLlKbc8gvl/X89gJEmoHp9XuqLfxrq9wd3K+6OencU83FCpKJa3O8PuDixX/TDWjRuu157wVz7vqH7LUSs+rDwdlbFyNB8RtIOTjJybM1eLKWclKbOXDoixl5jcwHmRFLYyBAuF4dYKCYk4wrTuRD/I8an0Nnv5td7oc96W9MOWIg6v58gFRfLp/xxoJPYrOGpE8chxR/4M6Vt8bjt3SP9Wcm2MNCbw7MHaz9XaONvMizLsc5nPk4wwgLaIhwm/e5Ts4METeMkYIDa0/6UOucF3XlOGhPCHqJkWwBPKQx8KoYQfqEy3MAM4QYZ970N+/Ka++kXgZ0EsN2k1/vDHHb1Lh87P+4Xve1kOER7gK7sQj2FNeYINx4HjBXz/mucnY8JdoZlB0471UOAIJDOOHdgO0TyKkeT+Iv/jSBIY+djwpIe06ru3EvnVQtyrn206Q56qAnqEySK6Y+Apdga8BxpeaHTFB0RDDhMHsriGjwaD5oQ09gk9G5mFa4DYQ3N16F9TAY8bcHMnTQmGCX79+6MtmiQsJ79ItyLAf5HDHJDnkFU1N126puDlvVOPyQL9yl7jLKLM4SbIgjPBDyluFhyNjzyjH2xZ+Ev8xwpkOG6IfPDPSjcWUBzzQQ4DkSGyHLDqrZz8zRZXDOe7cwEvPsFQUEJvZvVQIxt2fuVVfM+GMuUttUexkyAPzTk2fCL8KYzQjpkyEj+liWcoU/1aItwsGcCIM4WYSXHpURwLA6SbQE8u48QQgghhGgDPOl+f3Bs27EBrw3s0C6rw1NZY/5zbNmxC9wK/1H6/cHOxTtRB8Tb5V49d7Xwg/Edv9sJ8d3+LWdWz1lXSq+ylEb4/UFVZdXW+dvS8j6VLqvz97KHvjV024LtfP3focX3+QFmrWi/6Ie14oEFW6e+OYi+6VHP5cz667CDC7fZnpdUTc3euZvGv9oXCZAMiQ8t3Xnj/DUszMJrJCTGQm7mX4ZxLYcMv+xQcOVY1D6/qdTZ7cdm/y3fXvWZOpvVvl2EeUfPXhM2aAkH7lXcXT9sQcEreZHJuMJ0LsT/iElY7Y97qdeiblNKd53gC2v1qC8mFLKs14yrJy8EZ0PcvFC+os+sMS/kmszN0pE6cZbr/IE/UzoWRykoi1lh6QsLruxXlLZF+D2+RFsYKhP3+fE3GYCijq/fb0rE36lvDdo+Zc2d6+nX5QgstW/eZjRII8LE336ydeKq9O9OLG6WXds4ajEuZ1ZGUkfJxhkRGRxnK0mwBfGRwlDRHPv8EMiybvB804Yjmx+69qYxS+mnQ8VQydNfHy7bdwqlOFJcPXmx6L0RqBiSLeo6GVJTV06hXiaLckjFEWT49xHoFLgEFZj0+/6wr6M92wpIM+vd4bjKlpT+PgrlaJJt0gjCbkuPIQLV4uRGEHN4+S4zMEKNULjdgEFkfwQsxdGAz0jLC52m6IhgkzyUoVPzi75oHjyLlGEpDAm9m9tzR9YB0KNn6yGjyUD5mcuo/KTX+5vmFGkLis/6h4NRMlusc9YER6XJtmiosKhwuhkn9ovIXoz/EWPaKsHIgGvZbUc/3wMqgpXZwiP71KFlO9menU5NIpsiy0W8PRPwkQJcLDkLa1JvaE6oHhKgFEeKNLX3lHkfjGXvpn0R09C7j2kAtvYibyvUUmQId1Lg9HEEWwpPk1HDJiTNBPz6hSGhdxsLOpY1j+6cxtDsMwEkS9jnx3RGs3kaQKfjjwnCTSVj9TxnAmiKO6avQzI2OQSaA8OgI6ljNTs4FicZRtratuTTfYQQQgghxONOm/X7CyGEEI87dPc4XmAhHl+unb5U8Er6LXKzB44QQgghhBBCiIeB/P5CCCFEK0V+f9FmSNXUXD15kbuc25+dEEIIIYQQQgjxMJDfXwghhGilyO8v2gZm9xsE57MTQgghhBBCCCEeBvL7CyGEEK0U+f1F2+DCgTNjfp4bucu5EEIIIYQQQoiHgfz+QgghRCtFfn8hhBBCCCGEEEI0Avn9hRBCCCGEEEIIIYQQQoi2g/z+QgghhBBCCCGEEEIIIUTbQX5/IYQQQgghhBBCCCGEEKLtIL+/EEIIIYQQQgghhBBCCNF2kN9fCCGEEEIIIYQQQgghhGg7yO8vhBBCCCGEEEIIIYQQQrQd5PcXQgghhBBCCCGEEEIIIdoO8vsLIYQQQgghhBBCCCGEEG0H+f2FEEIIIYQQQgghhBBCiLaD/P5CCCGEEEIIIYQQQgghRNtBfn8hhBBCCCGEEEIIIYQQou0gv78QQgghhBBCCCGEEEII0XaQ3/9JZ1Xhqg+//dG0btODY/E4U3m7cnKnKVnf+Rh/8X8Q+zhz49KNPi/26frDrmcOnA2iWprzR873e+WTzt/L3jh7UxAVQ01NzYF1B4b/R37H73ZCL0MIC9L2TCaEEEIIIYQQQgghWhz5/ZufU3tOjX5vzKyes4Pj1o38/g+D/Wv2D35jyJpJa4PjR8WZA2e7/rBrpH/5MeWR+f39TcYugzDiLyMTPPWpVGrV+NUd2mUxMUNYkLZnMiGEEEIIIYQQQgjR4rRZv//+Nfs/zOSYe0gke9JRH9Qq0sfXInWOq21VZdXW+dsG/u4zvqrc+XvZY94be2TLkZqamiCFiAf6hNKg2+C4PjR0WOdsGziFBEFUA0EOrfDlceMoD4eMD5wemd8/2WQ2nu/7Xzh+ocdPctF9VhasTLBF6zRZg0ilvtm2/8IfP170refG/X+/mLir5FJwoj43b93rNWLz//7V5H/6ydj/+XzhL9//csPOc7jWpup+zfxVx156bx4SINn/enH8m50WI3MnGblbeX/GokP/+uZMpHz1g68qblcFJ4QQQgghhBBCCCGeeOT3b37agN//8unLA14biHgn6JVkT5KdyA/P7986aWN+f09o5YkdJtZUt9lHZbfuVE1bWELPO0Oc3//M+ZvP/Pssk4zhfz5fOLZor+3TX7z+pJMG4VvPjRs1c0+QopazFyq6D9v4/7480aSR318IIYQQQgghhBDCRn7/5udx9/uXXyjv/+sBiMx5pvu2BdtZmfuV90/sOjk9Z0ZpSSmTiQSSnchPmt/f0Agn/uPr9984e1OkldsSE+bt/6efjP1vz477985LZi05/P/9YmKk3/9u5f23Oi9Byp/95Yt9R66kUt/cqLjXv2Drt54b979/NXnPoQfpV24+/X7eqv1Hr1TXpJ8GXLxyu+Nn65H/j9+efbn8DtMgtzc6LkZu/+vF8f0Lt/UetUV+fyGEEEIIIYQQQgiHJ93vn0qlyo5dmN27qPfzedyJu+dzvRZ8vuBuxd0gRR1IeWz7MfOJzs7fy56eM+PiyYs8azy2ccHUhCn9/f6oCeqDWuEUavjpr/tvnb+tqtL1cNXU1OxaumvAawM7PJWFZH1e6vv1l1ur71cHp+sIS9Ht33Lwj+2dXDJiKWL6vtzv0qno/TpsoL2CfxQgH+aG/8/sPxOcq3PaQqKLJy7mvzMi6zsfIwEkOlh8MOeZ7qjD2snrUCWkpFryXsgrv1COHPL/PAJnIcjgN4aUHnSfNED89dOLISMSUNjVE1bbSgOQiEqGFOPeH8fcoJ8jW46wRJvysvJZPWdRFZBiYtaky2euBOdqQT7IDXlCpcXTi9FamHJe/3mmqVBYxMcFo2R/v7+nFOZCE5xWZIMKrxq/mtpDSjStwv8aj8MD6w4wAYWFLJCIMQSVQXrnmYRnwyM+TnynwXf/UQ/kHL7ETga1oMHYDQ80r8kAM7TPJj8k8Hn+Z+eWbLJkYQEbFQpFw0DzSFukXVZa3gFfRmZbUlLSvn37n/3sZ6WljX+Sd+rcjXe6LeM+PLtKLsX5/VdsOv3ff1bwwzdmnD5/M4iq3R2o65AN//STsV0+Lw6iojh38db/eX3a9/8wvezyrSDqm2/mrTza6bP1jBk6Zaf8/kIIIYQQQgghhBAOT7rfP+zLY/j8D4MrrlYEiWrd5eFPdCKY/MNePCc4KSNdn+E6Xzt37dNffWrnw+D4XqvvVxflFYWrN6vnbNsDG5cMwXgnb165yZf9i6cnOeMAdII0HWufH9gBMYinV5p+1aFvDR393hieRekrC1flPpvLwx4/yb1w/AJSGrV8NegrJ8+c9t1t13/5hfLBbwyxEzAgEqeCRLVOapQ1M3eWY9/s73c5vuN4kKiWM/vPmPqYgEJP7z0dpKhrJ4N+P8gIYsKkjydRyQ/J7+8jhbnQBLsV2aBFDYjawQnBFEphffz+ng3PkNHvH2kLBOeSSCnQbHYvf7AbTPOaDDBD+2zY7x9O4wSTYRNN5ggL2Kim58xYWbDSsQhsFN5rKDc391u14J8gqmkk+P27fF78Tz8Z++m4rcFxLUdPlf/sL18g/sW/zS2/GSE4OXbm+nd+M8V+399Bfn8hhBBCCCGEEEKIME+637/0YOn4DyfsW73vzs20U6n6fvWBdQdy2nfHtfZHO6+UXs17IQ/xOEuPIbLFVXM/nRfO3+c930jXZ7jOfPV+avbUm1fS78nW1NRcPnPlywFfHt58mAnItgXbO7TLyvt5n0ObDiMNaliyoQSHiMSpINE332yctRExuc/m7lq6637lfcTcunarqM8Xdm2P7zjR6V869/xprytn673wHubUnlOQomPtZ0v5AjUqidxYRNnRMsTQr5r1nY+7/KDrkS1HiqcXo6yspz8e/nb+tfPX6PekH5lqwSGCEaS8rDz/nRGImdxpCh2XEG16zgzEDHr9c9jOFhaR8/rPM2/B00mNgEruXbnXzm1m7iymAbfKbw1+YwjqjJrjf8QYKRDPGGD7cyd0mFhxtQIZbp6zBeJ3eyYnvPcRS497H5yGDrcQowTqBHhKYZPQ8qsqqwr+UYiz+X8eUXbsAnSFDGEpupVNoRTWx+/v2fAMyX5/aJVvqU/pPPXquauoHjJEg0S/sy9B5KSPJ6EmhR+MR8dEDJofGiFs0etnvS+fvsxkzWsyh7jEdqGRIWx0kGAyT2EBM0FfY9M9d/gc5N25ZBdSmqdrNo/M73/77v3ffrjgv/+sYM3XwW8U0EcXrTuBlP9UuzX//3l92rmLD97lN1TXpPYfvfLqP+b/z+cLv1pd71mdjfz+QgghhBBCCCGEEGG0v38EK8auwLW2X5XuvM//MPjWtQj/lEMz+v3pXvz6y3rvyTrcrbg79K2h4dfYj359tNO/dB73/jjj4h/wm4Edv9vp0KZ6zwyc2rIOw9/Or7yVpLea6prJnaYg5eLhi42rHRg35ZIRS3Fo3qeGMnFJ4Jp8+uOS4hKcpXSIxP9UCw4//dWn185dS+dVy/mj53Pad+/zUt/rF6/j8OTuk5DU8XgCyI74vBfy6BsFzNx5bX/f6v0d2mXZGt65eCdizAvgBP+P/3AC6mmerxh/rv0mu6kzRbBh6c3l988ohQ0zjzzLhzoDXhto/5YlXCiFzej392x4Nsl+f26IX/CPQnsbq/AlbAP2UxmARrjg8wW43Dyua16TOfgkTh4HbBJM5iksYCYIY/5zLJ/DAcqL1nKw+CBjDM2yz49NnN+/4va9X70/38Tfrbyfm7/pW8+N+18vjh82ZeeP/jTLuaTidtWrH3zFRwIIP3hjxtd70w8R45DfXwghhBBCCCGEECKM/P4RhB12fBMZkSP/OoqvmQcnokj299ETF+n6DNeZb+gj8drJ64wvz6G0pLTbMzlhTz0dpsZ7e3rf6S4/6Dr4jSG3b9TbLsOpLQ8z6u3mlZt9X+6X0777+aPng6g69qzYgxzo9mUdOv1L5+M7TuAUBRzz3lg6duk8RST+p1rMoQG1RZ2NutZOWos0c/rOsR82AMgODdieema+YuwKHhL6gm3pZubOQjLUmYcG6gF/ecgL+fkBxhBbBBvGm8sdqAejc0NYCZ5S2DDzyLN8oLVw6KLguJZwoczftByDI6xnw7PhKWNNGxh0avZU5L99Yb0fCoQvYRtwdAIcrTavyRx8ErMJmfokkGAyT2EBY8LPJuPkbXbi/P5ll299/w/TGV96seK3Hy74p5+M/dc3Z+44cJEu/mS/P8L/+/LEmYsP1e/xD5DfXwghhBBCCCGEECKM/P7fXDx5cXrOjO4/6oH0dnAcdqUHS7mZDEJO++6zexdxp5TgtEWyv49u1kjXZ7jO1fer53/2VYfa3bo7PJXevmPbgu2ORAeLDzJBZDDuV2Y+NXuqU2enttsXbsdhxvf9Lxy/0OMnuZG+XfpbKYXjtGUdTFm2R5JqMYcGxhuH/txP5iJNpL/Vzs0cOintuuHw3p17o94dhWRxwVzOC8PyOoUaIks3OHowhJXgI4UDM488y9ychxzhQj2F9Wx4Nk57sGE1uvyg6+l9D37ZAMKX8FFNXDBabV6TOfgkxlm7PgkkmMxTWJCQyaMhzu9ffrPyxb/NRfzgSTu+8+qUf/rJ2He6Lr12I/0U05xyLiEYqM5futW/YOv/fL4QYdG69LPDMPL7CyGEEEIIIYQQQoR50v3+u5fv6Rj6Mi1D2GFXVVm1Y9GOwW8M6fBUrSO+Xdb0nBnh/JP9ffRvRro+4+p88eTF2b2Lcmq/OoCQ+2zukS1HgnN1V8UF4/dksnCtnNrSmRt+S9qB73pH+nbpb6UUjtPWqQP+wSEi8T/VYg4NjDfuYLpBI/2tdm7m0Elp1w2HptC4YC5vXieyowdDWAk+Ujgw88izkbUNF+opLAuKC5Ftw2kPNqxG+FT4ElYjLhitekphYHycyRx8EuOsXZ8EqMkEk8UFO/OETB4NcX5/+/39//l84bApO6vuB7+XOnfx1v95fVrc/v6GsUV7ce0bHRffDe0cBeT3F0IIIYQQQgghhAjzRPv9uUE5khV+MP7y6cvmRfiMDjvkualoc9cfdu3QLmvznC1BbB3Jl9O/ae9IY+AOOXEXonplxy6Me38c0nz2u0HOJ2cz+vvo0B/17qh7d+4FUdZG4aZQvsiPlDsX72RMJPTGRn4vlFJM7DCxprrGcdrSKKYs/INDemCpFnNouH7xep+X+pqCqNu5n8zlWQP3+TEbCgFm7nhmw7qy65BA8zqRqYfwDviUwqgLeEphw8wjz/KpydpJa4PjWriTEuKNFJHCoqlwHx4nWcaGZ+O0Bxv+9gINz9mJ/tKpS7nP9rQvYRuI060hUgrQOJM5+CRmPZEyOI4nwWSewoKETB4NcX5/8OEna/7pJ2O/8+qUddvq2X3FptP//WcFGV32W/eW/T8vTYhLJr+/EEIIIYQQQgghRJgn2u/Pl9adrUVSqdSy0ct8HHbcLX2m9flfwi256fgOoiyM/5RfvjVU130RN9nHV36hPO+FPFQblWcMP9gbudW+DR36PX/a68rZK0GU9XMHI2xVZVXBPwoR43xf1+F+5X0+gVhZsBISBbHW5cXTi3HYdL//tgXbO1jfsD28+XDW0x/3fbnf1XPB93vJoU2HIUj/Xw+4eeUmY5i5o8ywq5rfkg1/MMChoU5ketidnfQN/NaC/RViwq8Tm48YA08pbBJaPoUd/+EE851b/FOUVwQN21KEmwqUs2bSWv7MxSTzbHg2CX5/wE2cbKXdrbjLjZjsS9gGzFci4mhekzlE2sUBZ5EGKYPjeBJM5iksSMgkkkf2XV/wxfIj/+3ZcY5rvup+zV+6L/+nn4z9dFzSd8sB3/fv8nl6SAkjv78QQgghhBBCCCFEmCfa708feod2WUvyl1RVVtXU1Jw/cr7wg/F0g9oOu5INJTg8seskc0ulUpdPX85/ZwSSbZy9iWkMdNV1/G4nnHJe6CY7F+9EEZ2/l72paDMT3Cq/9dWg9D7+uc/mlh0tYzKUNTN3FjIpLyvnl4SRGIfIecBvBpqvd6Iyi4cvRk3yft5nz4o9rGH1/WrkM6//vA0zNzIZBBzz3lgkm5o9FcUh2crCVagDquoIe2rPqa4/7IrIfq98ggxZQ/w9vuP45E5TzPMGSoHKrCxYyW8Oo55TOk9FZP9fD+A2QY3w+6+ZuIYioMSt87fhWtTQbElvfqIx6PXP+YFlSLp72W7oDeWusd5kZ+YZPeawY6+f9ca1s3rOvnzmCvUM3e5atnti1iTzFKGhTmR62HPadz+w7oBxshuMFKPeHcUfmqBcqLfvy/0QCauZhxCeUtgktPzzR8+jSjAZGh5qdaX06oSPJkB2pEcwUtChj5hFwxah2SCfpSOX0ulvJ/NseDbJfv+S4hLYGjU8WHywprrm3OFz6T212mVlfedj+xK0Xv5AYdz7484dOkf1onRcbrfP5jWZQ6RdHJrF7+8pLEjIJJLc3Nxv1YJ/gqimkeD3v3r97ot/n/vfnh33Xs+VZy9UMKbjZ+sR88M3Zpw+H/Qyh+qaVOnFiv6F2/7Xi+P/968m7znkZkvk9xdCCCGEEEIIIYQI08b9/pHBeOtqqmuK8oqcsx3aZX3yy0+znv7YdtjF5Tbq3VF0edtU3q4c/fcxTkrbH4d/+Gq/Ezp+t9Pu5Q++uYpkuMpJg+AkA+a16HCwXZN8Kd4+O+C1gbuX7e76w66Od3LPij2dv5dtp2Sw3a/V1qvidsh9NvfM/jNM0wi/vxOQ/5IRS20/LDJHEeFkqIydjJn7eMzjvvFgu4wb6kQuv1De/9cD7NwQbCWXbChBhk4CBKdFeUrBGDsfO5jqpVKpef3nOWcnZk0q+EcB/rGlSL/dX9+yaCozus90knk2PPzvnDXB1klV3Y9FTOjwVPpZzrSu0yAdmxA5vfd0Tt3nLuxgJ2t2kyVIES4FML2dg42nyYCPsACXINJp2wk0i9+fvv5/qt27PxyGTnmwV9j2Axf+968mOwlw7dLik0GKWt7PW+WkQfj2Lyct33gqSFELff2RIfLBgxBCCCGEEEIIIcSTxhPt9wdVlVVLRy6lW63jdzsN/4/8I1uOnN57umt9VziS7Vi0Y+hbQ+kN7/BU1oDXBm6dvw3xQYr63K24u+DzBT2f62UKdfxxuBCXIxO+Ro1sC/5RUHbM3SufX/Tt/Xz6RwlI1u3fcqbnzEBkcNoinCFqu23BdscJeGzbsXSa2l8bzOs/D/Wk/zHsnbxx6caXA+fbRaOGJ3ae4BvxBP/vWrrLFAo14hLbAYr/G+r35+8PEKiTU3tOmZffDeVl5bN6zkKVkAxFD/33YQfWHbArBpi5bWtAYcO+UagUig0ybJcFqaF2mMMUzQv9ncjAriSDo2Sn0D4v9V0/vdhpUZ5SMMYU5AS7etX3q9dMWssGDzFZYlgKO1mXH3RFY0ZToSPbEdan4fHCyODoBFfNG/AlMoFCkCc6I0yANKYJGdg+TRfr/qMekztNsdtns5ssQYqH6vcHGYUFuASn/P3+zbLPj7/fH5RerPjo07X/68XxOIW/f85ZduSUu5OY7ff/n88XPvtOUf70XTdvPfgkCZHfXwghhBBCCCGEECKZNuv3F48XlTH7+4uHzf26TzVI80IIIYQQQgghhBBCtA3k9xetAvn9WwppXgghhBBCCCGEEEKINob8/qJVIO9zSyHNCyGEEEIIIYQQQgjRxpDfX7QK5H1uKaR5IYQQQgghhBBCCCHaGPL7i1aBvM8thTQvhBBCCCGEEEIIIUQbQ35/IYQQQgghhBBCCCGEEKLtIL+/EEIIIYQQQgghhBBCCNF2kN9fCCGEEEIIIYQQQgghhGg7yO8vhBBCCCGEEEIIIYQQQrQd5PcXQgghhBBCCCGEEEIIIdoO8vsLIYQQQgghhBBCCCGEEG0H+f2FEEIIIYQQQgghhBBCiLaD/P5CCCGEEEIIIYQQQgghRNtBfn8hhBBCCCGEEEIIIYQQou0gv78QQgghhBBCCCGEEEII0XaQ318IIYQQQgghhBBCCCGEaDvI7y+EEEIIIYQQQgghhBBCtB3k929OpnWb/uG3P1pVuCo4fghU3q4c8ZeRKGX/mv1B1BPGvduVX/znyGH/2mnqm5/duVZRcen6hNc+weGCzhNr7lcHiVoZWyeuRA2X5k4Pjr/55tjafYixA2KCc0I8TNAO0d7GvdzryvEy05tmvDP07o3bQQohhBBCCCGEEEII8Zgjv38DOLXn1Oj3xszqOTs4DiG//yPgfmXVlx8VDPvXTl/858h7tyuN39/2qrc25Pdv/UD/M94Zun3KmuD48cRHitUD56K9odeg7xi/P3tTkEIIIYQQQgghhBBCPOa0Tb8//e/9fz3g5pWbQZTlMR/8xpDbN+4EsQ1hVeEqXI7Mg+MQLeL3xz84RJjcaUpNdQ0jAVN2/WHXMwfOBlFtBb6wTE+lcVzaXvULB86MfqFHpCuT126duDI4fiSE/f4GU/9m8PunUuf3nvqyQ8GYF3KR4fBnsqe+OWjXzPVVd+4FCUQ8GRsGGxXShMMjbk4J+DRvtkb6/XHIS+T3F0IIIYQQQgghhGhLtEG//70790a9O+rDb3+U9fTHJcUlQew335zcfTL7+10Q3+fFPjcu3QhiG0Ir9/vntO9+/uh5RoI27/fnxj7Gb76lcHlw+on0+9+vrFrZr2j4M52RlRNaj1e6NZOxYbQxv7/Z2IeXLOk+9ZtUigmEEEIIIYQQQgghxONOG/T709/d9+V+PZ/rNafvnFSdM2vJiKWIQXyb9Pv3+Elulx90XTx8sZG3Dfv9N+QvHFbnRjfb/ti+zifN719zv3rlJ0XIZPgz2asHzKm4eP0btIOamvKzlzeNXrJ79oYgnYgnY8NgozKvybdOfJr3wUXbkMb0Dm77E9k4hRBCCCGEEEIIIcRjSpv1++e/M2Jql2lmq5/bN+4MfmPIvAFf4lTeC3nlF8qZGNTU1OxaumvAawM7PJXVoV1Wn5f6fv3l1uq6L8QaP3tcwFmkYWL6/fes2FNeVj6p4+SO3+2EDJHzsW3HmMCm7NiFgn8UdP5eNi7BX/x/Zv+Z4JxFVWXV+unFqBWyQsqc9t2RLf5x/P6UF6JdKb3K+LDfP5VKodDZvYt6P5/H3Ho+12vB5wvuVtxlAsBnG/tW798wc2OXH3RF2LtqLxJM7jQFl3z+h8HXzl0LktYCSWf1nNXt33JwFaSYmDXp8pkrwbn63L9/f8CAAf/jf/yPsWPHmocTjcNxo4d9nQ3y+1fduXdw4bZZfx026rkcnBrx466z/5Z/dvsx+/VnZohrq6uqd81cP/7VvkiJ9Gs+m3fP0l5AKoXLkQmyYjJuvBPpWs3s96+fW8EreVsKljtb95zbc3LUT3Pyf9SlZMl2u9qR3LxQvqLPLFaJwp7YcNBcxe8loEpXT1woem9EfvvsLzsUVFbcOVF8YOyLPZF+x9S1TMyaj3+1X8XF8rIDp4veG4mzw5/pPPPPQy+WuI+aUjU1h5fvmvrmoOHPZFOKdYPn37lWEZyuBRrAKZgG0hUPXzD2pZ44xN9tk1bdr6wKEtUBta8ftgD5UAqUjjoE52rxMZn5OERcsE3m4/enIfjJ3CCqjtKdx0c+123KHwfesjYfs22Bui3Mnlh+9nJwrpZmlwJQz6Z3OL1JCCGEEEIIIYQQQrQB2qDfny7+EX8ZebD4YPb3u+xbnfaPH958uPuPepw5cHZat+m2K7z6fnVRXhGd4HaY1XM2Xf+N8PsvHLoo99lcOw1KPLXnFNOAVCpVPL2Y7ns7IAbxtk/82rlrA14b6CRjcPz+qMbelXuznv4YOTA+7PfHPzi0M2H4/A+DK64GHlj6/ef1n8c9kRBG/mXkzNxZ/B9h7idzmRKc2X/GkRQhp33303vreWDJ0aNHn3rqqW9961v4i/+D2IdDg/z+jHHC8Gey987dFKSoy3Danz6f+8EYJ+XC7EnVVcFTIoD/V34Svd9OpGs1g98/ldo+ZQ195XaY8/7oyoq6b1SkUqv7z0HkvA/Ghv3jDsfX74cgdlYIqO26IfMpBZ3Is/46zEiKs1snrBz3i948NE5t1hy5rRvyFZ9JmDD2pZ626x9VXZg90U7AMOE3/S4eKg0S1fmj57w/asY7Q+1kCBtGLjJPJsCN81envjnISYM6HFm5O0jhZ7Jm9/tD/7ACLtzzxcYgqg7+SAWWMoKUHThttGoCVFe278FY0exSCCGEEEIIIYQQQogngTbo979x6UafF/uM+MvI8rLyoW8NnZ4zo6amZk7fOWPeG1tVWeX4/bct2N6hXVbez/sc2nQYyarvV5dsKMEhInGKaQye+/wgoAhcjtwqrlaM/Gv6YwO2u/zUnlNI0PG7nVYWrOS79jev3Czq8wUKzX02t+xo8KYwalvwj0Jcm//nEeePnEf1AM7ySUDY7095EZhn2O9ferB0/IcT9q3ed+dm2mWM6h1YdyCnfXdcvnF24OOmjFlPfzyxw8Sr5672//WArO98jKruWLRj76q9qCHy5HOOW+W3Br8xBDGoOf5HjJEC8YyxabV+/zWfzdswYtG105foRb115eaS7lORZuqbn5kX0pkhvagLOk24ffVmqqZm37zNI37cdczPc23n9e6iDcOf6TzuF70PL99FL/yd8lurPv0izv2a7Pc/u+PYqJ/moOiDC7eheigUZU3/02CkN67wuzdu01F+cNE2XhXH9XNXJ/3uU1QP9eFb55UVd74evwJSIJzafAgxdCLnt88e/XxjTqbFAAAZzklEQVSP018f3jVzPXLO/1GX2X8fceP8NbuqpuYIE37TD5ejejcvlBe9NwIxi3Om1PBHM6kUimCakxtLHCnmdyg0zyro90dADWGUqjv3cGrjqMU4RLXNa/LIYWH2pPS1WYXXS9M/LjFSFP6qT/mZ4H15f5ORcMNw8PH7gz1fbEQ+X35UYD+DoY1gynN7TjLmzvVbM/88lLbA/4iBgPgfMYhnDGh2KYQQQgghhBBCCCHEk0Cb9fuPe3/c/cr7S0Ys7fNS37MHz/b/9QC6tm2//92Ku0PfGpr9/S7HdxyvvTTg6NdHO/1LZ+YQRNXi6ffPad/9xK7Auwf2rd5vu8trqmsmd5qCZPZe/KD6fvWkjychHnVmzOHNh7Oe/njAawPNy/iA3nwkC/v9cWrn4p1Z3/kYf01K2+8fyYqxK3D5zNxZPKSMvMqUxUcmiEG8EQSlQC7UmT+MIPh//IcTUG1UPoiqoxn3+cmI7S2NDMmO0YqL5eNf7Wf7VU2GK/rO5uMBEHbZ37lWMfXNz4wP3YDikKyhfv+a+9WLc6YMf6bzwYX1HPrXTl8qeKW3eSxBT/3o53uU7Y/4mYXNptFLUJDzA4VvUqkNIxchnp568/L48rxZOKQvPv9HXU5uPIi0dCs7fv/Jrw+4cT7YXQpcPnp+7Es9J/72k/RnBr755nrpFShz1E9zzu6ot9tV+ZnLhb/qY7vCWRbk3TpxlXkpHpkgKygfJmAM99KxneNpUqn1wxbgcvOivafJDJ5+f6QJBzs3yuts9cNNflA0KsCYkqU7IGn4xyJfdRwPbZ/aErSfZpdCCCGEEEIIIYQQQjwJtFm/P73zZw6c7fZMzuzeRYi5cjb9ajDiO7TLOlicdmKWlpTi7PC38ytv1XsrnDkgOJ//9fT7rxi7IjiuxXGX37xys+/L/XLadz9/9DwTGPas2IPLzfMGeuQXDl3Es8T44iP9/si8/68H0E3PlBn9/o5QPJzYYWJNdQ1zyHr645LiEpxyBOHmP6hz7XUPYA74Gxy3BAkuWoYMfn960i1fMzPkXvaMIbYfHJTtPz36+R4z3hl698ZtxpDG+f1vXbk56XefhgvlJaZ6rJtd20iq7t6b8/5o48G3YbX5IIGyj3yuW+nO9MMw1Ap1MzsIRfr9nZrz3XZTnxPFB4Y/0zliD6JUir+rMJ56ljX77yPu3XrwyQRHWLB96hok21K4nIcGXm6UTLVkNJmB8U33+0OuZb1mINLe6oeb/OyauT44/uab5XmzEHNkldt92FRMNZpdCiGEEEIIIYQQQgjxJNAG/f50T9ORXVVZNea9sR9++6PJnabUVNcghq55Os0PFh/sENrZ34RG+/0dl7fjLr9w/EKPn+SGMwdOSubmONbpi0d8pN8fh0tGLM3+fpeTu08ypeP3v3jy4vScGd1/1AOX2MEIZcvo5GBX796de6PeTe9fFBdag9//C799fu5XVh1YsHXqW4NG1N+k3vY1M8PwHi+O+5Wu5yXdp5rX1QmduUgcHFsk+P0vHiod8/P0F18jg6ne9bNXCn+Zl/F9f/4WwRbKQF8/pXOeeVAiU3Nb3riaM968tM59byJld3zcLMuxGnOzq02PeVwwBXmazMD4BI95XIZhTm48CPHNVj/U/PhX+3FXIsBnMKbO4WCq0exSCCGEEEIIIYQQQogngTbu9wfF04s7tMvi1jeAfm06zekxjwsPye/PHxn4+/2Nf5/QF2/HO37/y6cv9/pZ7zl959ytuItI47UHu5fvCX9MmMEI5en3N9WIC4+L37+y4k6cB9b2NXu6X+m5RiQPDSguMh7Eec8BC8WpyGCqx58FICb88rgNk9lCGejrp3T83yRzJLLljat54Kmvew7B1/MjZadajC1YlmO1IDer2qxDXDAFUXvN6DGPyzAMGtWsvw4zW/2c2nIo/0ddlvWaYZ4GGdXFBVONZpdCCCGEEEIIIYQQQjwJtH2/vwP92tsXpr/Z6/jZM9Isfv8btZsI9fhJ7oXjF5jAwH1+uMcODrmRztpJa3mW3Lp26/M/DEZ8nN8/lUrN6Tsn74W8c4fPIdJ47fkxA6Qs/GD85dOXzQ77jlD2IZ37JgdHEArrPJZoJdBb6niQieMY5TbrSHxgwVazEY3j+wae7lfuaTPn/dFVd+8xJk3d1vNIHMRYGBdw2IfLamR0NKPaX35UgBwefEo3ChZk7x1vsLcncmSnL97U3JY3rubckd94vZmD853bNHX7/JjPETOlYzWWYtsCtkOyjK5tT5MZGJ+QbVyGkfBTCtzYZ/XAueHtleKq4dDsUgghhBBCCCGEEEKIJ4E26Pfn7j1x3nn6temav3Xt1oDfDIzcaj+StZPW4lrjlw/j4/e/X3l/3PvjkGxlwUr787ZVlVUF/yhEfPH0YsZsnL3JKa76fvWsnrMRiRDn9wcnd5/M/n6XFeNW2l57/s6gyw+6nt73YDcYVGDZ6GW4vBF+f1ZvTt85nh/pffTf9XU8yMRxjHLTGGdnnhvnr41/ta/ta/Z0v145Xjbu5V6Fv8y7XvsxCXJk5W7uIITEQZRFnPcc0KEfdhmH2V20YfgznVEKygqiolg9cC4KWtZrhv0tWQi+5rN5iF/dfw7+b7rf/+DCbaiMUT51ggzP7z3FBOTysfPjftF77Es9L9f1PpblWI2l2Lbg6/MRHwyoj6fJDGwJG/IXBsch4jKMhB83hvluXiif+uZns/46rLLiTnCuFm5/RJ0HUVE0uxRCCCGEEEIIIYQQ4kmgDfr96Qf38funUqnFwxfjMO/nffas2EN3dvX96rKjZfP6z9sw88FnOcnhzYeznv6443c7bZy9iZ/edfDx+4Odi3d2aJeFfFYWrLxbkf6EaXlZ+ZTOUxHZ/9cDyi8EH/A8f/R8TvvuSLapaDNqdaX06oSPJmR952MElJLg9+cjhE9/3X/AbwYarz2yzXshD0UsyV+CBDU1NeePnC/8YDxicHkj/P7cUAiXz+o5+/KZK8gQkbeu3dq1bPfErEk3r9zEoc3Ro0efeuqpb33rW/iL/4PYhwO9pY4HmdBhavz+WwqX43DS7z69dPgcDisr7uybt3nsiz0RafuaPd2v9yur5n0wFjFLuk+9c/1W1Z17WyesHPVcTv6PuiASiZnMJs57TuhDR9F75266U34LMamamvKzl78uXLFuyFdMA1DtovdGIBOUtXns0lu1ymfKdYPn7569gcnO7Tk56qc5yHDVp18wDSpZPHzB8Geyx77U82JJ2sqN8Ptvm7yaeob4BxZsxbWQ12w6VHO/enHOFCSb8Jt+JzeWVFdVo2Jndxyb8seBiFz5SZH5jQLLyuj3R51n/nkoUn75UcGlw6V8hoFkJzceXNRtysVDpUzmaTIDHfHQw/H1++s9F6kjLsNIINSCzhPHvdxrd9GGkc912zR6SXCijvIzlwt/1Qe2WNF3NswEnSASJj68YtfC7Im0Dmh2KYQQQgghhBBCCCHEk0Cb9fs7zncD/dorxq7g4d2Ku3Hfpw3nUHm7cvTfxzjJbIe7p9+/+n51UV4RHe52yH0298z+wLkJUqnUvP7z7AS4BBcuG70c/yf4/UFJcUnW0+nHA8ZrX1Ndg2uZjwnI8JNffoqUjfD7g7gPBkR+vaB1+v0vlpwd+1Lay2+HsS/2TH8pt+F+f3Bq8yHn+8BT3xx0eMVuXI7EQaK6CyODXe3qquoVfWc7CRjs3MCN81dRkJOG4cGuL6nU9ilrhj+T7SQY9VyOcdM3wu/vhOHPdN40eontdI6r27z/Gme/Bc+yMvr9Qdm+U2GrITTOZKTiYjkfRdjBVjIzdBIwRO6rwy2kJv3uU1TV/KbBxvwQxAl2nZtdCiGEEEIIIYQQQgjxJNAG/f7bF27/MN7vz91pjJsbVFVWbZ2/bcBrAzs8lXbEd/5e9tC3hm5bsN12oxvuVtxd8PmCns/1ooMboRF+f1BTU7Nr6S5TaE777l8OnB/2lVffr14zaS3OIk3v5/N2LNqBC+maT/b7m938jdceQNKlI5cyt47f7TT8P/KPbDlyeu9ppGmc3x9cPHlxes6Mbv+Wg6s6tMtCJWf3Lio7diG8k0/r3OcHXCw5O+vd4fSGF7ySt37YgjvXbyFZo53IZ7YfnfrmoOHPdB71XM6az+bdq7jLy233Ky+MDE61UzU1x9fvn/23fPqI8XfqW4O2T1mDSgYp6uDr9jhrp9w//+uqO/U+NnB2+zGTG2q4rNeMqycffGqiEX5//pqBuX3ZoSC9n0/IvlACFAv1Ihk0M/kPA+wPKhCW5eP3B6jnusHzmSHCuJd6Leo2pXTXCb44DxpkMnLzQvmKPrPGvJDLPBFskzFDc8oOkX7/W1du0gW/oPPEuO8uQPPQP0uEWsa/2ndlv6Irx8qMAptdCiGEEEIIIYQQQgjxJNAG/f5CiEeA8ftHep+FEEIIIYQQQgghhBAthfz+QojGIL+/EEIIIYQQQgghhBCtE/n9hRCNQX5/IYQQQgghhBBCCCFaJ/L7CyEag/z+QgghhBBCCCGEEEK0TuT3F0I0Bvn9hRBCCCGEEEIIIYRoncjvL4QQQgghhBBCCCGEEEK0HeT3F0IIIYQQQgghhBBCCCHaDvL7CyGEEEIIIYQQQgghhBBtB/n9hRBCCCGEEEIIIYQQQoi2g/z+QgghhBBCCCGEEEIIIUTbQX5/IYQQQgghhBBCCCGEEKLtIL+/EEIIIYQQQgghhBBCCNF2kN9fCCGEEEIIIYQQQgghhGg7yO8vhBBCCCGEEEIIIYQQQrQd5PcXQgghhBBCCCGEEEIIIdoO8vsLIYQQQgghhBBCCCGEEG0H+f2FEEIIIYQQQgghhBBCiLaD/P4ilvNHzvd75ZPO38veOHtTEPVYsTR3+rB/7TTu5V5Xjpfdu135xX+OxOGMd4bevXE7SFHLsbX7EI+w54uNONw6cSX+H/lct9Kdx5lACCGEEEIIIYQQQgghHiPk92877F+zf/AbQ9ZMWhscN5lVhas+/PZHCCP+MrLydmUQ+/iweuDcYf/aacJrn1Rcum78/viL/4MUtZzacij/R11w6tjafTik33/0Cz0uHDjDBEIIIYQQQgghhBBCCPEY0Zb9/ncr7i74fEHP53p9+O2POjyVNeC1gVvnb6uqrApOPyZcPHlxdu+iQIp2WX1e6rto2KIbl24Epy2mdZuONKsKVwXHTeZxf9+fHnz6/XHI1//Dfv8LB86MfqGH8fvz9X/5/YUQQgghhBBCCCGEEI8pbdbvf2b/mdxnc/m6uh3G/OfYuxV3g0Stm1QqVTy9uON3OzkiIES+gN/sfv/HHfr9zcY+9Psv6T4VmmUCQr+/2diHfv/xr/aruFjOBEIIIYQQQgghhBBCCPEY0Tb9/uUXyvv/esCH3/5o1LujLp++nEqlKm9XrixYSR/6vP7zEBMkbcWcP3o+p333Du2yivp8cf3iDdb51rVbX3+5dVq36fL7Z+Tgom3DrBf8ue3P0tzpPGu4fvZK4S/zzAv+3PbH/EpACCGEEEIIIYQQQgghHi/apt9/yYilH377o8FvDLlVfiuIqmXNpLUd2mX1+EnuheMXcFh5u3LEX0Yi5f41+5mA4BCR07rVcxCnUqlj248N/498Pjzo+Vyv5WNWOM73MwfOdv1hV15YduxC/jsjOjyVhfSTOk6+efkm05zcfTL7+11MHWyO7zjR6V869//1gJtX0onXTlqLgoa/nV95y3XxG25cutHnxT5IFhdsKSjXqsJVkOXIliMDXhsIbXT+Xva8AV/aglAKO5PIZwkmN1y7YPDCnPbdcYi/qyesDm+mdPnMlek5M1CWydMER/lg/fr1//zP//ynP/3p5s1AaY2Db+4bvz9f/w/7/SsuXZ/w2ifG78/X/+X3F0IIIYQQQgghhBBCPKa0Qb//7Rt3Br8x5MNvf7R94fYgqo6bV27ydwA85e/3T6VS6WcGT2Uh3g6j3h1l7xpEj/nIv4zcMneLsz/P6L+PoW+9qrJqzHtjEVM8vZhXGRYOXYT4JSOW8pB+/8//MPjWtXpPL2wa4fefnjNjZcHKDu3qyVKUV1RTXcNkDfL7j/zrKGrbDouHL7Z/UXF672k+FYgMjvIrKyvffvvtb9Uybdq0IFYIIYQQQgghhBBCCCGEH23Q719aUtrtmRwE/BNE1VFTXTOxw8QPv/3RwqGLcOjv9z++43j297t0/WHXbQu2V9+vrqmpKT1YOuj1z5HM9nHTY571nY87tMvq98onhzYdRsoTu07mtO+e9fTHhzcfZrLtC7fjwjHvjbXfi7917daA3wzE5ciEMSiC7vJR7466UnqVkQmgwkicsM8P5WL1Br8x5Nzhc6jeziW7On63U+TvD0BCnswNAbnN6z8PyoQ4S/KX4LDvy/34kwVgnnNMzZ7KSPzF/4gp+Edh+JcB8vsLIYQQQgghhBBCCCFEU2iDfv/Dmw9nPf1xnxf73Lh0I4iymJk768M6n76n37+mumZypykd2mVtW1DvBwSXTl3KfbbngN8MNO/jmzflB7w28Nq5a4xMpVLTc2Ygcu2ktYy5Uno174U828UPSopLUG3nYcCeFXu4N06Hp7JG/W00KlZ9vzo4F8LT749gf9yYSoB0B4sPMsYmo98fF64av9o8+bh+8Xqfl/raol04fqHHT3Ihb/mFB5/Jxf+I6fnTXlfOXgmiLJprnx8hhBBCCCGEEEIIIYR4AmmDfn/6o+P8/qsKV+Fsg/z+N6/c7PtyP8dzDXi57eOm3z/32Z6XTl1iDGGhxnueSqXm9J0TjunQLmvn4p2MMUCKL/rOMbsG5TzTff304vBr8sDT7x/eOIgXOkogGf3+zucHwjqJ9PtfOXul5097xfn9hRBCCCGEEEIIIYQQQjSaJ87v34j3/blxEGIiQ9jvH1e0DT/hO/StoXzvnh8eMF/0DYOqbluwfcBrA1mo/cK+wdPvD5GRWxCViYx+fye3sN8f9YSYSGn2+SkvK5/UcTJinB83CCGEEEIIIYQQQgghhGg6bdDvT+d78v7+K8auwKGn358ZIiYyNM7vT2949ve7nNx9Eof7Vu/v0C7LfNE3jlQqhZSsTNgX3zr9/gB1zvrOx0hsh5z23U/vPR2kEEIIIYQQQgghhBBCCNFMtEG/P/eO//DbH21fWG87fsCN9Tu0y9q3Ou3oj/P771mxB5HG73/j0o0+L/bx8eb7+/1B8fRilLJw6CJ+PyCnfffzR88H5xLBJbhw3Pvj7lfeD6JqaZ1+/1vltwa/MSTv530mZk3itwrwd1bPWeVl9TZNEkIIIYQQQgghhBBCCNEstEG/P93oH377o/x3Rtib4aRSqZUFKxFvttO5X3l/3PvjEGM/ITiz/0zus7mINH5/Jst6+uOS4hLGxNEgvz/3uEdlTu4+mfdCXtiPHwf9/lOzp5qv6RJuYYSzwXGIFvH786cM/IGFJ/qurxBCCCGEEEIIIYQQQjSaNuj3B4c2HeaHcAs/GH/59OVUKnW34u7KgpWI7NAua+OsjUG6b76Z+8lcJBv61tDysvKampqS4hI6/RGM3x9sW7AdF3b9YddNRZv5UVwkvnzmyopxK78a9BXTgAb5/fl8AtmO/MtI/A1/0Rc5I/9Lpy5V369mDIounl7c+XvZkek3zt6Eaue0735g3QFziU2L+P1Zq/x3Rlw4fqHiagX0xvg4Kisr33777W/VMm3atCBWCCGEEEIIIYQQQgghhB9t0++fSqVWjV/doV3Wh/X3lEfM/M++sn3ipQdLc9p3t9N0/l420nT5QVfb749LZvWcbSczwU7WIL8/KCkuyXo6vfF95Bd96XMPB0hRlFcU9uyXXyhHPk5iu3qefv9VhavsHOxgi+bp979y9krez/vYmTD0fK7Xgs8XhL9OLL+/EEIIIYQQQgghhBBCNIW26fcHqVTq2PZjQ/99WIen0t5//MX/iHH2xgHHth0b8NrADu2ykGbMf44tO3aB7nvbYw5qamoOrDsw/D/y+UsC/B34u8/WTFp7qzz9+j9pqN//9o07g98Ygtzm9J0TrhhyXjd1/dC3hnJbfITuP+oxudOUU3tOhROT8rLyWT1ndfu3HKZHaHG/f/X96gWDFyIlapX38z523RBGvTsq7PrXPj9CCCGEEEIIIYQQQgjRaNqs39/Aj/Qu+HxBnK+8Bbl55Wb/Xw/I/n6Xk7tPBlFtjjWT1nZolzXyr6NuX78dRNU9ROn6w65ZT398ePPhIFYIIYQQQgghhBBCCCFEk2n7fv8Lxy/0+Elux+922lS0ufp+NcLB4oNTOk8Nv2b+iEmlUouHL/7w2x9N7jSlpjrDrvePKXz9HzLuWroriKqj/EJ53gt5HdplwRxBlBBCCCGEEEIIIYQQQogm0/b9/qmovf4HvDbw2rlrQYqW4Fb5ra8GfYVa5T6bW3a0LIhtc9y7c2/Uu6Og8EGvf3724Fl+k6Cmpub8kfPj3h+H+E9++Wl5WTkTCyGEEEIIIYQQQgghhGg6bd/vD2pqanYt3fXpr/t3aJfV8budZvaYefNyi20cb++e3/l72XtW7AlOtFF2L9/DLyKEQ9cfdj2w7kCQTgghhBBCCCGEEEIIIURz8ET4/VsV9Pt3/l52wT8Kyo5dCGLbNBdPXpyeMyP32Z781UWHp7L6vfLJomGLPL9+LIQQQgghhBBCCCGEEMIf+f2FEEIIIYQQQgghhBBCiLaD/P5CCCGEEEIIIYQQQgghRNtBfn8hhBBCCCGEEEIIIYQQou0gv78QQgghhBBCCCGEEEII0XaQ318IIYQQQgghhBBCCCGEaDvI7y+EEEIIIYQQQgghhBBCtBW++eb/D9Mx7G6VPS8HAAAAAElFTkSuQmCC;" vertex="1" parent="1">
          <mxGeometry x="-791" y="74" width="2427.47" height="952" as="geometry" />
        </mxCell>
        <mxCell id="KSPsMHYclhgwiSTDB3hw-2" value="" style="rounded=1;whiteSpace=wrap;html=1;labelBackgroundColor=none;fillColor=none;" vertex="1" parent="1">
          <mxGeometry x="-743" y="306" width="1229" height="236" as="geometry" />
        </mxCell>
        <mxCell id="KSPsMHYclhgwiSTDB3hw-3" value="User interacted component state and subcomponent states" style="text;html=1;align=center;verticalAlign=middle;whiteSpace=wrap;rounded=0;fontSize=30;fontStyle=1" vertex="1" parent="1">
          <mxGeometry x="625" y="270" width="545" height="30" as="geometry" />
        </mxCell>
        <mxCell id="KSPsMHYclhgwiSTDB3hw-4" value="" style="endArrow=classic;html=1;rounded=0;exitX=1;exitY=0.5;exitDx=0;exitDy=0;labelBackgroundColor=none;curved=1;sketch=1;curveFitting=1;jiggle=2;" edge="1" parent="1" source="KSPsMHYclhgwiSTDB3hw-2">
          <mxGeometry width="50" height="50" relative="1" as="geometry">
            <mxPoint x="512" y="565" as="sourcePoint" />
            <mxPoint x="789" y="315" as="targetPoint" />
          </mxGeometry>
        </mxCell>
        <mxCell id="KSPsMHYclhgwiSTDB3hw-5" value="" style="rounded=1;whiteSpace=wrap;html=1;labelBackgroundColor=none;fillColor=none;" vertex="1" parent="1">
          <mxGeometry x="-743" y="737" width="1297" height="87" as="geometry" />
        </mxCell>
        <mxCell id="KSPsMHYclhgwiSTDB3hw-6" value="Action handler c# method arguments" style="text;html=1;align=center;verticalAlign=middle;whiteSpace=wrap;rounded=0;fontSize=30;fontStyle=1" vertex="1" parent="1">
          <mxGeometry x="492" y="645" width="545" height="30" as="geometry" />
        </mxCell>
        <mxCell id="KSPsMHYclhgwiSTDB3hw-7" value="" style="endArrow=classic;html=1;rounded=0;labelBackgroundColor=none;curved=1;sketch=1;curveFitting=1;jiggle=2;entryX=0;entryY=0.5;entryDx=0;entryDy=0;" edge="1" parent="1" source="KSPsMHYclhgwiSTDB3hw-5" target="KSPsMHYclhgwiSTDB3hw-6">
          <mxGeometry width="50" height="50" relative="1" as="geometry">
            <mxPoint x="496" y="434" as="sourcePoint" />
            <mxPoint x="799" y="325" as="targetPoint" />
          </mxGeometry>
        </mxCell>
        <mxCell id="KSPsMHYclhgwiSTDB3hw-8" value="" style="rounded=1;whiteSpace=wrap;html=1;labelBackgroundColor=none;fillColor=none;" vertex="1" parent="1">
          <mxGeometry x="-747" y="830" width="1706" height="87" as="geometry" />
        </mxCell>
        <mxCell id="KSPsMHYclhgwiSTDB3hw-9" value="Action handler c# method name" style="text;html=1;align=center;verticalAlign=middle;whiteSpace=wrap;rounded=0;fontSize=30;fontStyle=1" vertex="1" parent="1">
          <mxGeometry x="476" y="950" width="545" height="30" as="geometry" />
        </mxCell>
        <mxCell id="KSPsMHYclhgwiSTDB3hw-10" value="" style="endArrow=classic;html=1;rounded=0;labelBackgroundColor=none;curved=1;sketch=1;curveFitting=1;jiggle=2;" edge="1" parent="1" source="KSPsMHYclhgwiSTDB3hw-8">
          <mxGeometry width="50" height="50" relative="1" as="geometry">
            <mxPoint x="145" y="1038" as="sourcePoint" />
            <mxPoint x="475" y="961" as="targetPoint" />
            <Array as="points">
              <mxPoint x="405" y="961" />
            </Array>
          </mxGeometry>
        </mxCell>
      </root>
    </mxGraphModel>
  </diagram>
</mxfile>
